<svg xmlns="http://www.w3.org/2000/svg" xmlns:xlink="http://www.w3.org/1999/xlink" width="721" height="320.194" viewBox="0 0 721 320.194">
  <defs>
    <clipPath id="clip-path">
      <rect id="長方形_2" data-name="長方形 2" width="185.165" height="186.776" transform="translate(0 5684.73)" fill="none"/>
    </clipPath>
    <filter id="楕円形_1" x="66.208" y="191.402" width="109.232" height="109.232" filterUnits="userSpaceOnUse">
      <feOffset dx="5.9" dy="5.9" input="SourceAlpha"/>
      <feGaussianBlur result="blur"/>
      <feFlood flood-color="#231815" flood-opacity="0.502"/>
      <feComposite operator="in" in2="blur"/>
      <feComposite in="SourceGraphic"/>
    </filter>
    <filter id="楕円形_3" x="-54.694" y="99.142" width="109.232" height="109.232" filterUnits="userSpaceOnUse">
      <feOffset dx="5.9" dy="5.9" input="SourceAlpha"/>
      <feGaussianBlur result="blur-2"/>
      <feFlood flood-color="#231815" flood-opacity="0.502"/>
      <feComposite operator="in" in2="blur-2"/>
      <feComposite in="SourceGraphic"/>
    </filter>
    <filter id="楕円形_5" x="-24.2" y="183" width="109.232" height="109.232" filterUnits="userSpaceOnUse">
      <feOffset dx="5.9" dy="5.9" input="SourceAlpha"/>
      <feGaussianBlur result="blur-3"/>
      <feFlood flood-color="#231815" flood-opacity="0.502"/>
      <feComposite operator="in" in2="blur-3"/>
      <feComposite in="SourceGraphic"/>
    </filter>
    <clipPath id="clip-path-2">
      <rect id="長方形_3" data-name="長方形 3" width="259.199" height="259.199" transform="translate(460.801 5612.307)" fill="none"/>
    </clipPath>
    <filter id="楕円形_7" x="554.473" y="199.352" width="109.232" height="109.232" filterUnits="userSpaceOnUse">
      <feOffset dx="5.9" dy="5.9" input="SourceAlpha"/>
      <feGaussianBlur result="blur-4"/>
      <feFlood flood-color="#231815" flood-opacity="0.502"/>
      <feComposite operator="in" in2="blur-4"/>
      <feComposite in="SourceGraphic"/>
    </filter>
    <filter id="楕円形_9" x="665.728" y="114.388" width="109.232" height="109.232" filterUnits="userSpaceOnUse">
      <feOffset dx="5.9" dy="5.9" input="SourceAlpha"/>
      <feGaussianBlur result="blur-5"/>
      <feFlood flood-color="#231815" flood-opacity="0.502"/>
      <feComposite operator="in" in2="blur-5"/>
      <feComposite in="SourceGraphic"/>
    </filter>
    <filter id="楕円形_11" x="633.328" y="196.341" width="109.232" height="109.232" filterUnits="userSpaceOnUse">
      <feOffset dx="5.9" dy="5.9" input="SourceAlpha"/>
      <feGaussianBlur result="blur-6"/>
      <feFlood flood-color="#231815" flood-opacity="0.502"/>
      <feComposite operator="in" in2="blur-6"/>
      <feComposite in="SourceGraphic"/>
    </filter>
    <filter id="楕円形_13" x="604.236" y="146.472" width="41.612" height="41.612" filterUnits="userSpaceOnUse">
      <feOffset dx="2.248" dy="2.248" input="SourceAlpha"/>
      <feGaussianBlur result="blur-7"/>
      <feFlood flood-color="#231815" flood-opacity="0.502"/>
      <feComposite operator="in" in2="blur-7"/>
      <feComposite in="SourceGraphic"/>
    </filter>
    <filter id="楕円形_15" x="565.39" y="145.451" width="22.612" height="22.612" filterUnits="userSpaceOnUse">
      <feOffset dx="1.221" dy="1.221" input="SourceAlpha"/>
      <feGaussianBlur result="blur-8"/>
      <feFlood flood-color="#231815" flood-opacity="0.502"/>
      <feComposite operator="in" in2="blur-8"/>
      <feComposite in="SourceGraphic"/>
    </filter>
    <filter id="楕円形_17" x="84.45" y="134.379" width="41.612" height="41.612" filterUnits="userSpaceOnUse">
      <feOffset dx="2.248" dy="2.248" input="SourceAlpha"/>
      <feGaussianBlur result="blur-9"/>
      <feFlood flood-color="#231815" flood-opacity="0.502"/>
      <feComposite operator="in" in2="blur-9"/>
      <feComposite in="SourceGraphic"/>
    </filter>
    <filter id="楕円形_19" x="137.703" y="165.552" width="22.612" height="22.612" filterUnits="userSpaceOnUse">
      <feOffset dx="1.221" dy="1.221" input="SourceAlpha"/>
      <feGaussianBlur result="blur-10"/>
      <feFlood flood-color="#231815" flood-opacity="0.502"/>
      <feComposite operator="in" in2="blur-10"/>
      <feComposite in="SourceGraphic"/>
    </filter>
  </defs>
  <g id="グループ_443" data-name="グループ 443" transform="translate(0.5 -5612.307)">
    <g id="グループ_8" data-name="グループ 8">
      <g id="グループ_7" data-name="グループ 7" clip-path="url(#clip-path)">
        <g id="グループ_2" data-name="グループ 2">
          <g transform="matrix(1, 0, 0, 1, -0.5, 5612.31)" filter="url(#楕円形_1)">
            <circle id="楕円形_1-2" data-name="楕円形 1" cx="51.666" cy="51.666" r="51.666" transform="translate(66.21 191.4)" fill="#f9e842"/>
          </g>
          <path id="楕円形_2" data-name="楕円形 2" d="M45.718-1.686A47.415,47.415,0,0,1,64.17,89.4,47.415,47.415,0,0,1,27.266,2.04,47.108,47.108,0,0,1,45.718-1.686Zm0,91.435a44.044,44.044,0,0,0,17.139-84.6A44.044,44.044,0,0,0,28.579,86.29,43.755,43.755,0,0,0,45.718,89.75Z" transform="translate(71.657 5809.658)" fill="#d0a222"/>
          <g id="グループ_1" data-name="グループ 1">
            <path id="パス_1" data-name="パス 1" d="M96.575,5876.539l8.072-45.769a.958.958,0,0,1,1.186-.883l16,2.821c13.238,2.334,19.062,9.549,17.029,21.079-2.023,11.473-9.985,16.377-23.222,14.043l-5-.882-2.065,11.707a1,1,0,0,1-1.245.872l-9.942-1.753A.959.959,0,0,1,96.575,5876.539Zm29.9-25.057c.923-5.237-1.783-7.777-6.726-8.648l-4.706-.83-2.6,14.767,4.706.83C122.084,5858.472,125.506,5856.952,126.471,5851.482Z" fill="#d0a222"/>
          </g>
        </g>
        <g id="グループ_4" data-name="グループ 4">
          <g transform="matrix(1, 0, 0, 1, -0.5, 5612.31)" filter="url(#楕円形_3)">
            <circle id="楕円形_3-2" data-name="楕円形 3" cx="51.666" cy="51.666" r="51.666" transform="translate(-54.69 99.14)" fill="#f9e842"/>
          </g>
          <path id="楕円形_4" data-name="楕円形 4" d="M45.718-1.686A47.415,47.415,0,0,1,64.17,89.4,47.415,47.415,0,0,1,27.266,2.04,47.108,47.108,0,0,1,45.718-1.686Zm0,91.435a44.044,44.044,0,0,0,17.139-84.6A44.044,44.044,0,0,0,28.579,86.29,43.755,43.755,0,0,0,45.718,89.75Z" transform="translate(-49.246 5717.397)" fill="#d0a222"/>
          <g id="グループ_3" data-name="グループ 3">
            <path id="パス_2" data-name="パス 2" d="M-29.084,5778.165l19.642-42.121a.959.959,0,0,1,1.374-.546l14.726,6.867c12.183,5.681,15.942,14.157,10.994,24.768-4.923,10.557-13.883,13.235-26.066,7.555l-4.6-2.146-5.024,10.773a1,1,0,0,1-1.429.521l-9.151-4.268A.958.958,0,0,1-29.084,5778.165ZM6.279,5761.7c2.247-4.818.29-7.972-4.258-10.093l-4.331-2.019-6.337,13.59,4.331,2.018C.232,5767.315,3.931,5766.733,6.279,5761.7Z" fill="#d0a222"/>
          </g>
        </g>
        <g id="グループ_6" data-name="グループ 6">
          <g transform="matrix(1, 0, 0, 1, -0.5, 5612.31)" filter="url(#楕円形_5)">
            <circle id="楕円形_5-2" data-name="楕円形 5" cx="51.666" cy="51.666" r="51.666" transform="translate(-24.2 183)" fill="#f9e842"/>
          </g>
          <path id="楕円形_6" data-name="楕円形 6" d="M45.718-1.686A47.415,47.415,0,0,1,64.17,89.4,47.415,47.415,0,0,1,27.266,2.04,47.108,47.108,0,0,1,45.718-1.686Zm0,91.435a44.044,44.044,0,0,0,17.139-84.6A44.044,44.044,0,0,0,28.579,86.29,43.755,43.755,0,0,0,45.718,89.75Z" transform="translate(-18.752 5801.255)" fill="#d0a222"/>
          <g id="グループ_5" data-name="グループ 5">
            <path id="パス_3" data-name="パス 3" d="M17.079,5874.966,5.051,5830.073a.958.958,0,0,1,.7-1.3l15.7-4.207c12.983-3.478,21.311.6,24.341,11.908,3.015,11.252-2.128,19.062-15.111,22.541l-4.9,1.314,3.076,11.483a1,1,0,0,1-.76,1.317l-9.753,2.613A.96.96,0,0,1,17.079,5874.966Zm16.5-35.345c-1.376-5.136-4.9-6.294-9.749-5l-4.616,1.237,3.881,14.483,4.616-1.237C32.563,5847.811,35.022,5844.987,33.584,5839.621Z" fill="#d0a222"/>
          </g>
        </g>
      </g>
    </g>
    <g id="グループ_16" data-name="グループ 16">
      <g id="グループ_15" data-name="グループ 15" clip-path="url(#clip-path-2)">
        <g id="グループ_10" data-name="グループ 10">
          <g transform="matrix(1, 0, 0, 1, -0.5, 5612.31)" filter="url(#楕円形_7)">
            <circle id="楕円形_7-2" data-name="楕円形 7" cx="51.666" cy="51.666" r="51.666" transform="translate(554.47 199.35)" fill="#f9e842"/>
          </g>
          <path id="楕円形_8" data-name="楕円形 8" d="M45.718-1.686A47.415,47.415,0,0,1,64.17,89.4,47.415,47.415,0,0,1,27.266,2.04,47.108,47.108,0,0,1,45.718-1.686Zm0,91.435a44.044,44.044,0,0,0,17.139-84.6A44.044,44.044,0,0,0,28.579,86.29,43.755,43.755,0,0,0,45.718,89.75Z" transform="translate(559.922 5817.608)" fill="#d0a222"/>
          <g id="グループ_9" data-name="グループ 9">
            <path id="パス_4" data-name="パス 4" d="M595.757,5891.319l-12.029-44.892a.96.96,0,0,1,.7-1.3l15.7-4.205c12.985-3.48,21.312.6,24.342,11.907,3.016,11.252-2.128,19.063-15.111,22.541l-4.905,1.315,3.078,11.482a1,1,0,0,1-.76,1.317l-9.753,2.613A.959.959,0,0,1,595.757,5891.319Zm16.505-35.345c-1.376-5.136-4.9-6.293-9.751-4.994l-4.615,1.236,3.881,14.483,4.615-1.236C611.24,5864.164,613.7,5861.34,612.262,5855.974Z" fill="#d0a222"/>
          </g>
        </g>
        <g id="グループ_12" data-name="グループ 12">
          <g transform="matrix(1, 0, 0, 1, -0.5, 5612.31)" filter="url(#楕円形_9)">
            <circle id="楕円形_9-2" data-name="楕円形 9" cx="51.666" cy="51.666" r="51.666" transform="translate(665.73 114.39)" fill="#f9e842"/>
          </g>
          <path id="楕円形_10" data-name="楕円形 10" d="M45.718-1.686A47.415,47.415,0,0,1,64.17,89.4,47.415,47.415,0,0,1,27.266,2.04,47.108,47.108,0,0,1,45.718-1.686Zm0,91.435a44.044,44.044,0,0,0,17.139-84.6A44.044,44.044,0,0,0,28.579,86.29,43.755,43.755,0,0,0,45.718,89.75Z" transform="translate(671.176 5732.644)" fill="#d0a222"/>
          <g id="グループ_11" data-name="グループ 11">
            <path id="パス_5" data-name="パス 5" d="M691.341,5793.413l19.643-42.122a.958.958,0,0,1,1.374-.546l14.726,6.867c12.183,5.681,15.942,14.157,10.993,24.769-4.922,10.558-13.882,13.234-26.065,7.554l-4.6-2.146-5.024,10.775a1,1,0,0,1-1.429.519l-9.15-4.267A.959.959,0,0,1,691.341,5793.413Zm35.363-16.468c2.247-4.818.289-7.971-4.258-10.092l-4.331-2.02-6.336,13.59,4.331,2.018C720.658,5782.563,724.356,5781.981,726.7,5776.945Z" fill="#d0a222"/>
          </g>
        </g>
        <g id="グループ_14" data-name="グループ 14">
          <g transform="matrix(1, 0, 0, 1, -0.5, 5612.31)" filter="url(#楕円形_11)">
            <circle id="楕円形_11-2" data-name="楕円形 11" cx="51.666" cy="51.666" r="51.666" transform="translate(633.33 196.34)" fill="#f9e842"/>
          </g>
          <path id="楕円形_12" data-name="楕円形 12" d="M45.718-1.686A47.415,47.415,0,0,1,64.17,89.4,47.415,47.415,0,0,1,27.266,2.04,47.108,47.108,0,0,1,45.718-1.686Zm0,91.435a44.044,44.044,0,0,0,17.139-84.6A44.044,44.044,0,0,0,28.579,86.29,43.755,43.755,0,0,0,45.718,89.75Z" transform="translate(638.776 5814.597)" fill="#d0a222"/>
          <g id="グループ_13" data-name="グループ 13">
            <path id="パス_6" data-name="パス 6" d="M674.614,5888.307l-12.03-44.893a.959.959,0,0,1,.7-1.3l15.694-4.206c12.984-3.478,21.312.6,24.344,11.908,3.014,11.252-2.129,19.063-15.114,22.542l-4.9,1.314,3.076,11.482a1,1,0,0,1-.761,1.317l-9.752,2.613A.958.958,0,0,1,674.614,5888.307Zm16.5-35.345c-1.376-5.136-4.9-6.293-9.75-4.994l-4.615,1.236,3.881,14.484,4.615-1.237C690.1,5861.152,692.555,5858.328,691.117,5852.962Z" fill="#d0a222"/>
          </g>
        </g>
      </g>
    </g>
    <g id="グループ_18" data-name="グループ 18">
      <g transform="matrix(1, 0, 0, 1, -0.5, 5612.31)" filter="url(#楕円形_13)">
        <circle id="楕円形_13-2" data-name="楕円形 13" cx="19.682" cy="19.682" r="19.682" transform="translate(604.24 146.47)" fill="#f9e842"/>
      </g>
      <path id="楕円形_14" data-name="楕円形 14" d="M17.416-.642a18.063,18.063,0,0,1,7.029,34.7A18.063,18.063,0,0,1,10.387.777,17.946,17.946,0,0,1,17.416-.642Zm0,34.832A16.774,16.774,0,0,0,29.277,5.555,16.774,16.774,0,0,0,5.555,29.277,16.664,16.664,0,0,0,17.416,34.19Z" transform="translate(606.002 5761.045)" fill="#d0a222"/>
      <g id="グループ_17" data-name="グループ 17">
        <path id="パス_7" data-name="パス 7" d="M615.517,5786.537l3.073-17.431a.364.364,0,0,1,.452-.336l6.094,1.074c5.042.888,7.261,3.637,6.486,8.028-.77,4.369-3.8,6.236-8.844,5.348l-1.905-.336-.786,4.459a.381.381,0,0,1-.473.332l-3.788-.668A.364.364,0,0,1,615.517,5786.537Zm11.386-9.544c.351-1.994-.68-2.961-2.562-3.293l-1.793-.315-.991,5.623,1.793.316C625.232,5779.656,626.535,5779.077,626.9,5776.993Z" fill="#d0a222"/>
      </g>
    </g>
    <g id="グループ_20" data-name="グループ 20">
      <g transform="matrix(1, 0, 0, 1, -0.5, 5612.31)" filter="url(#楕円形_15)">
        <circle id="楕円形_15-2" data-name="楕円形 15" cx="10.695" cy="10.695" r="10.695" transform="translate(565.39 145.45)" fill="#f9e842"/>
      </g>
      <path id="楕円形_16" data-name="楕円形 16" d="M9.464-.349A9.813,9.813,0,1,1-.349,9.464,9.824,9.824,0,0,1,9.464-.349Zm0,18.928A9.115,9.115,0,1,0,.349,9.464,9.125,9.125,0,0,0,9.464,18.579Z" transform="translate(566.121 5758.99)" fill="#d0a222"/>
      <g id="グループ_19" data-name="グループ 19">
        <path id="パス_8" data-name="パス 8" d="M573.588,5774.271l-2.489-9.289a.2.2,0,0,1,.144-.269l3.248-.87c2.686-.72,4.41.124,5.037,2.464s-.441,3.943-3.126,4.663l-1.015.271.637,2.376a.209.209,0,0,1-.158.273l-2.018.541A.2.2,0,0,1,573.588,5774.271Zm3.413-7.314c-.285-1.062-1.013-1.3-2.016-1.033l-.954.256.8,3,.954-.256C576.79,5768.651,577.3,5768.067,577,5766.957Z" fill="#d0a222"/>
      </g>
    </g>
    <g id="グループ_22" data-name="グループ 22">
      <g transform="matrix(1, 0, 0, 1, -0.5, 5612.31)" filter="url(#楕円形_17)">
        <circle id="楕円形_17-2" data-name="楕円形 17" cx="19.682" cy="19.682" r="19.682" transform="translate(84.45 134.38)" fill="#f9e842"/>
      </g>
      <path id="楕円形_18" data-name="楕円形 18" d="M17.416-.642a18.063,18.063,0,0,1,7.029,34.7A18.063,18.063,0,0,1,10.387.777,17.946,17.946,0,0,1,17.416-.642Zm0,34.832A16.774,16.774,0,0,0,29.277,5.555,16.774,16.774,0,0,0,5.555,29.277,16.664,16.664,0,0,0,17.416,34.19Z" transform="translate(86.216 5748.953)" fill="#d0a222"/>
      <g id="グループ_21" data-name="グループ 21">
        <path id="パス_9" data-name="パス 9" d="M95.73,5774.444l3.073-17.43a.366.366,0,0,1,.453-.336l6.094,1.074c5.041.889,7.26,3.637,6.485,8.028-.77,4.369-3.8,6.237-8.844,5.348l-1.9-.336-.786,4.459a.382.382,0,0,1-.474.332l-3.787-.668A.365.365,0,0,1,95.73,5774.444Zm11.386-9.543c.351-1.994-.679-2.961-2.561-3.293l-1.793-.316-.991,5.624,1.793.316C105.446,5767.564,106.748,5766.985,107.116,5764.9Z" fill="#d0a222"/>
      </g>
    </g>
    <g id="グループ_24" data-name="グループ 24">
      <g transform="matrix(1, 0, 0, 1, -0.5, 5612.31)" filter="url(#楕円形_19)">
        <circle id="楕円形_19-2" data-name="楕円形 19" cx="10.695" cy="10.695" r="10.695" transform="translate(137.7 165.55)" fill="#f9e842"/>
      </g>
      <path id="楕円形_20" data-name="楕円形 20" d="M9.464-.349A9.813,9.813,0,1,1-.349,9.464,9.824,9.824,0,0,1,9.464-.349Zm0,18.928A9.115,9.115,0,1,0,.349,9.464,9.125,9.125,0,0,0,9.464,18.579Z" transform="translate(138.434 5779.09)" fill="#d0a222"/>
      <g id="グループ_23" data-name="グループ 23">
        <path id="パス_10" data-name="パス 10" d="M145.9,5794.37l-2.489-9.288a.2.2,0,0,1,.145-.268l3.247-.871c2.687-.719,4.41.124,5.037,2.464s-.441,3.944-3.128,4.663l-1.013.272.636,2.376a.207.207,0,0,1-.158.272l-2.018.541A.2.2,0,0,1,145.9,5794.37Zm3.414-7.312c-.284-1.063-1.015-1.3-2.017-1.034l-.955.256.8,3,.954-.255C149.1,5788.752,149.612,5788.168,149.314,5787.058Z" fill="#d0a222"/>
      </g>
    </g>
    <path id="前面オブジェクトで型抜き_1" data-name="前面オブジェクトで型抜き 1" d="M720,127.283H0V51.62c23.951-5.73,49.855-10.912,76.993-15.4,27.441-4.54,56.489-8.43,86.339-11.561a1869.9,1869.9,0,0,1,194.143-9.791c34.223,0,68.479.879,101.819,2.612C491.834,19.169,523.97,21.7,554.811,25c30.29,3.238,59.722,7.257,87.48,11.947,27.462,4.639,53.607,9.988,77.709,15.9v74.441Z" transform="translate(0 5804.719)" fill="#fff5e0"/>
    <path id="前面オブジェクトで型抜き_1_-_アウトライン" data-name="前面オブジェクトで型抜き 1 - アウトライン" d="M720,127.783H-.5V51.225l.384-.092C23.843,45.4,49.759,40.217,76.912,35.725c27.451-4.542,56.51-8.433,86.369-11.565a1870.411,1870.411,0,0,1,194.2-9.794c34.231,0,68.5.879,101.845,2.613,32.548,1.692,64.694,4.222,95.544,7.52,30.3,3.239,59.743,7.26,87.51,11.951,27.473,4.641,53.63,9.993,77.745,15.906l.381.093v75.333Zm-719.5-1h719V53.233c-23.986-5.87-49.987-11.185-77.292-15.8-27.748-4.688-57.17-8.706-87.45-11.943-30.832-3.3-62.959-5.825-95.489-7.516-33.331-1.733-67.579-2.611-101.793-2.611a1869.387,1869.387,0,0,0-194.091,9.789c-29.839,3.13-58.878,7.019-86.31,11.557C50.089,41.176,24.33,46.324.5,52.014Z" transform="translate(0 5804.719)" fill="rgba(0,0,0,0)"/>
  </g>
</svg>
