<svg xmlns="http://www.w3.org/2000/svg" width="470.174" height="27.766" viewBox="0 0 470.174 27.766">
  <g id="グループ_39" data-name="グループ 39" transform="translate(-122.103 -5943.493)">
    <path id="パス_287" data-name="パス 287" d="M129.345,5968.884c-4.15,0-7.242-3.264-7.242-8.474,0-5.382,3.75-8.587,7.271-8.587a6.572,6.572,0,0,1,4.723,1.717l-.229-2.433.029-5.467h5.124v22.9h-4.094l-.429-1.517h-.115A6.608,6.608,0,0,1,129.345,5968.884Zm1.489-4.18a3.552,3.552,0,0,0,3.063-1.431v-6.3a5.476,5.476,0,0,0-3.178-.974c-1.717,0-3.377,1.317-3.377,4.323C127.342,5963.416,129.031,5964.7,130.834,5964.7Z" fill="#d70019"/>
    <path id="パス_288" data-name="パス 288" d="M155.361,5958.407a49.869,49.869,0,0,1-5.525,8.043l-3.75-2.547a29.143,29.143,0,0,0,5.324-7.357Zm6.67-3.893v13c0,1.746-1.088,2.919-3.292,2.919a40.335,40.335,0,0,1-4.982-.257l-.429-4.266a18.227,18.227,0,0,0,3.121.316c.715,0,.972-.23,1-.974.029-.8.029-9.218.029-10.734h-6.87c-.859,0-2.118.028-2.949.114v-4.551a25.954,25.954,0,0,0,2.949.229h6.87v-1.918a18.26,18.26,0,0,0-.258-2.748h5.124a20.27,20.27,0,0,0-.314,2.777v1.889h6.87a3.433,3.433,0,1,1,.972-.057c.544-.059,1.032-.086,1.4-.143v4.522c-.974-.086-2.234-.114-3.064-.114Zm5.81,1.889a70.618,70.618,0,0,1,4.866,7.557l-4.064,2.232a60.053,60.053,0,0,0-4.58-7.728Zm1.374-8.1a1.4,1.4,0,1,0-1.4-1.4A1.4,1.4,0,0,0,169.215,5948.3Z" fill="#d70019"/>
    <path id="パス_289" data-name="パス 289" d="M192.111,5965.878a21.282,21.282,0,0,0,.286,4.15h-5.5a38.785,38.785,0,0,0,.228-4.15v-8.616a52.342,52.342,0,0,1-9.36,3.606l-2.462-4.207a42.074,42.074,0,0,0,13.14-5.153,29.721,29.721,0,0,0,7.47-6.526l3.722,3.349a48.789,48.789,0,0,1-7.528,6.125Z" fill="#d70019"/>
    <path id="パス_290" data-name="パス 290" d="M216.121,5961.842a27.661,27.661,0,0,0,10.936-11.45l2.69,4.894a30.963,30.963,0,0,1-11.134,10.85,30.565,30.565,0,0,1-10.248,3.778l-2.949-4.58A29.417,29.417,0,0,0,216.121,5961.842Zm.974-9.36-3.55,3.634a59.652,59.652,0,0,0-7.184-6.268l3.292-3.521A57.729,57.729,0,0,1,217.1,5952.482Z" fill="#d70019"/>
    <path id="パス_291" data-name="パス 291" d="M254.389,5962.414a89.545,89.545,0,0,0-9.848-4.093v7.357c0,.772.172,3.034.316,4.322h-5.44a32.039,32.039,0,0,0,.344-4.322v-16.345a19.938,19.938,0,0,0-.344-3.723h5.41a34.192,34.192,0,0,0-.286,3.723v3.921a94.5,94.5,0,0,1,11.823,4.323Z" fill="#d70019"/>
    <path id="パス_292" data-name="パス 292" d="M268.7,5946.47a27.826,27.826,0,0,0-.8,2.89,73.61,73.61,0,0,0-1.346,10.106,5.406,5.406,0,0,0,.028.658c.373-.8.716-1.374,1.088-2.176l2.09,1.632a73.167,73.167,0,0,0-2.06,7.3,9.063,9.063,0,0,0-.172,1.346c0,.314,0,.83.028,1.287l-3.95.258a36.139,36.139,0,0,1-1.146-9.332,80.286,80.286,0,0,1,1.118-11.165c.114-.857.314-2.146.342-3.205Zm6.7,14.14a9.562,9.562,0,0,0-.286,2.262c0,1.26,1.173,1.718,3.492,1.718a34.062,34.062,0,0,0,7.156-.744l.086,4.637a40.749,40.749,0,0,1-7.472.543c-4.952,0-7.414-1.86-7.414-4.866a17.134,17.134,0,0,1,.516-3.893Zm9.56-12.451v4.437a86.168,86.168,0,0,1-12.452,0l-.028-4.408A64.826,64.826,0,0,0,284.955,5948.159Z" fill="#d70019"/>
    <path id="パス_293" data-name="パス 293" d="M293.451,5951.565c2.062-.629,7.93-2.633,12.109-2.633,5.353,0,9.561,3.063,9.561,8.587,0,6.213-5.754,10.793-16.46,11.307l-2-4.58c7.815-.143,13.511-2.347,13.511-6.812,0-2.492-1.632-4.352-4.809-4.352-3.921,0-10.3,2.663-13.683,4.18l-1.918-4.81C290.789,5952.28,292.45,5951.852,293.451,5951.565Z" fill="#d70019"/>
    <path id="パス_294" data-name="パス 294" d="M324.677,5951.737c0,1.861,0,3.721.172,5.611.343,3.721.916,6.326,2.547,6.326,1.317,0,2.319-3.55,2.72-5.468l3.463,4.236c-1.975,5.01-3.778,6.786-6.269,6.786-3.349,0-6.125-2.864-6.927-10.621-.286-2.691-.315-5.925-.315-7.729a16.829,16.829,0,0,0-.257-3.063l5.266.057A26.6,26.6,0,0,0,324.677,5951.737Zm19.523,11.479-4.552,1.746c-.4-4.266-1.775-11.508-5.1-15.114l4.379-1.431C341.709,5951.68,343.97,5959.122,344.2,5963.216Z" fill="#d70019"/>
    <path id="パス_295" data-name="パス 295" d="M350.491,5948.388c2.663-.229,6.957-.573,12.138-1.031,2.834-.229,6.183-.4,8.244-.487l.029,4.408a35.92,35.92,0,0,0-5.439.344,7.882,7.882,0,0,0-5.7,7.358c0,4.178,3.922,5.81,8.817,6.1l-1.6,4.781c-6.326-.487-11.737-3.922-11.737-9.961a11.556,11.556,0,0,1,3.579-8.274c-2.434.258-7.414.83-10.821,1.574l-.429-4.666C348.717,5948.5,349.948,5948.444,350.491,5948.388Z" fill="#d70019"/>
    <path id="パス_296" data-name="パス 296" d="M386.44,5952.052H374.961v-3.235H386.44Zm-1.088,17.748h-5.611v1.03h-3.492V5960.9h9.1Zm-8.988-16.889h9.045V5956h-9.045Zm0,3.949h9.045v3.092h-9.045Zm8.988-8.873h-8.9V5944.9h8.9Zm-5.611,16.145v2.433H381.8v-2.433Zm22.5.887H396.23v6.24h-4.122v-6.24h-6.126v-3.778h6.126v-2.233h-4.552v-3.693h4.552v-2.147h-5.182v-3.75h2.233a22.208,22.208,0,0,0-1.545-4.007l3.348-1.231a17.826,17.826,0,0,1,1.918,4.666l-1.488.572h5.324l-1.316-.429a29.056,29.056,0,0,0,1.832-5.009l4.064,1.144c-.8,1.574-1.6,3.121-2.29,4.294h2.748v3.75H396.23v2.147H401.1v3.693H396.23v2.233h6.011Z" fill="#d70019"/>
    <path id="パス_297" data-name="パス 297" d="M414.03,5945.7c-.2,1.346-.372,3.064-.43,4.3-.143,2.977-.344,9.1-.344,12.223,0,2.719,1.575,3.578,3.493,3.578,4.409,0,7.385-2.576,9.447-5.754l3.12,3.836a15.037,15.037,0,0,1-12.6,6.612c-4.952,0-8.044-2.232-8.044-7.184,0-3.578.258-11.164.258-13.311a20.784,20.784,0,0,0-.429-4.351Z" fill="#d70019"/>
    <path id="パス_298" data-name="パス 298" d="M452.926,5948.245c-1.06.773-2.032,1.517-2.806,2.117-1.774,1.346-5.324,4.066-7.1,5.612-1.4,1.2-1.346,1.46.028,2.662,1.861,1.631,7.443,5.954,10.276,8.644L449.32,5971c-.916-1.03-1.862-2-2.778-2.948-1.574-1.632-5.638-5.124-8.215-7.328-2.891-2.491-2.719-4.208.287-6.67,2.26-1.832,5.9-4.838,7.814-6.67a20.358,20.358,0,0,0,2.49-2.692Z" fill="#d70019"/>
    <path id="パス_299" data-name="パス 299" d="M468.722,5946.384a27.312,27.312,0,0,0-.772,2.89,79.649,79.649,0,0,0-1.318,10.708,5.237,5.237,0,0,0,.029.658c.343-.83.687-1.374,1.059-2.205l2.09,1.661c-.859,2.548-1.718,5.41-2.062,7.042a8.713,8.713,0,0,0-.171,1.345c0,.315,0,.831.029,1.288l-3.865.257a32.565,32.565,0,0,1-1.173-9.074,86.614,86.614,0,0,1,1.116-11.764c.114-.859.286-2.148.315-3.207Zm16.86,21.812a32.2,32.2,0,0,0-3.034-2.576c-.372,2.662-2.118,4.322-5.84,4.322-3.978,0-6.612-1.716-6.612-4.923,0-3.177,2.6-5.209,6.556-5.209.486,0,.972.028,1.43.056-.086-1.488-.172-3.234-.2-5.009-.544.029-1.088.029-1.6.029q-2.535,0-5.068-.172l-.028-4.094a49.168,49.168,0,0,0,5.066.258c.544,0,1.06,0,1.6-.028-.029-1.318-.029-2.376-.058-2.892a13.632,13.632,0,0,0-.228-1.946h4.894a18.881,18.881,0,0,0-.172,1.889c-.028.543-.056,1.489-.086,2.663,1.432-.144,2.834-.374,4.122-.63v4.264c-1.258.172-2.662.344-4.15.459.058,2.576.2,4.609.286,6.269a17.922,17.922,0,0,1,5.439,3.664Zm-7.356-4.808a7.185,7.185,0,0,0-1.918-.258c-1.317,0-2.2.516-2.2,1.4,0,1,1,1.346,2.2,1.346,1.374,0,1.918-.744,1.918-2.29Z" fill="#d70019"/>
    <path id="パス_300" data-name="パス 300" d="M509.078,5969.4l.029-1.431H496.54c-1.088,0-2.89.086-3.922.2v-4.952c1.118.086,2.434.172,3.78.172h12.738V5952.51H496.741c-1.289,0-2.891.057-3.779.114v-4.809c1.146.115,2.748.2,3.779.2h14.6c.916,0,2.29-.058,2.72-.086-.029.686-.086,1.946-.086,2.891v14.857c0,.973.057,2.6.142,3.721Z" fill="#d70019"/>
    <path id="パス_301" data-name="パス 301" d="M541.277,5954.657c.6,0,2.118-.115,2.777-.172v4.437c-.859-.058-1.861-.114-2.691-.114h-7.071a15.084,15.084,0,0,1-7.328,11.65l-4.436-2.976c4.236-1.918,6.44-4.868,7.127-8.674h-7.5c-.86,0-1.976.056-2.748.114v-4.437c.858.086,1.8.172,2.718.172h7.73v-3.407c-2.663.2-5.468.315-7.272.344l-1.088-3.98a68.415,68.415,0,0,0,9.848-.457,28.03,28.03,0,0,0,7.128-1.775l2.834,3.808c-1.174.286-2.033.514-2.548.629-1.346.344-2.806.629-4.322.859v3.979Z" fill="#d70019"/>
    <path id="パス_302" data-name="パス 302" d="M572.273,5954.972a11.1,11.1,0,0,0-.63,1.374,20.479,20.479,0,0,1-14.485,14.14l-3.463-3.921a19.618,19.618,0,0,0,9.847-4.9,11.226,11.226,0,0,0,2.662-4.151H553.18c-.716,0-2.348.029-3.636.143V5953.2c1.317.116,2.662.2,3.636.2h13.626a6.682,6.682,0,0,0,2.4-.344Zm-20.038-8.76a27.275,27.275,0,0,0,3.206.172H566.29a31.937,31.937,0,0,0,3.378-.172v4.466c-.8-.058-2.347-.114-3.435-.114H555.441c-.973,0-2.347.028-3.206.114Z" fill="#d70019"/>
    <path id="パス_303" data-name="パス 303" d="M585.521,5965.735a3.386,3.386,0,0,1,6.756,0,3.386,3.386,0,0,1-6.756,0Zm.429-13.855-.171-4.752h6.269l-.172,4.752-1.174,9.046h-3.578Z" fill="#d70019"/>
  </g>
</svg>
