<svg xmlns="http://www.w3.org/2000/svg" xmlns:xlink="http://www.w3.org/1999/xlink" width="393.797" height="208.53" viewBox="0 0 393.797 208.53">
  <defs>
    <filter id="楕円形_50" x="9.143" y="0" width="89.405" height="89.405" filterUnits="userSpaceOnUse">
      <feOffset dx="4.829" dy="4.829" input="SourceAlpha"/>
      <feGaussianBlur result="blur"/>
      <feFlood flood-color="#231815" flood-opacity="0.502"/>
      <feComposite operator="in" in2="blur"/>
      <feComposite in="SourceGraphic"/>
    </filter>
  </defs>
  <g id="グループ_391" data-name="グループ 391" transform="translate(-162.665 -1667.871)">
    <g id="グループ_160" data-name="グループ 160">
      <rect id="長方形_20" data-name="長方形 20" width="235.714" height="47.411" rx="6.412" transform="translate(240.645 1690.276)" fill="#d70019"/>
    </g>
    <g id="グループ_193" data-name="グループ 193">
      <path id="パス_663" data-name="パス 663" d="M179.6,1790.44q0-3.489,3.488-3.489h7.436l-.184-2.57q-.276-3.534,3.3-3.81,3.579-.228,3.81,3.3l.229,3.075h9.179q3.49,0,3.489,3.489,0,3.534-3.489,3.534h-8.673l.412,6.15h8.17q3.579,0,3.58,3.58v.046q0,3.58-3.58,3.58h-7.664l.6,8.354q.276,3.534-3.3,3.809-3.58.229-3.809-3.3l-.643-8.859h-8.767q-3.58,0-3.58-3.58,0-3.625,3.58-3.626h8.262l-.412-6.15h-7.942q-3.489,0-3.488-3.489Z" fill="#d70019"/>
      <path id="パス_664" data-name="パス 664" d="M216.253,1798.793q-2.57,0-2.8-2.892,0-2.982,2.662-3.167l1.745-.045-.231-2.754q-.366-2.984,2.8-3.305,2.936-.045,3.121,2.8l.32,3.121,10.1-.23a5.981,5.981,0,0,1,5.188,2.272q1.743,2.319.458,5.761a24.593,24.593,0,0,1-2.845,4.934,20.557,20.557,0,0,1-4.178,3.97q-2.2,2.065-4.223-.321a3.335,3.335,0,0,1,.782-4.039,21.44,21.44,0,0,0,4.222-4.82q.642-1.835-.826-1.79l-7.941.276,2.066,17.716q.366,2.709-2.478,3.121a2.834,2.834,0,0,1-3.4-2.662l-2.2-18.038Z" fill="#d70019"/>
      <path id="パス_665" data-name="パス 665" d="M247.49,1782.774h7.894q3.58,0,3.58,3.581t-3.58,3.58H247.49q-3.581,0-3.581-3.58T247.49,1782.774Zm25.656,12.347a31.95,31.95,0,0,1-4.8,9.3,36.707,36.707,0,0,1-7.711,8.17q-4.155,3.144-12.277,4.934-3.168.6-4.039-2.938-.461-3.625,2.937-4.223a20.521,20.521,0,0,0,9.363-3.717,33.282,33.282,0,0,0,6.127-6.311,25.992,25.992,0,0,0,3.971-7.6q1.149-2.8,4.406-2.019Q274.2,1792.138,273.146,1795.121Z" fill="#d70019"/>
      <path id="パス_666" data-name="パス 666" d="M278.265,1800.032q1.834-3.442,3.121-5.852t2.523-4.681q1.24-2.273,1.928-3.466a5.86,5.86,0,0,1,1.815-2,4.039,4.039,0,0,1,1.629-.643c.459-.046.687-.1.687-.161a6.076,6.076,0,0,1,2.273.62,4.81,4.81,0,0,1,1.629,1.538q.552.918,2.18,3.672t3.764,6.265q2.136,3.511,4.131,6.884t4.015,6.908q2.157,3.168-.687,5.646-2.939,1.744-5.141-1.515-10.834-18.405-11.2-19.048a9.906,9.906,0,0,0-.8-1.4c-.109-.107-.222-.046-.346.184s-.335.62-.642,1.17q-.414.6-1.629,2.754t-3.74,6.885q-1.609,2.709-4.774,1.056A3.764,3.764,0,0,1,278.265,1800.032Zm23.269-16.477a5.088,5.088,0,0,1,7.184,7.206,4.947,4.947,0,0,1-3.6,1.469,5.014,5.014,0,0,1-5.049-5.049A5.03,5.03,0,0,1,301.534,1783.555Zm5.875,3.626a2.2,2.2,0,0,0-.664-1.653,2.263,2.263,0,0,0-1.63-.642,2.178,2.178,0,0,0-1.606.642,2.234,2.234,0,0,0-.643,1.653,2.2,2.2,0,0,0,2.249,2.249,2.26,2.26,0,0,0,1.63-.643A2.145,2.145,0,0,0,307.409,1787.181Z" fill="#d70019"/>
      <path id="パス_667" data-name="パス 667" d="M312.667,1799.482q0-3.581,3.58-3.581h14.045q3.58,0,3.58,3.581,0,3.625-3.58,3.625H316.247q-3.579,0-3.58-3.58Z" fill="#d70019"/>
      <path id="パス_668" data-name="パス 668" d="M340.872,1782.774h7.895q3.58,0,3.58,3.581t-3.58,3.58h-7.895q-3.579,0-3.58-3.58T340.872,1782.774Zm25.657,12.347a31.975,31.975,0,0,1-4.8,9.3,36.729,36.729,0,0,1-7.711,8.17q-4.155,3.144-12.278,4.934-3.167.6-4.039-2.938-.459-3.625,2.938-4.223a20.521,20.521,0,0,0,9.363-3.717,33.282,33.282,0,0,0,6.127-6.311,26.016,26.016,0,0,0,3.971-7.6q1.148-2.8,4.406-2.019Q367.585,1792.138,366.529,1795.121Z" fill="#d70019"/>
      <path id="パス_669" data-name="パス 669" d="M409.607,1778.552a3.995,3.995,0,0,1,3.992,3.993v31.532a11.01,11.01,0,0,1-.527,3.81,4.141,4.141,0,0,1-1.9,2.157,10.924,10.924,0,0,1-4.5,1.147h-.275a3.468,3.468,0,0,1-2.25-.826,4.8,4.8,0,0,1-1.561-2.386,3.089,3.089,0,0,1-.092-.735,2.328,2.328,0,0,1,.459-1.377,2.078,2.078,0,0,1,1.836-.964h1.286a.768.768,0,0,0,.918-.918v-7.756a.406.406,0,0,0-.459-.459h-4.682a.452.452,0,0,0-.5.459,46.945,46.945,0,0,1-2.387,11.428,2.57,2.57,0,0,1-2.019,1.744,5.859,5.859,0,0,1-.735.046,3.249,3.249,0,0,1-1.974-.642,19.614,19.614,0,0,0-1.789-1.1.723.723,0,0,0-.782,0v.046a4.183,4.183,0,0,1-2.019.551,4.338,4.338,0,0,1-1.055-.138,4.639,4.639,0,0,1-2.57-1.744,5.727,5.727,0,0,0-.506-.688,3.343,3.343,0,0,1-.734-2.066,5.666,5.666,0,0,1,.047-.734,3.2,3.2,0,0,1,1.652-2.249l.551-.322a.11.11,0,0,0-.092-.183H376.468a.046.046,0,1,0,0,.092l2.02.6a3.037,3.037,0,0,1,2.064,1.882,2.867,2.867,0,0,1,.231,1.1,2.709,2.709,0,0,1-.506,1.56,34.364,34.364,0,0,1-2.662,3.534,3.31,3.31,0,0,1-2.387,1.148h-.184a3.77,3.77,0,0,1-2.386-.826,2.5,2.5,0,0,1-1.1-2.157,2.773,2.773,0,0,1,.781-1.974,20.975,20.975,0,0,0,3.35-4.544.378.378,0,0,0-.024-.3.266.266,0,0,0-.252-.115h-2.019a2.8,2.8,0,0,1-2.088-.872,2.916,2.916,0,0,1-.85-2.112,2.9,2.9,0,0,1,2.938-2.937h.689a.364.364,0,0,0,.412-.413v-15.835a.324.324,0,0,0-.367-.367H373.9a2.961,2.961,0,0,1,0-5.921h.228a.324.324,0,0,0,.367-.367v-1.194a3.053,3.053,0,0,1,6.106,0v1.1a.405.405,0,0,0,.459.459H384.5a.405.405,0,0,0,.459-.459v-1.01a3.121,3.121,0,0,1,6.242,0v1.148a.285.285,0,0,0,.323.321,2.745,2.745,0,0,1,2.754,2.754v.413a2.747,2.747,0,0,1-2.754,2.754.285.285,0,0,0-.323.321v16.019a.244.244,0,0,0,.276.275,2.244,2.244,0,0,1,1.607.665,2.129,2.129,0,0,1,.688,1.584v.688a2.976,2.976,0,0,1-2.983,2.984H389a.178.178,0,0,0-.183.115.174.174,0,0,0,.047.206q2.432,2.754,3.763,4.5a.24.24,0,0,0,.252.115.232.232,0,0,0,.207-.161,31.786,31.786,0,0,0,1.9-8.537q.436-4.727.435-10.465v-13.4a3.995,3.995,0,0,1,3.994-3.993Zm-24.649,9.547a.405.405,0,0,0-.459-.459h-3.441a.405.405,0,0,0-.459.459v1.055a.4.4,0,0,0,.459.459H384.5a.4.4,0,0,0,.459-.459Zm-3.9,6.655a.405.405,0,0,0-.459.459v1.193a.405.405,0,0,0,.459.459H384.5a.405.405,0,0,0,.459-.459v-1.193a.405.405,0,0,0-.459-.459Zm0,7.206a.405.405,0,0,0-.459.459v1.377a.405.405,0,0,0,.459.459H384.5a.405.405,0,0,0,.459-.459v-1.377a.405.405,0,0,0-.459-.459Zm20.746-2.708a.436.436,0,0,0,.137.321.441.441,0,0,0,.322.138h4.268a.406.406,0,0,0,.459-.459v-3.718a.406.406,0,0,0-.459-.459h-4.223a.406.406,0,0,0-.459.459v.413Q401.849,1798.105,401.8,1799.252Zm5.186-14.045a.406.406,0,0,0-.459-.459h-4.223a.405.405,0,0,0-.459.459v3.442a.4.4,0,0,0,.459.459h4.223a.405.405,0,0,0,.459-.459Z" fill="#d70019"/>
      <path id="パス_670" data-name="パス 670" d="M437.445,1791.862a4,4,0,0,1-3.995,3.994h-7.48a.405.405,0,0,0-.459.459v21.572a3.374,3.374,0,0,1-6.748,0V1782.27a4,4,0,0,1,3.994-3.994H433.45a4,4,0,0,1,3.995,3.994Zm-6.381-8.261a.406.406,0,0,0-.459-.459H425.97a.405.405,0,0,0-.459.459v.688a.405.405,0,0,0,.459.459h4.635a.406.406,0,0,0,.459-.459Zm-5.553,7.022a.405.405,0,0,0,.459.459h4.635a.406.406,0,0,0,.459-.459v-.918a.406.406,0,0,0-.459-.459H425.97a.405.405,0,0,0-.459.459Zm29.7-12.347a3.995,3.995,0,0,1,3.994,3.994v31.165a11.887,11.887,0,0,1-.6,4.222,4.5,4.5,0,0,1-2.112,2.341,12.4,12.4,0,0,1-5.093,1.148h-.276a4.385,4.385,0,0,1-2.754-.964,5.924,5.924,0,0,1-1.882-2.8v-.046a.576.576,0,0,0-.6-.459h-9.914c-.184,0-.276.076-.276.23a2.092,2.092,0,0,1-.619,1.537,2.039,2.039,0,0,1-1.492.62h-.965a2.989,2.989,0,0,1-2.156-.9,2.928,2.928,0,0,1-.918-2.18v-13.862a3.995,3.995,0,0,1,3.992-3.993H444.1a3.995,3.995,0,0,1,3.994,3.993v11.658a.4.4,0,0,0,.459.459h2.615a1.262,1.262,0,0,0,.9-.252,1.183,1.183,0,0,0,.252-.849v-16.891a.407.407,0,0,0-.459-.459h-7.8A4,4,0,0,1,440.06,1792v-9.73a4,4,0,0,1,3.994-3.994ZM441.667,1803.7a.407.407,0,0,0-.459-.459h-5.049a.406.406,0,0,0-.459.459v1.056a.406.406,0,0,0,.459.459h5.049a.406.406,0,0,0,.459-.459Zm-5.967,7.8a.406.406,0,0,0,.459.459h5.049a.406.406,0,0,0,.459-.459v-1.056a.407.407,0,0,0-.459-.459h-5.049a.406.406,0,0,0-.459.459Zm16.616-27.906a.407.407,0,0,0-.459-.459h-4.866a.405.405,0,0,0-.458.459v.688a.405.405,0,0,0,.458.459h4.866a.407.407,0,0,0,.459-.459Zm-5.783,7.16a.4.4,0,0,0,.458.459h4.866a.406.406,0,0,0,.459-.459V1789.7a.407.407,0,0,0-.459-.459h-4.866a.405.405,0,0,0-.458.459Z" fill="#d70019"/>
      <path id="パス_671" data-name="パス 671" d="M488.415,1784.2a.406.406,0,0,0,.459.459h11.8a4,4,0,0,1,3.992,3.993v16.845a3.6,3.6,0,0,1-3.58,3.58h-1.605a1.985,1.985,0,0,1-1.424-.573,1.869,1.869,0,0,1-.6-1.4.2.2,0,0,0-.23-.23h-8.354a.406.406,0,0,0-.459.459v10.281a3.626,3.626,0,1,1-7.252,0V1807.33a.405.405,0,0,0-.459-.459H472.4c-.184,0-.276.077-.276.23a2.167,2.167,0,0,1-.619,1.56,2.054,2.054,0,0,1-1.539.643h-1.238a3.447,3.447,0,0,1-3.443-3.443v-17.212a4,4,0,0,1,3.994-3.993H480.7a.405.405,0,0,0,.459-.459V1780.2a3.517,3.517,0,0,1,1.057-2.547,3.6,3.6,0,0,1,5.141,0,3.522,3.522,0,0,1,1.054,2.547Zm-16.293,15.514a.406.406,0,0,0,.459.459H480.7a.405.405,0,0,0,.459-.459v-7.9a.406.406,0,0,0-.459-.459h-8.123a.406.406,0,0,0-.459.459Zm16.293,0a.406.406,0,0,0,.459.459H497a.406.406,0,0,0,.459-.459v-7.9a.406.406,0,0,0-.459-.459h-8.125a.406.406,0,0,0-.459.459Z" fill="#d70019"/>
      <path id="パス_672" data-name="パス 672" d="M511.663,1784.84q.642-2.937,4.039-2.754,2.938.046,2.754,3.3-.322,2.157-.642,6.127t-.367,8.331q.047,4.636.367,8.606t.642,6.127q.184,3.259-2.754,3.3-3.395.183-4.039-2.754-.412-2.663-.734-6.655-.322-3.948-.367-8.446v-.046q.046-4.543.367-8.491Q511.252,1787.5,511.663,1784.84Zm9.914,17.809a3.032,3.032,0,0,1,3.672-2.02q2.938.873,2.02,3.3a9.291,9.291,0,0,0-.32,2.34,3.4,3.4,0,0,0,.32,1.653,2.814,2.814,0,0,0,1.492,1.285,8.933,8.933,0,0,0,3.328.551q3.486,0,4.91-.138,3.3-.459,3.489,3.121-.091,3.489-2.938,3.856a55.879,55.879,0,0,1-5.92.413q-5.37-.138-8.17-2.639a8.4,8.4,0,0,1-2.937-6.174A15.1,15.1,0,0,1,521.577,1802.649Zm14.276-18.222q3.486,0,3.488,3.488,0,3.535-3.488,3.534H525.388q-3.489,0-3.488-3.488,0-3.534,3.488-3.534Z" fill="#d70019"/>
      <path id="パス_673" data-name="パス 673" d="M172.4,1873.785a4.776,4.776,0,0,1-4.727-3.947l-4.957-27.08a5.5,5.5,0,0,1-.047-.689,3.217,3.217,0,0,1,.782-2.065,3.086,3.086,0,0,1,2.523-1.193h.643a4.484,4.484,0,0,1,3.007,1.124,4.4,4.4,0,0,1,1.538,2.823l1.652,11.979,1.377,11.016a.144.144,0,0,0,.137.092.081.081,0,0,0,.091-.092q.918-5.232,2.067-11.016l2.8-12.484a4.171,4.171,0,0,1,1.539-2.479,4.418,4.418,0,0,1,5.507,0,4.194,4.194,0,0,1,1.538,2.479l2.89,12.484q.414,2.02,1.08,5.807t.94,5.163c0,.092.039.138.115.138s.115-.046.115-.138q.276-2.11.735-5.9t.6-5.072l1.7-11.979a4.384,4.384,0,0,1,1.538-2.823,4.479,4.479,0,0,1,3-1.124,3.222,3.222,0,0,1,2.571,1.193,3.291,3.291,0,0,1,.781,2.111,4.48,4.48,0,0,1-.047.643l-4.682,27.08a4.79,4.79,0,0,1-1.628,2.823,4.539,4.539,0,0,1-3.053,1.124h-2.57a4.771,4.771,0,0,1-3.1-1.1,4.829,4.829,0,0,1-1.721-2.8l-2.342-11.337q-.825-3.993-1.33-7.986c-.031-.092-.086-.138-.16-.138s-.115.046-.115.138q-1.011,6.2-1.377,7.986l-2.25,11.337a4.625,4.625,0,0,1-1.674,2.8,4.78,4.78,0,0,1-3.1,1.1Z" fill="#d70019"/>
      <path id="パス_674" data-name="パス 674" d="M212.351,1873.785a3.995,3.995,0,0,1-3.992-3.993V1842.8a3.995,3.995,0,0,1,3.992-3.993h14.734a3.281,3.281,0,0,1,2.432,1.032,3.49,3.49,0,0,1,0,4.911,3.278,3.278,0,0,1-2.432,1.033h-9.869a.405.405,0,0,0-.459.459v5.554a.405.405,0,0,0,.459.459h7.758a3.353,3.353,0,0,1,2.455,1.033,3.545,3.545,0,0,1,0,5,3.356,3.356,0,0,1-2.455,1.032h-7.758a.406.406,0,0,0-.459.459v6.472a.405.405,0,0,0,.459.459h10.328a3.534,3.534,0,1,1,0,7.068Z" fill="#d70019"/>
      <path id="パス_675" data-name="パス 675" d="M241.017,1873.785a3.995,3.995,0,0,1-3.994-3.993V1842.8a3.994,3.994,0,0,1,3.994-3.993h8.215q13.033,0,13.035,8.674a8.985,8.985,0,0,1-1.238,4.544,6.7,6.7,0,0,1-3.213,2.984c-.063,0-.092.038-.092.115s.029.114.092.114a8.531,8.531,0,0,1,4.427,2.846,8.25,8.25,0,0,1,1.676,5.37,9.193,9.193,0,0,1-1.859,5.829,10.351,10.351,0,0,1-4.887,3.443,21.007,21.007,0,0,1-6.932,1.055Zm4.406-21.572a.405.405,0,0,0,.459.459h3.029a6.154,6.154,0,0,0,3.9-1.033,3.523,3.523,0,0,0,1.285-2.914,3,3,0,0,0-1.262-2.685,7.15,7.15,0,0,0-3.924-.85h-3.029a.406.406,0,0,0-.459.459Zm0,14.687a.4.4,0,0,0,.459.459H249.6q6.15,0,6.15-4.5a3.337,3.337,0,0,0-1.492-3.052,8.96,8.96,0,0,0-4.658-.941h-3.717a.406.406,0,0,0-.459.459Z" fill="#d70019"/>
      <path id="パス_676" data-name="パス 676" d="M271.425,1851.8h-1.01q-3.674,0-3.672-3.672t3.672-3.672h1.01v-2.983q0-3.443,3.441-3.443,3.49,0,3.489,3.443v2.983h8.767v-3.167q0-3.442,3.442-3.442,3.489,0,3.488,3.442v3.167h1.24q3.672,0,3.672,3.672t-3.672,3.672h-1.24v6.426a16.123,16.123,0,0,1-2.019,8.055,16.479,16.479,0,0,1-5.417,5.462,26.132,26.132,0,0,1-8.353,3.327q-3.443.6-4.223-2.57-.551-3.672,2.342-4.131a17.5,17.5,0,0,0,6.2-2.3,13.711,13.711,0,0,0,3.168-3.213,8.068,8.068,0,0,0,1.377-4.635V1851.8h-8.767v6.747q0,3.443-3.442,3.442-3.489,0-3.488-3.442Z" fill="#d70019"/>
      <path id="パス_677" data-name="パス 677" d="M330.382,1843.125a53.156,53.156,0,0,1-3.236,4.544q-1.582,1.974-3.877,4.59v20.516q0,3.625-3.627,3.626t-3.625-3.626v-14.917a53.478,53.478,0,0,1-9.5,5.83,2.947,2.947,0,0,1-4.223-1.286q-1.147-3.808,1.653-5.14a42.889,42.889,0,0,0,6.31-3.282,42.455,42.455,0,0,0,7.414-5.967,38.2,38.2,0,0,0,6.471-8.376q1.467-2.295,4.773-1.1Q332.033,1840.462,330.382,1843.125Z" fill="#d70019"/>
      <path id="パス_678" data-name="パス 678" d="M337.429,1841.335q0-3.625,3.625-3.626t3.627,3.626v8.767h15.7q3.581,0,3.58,3.58,0,3.625-3.58,3.626h-15.7v15.238q0,3.625-3.627,3.626t-3.625-3.626Z" fill="#d70019"/>
      <path id="パス_679" data-name="パス 679" d="M394.23,1839.912a3.2,3.2,0,0,1,3.4,2.846q.366,3.166-1.744,3.993a29.312,29.312,0,0,0-5.668,2.685,21.745,21.745,0,0,0-5.371,4.406,12.8,12.8,0,0,0-2.869,4.889,6.933,6.933,0,0,0,.139,4.98,5.971,5.971,0,0,0,2.685,2.708,8.47,8.47,0,0,0,3.19.94q1.833.093,4.773-.045,3.3-.138,3.4,3.534-.094,3.855-3.4,3.809-3.261,0-5.324-.137a18.374,18.374,0,0,1-4.5-.9,13.856,13.856,0,0,1-4.658-2.5,10.808,10.808,0,0,1-3.213-4.544,14.377,14.377,0,0,1-.621-7.022,17.151,17.151,0,0,1,1.767-5.279,19.76,19.76,0,0,1,2.754-3.97,26.8,26.8,0,0,1,2.547-2.5,7.4,7.4,0,0,1,1.148-.872H371.648q-3.489,0-3.489-3.489,0-3.534,3.489-3.534Zm-4.131,11.567a1.379,1.379,0,0,1,1.56-1.561,1.4,1.4,0,0,1,1.606,1.561v3.488a1.379,1.379,0,0,1-1.561,1.56,1.4,1.4,0,0,1-1.605-1.56Zm4.957,0a1.379,1.379,0,0,1,1.56-1.561,1.4,1.4,0,0,1,1.606,1.561v3.488a1.379,1.379,0,0,1-1.561,1.56,1.4,1.4,0,0,1-1.605-1.56Z" fill="#d70019"/>
      <path id="パス_680" data-name="パス 680" d="M403.066,1843.814q0-3.58,3.58-3.581H427.9q3.58,0,3.58,3.581,0,3.625-3.58,3.626H421.15v19.185h7.711q3.579,0,3.58,3.58,0,3.627-3.58,3.626H405.82q-3.58,0-3.58-3.58,0-3.625,3.58-3.626h7.847V1847.44h-7.021q-3.58,0-3.58-3.581Z" fill="#d70019"/>
      <path id="パス_681" data-name="パス 681" d="M439.349,1839.774h7.894q3.58,0,3.581,3.581t-3.581,3.58h-7.894q-3.58,0-3.58-3.58T439.349,1839.774Zm25.658,12.347a31.95,31.95,0,0,1-4.8,9.3,36.706,36.706,0,0,1-7.711,8.17q-4.153,3.144-12.277,4.934-3.166.6-4.039-2.938-.461-3.625,2.937-4.223a20.52,20.52,0,0,0,9.364-3.717,33.282,33.282,0,0,0,6.127-6.311,25.988,25.988,0,0,0,3.97-7.6q1.146-2.8,4.407-2.019Q466.06,1849.138,465.007,1852.121Z" fill="#d70019"/>
      <path id="パス_682" data-name="パス 682" d="M471.824,1841.335q0-3.625,3.625-3.626t3.626,3.626v8.767h15.7q3.579,0,3.58,3.58,0,3.625-3.58,3.626h-15.7v15.238q0,3.625-3.626,3.626t-3.625-3.626Z" fill="#d70019"/>
      <path id="パス_683" data-name="パス 683" d="M504.251,1841.61q0-3.534,3.533-3.534,3.58,0,3.581,3.534v14.458q0,3.536-3.534,3.535-3.579,0-3.58-3.535Zm8.674,27.035a14.356,14.356,0,0,0,5.256-3.167,16.031,16.031,0,0,0,2.8-4.292,15.568,15.568,0,0,0,1.217-6.311V1841.61q0-3.534,3.535-3.534,3.579,0,3.58,3.534v13.265a24.383,24.383,0,0,1-1.836,9.753,17.8,17.8,0,0,1-4.729,6.495,27.721,27.721,0,0,1-7.435,4.315q-3.627,1.1-4.774-2.2Q509.85,1869.563,512.925,1868.645Z" fill="#d70019"/>
      <path id="パス_684" data-name="パス 684" d="M535.257,1856.482q0-3.581,3.58-3.581h14.045q3.58,0,3.58,3.581,0,3.625-3.58,3.625H538.837q-3.58,0-3.58-3.58Z" fill="#d70019"/>
    </g>
    <g id="グループ_197" data-name="グループ 197">
      <g id="グループ_194" data-name="グループ 194">
        <path id="パス_685" data-name="パス 685" d="M290.708,1725.621a20.891,20.891,0,0,1-10.915-3.026,3.239,3.239,0,0,1-1.587-2.53v-.447a3.752,3.752,0,0,1,.943-2.53,3.969,3.969,0,0,1,2.728-1.488,5.041,5.041,0,0,1,3.175.595,12.485,12.485,0,0,0,5.855,1.637,6.4,6.4,0,0,0,3.67-.868,2.821,2.821,0,0,0,1.241-2.456,2.462,2.462,0,0,0-1.042-2.133,20.719,20.719,0,0,0-3.621-1.835c-.3-.132-.514-.232-.646-.3l-4.861-2.034a13.566,13.566,0,0,1-5.483-3.944,9.74,9.74,0,0,1-2.158-6.425,10.259,10.259,0,0,1,3.87-8.111,14.609,14.609,0,0,1,9.823-3.3,17.386,17.386,0,0,1,9.476,2.729,2.96,2.96,0,0,1,1.389,2.332,1.635,1.635,0,0,1,.05.4,3.835,3.835,0,0,1-3.325,3.722,3.267,3.267,0,0,1-.793.1,4.7,4.7,0,0,1-2.133-.5,10.688,10.688,0,0,0-4.664-1.042,5.681,5.681,0,0,0-3.324.843,2.7,2.7,0,0,0-1.19,2.332,2.1,2.1,0,0,0,.272,1.066,3.935,3.935,0,0,0,.62.819,4.858,4.858,0,0,0,1.166.769q.819.422,1.389.645t1.762.719a3.442,3.442,0,0,1,.546.2l4.713,1.885q7.441,2.976,7.441,10.369a10.764,10.764,0,0,1-3.895,8.359Q297.306,1725.622,290.708,1725.621Z" fill="#d00f31"/>
        <path id="パス_686" data-name="パス 686" d="M320.515,1724.927a4.136,4.136,0,0,1-3.076-1.265,4.2,4.2,0,0,1-1.24-3.052v-25.45a.439.439,0,0,0-.5-.5h-6a3.538,3.538,0,0,1-2.629-1.117,3.771,3.771,0,0,1,0-5.308,3.54,3.54,0,0,1,2.629-1.116h22.077a3.771,3.771,0,0,1,0,7.541h-6a.439.439,0,0,0-.5.5v25.45a4.319,4.319,0,0,1-4.317,4.317Z" fill="#d00f31"/>
        <path id="パス_687" data-name="パス 687" d="M343.127,1724.927a4.317,4.317,0,0,1-4.315-4.317v-29.171a4.317,4.317,0,0,1,4.315-4.316h15.926a3.547,3.547,0,0,1,2.629,1.116,3.771,3.771,0,0,1,0,5.308,3.544,3.544,0,0,1-2.629,1.117H348.386a.439.439,0,0,0-.5.5v6a.438.438,0,0,0,.5.5h8.385a3.627,3.627,0,0,1,2.654,1.116,3.834,3.834,0,0,1,0,5.408,3.627,3.627,0,0,1-2.654,1.116h-8.385a.439.439,0,0,0-.5.5v7a.438.438,0,0,0,.5.5h11.163a3.82,3.82,0,1,1,0,7.64Z" fill="#d00f31"/>
        <path id="パス_688" data-name="パス 688" d="M372.586,1724.927a4.317,4.317,0,0,1-4.315-4.317v-29.171a4.317,4.317,0,0,1,4.315-4.316h8.931a26.14,26.14,0,0,1,5.929.62,14.966,14.966,0,0,1,4.787,2.009,9.339,9.339,0,0,1,3.324,3.845,14.67,14.67,0,0,1-.025,11.634,10.726,10.726,0,0,1-3.3,4.068,14.837,14.837,0,0,1-4.739,2.307,20.49,20.49,0,0,1-5.729.769h-3.92a.439.439,0,0,0-.5.5v7.739a4.319,4.319,0,0,1-4.316,4.317Zm4.763-20.192a.438.438,0,0,0,.5.5h3.474q6.547,0,6.547-5.8a4.453,4.453,0,0,0-1.686-3.944,9.058,9.058,0,0,0-5.109-1.166h-3.226a.439.439,0,0,0-.5.5Z" fill="#d00f31"/>
        <path id="パス_689" data-name="パス 689" d="M405.171,1725.621a5.046,5.046,0,0,1-3.845-1.612,6.03,6.03,0,0,1,0-7.987,5.044,5.044,0,0,1,3.845-1.613,5.122,5.122,0,0,1,3.87,1.613,5.954,5.954,0,0,1,0,7.987A5.125,5.125,0,0,1,405.171,1725.621Z" fill="#d00f31"/>
        <path id="パス_690" data-name="パス 690" d="M419.153,1724.927a3.647,3.647,0,1,1,0-7.293h3.869a.439.439,0,0,0,.5-.5V1696.6a.439.439,0,0,0-.5-.5h-3.671a2.733,2.733,0,0,1-2.01-.819,2.671,2.671,0,0,1-.818-1.96,3.285,3.285,0,0,1,.768-2.133,3.587,3.587,0,0,1,1.96-1.24,23.769,23.769,0,0,0,3.671-1.29,16.291,16.291,0,0,1,6.3-1.538,3.3,3.3,0,0,1,3.324,3.324v26.691a.438.438,0,0,0,.5.5h2.63a3.64,3.64,0,0,1,3.671,3.646,3.641,3.641,0,0,1-3.671,3.647Z" fill="#d00f31"/>
      </g>
      <g id="グループ_195" data-name="グループ 195">
        <path id="パス_691" data-name="パス 691" d="M290.708,1725.621a20.891,20.891,0,0,1-10.915-3.026,3.239,3.239,0,0,1-1.587-2.53v-.447a3.752,3.752,0,0,1,.943-2.53,3.969,3.969,0,0,1,2.728-1.488,5.041,5.041,0,0,1,3.175.595,12.485,12.485,0,0,0,5.855,1.637,6.4,6.4,0,0,0,3.67-.868,2.821,2.821,0,0,0,1.241-2.456,2.462,2.462,0,0,0-1.042-2.133,20.719,20.719,0,0,0-3.621-1.835c-.3-.132-.514-.232-.646-.3l-4.861-2.034a13.566,13.566,0,0,1-5.483-3.944,9.74,9.74,0,0,1-2.158-6.425,10.259,10.259,0,0,1,3.87-8.111,14.609,14.609,0,0,1,9.823-3.3,17.386,17.386,0,0,1,9.476,2.729,2.96,2.96,0,0,1,1.389,2.332,1.635,1.635,0,0,1,.05.4,3.835,3.835,0,0,1-3.325,3.722,3.267,3.267,0,0,1-.793.1,4.7,4.7,0,0,1-2.133-.5,10.688,10.688,0,0,0-4.664-1.042,5.681,5.681,0,0,0-3.324.843,2.7,2.7,0,0,0-1.19,2.332,2.1,2.1,0,0,0,.272,1.066,3.935,3.935,0,0,0,.62.819,4.858,4.858,0,0,0,1.166.769q.819.422,1.389.645t1.762.719a3.442,3.442,0,0,1,.546.2l4.713,1.885q7.441,2.976,7.441,10.369a10.764,10.764,0,0,1-3.895,8.359Q297.306,1725.622,290.708,1725.621Z" fill="none" stroke="#d00f31" stroke-width="14.198"/>
        <path id="パス_692" data-name="パス 692" d="M320.515,1724.927a4.136,4.136,0,0,1-3.076-1.265,4.2,4.2,0,0,1-1.24-3.052v-25.45a.439.439,0,0,0-.5-.5h-6a3.538,3.538,0,0,1-2.629-1.117,3.771,3.771,0,0,1,0-5.308,3.54,3.54,0,0,1,2.629-1.116h22.077a3.771,3.771,0,0,1,0,7.541h-6a.439.439,0,0,0-.5.5v25.45a4.319,4.319,0,0,1-4.317,4.317Z" fill="none" stroke="#d00f31" stroke-width="14.198"/>
        <path id="パス_693" data-name="パス 693" d="M343.127,1724.927a4.317,4.317,0,0,1-4.315-4.317v-29.171a4.317,4.317,0,0,1,4.315-4.316h15.926a3.547,3.547,0,0,1,2.629,1.116,3.771,3.771,0,0,1,0,5.308,3.544,3.544,0,0,1-2.629,1.117H348.386a.439.439,0,0,0-.5.5v6a.438.438,0,0,0,.5.5h8.385a3.627,3.627,0,0,1,2.654,1.116,3.834,3.834,0,0,1,0,5.408,3.627,3.627,0,0,1-2.654,1.116h-8.385a.439.439,0,0,0-.5.5v7a.438.438,0,0,0,.5.5h11.163a3.82,3.82,0,1,1,0,7.64Z" fill="none" stroke="#d00f31" stroke-width="14.198"/>
        <path id="パス_694" data-name="パス 694" d="M372.586,1724.927a4.317,4.317,0,0,1-4.315-4.317v-29.171a4.317,4.317,0,0,1,4.315-4.316h8.931a26.14,26.14,0,0,1,5.929.62,14.966,14.966,0,0,1,4.787,2.009,9.339,9.339,0,0,1,3.324,3.845,14.67,14.67,0,0,1-.025,11.634,10.726,10.726,0,0,1-3.3,4.068,14.837,14.837,0,0,1-4.739,2.307,20.49,20.49,0,0,1-5.729.769h-3.92a.439.439,0,0,0-.5.5v7.739a4.319,4.319,0,0,1-4.316,4.317Zm4.763-20.192a.438.438,0,0,0,.5.5h3.474q6.547,0,6.547-5.8a4.453,4.453,0,0,0-1.686-3.944,9.058,9.058,0,0,0-5.109-1.166h-3.226a.439.439,0,0,0-.5.5Z" fill="none" stroke="#d00f31" stroke-width="14.198"/>
        <path id="パス_695" data-name="パス 695" d="M405.171,1725.621a5.046,5.046,0,0,1-3.845-1.612,6.03,6.03,0,0,1,0-7.987,5.044,5.044,0,0,1,3.845-1.613,5.122,5.122,0,0,1,3.87,1.613,5.954,5.954,0,0,1,0,7.987A5.125,5.125,0,0,1,405.171,1725.621Z" fill="none" stroke="#d00f31" stroke-width="14.198"/>
        <path id="パス_696" data-name="パス 696" d="M419.153,1724.927a3.647,3.647,0,1,1,0-7.293h3.869a.439.439,0,0,0,.5-.5V1696.6a.439.439,0,0,0-.5-.5h-3.671a2.733,2.733,0,0,1-2.01-.819,2.671,2.671,0,0,1-.818-1.96,3.285,3.285,0,0,1,.768-2.133,3.587,3.587,0,0,1,1.96-1.24,23.769,23.769,0,0,0,3.671-1.29,16.291,16.291,0,0,1,6.3-1.538,3.3,3.3,0,0,1,3.324,3.324v26.691a.438.438,0,0,0,.5.5h2.63a3.64,3.64,0,0,1,3.671,3.646,3.641,3.641,0,0,1-3.671,3.647Z" fill="none" stroke="#d00f31" stroke-width="14.198"/>
      </g>
      <g id="グループ_196" data-name="グループ 196">
        <path id="パス_697" data-name="パス 697" d="M290.708,1725.621a20.891,20.891,0,0,1-10.915-3.026,3.239,3.239,0,0,1-1.587-2.53v-.447a3.752,3.752,0,0,1,.943-2.53,3.969,3.969,0,0,1,2.728-1.488,5.041,5.041,0,0,1,3.175.595,12.485,12.485,0,0,0,5.855,1.637,6.4,6.4,0,0,0,3.67-.868,2.821,2.821,0,0,0,1.241-2.456,2.462,2.462,0,0,0-1.042-2.133,20.719,20.719,0,0,0-3.621-1.835c-.3-.132-.514-.232-.646-.3l-4.861-2.034a13.566,13.566,0,0,1-5.483-3.944,9.74,9.74,0,0,1-2.158-6.425,10.259,10.259,0,0,1,3.87-8.111,14.609,14.609,0,0,1,9.823-3.3,17.386,17.386,0,0,1,9.476,2.729,2.96,2.96,0,0,1,1.389,2.332,1.635,1.635,0,0,1,.05.4,3.835,3.835,0,0,1-3.325,3.722,3.267,3.267,0,0,1-.793.1,4.7,4.7,0,0,1-2.133-.5,10.688,10.688,0,0,0-4.664-1.042,5.681,5.681,0,0,0-3.324.843,2.7,2.7,0,0,0-1.19,2.332,2.1,2.1,0,0,0,.272,1.066,3.935,3.935,0,0,0,.62.819,4.858,4.858,0,0,0,1.166.769q.819.422,1.389.645t1.762.719a3.442,3.442,0,0,1,.546.2l4.713,1.885q7.441,2.976,7.441,10.369a10.764,10.764,0,0,1-3.895,8.359Q297.306,1725.622,290.708,1725.621Z" fill="#fff"/>
        <path id="パス_698" data-name="パス 698" d="M320.515,1724.927a4.136,4.136,0,0,1-3.076-1.265,4.2,4.2,0,0,1-1.24-3.052v-25.45a.439.439,0,0,0-.5-.5h-6a3.538,3.538,0,0,1-2.629-1.117,3.771,3.771,0,0,1,0-5.308,3.54,3.54,0,0,1,2.629-1.116h22.077a3.771,3.771,0,0,1,0,7.541h-6a.439.439,0,0,0-.5.5v25.45a4.319,4.319,0,0,1-4.317,4.317Z" fill="#fff"/>
        <path id="パス_699" data-name="パス 699" d="M343.127,1724.927a4.317,4.317,0,0,1-4.315-4.317v-29.171a4.317,4.317,0,0,1,4.315-4.316h15.926a3.547,3.547,0,0,1,2.629,1.116,3.771,3.771,0,0,1,0,5.308,3.544,3.544,0,0,1-2.629,1.117H348.386a.439.439,0,0,0-.5.5v6a.438.438,0,0,0,.5.5h8.385a3.627,3.627,0,0,1,2.654,1.116,3.834,3.834,0,0,1,0,5.408,3.627,3.627,0,0,1-2.654,1.116h-8.385a.439.439,0,0,0-.5.5v7a.438.438,0,0,0,.5.5h11.163a3.82,3.82,0,1,1,0,7.64Z" fill="#fff"/>
        <path id="パス_700" data-name="パス 700" d="M372.586,1724.927a4.317,4.317,0,0,1-4.315-4.317v-29.171a4.317,4.317,0,0,1,4.315-4.316h8.931a26.14,26.14,0,0,1,5.929.62,14.966,14.966,0,0,1,4.787,2.009,9.339,9.339,0,0,1,3.324,3.845,14.67,14.67,0,0,1-.025,11.634,10.726,10.726,0,0,1-3.3,4.068,14.837,14.837,0,0,1-4.739,2.307,20.49,20.49,0,0,1-5.729.769h-3.92a.439.439,0,0,0-.5.5v7.739a4.319,4.319,0,0,1-4.316,4.317Zm4.763-20.192a.438.438,0,0,0,.5.5h3.474q6.547,0,6.547-5.8a4.453,4.453,0,0,0-1.686-3.944,9.058,9.058,0,0,0-5.109-1.166h-3.226a.439.439,0,0,0-.5.5Z" fill="#fff"/>
        <path id="パス_701" data-name="パス 701" d="M405.171,1725.621a5.046,5.046,0,0,1-3.845-1.612,6.03,6.03,0,0,1,0-7.987,5.044,5.044,0,0,1,3.845-1.613,5.122,5.122,0,0,1,3.87,1.613,5.954,5.954,0,0,1,0,7.987A5.125,5.125,0,0,1,405.171,1725.621Z" fill="#fff"/>
        <path id="パス_702" data-name="パス 702" d="M419.153,1724.927a3.647,3.647,0,1,1,0-7.293h3.869a.439.439,0,0,0,.5-.5V1696.6a.439.439,0,0,0-.5-.5h-3.671a2.733,2.733,0,0,1-2.01-.819,2.671,2.671,0,0,1-.818-1.96,3.285,3.285,0,0,1,.768-2.133,3.587,3.587,0,0,1,1.96-1.24,23.769,23.769,0,0,0,3.671-1.29,16.291,16.291,0,0,1,6.3-1.538,3.3,3.3,0,0,1,3.324,3.324v26.691a.438.438,0,0,0,.5.5h2.63a3.64,3.64,0,0,1,3.671,3.646,3.641,3.641,0,0,1-3.671,3.647Z" fill="#fff"/>
      </g>
    </g>
    <g id="グループ_206" data-name="グループ 206">
      <g transform="matrix(1, 0, 0, 1, 162.66, 1667.87)" filter="url(#楕円形_50)">
        <circle id="楕円形_50-2" data-name="楕円形 50" cx="42.288" cy="42.288" r="42.288" transform="translate(9.14)" fill="#f9e842"/>
      </g>
      <circle id="楕円形_51" data-name="楕円形 51" cx="37.419" cy="37.419" r="37.419" transform="translate(176.677 1672.74)" fill="none" stroke="#d0a222" stroke-miterlimit="10" stroke-width="2.759"/>
      <g id="グループ_205" data-name="グループ 205">
        <path id="パス_930" data-name="パス 930" d="M200.308,1730.16v-38.035a.785.785,0,0,1,.831-.881h13.3c11,0,16.72,4.987,16.72,14.57,0,9.533-5.72,14.617-16.72,14.617h-4.155v9.729a.822.822,0,0,1-.88.88h-8.263A.785.785,0,0,1,200.308,1730.16Zm20.533-24.444c0-4.352-2.542-6.014-6.648-6.014h-3.911v12.272h3.911C218.3,1711.974,220.841,1710.262,220.841,1705.716Z" fill="#d0a222"/>
      </g>
    </g>
  </g>
</svg>
