<?xml version="1.0" encoding="UTF-8"?>
<svg id="_レイヤー_2" data-name="レイヤー 2" xmlns="http://www.w3.org/2000/svg" viewBox="0 0 444.02 283.34">
  <defs>
    <style>
      .cls-1 {
        fill: #fff;
      }

      .cls-2 {
        fill: none;
        stroke: #d00f31;
        stroke-miterlimit: 10;
        stroke-width: 7px;
      }

      .cls-3 {
        fill-rule: evenodd;
      }

      .cls-3, .cls-4 {
        fill: #d00f31;
      }
    </style>
  </defs>
  <g id="_レイヤー_1-2" data-name="レイヤー 1">
    <g>
      <path class="cls-4" d="M19.1,190.69c0-2.62,1.31-3.93,3.93-3.93h8.38l-.21-2.9c-.21-2.66,1.03-4.09,3.73-4.3,2.69-.17,4.12,1.07,4.3,3.73l.26,3.47h10.35c2.62,0,3.93,1.31,3.93,3.93s-1.31,3.98-3.93,3.98h-9.78l.47,6.94h9.21c2.69,0,4.04,1.35,4.04,4.04v.05c0,2.69-1.34,4.04-4.04,4.04h-8.64l.67,9.42c.21,2.66-1.04,4.09-3.73,4.3-2.69.17-4.12-1.07-4.3-3.73l-.72-9.99h-9.88c-2.69,0-4.04-1.35-4.04-4.04s1.35-4.09,4.04-4.09h9.32l-.46-6.94h-8.95c-2.62,0-3.93-1.31-3.93-3.93v-.05Z"/>
      <path class="cls-4" d="M60.42,200.11c-1.93,0-2.98-1.09-3.16-3.26,0-2.24,1-3.43,3-3.57l1.97-.05-.26-3.1c-.28-2.24.78-3.48,3.16-3.73,2.21-.03,3.38,1.02,3.52,3.16l.36,3.52,11.39-.26c2.59-.03,4.54.82,5.85,2.56,1.31,1.74,1.48,3.91.52,6.5-.97,2.17-2.04,4.03-3.21,5.56s-2.74,3.03-4.71,4.48c-1.66,1.55-3.24,1.43-4.76-.36-.72-1.86-.43-3.38.88-4.55,1.93-1.66,3.52-3.47,4.76-5.43.48-1.38.17-2.05-.93-2.02l-8.95.31,2.33,19.98c.28,2.04-.66,3.21-2.79,3.52-2.21.17-3.49-.83-3.83-3l-2.48-20.34-2.64.1Z"/>
      <path class="cls-4" d="M95.64,182.05h8.9c2.69,0,4.04,1.35,4.04,4.04s-1.35,4.04-4.04,4.04h-8.9c-2.69,0-4.04-1.35-4.04-4.04s1.35-4.04,4.04-4.04ZM124.57,195.97c-.93,3.21-2.74,6.7-5.41,10.48-2.67,3.78-5.57,6.85-8.7,9.21-3.12,2.36-7.74,4.22-13.84,5.56-2.38.45-3.9-.66-4.55-3.31-.35-2.73.76-4.31,3.31-4.76,4.45-.76,7.97-2.16,10.56-4.19,2.59-2.04,4.89-4.41,6.91-7.12s3.51-5.56,4.48-8.57c.86-2.1,2.52-2.86,4.97-2.28,2.31,1.07,3.07,2.73,2.28,4.97Z"/>
      <path class="cls-4" d="M130.34,201.51c1.38-2.59,2.55-4.79,3.52-6.6s1.92-3.57,2.85-5.28,1.66-3.01,2.17-3.91c.66-1.07,1.34-1.82,2.04-2.25.71-.43,1.32-.67,1.84-.72.52-.05.78-.11.78-.18,1.04.1,1.89.34,2.56.7s1.28.94,1.84,1.73c.41.69,1.23,2.07,2.46,4.14s2.64,4.42,4.24,7.06c1.6,2.64,3.16,5.23,4.66,7.76,1.5,2.54,3.01,5.13,4.53,7.79,1.62,2.38,1.36,4.5-.78,6.37-2.21,1.31-4.14.74-5.8-1.71-8.14-13.83-12.35-20.99-12.63-21.48-.48-.93-.79-1.46-.91-1.58-.12-.12-.25-.05-.39.21s-.38.7-.72,1.32c-.31.45-.92,1.48-1.84,3.1-.91,1.62-2.32,4.21-4.22,7.76-1.21,2.04-3,2.43-5.38,1.19-1.59-1.48-1.86-3.29-.83-5.43ZM156.58,182.93c1.1-1.1,2.45-1.66,4.04-1.66s2.94.56,4.06,1.68c1.12,1.12,1.68,2.48,1.68,4.06s-.56,2.93-1.68,4.04c-1.12,1.1-2.48,1.66-4.06,1.66s-2.93-.55-4.04-1.66c-1.1-1.1-1.66-2.45-1.66-4.04s.55-2.95,1.66-4.09ZM163.21,187.02c0-.76-.25-1.38-.75-1.86-.5-.48-1.11-.72-1.84-.72s-1.33.24-1.81.72c-.48.48-.72,1.1-.72,1.86s.24,1.33.72,1.81c.48.48,1.09.72,1.81.72s1.34-.24,1.84-.72c.5-.48.75-1.09.75-1.81Z"/>
      <path class="cls-4" d="M169.13,200.89c0-2.69,1.35-4.04,4.04-4.04h15.84c2.69,0,4.04,1.35,4.04,4.04s-1.34,4.09-4.04,4.09h-15.84c-2.69,0-4.04-1.35-4.04-4.04v-.05Z"/>
      <path class="cls-4" d="M200.94,182.05h8.9c2.69,0,4.04,1.35,4.04,4.04s-1.35,4.04-4.04,4.04h-8.9c-2.69,0-4.04-1.35-4.04-4.04s1.35-4.04,4.04-4.04ZM229.87,195.97c-.93,3.21-2.74,6.7-5.41,10.48-2.67,3.78-5.57,6.85-8.7,9.21-3.12,2.36-7.74,4.22-13.84,5.56-2.38.45-3.9-.66-4.55-3.31-.35-2.73.76-4.31,3.31-4.76,4.45-.76,7.97-2.16,10.56-4.19,2.59-2.04,4.89-4.41,6.91-7.12s3.51-5.56,4.48-8.57c.86-2.1,2.52-2.86,4.97-2.28,2.31,1.07,3.07,2.73,2.28,4.97Z"/>
      <path class="cls-4" d="M278.44,177.29c1.24,0,2.3.44,3.18,1.32s1.32,1.94,1.32,3.18v35.55c0,1.83-.2,3.26-.59,4.3-.4,1.04-1.11,1.85-2.15,2.43-1.21.69-2.9,1.12-5.07,1.29h-.31c-.93,0-1.78-.31-2.54-.93-.86-.72-1.45-1.62-1.76-2.69-.07-.28-.1-.55-.1-.83,0-.55.17-1.07.52-1.55.48-.72,1.17-1.09,2.07-1.09h1.45c.38,0,.65-.08.8-.23s.23-.42.23-.8v-8.75c0-.34-.17-.52-.52-.52h-5.28c-.34,0-.54.17-.57.52-.52,5.14-1.42,9.44-2.69,12.89-.38,1.07-1.14,1.72-2.28,1.97-.28.03-.55.05-.83.05-.83,0-1.57-.24-2.23-.72-.76-.52-1.43-.93-2.02-1.24-.28-.17-.57-.17-.88,0v.05c-.76.41-1.52.62-2.28.62-.38,0-.78-.05-1.19-.16-1.17-.31-2.14-.97-2.9-1.97-.17-.28-.36-.53-.57-.78-.55-.72-.83-1.5-.83-2.33,0-.28.02-.55.05-.83.24-1.14.86-1.98,1.86-2.54l.62-.36s.04-.08.03-.13c-.02-.05-.06-.08-.13-.08h-11.8s-.05.02-.05.05.02.05.05.05l2.28.67c1.14.35,1.92,1.05,2.33,2.12.17.41.26.83.26,1.24,0,.62-.19,1.21-.57,1.76-.93,1.42-1.93,2.74-3,3.99-.69.79-1.59,1.22-2.69,1.29h-.21c-1,0-1.9-.31-2.69-.93-.83-.59-1.24-1.4-1.24-2.43,0-.86.29-1.6.88-2.23,1.55-1.62,2.81-3.33,3.78-5.12.03-.14.03-.25-.03-.34-.05-.09-.15-.13-.29-.13h-2.28c-.93,0-1.72-.33-2.36-.98-.64-.66-.96-1.45-.96-2.38s.32-1.72.96-2.35c.64-.64,1.42-.96,2.36-.96h.78c.31,0,.47-.16.47-.47v-17.85c0-.28-.14-.41-.41-.41h-.26c-.9,0-1.67-.33-2.33-.98-.66-.66-.98-1.44-.98-2.35s.33-1.7.98-2.35c.65-.65,1.43-.98,2.33-.98h.26c.28,0,.41-.14.41-.41v-1.35c0-.93.34-1.73,1.01-2.41.67-.67,1.48-1.01,2.43-1.01s1.76.34,2.43,1.01c.67.67,1.01,1.48,1.01,2.41v1.24c0,.35.17.52.52.52h3.88c.34,0,.52-.17.52-.52v-1.14c0-.97.34-1.79,1.04-2.48.69-.69,1.52-1.03,2.48-1.03s1.79.35,2.48,1.03c.69.69,1.04,1.52,1.04,2.48v1.29c0,.24.12.36.36.36.86,0,1.59.3,2.2.91.6.6.91,1.34.91,2.2v.47c0,.86-.3,1.6-.91,2.2-.6.6-1.34.91-2.2.91-.24,0-.36.12-.36.36v18.06c0,.21.1.31.31.31.69,0,1.29.25,1.81.75.52.5.78,1.1.78,1.79v.78c0,.93-.33,1.73-.98,2.38-.66.66-1.45.98-2.38.98h-2.02c-.1,0-.17.04-.21.13-.04.09-.02.16.05.23,1.83,2.07,3.24,3.76,4.24,5.07.07.1.16.15.29.13.12-.02.2-.08.23-.18,1.1-2.86,1.82-6.07,2.15-9.63.33-3.55.49-7.49.49-11.8v-15.11c0-1.24.44-2.3,1.32-3.18.88-.88,1.94-1.32,3.18-1.32h11.49ZM250.65,188.05c0-.34-.17-.52-.52-.52h-3.88c-.35,0-.52.17-.52.52v1.19c0,.35.17.52.52.52h3.88c.34,0,.52-.17.52-.52v-1.19ZM246.25,195.56c-.35,0-.52.17-.52.52v1.35c0,.35.17.52.52.52h3.88c.34,0,.52-.17.52-.52v-1.35c0-.34-.17-.52-.52-.52h-3.88ZM246.25,203.68c-.35,0-.52.17-.52.52v1.55c0,.35.17.52.52.52h3.88c.34,0,.52-.17.52-.52v-1.55c0-.34-.17-.52-.52-.52h-3.88ZM269.64,200.63c0,.14.05.26.16.36s.22.16.36.16h4.81c.34,0,.52-.17.52-.52v-4.19c0-.34-.17-.52-.52-.52h-4.76c-.34,0-.52.17-.52.52v.47c0,1.62-.02,2.86-.05,3.73ZM275.49,184.79c0-.34-.17-.52-.52-.52h-4.76c-.34,0-.52.17-.52.52v3.88c0,.35.17.52.52.52h4.76c.34,0,.52-.17.52-.52v-3.88Z"/>
      <path class="cls-4" d="M309.83,192.3c0,1.24-.44,2.3-1.32,3.18s-1.94,1.32-3.18,1.32h-8.44c-.35,0-.52.17-.52.52v24.32c0,1.04-.37,1.92-1.11,2.67-.74.74-1.64,1.11-2.69,1.11s-1.95-.37-2.69-1.11c-.74-.74-1.11-1.63-1.11-2.67v-40.16c0-1.24.44-2.3,1.32-3.18s1.94-1.32,3.18-1.32h12.06c1.24,0,2.3.44,3.18,1.32s1.32,1.94,1.32,3.18v10.82ZM302.63,182.98c0-.34-.17-.52-.52-.52h-5.23c-.35,0-.52.17-.52.52v.78c0,.35.17.52.52.52h5.23c.34,0,.52-.17.52-.52v-.78ZM296.37,190.9c0,.35.17.52.52.52h5.23c.34,0,.52-.17.52-.52v-1.04c0-.34-.17-.52-.52-.52h-5.23c-.35,0-.52.17-.52.52v1.04ZM329.86,176.98c1.24,0,2.3.44,3.18,1.32s1.32,1.94,1.32,3.18v35.14c0,2.04-.22,3.62-.67,4.76s-1.24,2.02-2.38,2.64c-1.35.72-3.26,1.16-5.75,1.29h-.31c-1.14,0-2.17-.36-3.11-1.09-1-.83-1.71-1.88-2.12-3.16v-.05c-.1-.35-.33-.52-.67-.52h-11.18c-.21,0-.31.09-.31.26,0,.69-.23,1.27-.7,1.73s-1.03.7-1.68.7h-1.09c-.93,0-1.74-.34-2.43-1.01s-1.04-1.49-1.04-2.46v-15.63c0-1.24.44-2.3,1.32-3.18s1.94-1.32,3.18-1.32h11.9c1.24,0,2.3.44,3.18,1.32s1.32,1.94,1.32,3.18v13.15c0,.35.17.52.52.52h2.95c.48,0,.82-.09,1.01-.28.19-.19.29-.51.29-.96v-19.05c0-.34-.17-.52-.52-.52h-8.8c-1.24,0-2.3-.44-3.18-1.32s-1.32-1.94-1.32-3.18v-10.97c0-1.24.44-2.3,1.32-3.18s1.94-1.32,3.18-1.32h12.58ZM314.59,205.65c0-.34-.17-.52-.52-.52h-5.69c-.35,0-.52.17-.52.52v1.19c0,.35.17.52.52.52h5.69c.34,0,.52-.17.52-.52v-1.19ZM307.86,214.45c0,.35.17.52.52.52h5.69c.34,0,.52-.17.52-.52v-1.19c0-.34-.17-.52-.52-.52h-5.69c-.35,0-.52.17-.52.52v1.19ZM326.59,182.98c0-.34-.17-.52-.52-.52h-5.49c-.35,0-.52.17-.52.52v.78c0,.35.17.52.52.52h5.49c.34,0,.52-.17.52-.52v-.78ZM320.07,191.05c0,.35.17.52.52.52h5.49c.34,0,.52-.17.52-.52v-1.19c0-.34-.17-.52-.52-.52h-5.49c-.35,0-.52.17-.52.52v1.19Z"/>
      <path class="cls-4" d="M367.3,183.65c0,.35.17.52.52.52h13.3c1.24,0,2.3.44,3.18,1.32s1.32,1.94,1.32,3.18v18.99c0,1.1-.4,2.05-1.19,2.85-.79.79-1.74,1.19-2.85,1.19h-1.81c-.62,0-1.16-.22-1.6-.65-.45-.43-.67-.96-.67-1.58,0-.17-.09-.26-.26-.26h-9.42c-.35,0-.52.17-.52.52v11.59c0,1.14-.4,2.1-1.19,2.9-.79.79-1.76,1.19-2.9,1.19s-2.1-.4-2.9-1.19c-.79-.79-1.19-1.76-1.19-2.9v-11.59c0-.34-.17-.52-.52-.52h-9.37c-.21,0-.31.09-.31.26,0,.69-.23,1.28-.7,1.76-.47.48-1.04.72-1.73.72h-1.4c-1.07,0-1.98-.38-2.74-1.14-.76-.76-1.14-1.67-1.14-2.74v-19.41c0-1.24.44-2.3,1.32-3.18s1.94-1.32,3.18-1.32h12.89c.34,0,.52-.17.52-.52v-4.5c0-1.1.4-2.06,1.19-2.87.79-.81,1.76-1.22,2.9-1.22s2.1.41,2.9,1.22c.79.81,1.19,1.77,1.19,2.87v4.5ZM348.93,201.15c0,.35.17.52.52.52h9.16c.34,0,.52-.17.52-.52v-8.9c0-.34-.17-.52-.52-.52h-9.16c-.35,0-.52.17-.52.52v8.9ZM367.3,201.15c0,.35.17.52.52.52h9.16c.34,0,.52-.17.52-.52v-8.9c0-.34-.17-.52-.52-.52h-9.16c-.35,0-.52.17-.52.52v8.9Z"/>
      <path class="cls-4" d="M393.51,184.38c.48-2.21,2-3.24,4.55-3.1,2.21.03,3.24,1.28,3.11,3.73-.24,1.62-.48,3.93-.72,6.91-.24,2.98-.38,6.12-.41,9.39.03,3.48.17,6.72.41,9.7.24,2.98.48,5.29.72,6.91.14,2.45-.9,3.69-3.11,3.73-2.55.14-4.07-.9-4.55-3.11-.31-2-.59-4.5-.83-7.5-.24-2.97-.38-6.14-.41-9.52v-.05c.03-3.42.17-6.61.41-9.57.24-3,.52-5.5.83-7.5ZM404.69,204.46c.83-1.9,2.21-2.66,4.14-2.28,2.21.66,2.97,1.9,2.28,3.73-.21.69-.33,1.57-.36,2.64-.04.66.09,1.28.36,1.86.28.59.84,1.07,1.68,1.45.84.38,2.1.59,3.75.62,2.62,0,4.47-.05,5.54-.16,2.48-.34,3.79.83,3.93,3.52-.07,2.62-1.17,4.07-3.31,4.35-2.24.28-4.47.43-6.68.47-4.04-.1-7.11-1.09-9.21-2.98-2.1-1.88-3.21-4.2-3.31-6.96-.07-1.76.33-3.85,1.19-6.26ZM420.79,183.91c2.62,0,3.93,1.31,3.93,3.93s-1.31,3.99-3.93,3.99h-11.8c-2.62,0-3.93-1.31-3.93-3.93s1.31-3.98,3.93-3.98h11.8Z"/>
      <path class="cls-4" d="M10.97,280.39c-1.31,0-2.47-.41-3.47-1.24-1-.83-1.62-1.9-1.86-3.21L.05,245.41c-.04-.28-.05-.53-.05-.78,0-.83.29-1.6.88-2.33.72-.9,1.67-1.35,2.85-1.35h.72c1.28,0,2.41.42,3.39,1.27.98.85,1.56,1.91,1.73,3.18l1.86,13.51,1.55,12.42c.03.07.08.1.16.1s.1-.03.1-.1c.69-3.93,1.47-8.07,2.33-12.42l3.16-14.08c.24-1.14.82-2.07,1.73-2.79.91-.72,1.95-1.09,3.11-1.09s2.19.36,3.11,1.09c.91.72,1.49,1.66,1.73,2.79l3.26,14.08c.31,1.52.72,3.7,1.22,6.55.5,2.85.85,4.79,1.06,5.82,0,.1.04.16.13.16s.13-.05.13-.16c.21-1.59.48-3.8.83-6.65s.57-4.75.67-5.72l1.92-13.51c.17-1.28.75-2.34,1.73-3.18.98-.84,2.11-1.27,3.39-1.27,1.17,0,2.14.45,2.9,1.35.59.72.88,1.52.88,2.38,0,.24-.02.48-.05.72l-5.28,30.53c-.24,1.28-.85,2.34-1.84,3.18-.98.85-2.13,1.27-3.44,1.27h-2.9c-1.31,0-2.48-.41-3.49-1.24-1.02-.83-1.67-1.88-1.94-3.16l-2.64-12.78c-.62-3-1.12-6-1.5-9-.04-.1-.1-.16-.18-.16s-.13.05-.13.16c-.76,4.66-1.28,7.66-1.55,9l-2.54,12.78c-.24,1.28-.87,2.33-1.89,3.16-1.02.83-2.18,1.24-3.49,1.24h-2.69Z"/>
      <path class="cls-4" d="M56.02,280.39c-1.24,0-2.3-.44-3.18-1.32s-1.32-1.94-1.32-3.18v-30.43c0-1.24.44-2.3,1.32-3.18.88-.88,1.94-1.32,3.18-1.32h16.61c1.07,0,1.98.39,2.74,1.16.76.78,1.14,1.7,1.14,2.77s-.38,1.99-1.14,2.77-1.67,1.16-2.74,1.16h-11.13c-.35,0-.52.17-.52.52v6.26c0,.35.17.52.52.52h8.75c1.07,0,1.99.39,2.77,1.16.78.78,1.16,1.72,1.16,2.82s-.39,2.04-1.16,2.82c-.78.78-1.7,1.16-2.77,1.16h-8.75c-.35,0-.52.17-.52.52v7.3c0,.35.17.52.52.52h11.64c1.1,0,2.04.39,2.82,1.16s1.16,1.72,1.16,2.82-.39,2.04-1.16,2.82-1.72,1.16-2.82,1.16h-17.13Z"/>
      <path class="cls-4" d="M88.34,280.39c-1.24,0-2.3-.44-3.18-1.32s-1.32-1.94-1.32-3.18v-30.43c0-1.24.44-2.3,1.32-3.18.88-.88,1.94-1.32,3.18-1.32h9.26c9.8,0,14.7,3.26,14.7,9.78,0,1.79-.47,3.5-1.4,5.12-.93,1.62-2.14,2.74-3.62,3.36-.07,0-.1.04-.1.13s.03.13.1.13c2.07.59,3.73,1.66,4.99,3.21,1.26,1.55,1.89,3.57,1.89,6.06s-.7,4.78-2.1,6.57c-1.4,1.79-3.23,3.09-5.51,3.88-2.28.79-4.88,1.19-7.81,1.19h-10.4ZM93.31,256.07c0,.35.17.52.52.52h3.42c1.97,0,3.43-.39,4.4-1.16.97-.78,1.45-1.87,1.45-3.29s-.47-2.39-1.42-3.03c-.95-.64-2.42-.96-4.42-.96h-3.42c-.35,0-.52.17-.52.52v7.4ZM93.31,272.63c0,.35.17.52.52.52h4.19c4.62,0,6.94-1.69,6.94-5.07,0-1.59-.56-2.73-1.68-3.44-1.12-.71-2.87-1.06-5.25-1.06h-4.19c-.35,0-.52.17-.52.52v8.54Z"/>
      <path class="cls-4" d="M122.63,255.6h-1.14c-2.76,0-4.14-1.38-4.14-4.14s1.38-4.14,4.14-4.14h1.14v-3.36c0-2.59,1.29-3.88,3.88-3.88s3.93,1.29,3.93,3.88v3.36h9.88v-3.57c0-2.59,1.29-3.88,3.88-3.88s3.93,1.29,3.93,3.88v3.57h1.4c2.76,0,4.14,1.38,4.14,4.14s-1.38,4.14-4.14,4.14h-1.4v7.25c-.07,3.62-.83,6.65-2.28,9.08-1.45,2.43-3.49,4.49-6.11,6.16-2.62,1.67-5.76,2.92-9.42,3.75-2.59.45-4.18-.52-4.76-2.9-.41-2.76.47-4.31,2.64-4.66,3.28-.72,5.61-1.59,6.99-2.59,1.38-1,2.57-2.21,3.57-3.62,1-1.41,1.52-3.16,1.55-5.23v-7.25h-9.88v7.61c0,2.59-1.29,3.88-3.88,3.88s-3.93-1.29-3.93-3.88v-7.61Z"/>
      <path class="cls-4" d="M189.11,245.82c-1.24,1.93-2.46,3.64-3.65,5.12-1.19,1.48-2.65,3.21-4.37,5.18v23.13c0,2.73-1.36,4.09-4.09,4.09s-4.09-1.36-4.09-4.09v-16.82c-2.66,2.14-6.23,4.33-10.71,6.57-2.07.93-3.66.45-4.76-1.45-.86-2.86-.24-4.79,1.86-5.8,2.07-.83,4.44-2.06,7.12-3.7,2.67-1.64,5.46-3.88,8.36-6.73,2.9-2.85,5.33-5.99,7.3-9.45,1.1-1.72,2.9-2.14,5.38-1.24,2.35,1.45,2.9,3.17,1.66,5.18Z"/>
      <path class="cls-4" d="M197.05,243.8c0-2.73,1.36-4.09,4.09-4.09s4.09,1.36,4.09,4.09v9.88h17.7c2.69,0,4.04,1.35,4.04,4.04s-1.35,4.09-4.04,4.09h-17.7v17.18c0,2.73-1.36,4.09-4.09,4.09s-4.09-1.36-4.09-4.09v-35.19Z"/>
      <path class="cls-4" d="M261.1,242.2c2.17.07,3.45,1.14,3.83,3.21.28,2.38-.38,3.88-1.97,4.5-1.9.62-4.03,1.63-6.39,3.03-2.36,1.4-4.38,3.05-6.06,4.97-1.67,1.92-2.75,3.75-3.23,5.51-.62,2.35-.57,4.22.16,5.62s1.73,2.42,3.03,3.05c1.29.64,2.49.99,3.6,1.06,1.38.07,3.17.05,5.38-.05,2.48-.1,3.76,1.23,3.83,3.99-.07,2.9-1.35,4.33-3.83,4.3-2.45,0-4.45-.05-6-.16-1.45-.07-3.14-.41-5.07-1.01-1.93-.6-3.68-1.54-5.25-2.82-1.57-1.28-2.78-2.98-3.62-5.12-.85-2.14-1.08-4.78-.7-7.92.38-2.21,1.04-4.19,1.99-5.95.95-1.76,1.98-3.25,3.11-4.48,1.12-1.22,2.08-2.16,2.87-2.82.79-.66,1.22-.98,1.29-.98h-12.42c-2.62,0-3.93-1.31-3.93-3.93s1.31-3.99,3.93-3.99h25.46ZM256.44,255.24c0-1.17.59-1.76,1.76-1.76s1.81.59,1.81,1.76v3.93c0,1.17-.59,1.76-1.76,1.76s-1.81-.59-1.81-1.76v-3.93ZM262.03,255.24c0-1.17.59-1.76,1.76-1.76s1.81.59,1.81,1.76v3.93c0,1.17-.59,1.76-1.76,1.76s-1.81-.59-1.81-1.76v-3.93Z"/>
      <path class="cls-4" d="M271.06,246.6c0-2.69,1.35-4.04,4.04-4.04h23.96c2.69,0,4.04,1.35,4.04,4.04s-1.35,4.09-4.04,4.09h-7.61v21.63h8.69c2.69,0,4.04,1.35,4.04,4.04s-1.34,4.09-4.04,4.09h-25.98c-2.69,0-4.04-1.35-4.04-4.04s1.35-4.09,4.04-4.09h8.85v-21.63h-7.92c-2.69,0-4.04-1.35-4.04-4.04v-.05Z"/>
      <path class="cls-4" d="M311.97,242.04h8.9c2.69,0,4.04,1.35,4.04,4.04s-1.35,4.04-4.04,4.04h-8.9c-2.69,0-4.04-1.35-4.04-4.04s1.35-4.04,4.04-4.04ZM340.9,255.97c-.93,3.21-2.74,6.7-5.41,10.48-2.67,3.78-5.57,6.85-8.7,9.21-3.12,2.36-7.74,4.22-13.84,5.56-2.38.45-3.9-.66-4.55-3.31-.35-2.73.76-4.31,3.31-4.76,4.45-.76,7.97-2.16,10.56-4.19,2.59-2.04,4.89-4.41,6.91-7.12s3.51-5.56,4.48-8.57c.86-2.1,2.52-2.86,4.97-2.28,2.31,1.07,3.07,2.73,2.28,4.97Z"/>
      <path class="cls-4" d="M348.59,243.8c0-2.73,1.36-4.09,4.09-4.09s4.09,1.36,4.09,4.09v9.88h17.7c2.69,0,4.04,1.35,4.04,4.04s-1.35,4.09-4.04,4.09h-17.7v17.18c0,2.73-1.36,4.09-4.09,4.09s-4.09-1.36-4.09-4.09v-35.19Z"/>
      <path class="cls-4" d="M385.15,244.11c0-2.66,1.33-3.98,3.98-3.98s4.04,1.33,4.04,3.98v16.3c0,2.66-1.33,3.98-3.99,3.98s-4.04-1.33-4.04-3.98v-16.3ZM394.94,274.6c2.72-1.07,4.7-2.26,5.93-3.57,1.22-1.31,2.28-2.92,3.16-4.84.88-1.92,1.34-4.29,1.37-7.12v-14.96c0-2.66,1.33-3.98,3.98-3.98s4.04,1.33,4.04,3.98v14.96c-.04,4.31-.72,7.98-2.07,11-1.35,3.02-3.12,5.46-5.33,7.32-2.21,1.86-5,3.48-8.38,4.86-2.73.83-4.52,0-5.38-2.48-.52-2.76.38-4.48,2.69-5.18Z"/>
      <path class="cls-4" d="M420.11,260.88c0-2.69,1.35-4.04,4.04-4.04h15.84c2.69,0,4.04,1.35,4.04,4.04s-1.34,4.09-4.04,4.09h-15.84c-2.69,0-4.04-1.35-4.04-4.04v-.05Z"/>
    </g>
    <g>
      <path class="cls-3" d="M87.9,117.94C87.9,52.8,148.16,0,222.5,0s134.6,52.8,134.6,117.94H87.9Z"/>
      <line class="cls-2" x1="386.56" y1="117.94" x2="58.45" y2="117.94"/>
      <g>
        <path class="cls-1" d="M164.21,88.87c0-3.04-2.11-5.25-6.42-6.28-5.93-1.47-10.45-4.27-10.45-11.67,0-6.92,5.59-10.25,10.45-10.25,5.59,0,10.69,3.04,10.69,10.25h-5.3c0-3.48-1.72-4.95-5.39-4.95-2.99,0-5.15,1.72-5.15,4.95,0,3.68,1.57,5.49,5.15,6.38,6.33,1.47,11.72,4.22,11.72,11.57s-4.81,12.02-11.72,12.02-11.77-4.66-11.77-12.02h5.3c0,3.92,2.31,6.72,6.47,6.72s6.42-2.8,6.42-6.72Z"/>
        <path class="cls-1" d="M188.14,100.4v-33.94h-7.85v-5.3h20.94v5.3h-7.8v33.94h-5.3Z"/>
        <path class="cls-1" d="M212.03,100.4v-39.23h20.94v5.3h-15.64v10.94h14.66v5.3h-14.66v12.41h15.64v5.3h-20.94Z"/>
        <path class="cls-1" d="M243.76,61.16h9.91c6.92,0,11.72,4.66,11.72,12.02s-4.81,12.06-11.72,12.06h-4.61v15.15h-5.3v-39.23ZM249.06,66.46v13.49h4.61c4.17,0,6.42-2.79,6.42-6.77s-2.26-6.72-6.42-6.72h-4.61Z"/>
        <path class="cls-1" d="M280.5,100.4h-5.3v-6.38h5.3v6.38Z"/>
        <path class="cls-1" d="M293.69,66.46h-2.89v-5.3h8.19v39.23h-5.3v-33.94Z"/>
      </g>
    </g>
  </g>
</svg>