<svg xmlns="http://www.w3.org/2000/svg" width="151.723" height="52.855" viewBox="0 0 151.723 52.855">
  <g id="グループ_29" data-name="グループ 29" transform="translate(-43.296 -20.922)">
    <g id="グループ_27" data-name="グループ 27">
      <path id="パス_11" data-name="パス 11" d="M93.321,63.025c0,5.875,4.248,10.492,10.956,10.492h6.193V67.954h-5.636c-3.6,0-5.59-2.135-5.59-4.929s1.987-4.93,5.59-4.93h5.636V52.532h-6.193C97.569,52.532,93.321,57.145,93.321,63.025Z" fill="#fff"/>
      <path id="パス_12" data-name="パス 12" d="M161.233,52.273a11.775,11.775,0,0,0-7.122,2.305,11.766,11.766,0,0,0-7.123-2.305,8.142,8.142,0,0,0-8.568,8.465V73.517h5.918V61.035c0-2.134,1.305-3.2,3.441-3.2,2.258,0,3.376,1.129,3.376,2.936V73.517h5.915V60.768c0-1.807,1.115-2.936,3.375-2.936,2.136,0,3.438,1.069,3.438,3.2V73.517H169.8V60.738C169.8,55.741,166.28,52.273,161.233,52.273Z" fill="#fff"/>
      <path id="パス_13" data-name="パス 13" d="M184.023,52.273a10.755,10.755,0,1,0,11,10.757A10.693,10.693,0,0,0,184.023,52.273Zm-.01,15.94a5.192,5.192,0,1,1,5.085-5.188A4.977,4.977,0,0,1,184.013,68.213Z" fill="#fff"/>
      <path id="パス_14" data-name="パス 14" d="M59.3,43.046V53.6a10.077,10.077,0,0,0-5.13-1.322,10.752,10.752,0,1,0,0,21.5c5.336,0,7.33-2.579,11.05-4.286V43.046ZM49.22,63.025a4.979,4.979,0,0,1,5.08-5.193,4.921,4.921,0,0,1,5.081,5.057v.271A4.917,4.917,0,0,1,54.3,68.213,4.976,4.976,0,0,1,49.22,63.025Z" fill="#fff"/>
      <path id="パス_15" data-name="パス 15" d="M82.79,43.048l-.009,1.432H80.7l.006,5.212H79.171V44.48H77.092V43.048Z" fill="#fff"/>
      <path id="パス_16" data-name="パス 16" d="M89.62,43.048V44.48H87.537v5.212H86V44.48h-2.08V43.048Z" fill="#fff"/>
      <path id="パス_17" data-name="パス 17" d="M71.3,43.045l3.022,4.262V43.05h1.47v6.642H74.176l-3.006-4.25v4.25H69.695V43.045Z" fill="#fff"/>
      <path id="パス_18" data-name="パス 18" d="M79.571,52.273a10.755,10.755,0,1,0,11,10.757A10.692,10.692,0,0,0,79.571,52.273Zm-.008,15.94a5.192,5.192,0,1,1,5.085-5.188A4.976,4.976,0,0,1,79.563,68.213Z" fill="#fff"/>
      <path id="パス_19" data-name="パス 19" d="M124.212,52.273a10.755,10.755,0,1,0,11,10.757A10.694,10.694,0,0,0,124.212,52.273Zm0,15.94a5.192,5.192,0,1,1,5.082-5.188A4.98,4.98,0,0,1,124.208,68.213Z" fill="#fff"/>
    </g>
    <g id="グループ_28" data-name="グループ 28">
      <path id="パス_20" data-name="パス 20" d="M51.317,23.931a2.5,2.5,0,0,0-.126.307c-.106.3-.117.306-.148.4a2.847,2.847,0,0,1,1.1.517,2.356,2.356,0,0,1,1,2,2.871,2.871,0,0,1-1.816,2.64,5.886,5.886,0,0,1-2.154.559,3.39,3.39,0,0,0-.56-1.193,4.391,4.391,0,0,0,2.017-.422,1.775,1.775,0,0,0,1.236-1.648,1.549,1.549,0,0,0-1.183-1.457,9.324,9.324,0,0,1-1.837,2.809,4.035,4.035,0,0,1-2.767,1.52,1.667,1.667,0,0,1-1.647-1.847,3.315,3.315,0,0,1,1.045-2.365,4.373,4.373,0,0,1,1.447-.951c0-.338.021-.76.042-1.267-.116,0-.686-.01-1.711-.042h-.2c-.032,0-.127,0-.243.01V22.316a9.386,9.386,0,0,0,1.975.158h.232c.011-.211.011-.211.042-.633.01-.137.021-.4.021-.6a.6.6,0,0,0-.021-.169l1.309.063a6.3,6.3,0,0,0-.19,1.3,19.083,19.083,0,0,0,4-.56l.053,1.215a3.9,3.9,0,0,0-.412.042,33.841,33.841,0,0,1-3.716.369c-.032.454-.043.792-.053,1.014a5.845,5.845,0,0,1,1.456-.137,3.014,3.014,0,0,1,.4.021,3.927,3.927,0,0,0,.211-.8Zm-5.226,2.8a2.1,2.1,0,0,0-.476,1.289c0,.475.233.771.6.771a1.454,1.454,0,0,0,.918-.4A11.6,11.6,0,0,1,46.946,26,3.142,3.142,0,0,0,46.091,26.729Zm2.069.877a.949.949,0,0,1,.117-.148,8.046,8.046,0,0,0,1.309-2.112,2.621,2.621,0,0,0-.275-.01,3.864,3.864,0,0,0-1.267.19,17.784,17.784,0,0,0,.074,1.816.584.584,0,0,1,.01.137.412.412,0,0,0,.011.116Z" fill="#fff"/>
      <path id="パス_21" data-name="パス 21" d="M60.763,21.175a5.443,5.443,0,0,0-.169.708c-.053.253-.106.464-.222.929a9.011,9.011,0,0,0,1.689-.3l.032,1.215a2.009,2.009,0,0,0-.338.052c-.38.064-1.024.138-1.678.191a20.362,20.362,0,0,1-1.162,3.062c-.243.517-.338.707-.739,1.446-.138.254-.138.254-.2.38l-1.214-.675a9.587,9.587,0,0,0,1.024-1.69A16.239,16.239,0,0,0,58.778,24c-.476.011-.539.011-.666.011s-.2,0-.422-.011L57.131,24v-1.2a7.32,7.32,0,0,0,1.425.095c.127,0,.306,0,.538-.011a10.718,10.718,0,0,0,.317-1.837Zm4.783,8.553a6.386,6.386,0,0,0-1.616-1.309c.011.095.022.169.022.211a1.684,1.684,0,0,1-.455,1.119,2.438,2.438,0,0,1-1.753.592c-1.393,0-2.3-.7-2.3-1.774s.94-1.816,2.281-1.816a5.246,5.246,0,0,1,.982.1c-.032-.486-.053-.9-.053-1.215a5.629,5.629,0,0,1,.084-1.066l1.225.063a3.543,3.543,0,0,0-.126,1.067,11.349,11.349,0,0,0,.094,1.446,6.612,6.612,0,0,1,1.669.972,4.026,4.026,0,0,1,.37.285,2,2,0,0,0,.158.148ZM61.8,27.8c-.686,0-1.129.285-1.129.728s.38.687,1.035.687c.717,0,1.066-.3,1.066-.887,0-.106-.021-.359-.021-.359A2.658,2.658,0,0,0,61.8,27.8Zm3.8-2.925a12.966,12.966,0,0,0-3.041-1.478l.633-1.024a16.682,16.682,0,0,1,2.978,1.414Z" fill="#fff"/>
      <path id="パス_22" data-name="パス 22" d="M70.05,22.78a8.324,8.324,0,0,0,1.414.095c.127,0,.243,0,.486-.01a12.834,12.834,0,0,0,.2-1.616,1.381,1.381,0,0,0-.011-.19l1.394.127a5.951,5.951,0,0,0-.2,1.014c-.053.3-.064.359-.106.6a8.836,8.836,0,0,0,1.805-.317l.053,1.214c-.084.011-.084.011-.337.053a14.643,14.643,0,0,1-1.732.222c-.116.654-.38,1.774-.655,2.734A35.687,35.687,0,0,1,71.18,30.2l-1.331-.517A22.52,22.52,0,0,0,71.739,24a.857.857,0,0,1-.137.011H70.99c-.053,0-.159,0-.339-.011s-.337-.01-.422-.01a1.685,1.685,0,0,0-.2.01Zm5.237,4.1a1.749,1.749,0,0,0-.549,1.162c0,.538.528.813,1.584.813a8.075,8.075,0,0,0,2.4-.391l.1,1.3c-.191.021-.275.032-.518.074A12.357,12.357,0,0,1,76.333,30a4.29,4.29,0,0,1-2.123-.423,1.526,1.526,0,0,1-.75-1.3,2.978,2.978,0,0,1,.782-1.827Zm3.136-1.383a10.956,10.956,0,0,0-1.33-.074,11.408,11.408,0,0,0-2.788.306l-.1-1.161a13.552,13.552,0,0,1,3.146-.338c.286,0,.38,0,1.046.011Z" fill="#fff"/>
      <path id="パス_23" data-name="パス 23" d="M85.461,21.112a17.634,17.634,0,0,0,.7,3.305c.686-.253.686-.253,2.734-.929a2.879,2.879,0,0,0,.4-.159l.454,1.331a26,26,0,0,0-3.485,1.013c-1.541.571-2.313,1.247-2.313,2.007s.719,1.1,2.419,1.1a11.569,11.569,0,0,0,3.41-.433l.116,1.447a6.591,6.591,0,0,0-.855.073,22.117,22.117,0,0,1-2.471.159,5.917,5.917,0,0,1-3.062-.581,2,2,0,0,1-.918-1.763,2.474,2.474,0,0,1,.94-1.89,6.46,6.46,0,0,1,1.435-.908,26.962,26.962,0,0,1-.707-2.862,4.48,4.48,0,0,0-.169-.686Z" fill="#fff"/>
      <path id="パス_24" data-name="パス 24" d="M95.053,22.284a11.767,11.767,0,0,0-.063-1.267H96.3a8.363,8.363,0,0,0-.073,1.267v1.035h1.71V22.157a7.7,7.7,0,0,0-.074-1.151h1.267a9.922,9.922,0,0,0-.063,1.141v1.172h1.774V22.136a8.793,8.793,0,0,0-.063-1.13h1.288a7.47,7.47,0,0,0-.074,1.141v1.172h.37a8.651,8.651,0,0,0,1.161-.064v1.183a9.059,9.059,0,0,0-1.161-.063h-.37V26.7a9.435,9.435,0,0,0,.042.95c-.285-.021-.528-.032-.887-.032H98.812c-.358,0-.591.011-.918.032a7.02,7.02,0,0,0,.042-.9V24.375h-1.71v4.688h5.5a12.127,12.127,0,0,0,1.33-.063v1.225a12.546,12.546,0,0,0-1.33-.064h-5.5v.56H94.99a14.915,14.915,0,0,0,.063-1.5V24.375h-.211a8.961,8.961,0,0,0-1.161.063V23.255a8.871,8.871,0,0,0,1.161.064h.211Zm4.013,2.091v2.217h1.774V24.375Z" fill="#fff"/>
      <path id="パス_25" data-name="パス 25" d="M108.987,25.6a10.949,10.949,0,0,0-1.109.042,10.172,10.172,0,0,0,.053-1.1V22.337a10.541,10.541,0,0,0-.053-1.13,8.358,8.358,0,0,0,1.13.053h5.659a8.715,8.715,0,0,0,1.14-.053,8.081,8.081,0,0,0-.052,1.13v2.207a7.67,7.67,0,0,0,.052,1.1c-.337-.032-.664-.042-1.129-.042h-.929a6.846,6.846,0,0,0,3.093,1.573,4.8,4.8,0,0,0-.559,1.14,9.9,9.9,0,0,1-2.3-1.161V29.5a7.582,7.582,0,0,0,.063,1.161h-1.277a8.794,8.794,0,0,0,.063-1.172V27.521a5.458,5.458,0,0,0-.053-.834h.613a5.964,5.964,0,0,1-1.046-1.087h-1.1a5.4,5.4,0,0,1-.982,1.087h.792a3.493,3.493,0,0,0-.042.486c-.074,1.964-.866,2.893-3.009,3.579a4.513,4.513,0,0,0-.708-.971,4.4,4.4,0,0,0,1.932-.876,2.163,2.163,0,0,0,.645-1.753c0-.021-.011-.074-.011-.137a8.3,8.3,0,0,1-2.429,1.3,4.3,4.3,0,0,0-.591-1.077,6.082,6.082,0,0,0,3-1.636Zm.074-2.577h2.185v-.8h-2.185Zm0,1.69h2.185v-.792h-2.185Zm3.273-1.69h2.28v-.8h-2.28Zm0,1.69h2.28v-.792h-2.28Z" fill="#fff"/>
      <path id="パス_26" data-name="パス 26" d="M120.649,22.2a12.775,12.775,0,0,0,2.45.137,4.17,4.17,0,0,0,.422-1.309l1.383.147a8.311,8.311,0,0,0-.422.951c-.052.116-.074.148-.1.19.084-.011.084-.011.666-.042a14.179,14.179,0,0,0,2.766-.36l.074,1.2c-.3.021-.3.021-.834.085-.771.1-2.112.179-3.179.211a5.465,5.465,0,0,1-.971,1.4l.011.022c.073-.053.073-.053.211-.159a2.548,2.548,0,0,1,1.489-.475,1.389,1.389,0,0,1,1.509,1.119q1.221-.443,1.616-.57a3.292,3.292,0,0,0,.781-.317l.5,1.215a9.173,9.173,0,0,0-1.173.285q-.22.063-1.583.538v.116c.01.275.01.275.01.423v.422c-.01.179-.01.274-.01.349a4.355,4.355,0,0,0,.031.559l-1.225.032a8.234,8.234,0,0,0,.064-1.225V26.9a6.4,6.4,0,0,0-1.014.55,1.111,1.111,0,0,0-.549.865c0,.549.507.771,1.785.771a9.177,9.177,0,0,0,3.1-.443L128.569,30a3.062,3.062,0,0,0-.486.042,19.172,19.172,0,0,1-2.7.19,4.544,4.544,0,0,1-2.355-.443,1.532,1.532,0,0,1-.771-1.363,1.684,1.684,0,0,1,.465-1.172,5.173,5.173,0,0,1,2.27-1.489.58.58,0,0,0-.644-.57,3.572,3.572,0,0,0-2.165,1.088,4.8,4.8,0,0,0-.919.961l-.96-.951a6.492,6.492,0,0,0,.95-.939,13.984,13.984,0,0,0,1.267-1.806.5.5,0,0,1,.085-.137c-.043,0-.18.011-.18.011-.169,0-1.1-.022-1.33-.022-.2-.01-.2-.01-.3-.01a1.23,1.23,0,0,0-.169.01Z" fill="#fff"/>
      <path id="パス_27" data-name="パス 27" d="M140.9,27.131c-.158.137-.158.137-.634.612a12.438,12.438,0,0,1-1.34,1.141,11.1,11.1,0,0,0,3.738.623,4.112,4.112,0,0,0-.581,1.193,14.866,14.866,0,0,1-2.63-.539,8.83,8.83,0,0,1-1.636-.623,12.224,12.224,0,0,1-4.5,1.109,3.635,3.635,0,0,0-.571-1.109,10.645,10.645,0,0,0,3.949-.654,6.5,6.5,0,0,1-1.1-.919,7.451,7.451,0,0,1-1.616.792,3.864,3.864,0,0,0-.644-.929,7.018,7.018,0,0,0,2.238-1.141,4.242,4.242,0,0,0,1.1-1.161l1.045.433a1.6,1.6,0,0,1-.179.211,1.385,1.385,0,0,0-.138.158c-.021.032-.052.074-.1.127h2a4.156,4.156,0,0,0,.919-.064ZM135.7,23.488a6.238,6.238,0,0,1-.845,1.352,6.922,6.922,0,0,1-.992,1.034,2.586,2.586,0,0,1-.221-.19c-.276-.222-.276-.222-.413-.327l-.179-.127a1.351,1.351,0,0,1-.116-.084,6.235,6.235,0,0,0,.918-.813,4.11,4.11,0,0,0,.824-1.32Zm-1.478-.655a8.753,8.753,0,0,0-1.172.053v-1.13a8.9,8.9,0,0,0,1.246.063h2.788v-.211a3.306,3.306,0,0,0-.053-.686h1.32a3.2,3.2,0,0,0-.053.676v.221h2.8a9.972,9.972,0,0,0,1.278-.063v1.13c-.349-.032-.74-.053-1.247-.053H139.46v2.144c0,.591-.242.791-.982.791-.338,0-.623-.01-.834-.02a2.211,2.211,0,0,0-.328-1.035,4.81,4.81,0,0,0,.8.074c.2,0,.243-.042.243-.2V22.833h-.982a4.246,4.246,0,0,1-.422,2.017,3.456,3.456,0,0,1-1.384,1.341,3.564,3.564,0,0,0-.939-.708c.824-.422,1.13-.7,1.362-1.182a3.319,3.319,0,0,0,.285-1.468Zm2.186,4.541a6.05,6.05,0,0,0,1.373.992,6.671,6.671,0,0,0,1.33-.992Zm4.1-4.256a17.38,17.38,0,0,1,1.9,2.028l-.992.749a9.759,9.759,0,0,0-1.775-2.2Z" fill="#fff"/>
      <path id="パス_28" data-name="パス 28" d="M146.91,23.889a4.416,4.416,0,0,0,.623.032,36.248,36.248,0,0,0,3.749-.233,2.624,2.624,0,0,0,.844-.168l.708.908a6.876,6.876,0,0,0-.9.792c-.57.548-1.478,1.361-1.806,1.615a1.633,1.633,0,0,1,.645-.127.952.952,0,0,1,.876.444,1.715,1.715,0,0,1,.232.971c.074.834.212.982.908.982a5.609,5.609,0,0,0,2.08-.4l.159,1.309c-.179.011-.243.021-.929.127a9.291,9.291,0,0,1-1.479.127,2.011,2.011,0,0,1-1.478-.4c-.295-.274-.38-.528-.433-1.362a1.718,1.718,0,0,0-.1-.675.487.487,0,0,0-.444-.222c-.5,0-.971.295-1.826,1.119-.539.517-1.109,1.13-1.489,1.574l-.972-1.1a20.633,20.633,0,0,0,2.45-2.112c.243-.221.433-.4,1.225-1.161q.428-.411,1.235-1.172c-.6.1-.876.137-1.373.18-.147.01-.147.01-1.066.084-.2.021-.2.021-.549.053-.391.031-.465.042-.813.084Zm1.309-2.735a15.143,15.143,0,0,0,4.2.592l-.2,1.182a19.514,19.514,0,0,1-4.382-.623Z" fill="#fff"/>
      <path id="パス_29" data-name="パス 29" d="M157.707,22.453c.232.011.349.011.4.011.19,0,.19,0,1.742-.106.592-.032,2.345-.127,5.269-.264a6.046,6.046,0,0,0,1.215-.1l.074,1.351a1.584,1.584,0,0,0-.222-.011,4.724,4.724,0,0,0-2.091.571,3.433,3.433,0,0,0-2.133,2.819,1.772,1.772,0,0,0,1.4,1.721,6.386,6.386,0,0,0,1.574.274c.011,0,.1,0,.211-.01l-.19,1.436a2.175,2.175,0,0,0-.359-.063,6.347,6.347,0,0,1-2.47-.7,2.825,2.825,0,0,1-1.51-2.545,3.72,3.72,0,0,1,1-2.492,4.659,4.659,0,0,1,1.467-1.056c-.855.127-1.267.158-3.559.328a15.039,15.039,0,0,0-1.752.211Z" fill="#fff"/>
      <path id="パス_30" data-name="パス 30" d="M172.041,22.031a12.214,12.214,0,0,0-.085,1.6,19.8,19.8,0,0,0,.2,2.83c.18,1.1.518,1.773.855,1.773.159,0,.307-.158.433-.453a7.776,7.776,0,0,0,.56-1.912,5.242,5.242,0,0,0,1.056.961c-.549,2.059-1.162,2.914-2.059,2.914-.707,0-1.277-.517-1.7-1.531-.433-1.056-.623-2.587-.666-5.511a5.1,5.1,0,0,0-.041-.676Zm4.994.475a10.521,10.521,0,0,1,2.376,5.681l-1.309.5a10.712,10.712,0,0,0-.676-3.052,9.194,9.194,0,0,0-1.5-2.6Z" fill="#fff"/>
      <path id="パス_31" data-name="パス 31" d="M188.466,21.957a16.225,16.225,0,0,0-1.3,1.161c-.539.5-1.278,1.088-2.513,2.028-.328.242-.4.327-.4.443,0,.159.021.179.95.877a35.447,35.447,0,0,1,3.327,2.755,2.513,2.513,0,0,0,.306.264l-1.087,1.1a10.173,10.173,0,0,0-1.373-1.447,33.581,33.581,0,0,0-2.725-2.249c-.7-.539-.887-.824-.887-1.31a1.237,1.237,0,0,1,.349-.855,6.48,6.48,0,0,1,.929-.76,23.743,23.743,0,0,0,2.44-2.059,5.244,5.244,0,0,0,.77-.876Z" fill="#fff"/>
      <path id="パス_32" data-name="パス 32" d="M195.019,28.831a1.785,1.785,0,1,1-1.784-1.785A1.791,1.791,0,0,1,195.019,28.831Zm-2.745,0a.961.961,0,1,0,.961-.961A.967.967,0,0,0,192.274,28.831Z" fill="#fff"/>
    </g>
  </g>
</svg>
