<svg xmlns="http://www.w3.org/2000/svg" width="331.286" height="115.409" viewBox="0 0 331.286 115.409">
  <g id="グループ_38" data-name="グループ 38" transform="translate(-194.357 -6163.091)">
    <g id="グループ_36" data-name="グループ 36">
      <path id="パス_265" data-name="パス 265" d="M303.585,6255.023c0,12.828,9.276,22.909,23.922,22.909h13.524v-12.146H328.725c-7.867,0-12.207-4.663-12.207-10.763s4.34-10.766,12.207-10.766h12.306v-12.146H327.507C312.861,6232.111,303.585,6242.183,303.585,6255.023Z" fill="#d70019"/>
      <path id="パス_266" data-name="パス 266" d="M451.871,6231.546c-4.949,0-9.565,1-15.55,5.033-5.981-4.034-10.6-5.033-15.553-5.033-11.015,0-18.709,7.573-18.709,18.484v27.9h12.923v-27.255c0-4.659,2.848-6.993,7.513-6.993,4.929,0,7.372,2.465,7.372,6.411v27.837h12.914V6250.1c0-3.946,2.435-6.411,7.368-6.411,4.666,0,7.509,2.334,7.509,6.993v27.255h12.93v-27.9C470.588,6239.119,462.892,6231.546,451.871,6231.546Z" fill="#d70019"/>
      <path id="パス_267" data-name="パス 267" d="M501.633,6231.546c-15.36,0-24.042,11.973-24.042,23.488,0,11.476,8.682,23.466,24.042,23.466,15.326,0,24.01-11.99,24.01-23.466C525.643,6243.519,516.959,6231.546,501.633,6231.546Zm-.021,34.805c-7.2,0-11.094-5.61-11.094-11.328s3.9-11.339,11.094-11.339,11.1,5.615,11.1,11.339S508.815,6266.351,501.612,6266.351Z" fill="#d70019"/>
      <path id="パス_268" data-name="パス 268" d="M229.308,6211.4v23.036a22.013,22.013,0,0,0-11.2-2.887c-15.506,0-23.748,12.069-23.748,23.488,0,11.376,8.242,23.465,23.748,23.465,11.653,0,16.006-5.633,24.13-9.359V6211.4Zm-22.018,43.625c0-5.723,3.9-11.339,11.094-11.339s10.966,5.379,11.093,11.043v.59c-.127,5.664-3.893,11.034-11.093,11.034S207.29,6260.741,207.29,6255.023Z" fill="#d70019"/>
      <path id="パス_269" data-name="パス 269" d="M280.591,6211.4l-.02,3.127h-4.54l.014,11.381h-3.356V6214.53H268.15V6211.4Z" fill="#d70019"/>
      <path id="パス_270" data-name="パス 270" d="M295.505,6211.4v3.127h-4.548v11.381H287.6V6214.53H283.06V6211.4Z" fill="#d70019"/>
      <path id="パス_271" data-name="パス 271" d="M255.494,6211.4l6.6,9.307v-9.3H265.3v14.5h-3.52l-6.564-9.281v9.281H252V6211.4Z" fill="#d70019"/>
      <path id="パス_272" data-name="パス 272" d="M273.563,6231.546c-15.357,0-24.04,11.973-24.04,23.488,0,11.476,8.683,23.466,24.04,23.466,15.326,0,24.011-11.99,24.011-23.466C297.574,6243.519,288.889,6231.546,273.563,6231.546Zm-.017,34.805c-7.2,0-11.094-5.61-11.094-11.328s3.9-11.339,11.094-11.339,11.1,5.615,11.1,11.339S280.745,6266.351,273.546,6266.351Z" fill="#d70019"/>
      <path id="パス_273" data-name="パス 273" d="M371.036,6231.546c-15.35,0-24.037,11.973-24.037,23.488,0,11.476,8.687,23.466,24.037,23.466s24.022-11.99,24.022-23.466C395.058,6243.519,386.373,6231.546,371.036,6231.546Zm-.01,34.805c-7.2,0-11.1-5.61-11.1-11.328s3.9-11.339,11.1-11.339,11.1,5.615,11.1,11.339S378.229,6266.351,371.026,6266.351Z" fill="#d70019"/>
    </g>
    <g id="グループ_37" data-name="グループ 37">
      <path id="パス_274" data-name="パス 274" d="M211.87,6169.662a5.7,5.7,0,0,0-.275.668c-.231.646-.255.669-.324.877a6.2,6.2,0,0,1,2.4,1.129,5.144,5.144,0,0,1,2.191,4.358c0,2.513-1.361,4.472-3.966,5.764a12.828,12.828,0,0,1-4.7,1.221,7.435,7.435,0,0,0-1.223-2.6,9.558,9.558,0,0,0,4.4-.922c1.844-.876,2.7-2.006,2.7-3.6a3.38,3.38,0,0,0-2.582-3.181,20.382,20.382,0,0,1-4.012,6.133c-2.075,2.19-4.127,3.319-6.04,3.319-2.145,0-3.6-1.636-3.6-4.034a7.24,7.24,0,0,1,2.282-5.164,9.522,9.522,0,0,1,3.159-2.076c0-.738.046-1.66.091-2.766-.253,0-1.5-.023-3.734-.092H198.2c-.07,0-.277,0-.53.022v-2.582a20.323,20.323,0,0,0,4.311.346h.507c.024-.461.024-.461.093-1.383.022-.3.046-.876.046-1.314a1.3,1.3,0,0,0-.046-.369l2.858.138a13.65,13.65,0,0,0-.415,2.836,41.813,41.813,0,0,0,8.738-1.222l.115,2.651c-.322.024-.415.024-.9.093a73.619,73.619,0,0,1-8.114.806c-.071.992-.093,1.73-.116,2.214a12.716,12.716,0,0,1,3.181-.3,6.554,6.554,0,0,1,.876.046,8.526,8.526,0,0,0,.461-1.752Zm-11.412,6.109a4.573,4.573,0,0,0-1.038,2.814c0,1.037.508,1.683,1.315,1.683a3.174,3.174,0,0,0,2.006-.877,25.333,25.333,0,0,1-.415-5.21A6.858,6.858,0,0,0,200.458,6175.771Zm4.518,1.914a2.205,2.205,0,0,1,.255-.323,17.5,17.5,0,0,0,2.858-4.611,5.422,5.422,0,0,0-.6-.023,8.462,8.462,0,0,0-2.767.415,38.682,38.682,0,0,0,.162,3.966,1.222,1.222,0,0,1,.023.3.956.956,0,0,0,.023.254Z" fill="#d70019"/>
      <path id="パス_275" data-name="パス 275" d="M232.494,6163.644a11.9,11.9,0,0,0-.368,1.545c-.115.554-.231,1.014-.484,2.029a19.857,19.857,0,0,0,3.688-.645l.069,2.651a4.518,4.518,0,0,0-.737.115c-.83.138-2.236.3-3.666.415a44.312,44.312,0,0,1-2.536,6.686c-.53,1.13-.738,1.545-1.615,3.159-.3.553-.3.553-.437.83l-2.652-1.476a20.852,20.852,0,0,0,2.237-3.689,35.539,35.539,0,0,0,2.168-5.441c-1.038.024-1.176.024-1.453.024-.3,0-.438,0-.923-.024l-1.221-.023v-2.628a15.959,15.959,0,0,0,3.113.207c.275,0,.668,0,1.174-.023a23.436,23.436,0,0,0,.692-4.012Zm10.445,18.675a13.972,13.972,0,0,0-3.528-2.859c.024.208.046.369.046.462a3.689,3.689,0,0,1-.991,2.444,5.323,5.323,0,0,1-3.828,1.291c-3.042,0-5.026-1.522-5.026-3.874,0-2.329,2.053-3.965,4.981-3.965a11.469,11.469,0,0,1,2.144.207c-.069-1.06-.115-1.959-.115-2.651a12.267,12.267,0,0,1,.184-2.329l2.675.139a7.7,7.7,0,0,0-.277,2.328,24.735,24.735,0,0,0,.207,3.159,14.434,14.434,0,0,1,3.643,2.121,8.846,8.846,0,0,1,.808.622,3.786,3.786,0,0,0,.346.323Zm-8.185-4.219c-1.5,0-2.466.622-2.466,1.591,0,.945.83,1.5,2.259,1.5,1.567,0,2.328-.646,2.328-1.937,0-.23-.045-.784-.045-.784A5.8,5.8,0,0,0,234.754,6178.1Zm8.3-6.386a28.24,28.24,0,0,0-6.639-3.228l1.383-2.236a36.406,36.406,0,0,1,6.5,3.089Z" fill="#d70019"/>
      <path id="パス_276" data-name="パス 276" d="M252.773,6167.149a18.355,18.355,0,0,0,3.089.207c.277,0,.53,0,1.06-.022a27.937,27.937,0,0,0,.439-3.528,3.006,3.006,0,0,0-.024-.415l3.044.276a12.872,12.872,0,0,0-.437,2.214c-.116.645-.14.784-.231,1.314a19.1,19.1,0,0,0,3.941-.692l.116,2.651c-.185.024-.185.024-.737.116a31.318,31.318,0,0,1-3.781.484c-.254,1.43-.83,3.874-1.43,5.972a78.256,78.256,0,0,1-2.582,7.631l-2.9-1.13a49.266,49.266,0,0,0,4.127-12.4,1.888,1.888,0,0,1-.3.024h-1.338c-.115,0-.346,0-.739-.024-.415-.023-.737-.023-.921-.023a3.406,3.406,0,0,0-.439.023Zm11.436,8.945a3.823,3.823,0,0,0-1.2,2.536c0,1.176,1.152,1.775,3.458,1.775a17.661,17.661,0,0,0,5.234-.852l.206,2.836c-.414.046-.6.069-1.129.161a26.851,26.851,0,0,1-4.287.369,9.357,9.357,0,0,1-4.635-.923,3.331,3.331,0,0,1-1.638-2.835c0-1.222.439-2.259,1.707-3.989Zm6.847-3.02a24.023,24.023,0,0,0-2.9-.161,24.884,24.884,0,0,0-6.086.668l-.208-2.536a29.6,29.6,0,0,1,6.87-.738c.623,0,.83,0,2.283.023Z" fill="#d70019"/>
      <path id="パス_277" data-name="パス 277" d="M286.422,6163.506a38.758,38.758,0,0,0,1.522,7.216c1.5-.553,1.5-.553,5.971-2.028a6.471,6.471,0,0,0,.877-.346l.991,2.9a56.554,56.554,0,0,0-7.608,2.214c-3.366,1.245-5.05,2.721-5.05,4.381,0,1.683,1.568,2.4,5.281,2.4a25.244,25.244,0,0,0,7.446-.945l.253,3.159a14.381,14.381,0,0,0-1.866.161,48.66,48.66,0,0,1-5.4.346c-3.2,0-5.21-.392-6.686-1.268a4.361,4.361,0,0,1-2.006-3.85,5.407,5.407,0,0,1,2.053-4.127,14.151,14.151,0,0,1,3.135-1.983,58.254,58.254,0,0,1-1.544-6.248,9.806,9.806,0,0,0-.37-1.5Z" fill="#d70019"/>
      <path id="パス_278" data-name="パス 278" d="M307.368,6166.066a26.19,26.19,0,0,0-.137-2.767h2.858a17.909,17.909,0,0,0-.161,2.767v2.259h3.735v-2.537a16.751,16.751,0,0,0-.162-2.513h2.767a21.318,21.318,0,0,0-.138,2.49v2.56H320v-2.582a18.953,18.953,0,0,0-.138-2.468h2.813a16.367,16.367,0,0,0-.162,2.49v2.56h.808a19.116,19.116,0,0,0,2.536-.139v2.583a19.509,19.509,0,0,0-2.536-.139h-.808v5.072c0,.692.023,1.384.092,2.075-.622-.046-1.152-.069-1.936-.069h-5.1c-.783,0-1.291.023-2.006.069a15.1,15.1,0,0,0,.093-1.959v-5.188h-3.735v10.237H321.94a26.18,26.18,0,0,0,2.9-.139v2.675a27.974,27.974,0,0,0-2.9-.139H309.928v1.223h-2.7c.092-.969.137-1.937.137-3.274V6170.63h-.461a19.248,19.248,0,0,0-2.535.139v-2.583a19.569,19.569,0,0,0,2.535.139h.461Zm8.762,4.564v4.842H320v-4.842Z" fill="#d70019"/>
      <path id="パス_279" data-name="パス 279" d="M337.791,6173.305a24.216,24.216,0,0,0-2.421.092,21.887,21.887,0,0,0,.116-2.4v-4.819a22.626,22.626,0,0,0-.116-2.466,18.186,18.186,0,0,0,2.468.115H350.2a18.963,18.963,0,0,0,2.49-.115,17.17,17.17,0,0,0-.116,2.466V6171a16.315,16.315,0,0,0,.116,2.4c-.737-.069-1.452-.092-2.468-.092h-2.028a14.934,14.934,0,0,0,6.755,3.435,10.438,10.438,0,0,0-1.221,2.49,21.651,21.651,0,0,1-5.026-2.536v5.118a16.533,16.533,0,0,0,.138,2.536h-2.79a19.15,19.15,0,0,0,.138-2.559V6177.5a12.036,12.036,0,0,0-.115-1.822H347.4a13.029,13.029,0,0,1-2.282-2.374h-2.4a11.766,11.766,0,0,1-2.144,2.374h1.729a7.819,7.819,0,0,0-.091,1.061c-.162,4.289-1.891,6.317-6.571,7.816a9.721,9.721,0,0,0-1.545-2.121,9.623,9.623,0,0,0,4.219-1.914,4.718,4.718,0,0,0,1.407-3.827c0-.046-.024-.162-.024-.3a18.092,18.092,0,0,1-5.3,2.836,9.38,9.38,0,0,0-1.29-2.352,13.309,13.309,0,0,0,6.547-3.573Zm.162-5.626h4.771v-1.752h-4.771Zm0,3.689h4.771v-1.729h-4.771Zm7.147-3.689h4.979v-1.752H345.1Zm0,3.689h4.979v-1.729H345.1Z" fill="#d70019"/>
      <path id="パス_280" data-name="パス 280" d="M363.257,6165.881a27.909,27.909,0,0,0,5.348.3,9.149,9.149,0,0,0,.923-2.858l3.02.322a17.856,17.856,0,0,0-.922,2.075c-.115.254-.161.323-.208.415.184-.023.184-.023,1.453-.092a31.087,31.087,0,0,0,6.04-.784l.162,2.628c-.646.047-.646.047-1.821.185-1.684.208-4.611.392-6.941.461a11.905,11.905,0,0,1-2.121,3.067l.024.046c.16-.115.16-.115.461-.346a5.57,5.57,0,0,1,3.251-1.037,3.033,3.033,0,0,1,3.3,2.444q2.664-.969,3.528-1.246a7.265,7.265,0,0,0,1.706-.691l1.084,2.651a20.394,20.394,0,0,0-2.56.623q-.483.138-3.457,1.175v.254c.022.6.022.6.022.922v.922c-.022.392-.022.6-.022.761a9.3,9.3,0,0,0,.069,1.222l-2.676.069a18.086,18.086,0,0,0,.14-2.674v-.553a14,14,0,0,0-2.215,1.2,2.427,2.427,0,0,0-1.2,1.89c0,1.2,1.107,1.683,3.9,1.683a20.045,20.045,0,0,0,6.779-.968l.231,2.974a6.765,6.765,0,0,0-1.061.092,41.929,41.929,0,0,1-5.9.415c-2.445,0-3.966-.277-5.141-.968a3.344,3.344,0,0,1-1.684-2.975,3.677,3.677,0,0,1,1.014-2.559c1.038-1.291,2.352-2.167,4.957-3.251a1.265,1.265,0,0,0-1.407-1.245c-1.336,0-2.951.808-4.726,2.376a10.363,10.363,0,0,0-2.006,2.1l-2.1-2.076a14.143,14.143,0,0,0,2.075-2.052,30.621,30.621,0,0,0,2.767-3.942,1.061,1.061,0,0,1,.184-.3c-.093,0-.393.023-.393.023-.368,0-2.4-.046-2.9-.046-.438-.023-.438-.023-.646-.023a2.566,2.566,0,0,0-.369.023Z" fill="#d70019"/>
      <path id="パス_281" data-name="パス 281" d="M407.466,6176.648c-.346.3-.346.3-1.384,1.337a27.119,27.119,0,0,1-2.927,2.49,24.185,24.185,0,0,0,8.161,1.36,9.045,9.045,0,0,0-1.267,2.6,32.3,32.3,0,0,1-5.742-1.176,19.127,19.127,0,0,1-3.573-1.36c-2.929,1.384-5.3,1.96-9.823,2.421a7.963,7.963,0,0,0-1.245-2.421,23.232,23.232,0,0,0,8.623-1.429,13.975,13.975,0,0,1-2.4-2.006,16.217,16.217,0,0,1-3.528,1.729,8.446,8.446,0,0,0-1.406-2.028,15.323,15.323,0,0,0,4.888-2.491,9.267,9.267,0,0,0,2.4-2.536l2.282.945a3.525,3.525,0,0,1-.391.462,3.073,3.073,0,0,0-.3.346c-.046.069-.115.161-.208.276h4.358a9.254,9.254,0,0,0,2.006-.138Zm-11.343-7.954a13.692,13.692,0,0,1-1.846,2.951,15.081,15.081,0,0,1-2.166,2.259,6.36,6.36,0,0,1-.484-.415c-.6-.484-.6-.484-.9-.715l-.391-.277a2.414,2.414,0,0,1-.255-.184,13.416,13.416,0,0,0,2.006-1.775,8.953,8.953,0,0,0,1.8-2.882Zm-3.228-1.43a19.141,19.141,0,0,0-2.559.115v-2.467a19.555,19.555,0,0,0,2.72.139h6.087v-.461a7.283,7.283,0,0,0-.115-1.5h2.882a7.045,7.045,0,0,0-.115,1.476v.484H407.9a21.946,21.946,0,0,0,2.79-.139v2.467c-.761-.069-1.615-.115-2.722-.115h-3.641v4.681c0,1.291-.531,1.728-2.145,1.728-.738,0-1.361-.022-1.821-.045a4.829,4.829,0,0,0-.716-2.26,10.366,10.366,0,0,0,1.753.162c.439,0,.53-.093.53-.439v-3.827h-2.143a9.269,9.269,0,0,1-.923,4.4,7.554,7.554,0,0,1-3.02,2.929,7.746,7.746,0,0,0-2.052-1.545c1.8-.922,2.467-1.521,2.975-2.582a7.252,7.252,0,0,0,.621-3.205Zm4.772,9.914a13.268,13.268,0,0,0,3,2.168,14.535,14.535,0,0,0,2.9-2.168Zm8.945-9.292a38.07,38.07,0,0,1,4.151,4.427l-2.167,1.637a21.327,21.327,0,0,0-3.874-4.8Z" fill="#d70019"/>
      <path id="パス_282" data-name="パス 282" d="M420.6,6169.569a9.581,9.581,0,0,0,1.36.07,79.075,79.075,0,0,0,8.185-.508,5.743,5.743,0,0,0,1.845-.368l1.544,1.982a15.187,15.187,0,0,0-1.959,1.73c-1.245,1.2-3.229,2.973-3.943,3.527a3.555,3.555,0,0,1,1.406-.276,2.073,2.073,0,0,1,1.913.968,3.749,3.749,0,0,1,.508,2.121c.162,1.821.462,2.144,1.982,2.144a12.241,12.241,0,0,0,4.542-.876l.346,2.859c-.391.023-.53.046-2.028.277a20.363,20.363,0,0,1-3.228.276c-1.638,0-2.559-.253-3.229-.876-.644-.6-.829-1.153-.945-2.974a3.737,3.737,0,0,0-.229-1.475,1.066,1.066,0,0,0-.969-.485c-1.083,0-2.121.646-3.988,2.444-1.176,1.13-2.421,2.467-3.251,3.436l-2.121-2.4c1.014-.691,1.014-.691,5.348-4.611.53-.483.945-.876,2.675-2.536q.933-.9,2.7-2.559c-1.314.207-1.913.3-3,.392-.322.023-.322.023-2.328.185-.437.045-.437.045-1.2.115-.854.069-1.016.092-1.775.184Zm2.858-5.971a33.131,33.131,0,0,0,9.177,1.292l-.439,2.581a42.735,42.735,0,0,1-9.568-1.36Z" fill="#d70019"/>
      <path id="パス_283" data-name="パス 283" d="M444.172,6166.434c.507.023.761.023.877.023.415,0,.415,0,3.8-.23,1.291-.069,5.119-.277,11.505-.577a13.016,13.016,0,0,0,2.652-.23l.161,2.951a3.591,3.591,0,0,0-.484-.023,10.316,10.316,0,0,0-4.566,1.245c-2.927,1.522-4.657,3.827-4.657,6.156a3.872,3.872,0,0,0,3.067,3.758,13.965,13.965,0,0,0,3.435.6c.023,0,.23,0,.461-.023l-.415,3.136a4.811,4.811,0,0,0-.784-.139,13.887,13.887,0,0,1-5.394-1.521,6.17,6.17,0,0,1-3.3-5.557,8.126,8.126,0,0,1,2.19-5.441,10.176,10.176,0,0,1,3.2-2.305c-1.868.276-2.767.345-7.77.714a33.389,33.389,0,0,0-3.826.462Z" fill="#d70019"/>
      <path id="パス_284" data-name="パス 284" d="M475.47,6165.512a26.873,26.873,0,0,0-.184,3.5,42.918,42.918,0,0,0,.439,6.178c.391,2.4,1.129,3.873,1.866,3.873.346,0,.67-.346.945-.991a16.906,16.906,0,0,0,1.223-4.173,11.4,11.4,0,0,0,2.3,2.1c-1.2,4.5-2.536,6.364-4.495,6.364-1.545,0-2.79-1.13-3.712-3.343-.946-2.306-1.361-5.649-1.454-12.035a10.9,10.9,0,0,0-.091-1.476Zm10.906,1.037a22.991,22.991,0,0,1,5.187,12.4l-2.858,1.084a23.43,23.43,0,0,0-1.476-6.663,20.11,20.11,0,0,0-3.274-5.672Z" fill="#d70019"/>
      <path id="パス_285" data-name="パス 285" d="M511.335,6165.35a35.516,35.516,0,0,0-2.836,2.536c-1.176,1.084-2.789,2.376-5.487,4.427-.715.53-.876.715-.876.969,0,.346.046.391,2.074,1.913a77.53,77.53,0,0,1,7.264,6.018,5.578,5.578,0,0,0,.668.576l-2.374,2.4a22.408,22.408,0,0,0-3-3.158,73.089,73.089,0,0,0-5.948-4.912c-1.522-1.176-1.937-1.8-1.937-2.859a2.7,2.7,0,0,1,.761-1.867,14.053,14.053,0,0,1,2.028-1.66,51.415,51.415,0,0,0,5.327-4.5,11.423,11.423,0,0,0,1.682-1.913Z" fill="#d70019"/>
      <path id="パス_286" data-name="パス 286" d="M525.643,6180.36a3.9,3.9,0,1,1-3.9-3.9A3.911,3.911,0,0,1,525.643,6180.36Zm-5.995,0a2.1,2.1,0,1,0,2.1-2.1A2.112,2.112,0,0,0,519.648,6180.36Z" fill="#d70019"/>
    </g>
  </g>
</svg>
