<svg xmlns="http://www.w3.org/2000/svg" xmlns:xlink="http://www.w3.org/1999/xlink" width="1441" height="378.521" viewBox="0 0 1441 378.521">
  <defs>
    <clipPath id="clip-path">
      <rect id="長方形_37" data-name="長方形 37" width="370.331" height="373.552" transform="translate(0 4817.979)" fill="none"/>
    </clipPath>
    <filter id="楕円形_40" x="131.917" y="237.958" width="218.464" height="218.464" filterUnits="userSpaceOnUse">
      <feOffset dx="11.8" dy="11.8" input="SourceAlpha"/>
      <feGaussianBlur result="blur"/>
      <feFlood flood-color="#231815" flood-opacity="0.502"/>
      <feComposite operator="in" in2="blur"/>
      <feComposite in="SourceGraphic"/>
    </filter>
    <filter id="楕円形_42" x="-109.888" y="53.436" width="218.464" height="218.464" filterUnits="userSpaceOnUse">
      <feOffset dx="11.8" dy="11.8" input="SourceAlpha"/>
      <feGaussianBlur result="blur-2"/>
      <feFlood flood-color="#231815" flood-opacity="0.502"/>
      <feComposite operator="in" in2="blur-2"/>
      <feComposite in="SourceGraphic"/>
    </filter>
    <filter id="楕円形_44" x="-48.9" y="221.153" width="218.464" height="218.464" filterUnits="userSpaceOnUse">
      <feOffset dx="11.8" dy="11.8" input="SourceAlpha"/>
      <feGaussianBlur result="blur-3"/>
      <feFlood flood-color="#231815" flood-opacity="0.502"/>
      <feComposite operator="in" in2="blur-3"/>
      <feComposite in="SourceGraphic"/>
    </filter>
    <filter id="楕円形_62" x="168.4" y="123.913" width="83.224" height="83.224" filterUnits="userSpaceOnUse">
      <feOffset dx="4.495" dy="4.495" input="SourceAlpha"/>
      <feGaussianBlur result="blur-4"/>
      <feFlood flood-color="#231815" flood-opacity="0.502"/>
      <feComposite operator="in" in2="blur-4"/>
      <feComposite in="SourceGraphic"/>
    </filter>
    <filter id="楕円形_64" x="131.401" y="64.557" width="45.224" height="45.225" filterUnits="userSpaceOnUse">
      <feOffset dx="2.443" dy="2.443" input="SourceAlpha"/>
      <feGaussianBlur result="blur-5"/>
      <feFlood flood-color="#231815" flood-opacity="0.502"/>
      <feComposite operator="in" in2="blur-5"/>
      <feComposite in="SourceGraphic"/>
    </filter>
    <clipPath id="clip-path-2">
      <rect id="長方形_38" data-name="長方形 38" width="518.399" height="317.364" transform="translate(921.601 4874.167)" fill="none"/>
    </clipPath>
    <filter id="楕円形_46" x="1108.447" y="253.858" width="218.464" height="218.464" filterUnits="userSpaceOnUse">
      <feOffset dx="11.8" dy="11.8" input="SourceAlpha"/>
      <feGaussianBlur result="blur-6"/>
      <feFlood flood-color="#231815" flood-opacity="0.502"/>
      <feComposite operator="in" in2="blur-6"/>
      <feComposite in="SourceGraphic"/>
    </filter>
    <filter id="楕円形_48" x="1330.956" y="83.93" width="218.464" height="218.464" filterUnits="userSpaceOnUse">
      <feOffset dx="11.8" dy="11.8" input="SourceAlpha"/>
      <feGaussianBlur result="blur-7"/>
      <feFlood flood-color="#231815" flood-opacity="0.502"/>
      <feComposite operator="in" in2="blur-7"/>
      <feComposite in="SourceGraphic"/>
    </filter>
    <filter id="楕円形_50" x="1266.156" y="247.836" width="218.464" height="218.464" filterUnits="userSpaceOnUse">
      <feOffset dx="11.8" dy="11.8" input="SourceAlpha"/>
      <feGaussianBlur result="blur-8"/>
      <feFlood flood-color="#231815" flood-opacity="0.502"/>
      <feComposite operator="in" in2="blur-8"/>
      <feComposite in="SourceGraphic"/>
    </filter>
    <filter id="楕円形_58" x="1207.972" y="148.097" width="83.224" height="83.224" filterUnits="userSpaceOnUse">
      <feOffset dx="4.495" dy="4.495" input="SourceAlpha"/>
      <feGaussianBlur result="blur-9"/>
      <feFlood flood-color="#231815" flood-opacity="0.502"/>
      <feComposite operator="in" in2="blur-9"/>
      <feComposite in="SourceGraphic"/>
    </filter>
    <filter id="楕円形_60" x="1257.77" y="84.811" width="45.224" height="45.225" filterUnits="userSpaceOnUse">
      <feOffset dx="2.443" dy="2.443" input="SourceAlpha"/>
      <feGaussianBlur result="blur-10"/>
      <feFlood flood-color="#231815" flood-opacity="0.502"/>
      <feComposite operator="in" in2="blur-10"/>
      <feComposite in="SourceGraphic"/>
    </filter>
  </defs>
  <g id="グループ_479" data-name="グループ 479" transform="translate(0.5 -4817.979)">
    <g id="グループ_478" data-name="グループ 478">
      <g id="グループ_242" data-name="グループ 242">
        <g id="グループ_241" data-name="グループ 241" clip-path="url(#clip-path)">
          <g id="グループ_236" data-name="グループ 236">
            <g transform="matrix(1, 0, 0, 1, -0.5, 4817.98)" filter="url(#楕円形_40)">
              <circle id="楕円形_40-2" data-name="楕円形 40" cx="103.332" cy="103.332" r="103.332" transform="translate(131.92 237.96)" fill="#f9e842"/>
            </g>
            <path id="楕円形_41" data-name="楕円形 41" d="M91.435-3.371A94.807,94.807,0,1,1-3.371,91.435,94.914,94.914,0,0,1,91.435-3.371Zm0,182.87A88.064,88.064,0,1,0,3.371,91.435,88.164,88.164,0,0,0,91.435,179.5Z" transform="translate(143.313 5067.834)" fill="#d0a222"/>
            <g id="グループ_235" data-name="グループ 235">
              <path id="パス_825" data-name="パス 825" d="M193.1,5201.572l16.139-91.529a1.919,1.919,0,0,1,2.374-1.765l32,5.643c26.47,4.667,38.119,19.094,34.053,42.153-4.046,22.941-19.967,32.749-46.438,28.081l-10-1.762L217.1,5205.8a2.006,2.006,0,0,1-2.49,1.744l-19.883-3.506A1.917,1.917,0,0,1,193.1,5201.572Zm59.784-50.111c1.847-10.47-3.565-15.549-13.448-17.291l-9.412-1.66-5.207,29.529,9.412,1.66C244.11,5165.441,250.953,5162.4,252.882,5151.461Z" fill="#d0a222"/>
            </g>
          </g>
          <g id="グループ_238" data-name="グループ 238">
            <g transform="matrix(1, 0, 0, 1, -0.5, 4817.98)" filter="url(#楕円形_42)">
              <circle id="楕円形_42-2" data-name="楕円形 42" cx="103.332" cy="103.332" r="103.332" transform="translate(-109.89 53.44)" fill="#f9e842"/>
            </g>
            <path id="楕円形_43" data-name="楕円形 43" d="M91.435-3.371A94.807,94.807,0,1,1-3.371,91.435,94.914,94.914,0,0,1,91.435-3.371Zm0,182.87A88.064,88.064,0,1,0,3.371,91.435,88.164,88.164,0,0,0,91.435,179.5Z" transform="translate(-98.491 4883.313)" fill="#d0a222"/>
            <g id="グループ_237" data-name="グループ 237">
              <path id="パス_826" data-name="パス 826" d="M-58.225,5004.822l39.278-84.233a1.919,1.919,0,0,1,2.75-1.091l29.449,13.733c24.361,11.359,31.878,28.309,21.983,49.53-9.845,21.112-27.763,26.466-52.123,15.106l-9.2-4.292-10.047,21.546a2.008,2.008,0,0,1-2.858,1.04l-18.3-8.532A1.918,1.918,0,0,1-58.225,5004.822Zm70.717-32.93c4.493-9.636.58-15.943-8.516-20.183l-8.661-4.039-12.672,27.175,8.661,4.039C.4,4983.125,7.8,4981.961,12.492,4971.892Z" fill="#d0a222"/>
            </g>
          </g>
          <g id="グループ_240" data-name="グループ 240">
            <g transform="matrix(1, 0, 0, 1, -0.5, 4817.98)" filter="url(#楕円形_44)">
              <circle id="楕円形_44-2" data-name="楕円形 44" cx="103.332" cy="103.332" r="103.332" transform="translate(-48.9 221.15)" fill="#f9e842"/>
            </g>
            <path id="楕円形_45" data-name="楕円形 45" d="M91.435-3.371A94.807,94.807,0,1,1-3.371,91.435,94.914,94.914,0,0,1,91.435-3.371Zm0,182.87A88.064,88.064,0,1,0,3.371,91.435,88.164,88.164,0,0,0,91.435,179.5Z" transform="translate(-37.503 5051.03)" fill="#d0a222"/>
            <g id="グループ_239" data-name="グループ 239">
              <path id="パス_827" data-name="パス 827" d="M34.074,5198.41l-24.056-89.774a1.918,1.918,0,0,1,1.405-2.6l31.387-8.41c25.963-6.957,42.617,1.195,48.678,23.812,6.028,22.5-4.257,38.119-30.219,45.076l-9.809,2.628,6.153,22.963a2.006,2.006,0,0,1-1.521,2.633l-19.5,5.226A1.916,1.916,0,0,1,34.074,5198.41Zm33-70.681c-2.75-10.27-9.8-12.585-19.5-9.988l-9.231,2.473,7.762,28.964,9.23-2.474C65.035,5144.107,69.953,5138.461,67.077,5127.729Z" fill="#d0a222"/>
            </g>
          </g>
        </g>
      </g>
      <g id="グループ_274" data-name="グループ 274">
        <g transform="matrix(1, 0, 0, 1, -0.5, 4817.98)" filter="url(#楕円形_62)">
          <circle id="楕円形_62-2" data-name="楕円形 62" cx="39.364" cy="39.364" r="39.364" transform="translate(168.4 123.91)" fill="#f9e842"/>
        </g>
        <path id="楕円形_63" data-name="楕円形 63" d="M34.832-1.284A36.126,36.126,0,0,1,48.891,68.11,36.125,36.125,0,0,1,20.774,1.554,35.891,35.891,0,0,1,34.832-1.284Zm0,69.664A33.557,33.557,0,0,0,47.89,3.92,33.557,33.557,0,0,0,21.774,65.744,33.337,33.337,0,0,0,34.832,68.38Z" transform="translate(172.431 4946.424)" fill="#d0a222"/>
        <g id="グループ_273" data-name="グループ 273">
          <path id="パス_921" data-name="パス 921" d="M191.41,4997.385l6.15-34.874a.73.73,0,0,1,.9-.673l12.193,2.15c10.086,1.779,14.525,7.276,12.975,16.061-1.541,8.741-7.608,12.478-17.694,10.7l-3.811-.672-1.572,8.92a.765.765,0,0,1-.949.665l-7.575-1.336A.731.731,0,0,1,191.41,4997.385Zm22.778-19.093c.7-3.99-1.359-5.925-5.124-6.589l-3.586-.632-1.985,11.251,3.586.633C210.845,4983.618,213.453,4982.461,214.188,4978.292Z" fill="#d0a222"/>
        </g>
      </g>
      <g id="グループ_276" data-name="グループ 276">
        <g transform="matrix(1, 0, 0, 1, -0.5, 4817.98)" filter="url(#楕円形_64)">
          <circle id="楕円形_64-2" data-name="楕円形 64" cx="21.391" cy="21.391" r="21.391" transform="translate(131.4 64.56)" fill="#f9e842"/>
        </g>
        <path id="楕円形_65" data-name="楕円形 65" d="M18.928-.7a19.631,19.631,0,0,1,7.64,37.709A19.631,19.631,0,0,1,11.288.845,19.5,19.5,0,0,1,18.928-.7Zm0,37.856A18.23,18.23,0,0,0,31.819,6.037,18.23,18.23,0,0,0,6.037,31.819,18.111,18.111,0,0,0,18.928,37.158Z" transform="translate(133.363 4885)" fill="#d0a222"/>
        <g id="グループ_275" data-name="グループ 275">
          <path id="パス_922" data-name="パス 922" d="M148.207,4915.521l-4.98-18.588a.4.4,0,0,1,.291-.539l6.5-1.742c5.376-1.44,8.824.248,10.079,4.931,1.249,4.659-.881,7.892-6.257,9.333l-2.03.544,1.273,4.754a.414.414,0,0,1-.314.546l-4.038,1.082A.4.4,0,0,1,148.207,4915.521Zm6.834-14.635c-.57-2.127-2.03-2.606-4.037-2.069l-1.911.513,1.608,6,1.911-.512C154.618,4904.277,155.636,4903.107,155.041,4900.886Z" fill="#d0a222"/>
        </g>
      </g>
    </g>
    <g id="グループ_477" data-name="グループ 477">
      <g id="グループ_250" data-name="グループ 250">
        <g id="グループ_249" data-name="グループ 249" clip-path="url(#clip-path-2)">
          <g id="グループ_244" data-name="グループ 244">
            <g transform="matrix(1, 0, 0, 1, -0.5, 4817.98)" filter="url(#楕円形_46)">
              <circle id="楕円形_46-2" data-name="楕円形 46" cx="103.332" cy="103.332" r="103.332" transform="translate(1108.45 253.86)" fill="#f9e842"/>
            </g>
            <path id="楕円形_47" data-name="楕円形 47" d="M91.435-3.371A94.807,94.807,0,1,1-3.371,91.435,94.914,94.914,0,0,1,91.435-3.371Zm0,182.87A88.064,88.064,0,1,0,3.371,91.435,88.164,88.164,0,0,0,91.435,179.5Z" transform="translate(1119.843 5083.734)" fill="#d0a222"/>
            <g id="グループ_243" data-name="グループ 243">
              <path id="パス_828" data-name="パス 828" d="M1191.423,5231.115l-24.055-89.774a1.919,1.919,0,0,1,1.406-2.6l31.386-8.41c25.963-6.957,42.617,1.2,48.677,23.813,6.03,22.5-4.255,38.119-30.219,45.076l-9.807,2.628,6.152,22.963a2.005,2.005,0,0,1-1.52,2.633l-19.5,5.226A1.919,1.919,0,0,1,1191.423,5231.115Zm33.005-70.68c-2.752-10.271-9.8-12.586-19.5-9.989l-9.23,2.473,7.76,28.964,9.231-2.474C1222.385,5176.812,1227.3,5171.166,1224.428,5160.435Z" fill="#d0a222"/>
            </g>
          </g>
          <g id="グループ_246" data-name="グループ 246">
            <g transform="matrix(1, 0, 0, 1, -0.5, 4817.98)" filter="url(#楕円形_48)">
              <circle id="楕円形_48-2" data-name="楕円形 48" cx="103.332" cy="103.332" r="103.332" transform="translate(1330.96 83.93)" fill="#f9e842"/>
            </g>
            <path id="楕円形_49" data-name="楕円形 49" d="M91.435-3.371A94.807,94.807,0,1,1-3.371,91.435,94.914,94.914,0,0,1,91.435-3.371Zm0,182.87A88.064,88.064,0,1,0,3.371,91.435,88.164,88.164,0,0,0,91.435,179.5Z" transform="translate(1342.353 4913.807)" fill="#d0a222"/>
            <g id="グループ_245" data-name="グループ 245">
              <path id="パス_829" data-name="パス 829" d="M1382.623,5035.316l39.279-84.232a1.918,1.918,0,0,1,2.749-1.091l29.449,13.733c24.361,11.359,31.878,28.309,21.983,49.53-9.845,21.112-27.762,26.466-52.124,15.106l-9.2-4.292-10.047,21.546a2.007,2.007,0,0,1-2.858,1.04l-18.3-8.532A1.919,1.919,0,0,1,1382.623,5035.316Zm70.716-32.929c4.493-9.636.58-15.943-8.514-20.184l-8.662-4.038-12.671,27.175,8.661,4.039C1441.247,5013.62,1448.644,5012.456,1453.339,5002.387Z" fill="#d0a222"/>
            </g>
          </g>
          <g id="グループ_248" data-name="グループ 248">
            <g transform="matrix(1, 0, 0, 1, -0.5, 4817.98)" filter="url(#楕円形_50)">
              <circle id="楕円形_50-2" data-name="楕円形 50" cx="103.332" cy="103.332" r="103.332" transform="translate(1266.16 247.84)" fill="#f9e842"/>
            </g>
            <path id="楕円形_51" data-name="楕円形 51" d="M91.435-3.371A94.807,94.807,0,1,1-3.371,91.435,94.914,94.914,0,0,1,91.435-3.371Zm0,182.87A88.064,88.064,0,1,0,3.371,91.435,88.164,88.164,0,0,0,91.435,179.5Z" transform="translate(1277.553 5077.712)" fill="#d0a222"/>
            <g id="グループ_247" data-name="グループ 247">
              <path id="パス_830" data-name="パス 830" d="M1349.134,5225.093l-24.056-89.774a1.919,1.919,0,0,1,1.406-2.6l31.386-8.41c25.963-6.956,42.618,1.2,48.677,23.813,6.03,22.5-4.255,38.119-30.218,45.076l-9.808,2.628,6.153,22.963a2.008,2.008,0,0,1-1.521,2.634l-19.5,5.225A1.919,1.919,0,0,1,1349.134,5225.093Zm33.005-70.681c-2.752-10.27-9.8-12.586-19.5-9.988l-9.232,2.474,7.761,28.962,9.232-2.473C1380.1,5170.79,1385.015,5165.144,1382.139,5154.412Z" fill="#d0a222"/>
            </g>
          </g>
        </g>
      </g>
      <g id="グループ_270" data-name="グループ 270">
        <g transform="matrix(1, 0, 0, 1, -0.5, 4817.98)" filter="url(#楕円形_58)">
          <circle id="楕円形_58-2" data-name="楕円形 58" cx="39.364" cy="39.364" r="39.364" transform="translate(1207.97 148.1)" fill="#f9e842"/>
        </g>
        <path id="楕円形_59" data-name="楕円形 59" d="M34.832-1.284A36.126,36.126,0,0,1,48.891,68.11,36.125,36.125,0,0,1,20.774,1.554,35.891,35.891,0,0,1,34.832-1.284Zm0,69.664A33.557,33.557,0,0,0,47.89,3.92,33.557,33.557,0,0,0,21.774,65.744,33.337,33.337,0,0,0,34.832,68.38Z" transform="translate(1212.003 4970.608)" fill="#d0a222"/>
        <g id="グループ_269" data-name="グループ 269">
          <path id="パス_919" data-name="パス 919" d="M1230.983,5021.569l6.149-34.874a.73.73,0,0,1,.9-.672l12.193,2.149c10.086,1.779,14.525,7.276,12.975,16.062-1.541,8.741-7.608,12.478-17.694,10.7l-3.81-.672-1.573,8.92a.764.764,0,0,1-.949.664l-7.575-1.335A.731.731,0,0,1,1230.983,5021.569Zm22.777-19.092c.7-3.99-1.358-5.925-5.124-6.589l-3.586-.633-1.984,11.252,3.586.632C1250.417,5007.8,1253.026,5006.645,1253.76,5002.477Z" fill="#d0a222"/>
        </g>
      </g>
      <g id="グループ_272" data-name="グループ 272">
        <g transform="matrix(1, 0, 0, 1, -0.5, 4817.98)" filter="url(#楕円形_60)">
          <circle id="楕円形_60-2" data-name="楕円形 60" cx="21.391" cy="21.391" r="21.391" transform="translate(1257.77 84.81)" fill="#f9e842"/>
        </g>
        <path id="楕円形_61" data-name="楕円形 61" d="M18.928-.7a19.631,19.631,0,0,1,7.64,37.709A19.631,19.631,0,0,1,11.288.845,19.5,19.5,0,0,1,18.928-.7Zm0,37.856A18.23,18.23,0,0,0,31.819,6.037,18.23,18.23,0,0,0,6.037,31.819,18.111,18.111,0,0,0,18.928,37.158Z" transform="translate(1259.732 4905.253)" fill="#d0a222"/>
        <g id="グループ_271" data-name="グループ 271">
          <path id="パス_920" data-name="パス 920" d="M1274.577,4935.774l-4.981-18.587a.4.4,0,0,1,.291-.539l6.5-1.742c5.376-1.44,8.824.248,10.079,4.93,1.249,4.66-.881,7.893-6.257,9.334l-2.03.543,1.274,4.755a.416.416,0,0,1-.315.546l-4.038,1.082A.4.4,0,0,1,1274.577,4935.774Zm6.833-14.634c-.57-2.127-2.03-2.606-4.037-2.069l-1.911.513,1.608,6,1.911-.513C1280.988,4924.531,1282.005,4923.361,1281.41,4921.14Z" fill="#d0a222"/>
        </g>
      </g>
    </g>
    <path id="前面オブジェクトで型抜き_1" data-name="前面オブジェクトで型抜き 1" d="M5382,113.354H3942V103.237c47.9-11.459,99.708-21.823,153.987-30.8,54.88-9.08,112.978-16.859,172.678-23.122,60.785-6.376,124.066-11.267,188.083-14.536,65.573-3.349,132.931-5.046,200.2-5.046,68.448,0,136.962,1.758,203.638,5.225,65.075,3.383,129.348,8.442,191.034,15.037,60.577,6.476,119.442,14.515,174.959,23.895,54.92,9.278,107.211,19.977,155.418,31.8v7.668Z" transform="translate(-3942 5082.647)" fill="#fff5e0"/>
    <path id="前面オブジェクトで型抜き_1_-_アウトライン" data-name="前面オブジェクトで型抜き 1 - アウトライン" d="M5382,113.854H3941.5v-11.01l.384-.092c47.909-11.461,99.729-21.827,154.022-30.809,54.891-9.081,113-16.862,172.708-23.126,60.794-6.377,124.084-11.269,188.11-14.538,65.581-3.349,132.947-5.047,200.227-5.047,68.457,0,136.979,1.758,203.664,5.225,65.084,3.383,129.367,8.443,191.062,15.039,60.59,6.477,119.465,14.518,174.989,23.9C5281.6,82.674,5333.9,93.375,5382.119,105.2l.381.093v8.56Zm-1439.5-1h1439v-6.777c-48.089-11.781-100.236-22.445-155-31.7-55.5-9.377-114.359-17.416-174.929-23.891-61.677-6.593-125.941-11.652-191.007-15.035-66.668-3.466-135.173-5.224-203.612-5.224-67.263,0-134.612,1.7-200.176,5.046-64.008,3.269-127.28,8.159-188.057,14.534-59.69,6.262-117.777,14.039-172.649,23.118-54.124,8.954-105.791,19.284-153.569,30.7Z" transform="translate(-3942 5082.647)" fill="rgba(0,0,0,0)"/>
  </g>
</svg>
