<svg xmlns="http://www.w3.org/2000/svg" width="399.101" height="23.562" viewBox="0 0 399.101 23.562">
  <g id="グループ_261" data-name="グループ 261" transform="translate(-518.048 -5201.353)">
    <path id="パス_887" data-name="パス 887" d="M524.2,5222.9c-3.523,0-6.147-2.769-6.147-7.19,0-4.567,3.183-7.288,6.17-7.288a5.577,5.577,0,0,1,4.009,1.458l-.194-2.065.024-4.64h4.348v19.433h-3.474l-.364-1.287h-.1A5.608,5.608,0,0,1,524.2,5222.9Zm1.262-3.546a3.016,3.016,0,0,0,2.6-1.215v-5.344a4.645,4.645,0,0,0-2.7-.826c-1.458,0-2.868,1.117-2.868,3.668C522.493,5218.26,523.927,5219.353,525.457,5219.353Z" fill="#d00f31"/>
    <path id="パス_888" data-name="パス 888" d="M546.278,5214.009a42.346,42.346,0,0,1-4.689,6.825l-3.181-2.161a24.714,24.714,0,0,0,4.517-6.243Zm5.66-3.3v11.028c0,1.482-.923,2.478-2.794,2.478a34.217,34.217,0,0,1-4.227-.219l-.364-3.619a15.623,15.623,0,0,0,2.648.267c.607,0,.826-.2.85-.825.025-.681.025-7.823.025-9.11h-5.831c-.728,0-1.8.024-2.5.1v-3.862a21.924,21.924,0,0,0,2.5.194h5.831v-1.628a15.731,15.731,0,0,0-.219-2.332H552.2a17.424,17.424,0,0,0-.266,2.356v1.6h5.83a2.915,2.915,0,1,1,.826-.049c.461-.049.874-.072,1.191-.121v3.838c-.827-.073-1.9-.1-2.6-.1Zm4.93,1.6a59.8,59.8,0,0,1,4.13,6.413l-3.449,1.9a50.824,50.824,0,0,0-3.887-6.559Zm1.167-6.874a1.19,1.19,0,1,0-1.19-1.191A1.193,1.193,0,0,0,558.035,5205.434Z" fill="#d00f31"/>
    <path id="パス_889" data-name="パス 889" d="M577.47,5220.349a18.166,18.166,0,0,0,.243,3.522h-4.664a32.6,32.6,0,0,0,.194-3.522v-7.312a44.4,44.4,0,0,1-7.943,3.061l-2.089-3.572a35.671,35.671,0,0,0,11.15-4.372,25.193,25.193,0,0,0,6.341-5.539l3.158,2.843a41.465,41.465,0,0,1-6.39,5.2Z" fill="#d00f31"/>
    <path id="パス_890" data-name="パス 890" d="M597.854,5216.924a23.477,23.477,0,0,0,9.279-9.717l2.283,4.153a26.252,26.252,0,0,1-9.449,9.207,25.931,25.931,0,0,1-8.7,3.207l-2.5-3.887A25.021,25.021,0,0,0,597.854,5216.924Zm.825-7.944-3.012,3.085a50.562,50.562,0,0,0-6.1-5.32l2.794-2.988A49.044,49.044,0,0,1,598.679,5208.98Z" fill="#d00f31"/>
    <path id="パス_891" data-name="パス 891" d="M630.333,5217.409a75.725,75.725,0,0,0-8.355-3.473v6.243c0,.655.145,2.575.266,3.668h-4.615a27.293,27.293,0,0,0,.291-3.668v-13.871a16.937,16.937,0,0,0-.291-3.159h4.591a28.991,28.991,0,0,0-.242,3.159v3.328a80.24,80.24,0,0,1,10.032,3.668Z" fill="#d00f31"/>
    <path id="パス_892" data-name="パス 892" d="M642.482,5203.879a23.561,23.561,0,0,0-.68,2.453,62.6,62.6,0,0,0-1.142,8.575,4.523,4.523,0,0,0,.024.559c.316-.68.607-1.166.923-1.846L643.38,5215a62.57,62.57,0,0,0-1.749,6.2,7.819,7.819,0,0,0-.145,1.142c0,.266,0,.7.024,1.093l-3.352.218a30.641,30.641,0,0,1-.972-7.919,68.553,68.553,0,0,1,.947-9.474,27.137,27.137,0,0,0,.292-2.721Zm5.684,12a8.13,8.13,0,0,0-.243,1.919c0,1.069,1,1.458,2.964,1.458a28.769,28.769,0,0,0,6.073-.632l.073,3.936a34.6,34.6,0,0,1-6.34.461c-4.2,0-6.292-1.58-6.292-4.13a14.55,14.55,0,0,1,.437-3.3Zm8.114-10.567v3.765a72.985,72.985,0,0,1-10.568,0l-.023-3.741A54.889,54.889,0,0,0,656.28,5205.312Z" fill="#d00f31"/>
    <path id="パス_893" data-name="パス 893" d="M663.5,5208.2c1.749-.534,6.729-2.234,10.276-2.234,4.543,0,8.113,2.6,8.113,7.287,0,5.271-4.883,9.158-13.968,9.6l-1.7-3.887c6.632-.121,11.466-1.992,11.466-5.781,0-2.114-1.385-3.693-4.081-3.693-3.328,0-8.745,2.259-11.611,3.547l-1.628-4.081C661.238,5208.81,662.646,5208.445,663.5,5208.2Z" fill="#d00f31"/>
    <path id="パス_894" data-name="パス 894" d="M690,5208.349c0,1.579,0,3.157.146,4.76.291,3.159.777,5.37,2.162,5.37,1.117,0,1.968-3.013,2.308-4.641l2.939,3.6c-1.677,4.251-3.207,5.756-5.32,5.756-2.842,0-5.2-2.428-5.879-9.011-.242-2.284-.267-5.029-.267-6.56a14.237,14.237,0,0,0-.219-2.6l4.47.048A22.485,22.485,0,0,0,690,5208.349Zm16.567,9.741-3.863,1.481c-.339-3.619-1.505-9.765-4.324-12.826l3.717-1.215C704.454,5208.3,706.373,5214.615,706.568,5218.09Z" fill="#d00f31"/>
    <path id="パス_895" data-name="パス 895" d="M711.914,5205.506c2.259-.194,5.9-.485,10.3-.874,2.4-.194,5.247-.34,7-.413l.025,3.741a30.18,30.18,0,0,0-4.617.291,6.688,6.688,0,0,0-4.833,6.243c0,3.547,3.328,4.932,7.482,5.174l-1.36,4.058c-5.37-.413-9.96-3.328-9.96-8.454a9.809,9.809,0,0,1,3.036-7.021c-2.065.219-6.291.705-9.182,1.336l-.364-3.959C710.408,5205.6,711.452,5205.555,711.914,5205.506Z" fill="#d00f31"/>
    <path id="パス_896" data-name="パス 896" d="M742.427,5208.615h-9.741v-2.745h9.741Zm-.924,15.062h-4.76v.874h-2.964v-8.429H741.5Zm-7.627-14.332h7.676v2.623h-7.676Zm0,3.351h7.676v2.624h-7.676Zm7.627-7.53h-7.554v-2.623H741.5Zm-4.76,13.7v2.065h1.749v-2.065Zm19.093.753h-5.1v5.295h-3.5v-5.295h-5.2v-3.207h5.2v-1.894h-3.863v-3.134h3.863v-1.822h-4.4v-3.182h1.895a18.908,18.908,0,0,0-1.312-3.4l2.842-1.044a15.19,15.19,0,0,1,1.628,3.959l-1.264.486h4.519l-1.117-.364a24.7,24.7,0,0,0,1.554-4.251l3.45.971c-.681,1.336-1.361,2.648-1.944,3.644h2.332v3.182h-4.688v1.822h4.13v3.134h-4.13v1.894h5.1Z" fill="#d00f31"/>
    <path id="パス_897" data-name="パス 897" d="M765.846,5203.223c-.17,1.141-.315,2.6-.364,3.643-.121,2.527-.291,7.726-.291,10.373,0,2.308,1.336,3.036,2.963,3.036,3.741,0,6.267-2.185,8.016-4.882l2.648,3.256a12.758,12.758,0,0,1-10.688,5.611c-4.2,0-6.826-1.895-6.826-6.1,0-3.036.219-9.473.219-11.3a17.626,17.626,0,0,0-.365-3.692Z" fill="#d00f31"/>
    <path id="パス_898" data-name="パス 898" d="M798.861,5205.385c-.9.656-1.725,1.287-2.38,1.8-1.507,1.141-4.519,3.449-6.025,4.76-1.19,1.021-1.142,1.24.024,2.26,1.579,1.384,6.316,5.053,8.722,7.336l-3.4,3.158c-.777-.875-1.579-1.7-2.356-2.5-1.336-1.383-4.785-4.347-6.972-6.218-2.453-2.114-2.308-3.571.243-5.66,1.919-1.554,5-4.1,6.632-5.66a17.3,17.3,0,0,0,2.113-2.284Z" fill="#d00f31"/>
    <path id="パス_899" data-name="パス 899" d="M812.272,5203.806a23.115,23.115,0,0,0-.655,2.453,67.545,67.545,0,0,0-1.118,9.086,4.534,4.534,0,0,0,.024.558c.292-.7.583-1.166.9-1.871l1.774,1.409c-.73,2.163-1.458,4.592-1.749,5.976a7.224,7.224,0,0,0-.147,1.143c0,.266,0,.7.025,1.092l-3.28.219a27.638,27.638,0,0,1-1-7.7,73.743,73.743,0,0,1,.947-9.983c.1-.729.244-1.823.268-2.721Zm14.308,18.51a27.5,27.5,0,0,0-2.575-2.186c-.315,2.259-1.8,3.668-4.955,3.668-3.377,0-5.612-1.457-5.612-4.178,0-2.7,2.211-4.422,5.563-4.422.413,0,.826.025,1.215.049-.073-1.263-.146-2.745-.171-4.251-.461.025-.923.025-1.36.025q-2.149,0-4.3-.146l-.024-3.474a41.661,41.661,0,0,0,4.3.218c.461,0,.9,0,1.36-.023-.024-1.118-.024-2.017-.048-2.454a11.705,11.705,0,0,0-.194-1.652h4.153c-.072.461-.121,1.069-.146,1.6-.024.462-.048,1.264-.072,2.26,1.214-.122,2.4-.317,3.5-.535v3.62c-1.069.145-2.26.291-3.522.388.048,2.187.17,3.911.242,5.321a15.2,15.2,0,0,1,4.616,3.109Zm-6.243-4.081a6.143,6.143,0,0,0-1.628-.218c-1.117,0-1.87.437-1.87,1.19,0,.85.85,1.142,1.87,1.142,1.166,0,1.628-.632,1.628-1.944Z" fill="#d00f31"/>
    <path id="パス_900" data-name="パス 900" d="M846.526,5223.337l.024-1.215H835.886c-.923,0-2.453.072-3.328.17v-4.2c.947.072,2.064.145,3.207.145h10.81V5209H836.056c-1.093,0-2.453.049-3.207.1v-4.081c.973.1,2.332.169,3.207.169h12.389c.777,0,1.943-.048,2.307-.073-.024.583-.072,1.653-.072,2.454v12.608c0,.826.048,2.21.121,3.158Z" fill="#d00f31"/>
    <path id="パス_901" data-name="パス 901" d="M873.857,5210.826c.51,0,1.8-.1,2.355-.145v3.764c-.728-.047-1.578-.1-2.283-.1h-6a12.8,12.8,0,0,1-6.219,9.886l-3.765-2.526c3.595-1.628,5.465-4.13,6.048-7.36h-6.364c-.728,0-1.676.049-2.332.1v-3.764c.729.072,1.53.145,2.308.145h6.558v-2.89c-2.258.17-4.639.266-6.17.291l-.922-3.376a58.328,58.328,0,0,0,8.356-.389,23.746,23.746,0,0,0,6.049-1.507l2.4,3.232c-1,.243-1.724.437-2.162.534-1.141.292-2.38.534-3.668.728v3.377Z" fill="#d00f31"/>
    <path id="パス_902" data-name="パス 902" d="M900.166,5211.094a9.368,9.368,0,0,0-.534,1.166,17.379,17.379,0,0,1-12.292,12l-2.939-3.328a16.654,16.654,0,0,0,8.356-4.155,9.523,9.523,0,0,0,2.26-3.522H883.964c-.607,0-1.992.024-3.086.122v-3.79c1.118.1,2.26.17,3.086.17h11.563a5.658,5.658,0,0,0,2.041-.291Zm-17-7.434a23.4,23.4,0,0,0,2.721.146h9.206a27.407,27.407,0,0,0,2.867-.146v3.789c-.68-.048-1.992-.1-2.916-.1h-9.157c-.826,0-1.992.024-2.721.1Z" fill="#d00f31"/>
    <path id="パス_903" data-name="パス 903" d="M911.415,5220.228a2.874,2.874,0,0,1,5.734,0,2.874,2.874,0,0,1-5.734,0Zm.365-11.758-.146-4.032h5.32l-.146,4.032-.995,7.677h-3.037Z" fill="#d00f31"/>
  </g>
</svg>
