<svg xmlns="http://www.w3.org/2000/svg" xmlns:xlink="http://www.w3.org/1999/xlink" width="773.256" height="156.295" viewBox="0 0 773.256 156.295">
  <defs>
    <filter id="楕円形_54" x="198.414" y="0" width="89.405" height="89.405" filterUnits="userSpaceOnUse">
      <feOffset dx="4.829" dy="4.829" input="SourceAlpha"/>
      <feGaussianBlur result="blur"/>
      <feFlood flood-color="#231815" flood-opacity="0.502"/>
      <feComposite operator="in" in2="blur"/>
      <feComposite in="SourceGraphic"/>
    </filter>
  </defs>
  <g id="グループ_475" data-name="グループ 475" transform="translate(-333.394 -1211.171)">
    <g id="グループ_223" data-name="グループ 223">
      <path id="パス_654" data-name="パス 654" d="M333.394,1336.016q0-3.561,3.562-3.562h7.594l-.187-2.625q-.282-3.609,3.373-3.89,3.656-.234,3.89,3.375l.235,3.14h9.375q3.56,0,3.56,3.562,0,3.609-3.56,3.609h-8.86l.422,6.281h8.344q3.656,0,3.654,3.656v.046q0,3.656-3.654,3.656h-7.828l.609,8.531q.282,3.607-3.375,3.89-3.656.234-3.89-3.375l-.657-9.046H337.05q-3.655,0-3.656-3.656,0-3.7,3.656-3.7h8.436l-.42-6.281h-8.11q-3.562,0-3.562-3.562Z" fill="#d70019"/>
      <path id="パス_655" data-name="パス 655" d="M370.82,1344.546q-2.625,0-2.858-2.952,0-3.047,2.719-3.235l1.779-.046-.234-2.812q-.375-3.047,2.859-3.375,3-.047,3.188,2.859l.328,3.187,10.312-.234a6.1,6.1,0,0,1,5.3,2.32q1.782,2.367.469,5.882a25.037,25.037,0,0,1-2.906,5.039,20.988,20.988,0,0,1-4.264,4.054q-2.25,2.109-4.312-.328a3.4,3.4,0,0,1,.8-4.125,21.889,21.889,0,0,0,4.312-4.921q.654-1.875-.844-1.828l-8.109.281,2.109,18.092q.375,2.764-2.531,3.187a2.9,2.9,0,0,1-3.469-2.718l-2.25-18.42Z" fill="#d70019"/>
      <path id="パス_656" data-name="パス 656" d="M402.716,1328.189h8.063q3.656,0,3.656,3.656t-3.656,3.656h-8.063q-3.652,0-3.654-3.656T402.716,1328.189Zm26.2,12.608a32.591,32.591,0,0,1-4.9,9.491,37.526,37.526,0,0,1-7.873,8.343q-4.242,3.211-12.539,5.039-3.232.607-4.123-3-.47-3.7,3-4.313a20.944,20.944,0,0,0,9.562-3.8,33.974,33.974,0,0,0,6.258-6.444,26.559,26.559,0,0,0,4.053-7.758q1.171-2.858,4.5-2.062Q430,1337.75,428.917,1340.8Z" fill="#d70019"/>
      <path id="パス_657" data-name="パス 657" d="M434.144,1345.812l3.187-5.976q1.313-2.462,2.579-4.781t1.968-3.538a5.965,5.965,0,0,1,1.852-2.039,4.128,4.128,0,0,1,1.664-.657c.467-.047.7-.1.7-.164a6.192,6.192,0,0,1,2.32.633,4.907,4.907,0,0,1,1.664,1.57q.563.939,2.227,3.75t3.844,6.4q2.18,3.585,4.218,7.03t4.1,7.054q2.2,3.234-.7,5.765-3,1.782-5.25-1.546-11.062-18.8-11.438-19.452a9.789,9.789,0,0,0-.82-1.429q-.164-.164-.351.187t-.655,1.2q-.422.609-1.664,2.812t-3.82,7.03q-1.641,2.766-4.875,1.078A3.841,3.841,0,0,1,434.144,1345.812Zm23.764-16.827a5.195,5.195,0,0,1,7.334,7.359,5.054,5.054,0,0,1-3.678,1.5,5.122,5.122,0,0,1-5.156-5.156A5.135,5.135,0,0,1,457.908,1328.985Zm6,3.7a2.253,2.253,0,0,0-.68-1.687,2.31,2.31,0,0,0-1.664-.656,2.23,2.23,0,0,0-1.641.656,2.288,2.288,0,0,0-.656,1.687,2.242,2.242,0,0,0,2.3,2.3,2.306,2.306,0,0,0,1.664-.656A2.2,2.2,0,0,0,463.908,1332.688Z" fill="#d70019"/>
      <path id="パス_658" data-name="パス 658" d="M469.275,1345.25q0-3.657,3.654-3.656h14.344q3.655,0,3.654,3.656,0,3.7-3.654,3.7H472.929q-3.654,0-3.654-3.656Z" fill="#d70019"/>
      <path id="パス_659" data-name="パス 659" d="M498.076,1328.189h8.062q3.657,0,3.656,3.656t-3.656,3.656h-8.062q-3.654,0-3.655-3.656T498.076,1328.189Zm26.2,12.608a32.622,32.622,0,0,1-4.9,9.491,37.525,37.525,0,0,1-7.873,8.343q-4.242,3.211-12.539,5.039-3.231.607-4.123-3-.468-3.7,3-4.313a20.952,20.952,0,0,0,9.563-3.8,34,34,0,0,0,6.257-6.444,26.536,26.536,0,0,0,4.053-7.758q1.172-2.858,4.5-2.062Q525.355,1337.75,524.277,1340.8Z" fill="#d70019"/>
      <path id="パス_660" data-name="パス 660" d="M568.265,1323.877a4.08,4.08,0,0,1,4.078,4.077v32.2a11.229,11.229,0,0,1-.539,3.891,4.232,4.232,0,0,1-1.945,2.2,11.166,11.166,0,0,1-4.594,1.172h-.281a3.535,3.535,0,0,1-2.3-.844,4.9,4.9,0,0,1-1.594-2.437,3.106,3.106,0,0,1-.094-.75,2.381,2.381,0,0,1,.469-1.406,2.122,2.122,0,0,1,1.875-.984h1.313a.785.785,0,0,0,.937-.937v-7.922a.415.415,0,0,0-.469-.469h-4.781a.463.463,0,0,0-.514.469,47.956,47.956,0,0,1-2.437,11.671,2.629,2.629,0,0,1-2.063,1.781,6.089,6.089,0,0,1-.75.047,3.315,3.315,0,0,1-2.015-.656,19.575,19.575,0,0,0-1.828-1.125.732.732,0,0,0-.8,0v.047a4.275,4.275,0,0,1-2.063.562,4.434,4.434,0,0,1-1.078-.14,4.755,4.755,0,0,1-2.625-1.781,5.951,5.951,0,0,0-.515-.7,3.415,3.415,0,0,1-.75-2.109,6.1,6.1,0,0,1,.046-.75,3.281,3.281,0,0,1,1.688-2.3l.562-.329a.105.105,0,0,0,.024-.117.108.108,0,0,0-.117-.07H534.425a.047.047,0,0,0,0,.094l2.063.609a3.1,3.1,0,0,1,2.109,1.922,2.909,2.909,0,0,1,.234,1.125,2.758,2.758,0,0,1-.515,1.593,35.347,35.347,0,0,1-2.719,3.61,3.378,3.378,0,0,1-2.437,1.171h-.188a3.847,3.847,0,0,1-2.437-.844,2.55,2.55,0,0,1-1.125-2.2,2.836,2.836,0,0,1,.8-2.016,21.339,21.339,0,0,0,3.422-4.64.391.391,0,0,0-.023-.305.278.278,0,0,0-.258-.117h-2.062a2.859,2.859,0,0,1-2.133-.89,2.977,2.977,0,0,1-.867-2.156,2.961,2.961,0,0,1,3-3h.7a.373.373,0,0,0,.422-.422v-16.17a.331.331,0,0,0-.375-.375H531.8a3.023,3.023,0,0,1,0-6.046h.235a.331.331,0,0,0,.375-.375v-1.219a2.974,2.974,0,0,1,.914-2.18,3.117,3.117,0,0,1,5.32,2.18v1.125a.413.413,0,0,0,.469.469h3.513a.414.414,0,0,0,.469-.469v-1.031a3.188,3.188,0,0,1,6.375,0v1.172a.29.29,0,0,0,.328.328,2.8,2.8,0,0,1,2.813,2.812v.422a2.8,2.8,0,0,1-2.813,2.812.29.29,0,0,0-.328.328v16.358a.249.249,0,0,0,.281.281,2.289,2.289,0,0,1,1.641.68,2.171,2.171,0,0,1,.7,1.616v.7a3.04,3.04,0,0,1-3.047,3.046H547.22a.19.19,0,0,0-.141.328q2.486,2.813,3.844,4.593a.247.247,0,0,0,.258.118.239.239,0,0,0,.211-.164,32.461,32.461,0,0,0,1.945-8.718q.445-4.827.446-10.686v-13.687a4.08,4.08,0,0,1,4.078-4.077Zm-25.17,9.749a.415.415,0,0,0-.469-.469h-3.513a.414.414,0,0,0-.469.469v1.078a.413.413,0,0,0,.469.468h3.513a.414.414,0,0,0,.469-.468Zm-3.982,6.8a.414.414,0,0,0-.469.469v1.218a.413.413,0,0,0,.469.469h3.513a.414.414,0,0,0,.469-.469v-1.218a.415.415,0,0,0-.469-.469Zm0,7.358a.414.414,0,0,0-.469.469v1.406a.413.413,0,0,0,.469.469h3.513a.414.414,0,0,0,.469-.469v-1.406a.415.415,0,0,0-.469-.469Zm21.183-2.765a.482.482,0,0,0,.469.469h4.359a.414.414,0,0,0,.469-.469v-3.8a.415.415,0,0,0-.469-.469h-4.312a.415.415,0,0,0-.469.469v.422Q560.343,1343.843,560.3,1345.015Zm5.3-14.342a.415.415,0,0,0-.469-.469h-4.312a.415.415,0,0,0-.469.469v3.515a.414.414,0,0,0,.469.469h4.312a.414.414,0,0,0,.469-.469Z" fill="#d70019"/>
      <path id="パス_661" data-name="パス 661" d="M596.693,1337.469a4.082,4.082,0,0,1-4.078,4.078h-7.639a.414.414,0,0,0-.469.468v22.03a3.445,3.445,0,0,1-6.89,0v-36.372a4.082,4.082,0,0,1,4.078-4.078h10.92a4.083,4.083,0,0,1,4.078,4.078Zm-6.516-8.437a.414.414,0,0,0-.469-.468h-4.732a.414.414,0,0,0-.469.468v.7a.414.414,0,0,0,.469.469h4.732a.414.414,0,0,0,.469-.469Zm-5.67,7.172a.414.414,0,0,0,.469.468h4.732a.414.414,0,0,0,.469-.468v-.938a.415.415,0,0,0-.469-.469h-4.732a.415.415,0,0,0-.469.469Zm30.324-12.609a4.083,4.083,0,0,1,4.079,4.078V1359.5a12.151,12.151,0,0,1-.61,4.312,4.583,4.583,0,0,1-2.156,2.39,12.661,12.661,0,0,1-5.2,1.172h-.281a4.473,4.473,0,0,1-2.813-.984,6.05,6.05,0,0,1-1.92-2.859v-.047a.59.59,0,0,0-.609-.469H595.193c-.188,0-.282.078-.282.235a2.132,2.132,0,0,1-.632,1.57,2.076,2.076,0,0,1-1.524.632h-.984a3.053,3.053,0,0,1-2.2-.913,2.994,2.994,0,0,1-.938-2.227v-14.155a4.082,4.082,0,0,1,4.078-4.077H603.49a4.078,4.078,0,0,1,4.076,4.077v11.906a.414.414,0,0,0,.469.468h2.671a1.28,1.28,0,0,0,.914-.257,1.2,1.2,0,0,0,.258-.868v-17.248a.414.414,0,0,0-.468-.468h-7.967a4.082,4.082,0,0,1-4.078-4.079v-9.936a4.082,4.082,0,0,1,4.078-4.078Zm-13.826,25.967a.415.415,0,0,0-.469-.469H595.38a.415.415,0,0,0-.469.469v1.078a.414.414,0,0,0,.469.468h5.156a.414.414,0,0,0,.469-.468Zm-6.094,7.967a.415.415,0,0,0,.469.469h5.156a.414.414,0,0,0,.469-.469v-1.078a.415.415,0,0,0-.469-.469H595.38a.415.415,0,0,0-.469.469Zm16.967-28.5a.414.414,0,0,0-.468-.468h-4.967a.413.413,0,0,0-.469.468v.7a.413.413,0,0,0,.469.469h4.967a.414.414,0,0,0,.468-.469Zm-5.9,7.312a.413.413,0,0,0,.469.469h4.967a.414.414,0,0,0,.468-.469v-1.078a.414.414,0,0,0-.468-.469h-4.967a.414.414,0,0,0-.469.469Z" fill="#d70019"/>
      <path id="パス_662" data-name="パス 662" d="M648.743,1329.642a.414.414,0,0,0,.469.468h12.045a4.082,4.082,0,0,1,4.078,4.078v17.2a3.681,3.681,0,0,1-3.656,3.656h-1.641a2.023,2.023,0,0,1-1.453-.585,1.91,1.91,0,0,1-.609-1.43.208.208,0,0,0-.234-.235h-8.53a.415.415,0,0,0-.469.469v10.5a3.7,3.7,0,1,1-7.406,0v-10.5a.415.415,0,0,0-.469-.469h-8.482c-.187,0-.281.079-.281.235a2.212,2.212,0,0,1-.633,1.594,2.091,2.091,0,0,1-1.57.656h-1.266a3.522,3.522,0,0,1-3.516-3.516v-17.576a4.083,4.083,0,0,1,4.079-4.078h11.669a.414.414,0,0,0,.469-.468v-4.078a3.6,3.6,0,0,1,1.078-2.6,3.677,3.677,0,0,1,5.25,0,3.594,3.594,0,0,1,1.078,2.6ZM632.1,1345.484a.415.415,0,0,0,.469.469h8.294a.415.415,0,0,0,.469-.469v-8.062a.414.414,0,0,0-.469-.468h-8.294a.414.414,0,0,0-.469.468Zm16.638,0a.415.415,0,0,0,.469.469h8.3a.415.415,0,0,0,.469-.469v-8.062a.414.414,0,0,0-.469-.468h-8.3a.414.414,0,0,0-.469.468Z" fill="#d70019"/>
      <path id="パス_663" data-name="パス 663" d="M672.486,1330.3q.652-3,4.123-2.812,3,.047,2.812,3.374-.328,2.2-.656,6.258t-.375,8.507q.047,4.734.375,8.788t.656,6.257q.188,3.328-2.812,3.375-3.469.186-4.123-2.813-.423-2.718-.75-6.8-.332-4.031-.375-8.624v-.047q.043-4.641.375-8.671Q672.06,1333.017,672.486,1330.3Zm10.123,18.185a3.1,3.1,0,0,1,3.75-2.062q3,.891,2.062,3.375a9.493,9.493,0,0,0-.328,2.39,3.455,3.455,0,0,0,.328,1.688,2.873,2.873,0,0,0,1.524,1.312,9.085,9.085,0,0,0,3.4.563q3.563,0,5.016-.141,3.375-.468,3.562,3.187-.093,3.563-3,3.937a56.951,56.951,0,0,1-6.047.422q-5.481-.141-8.341-2.7a8.575,8.575,0,0,1-3-6.3A15.443,15.443,0,0,1,682.609,1348.483Zm14.576-18.607q3.563,0,3.562,3.562,0,3.61-3.562,3.609H686.5q-3.562,0-3.562-3.562,0-3.609,3.562-3.609Z" fill="#d70019"/>
      <path id="パス_664" data-name="パス 664" d="M714.458,1362.92a4.878,4.878,0,0,1-4.828-4.031l-5.062-27.654a5.544,5.544,0,0,1-.047-.7,3.288,3.288,0,0,1,.8-2.109,3.154,3.154,0,0,1,2.578-1.218h.656a4.569,4.569,0,0,1,3.07,1.148,4.484,4.484,0,0,1,1.571,2.882l1.687,12.233,1.406,11.249a.148.148,0,0,0,.141.094.084.084,0,0,0,.094-.094q.934-5.343,2.107-11.249l2.86-12.748a4.264,4.264,0,0,1,1.57-2.531,4.511,4.511,0,0,1,5.625,0,4.264,4.264,0,0,1,1.57,2.531l2.953,12.748q.423,2.064,1.1,5.93t.961,5.272c0,.094.037.141.117.141s.117-.047.117-.141q.282-2.156.748-6.022t.61-5.18l1.734-12.233a4.478,4.478,0,0,1,1.57-2.882,4.572,4.572,0,0,1,3.071-1.148,3.29,3.29,0,0,1,2.625,1.218,3.353,3.353,0,0,1,.8,2.156,4.657,4.657,0,0,1-.047.656l-4.782,27.654a4.888,4.888,0,0,1-1.664,2.882,4.63,4.63,0,0,1-3.117,1.149h-2.623a4.867,4.867,0,0,1-3.164-1.125,4.93,4.93,0,0,1-1.758-2.859l-2.39-11.578q-.844-4.077-1.36-8.155c-.031-.094-.086-.14-.164-.14s-.117.046-.117.14q-1.031,6.327-1.406,8.155l-2.3,11.578a4.711,4.711,0,0,1-1.711,2.859,4.873,4.873,0,0,1-3.162,1.125Z" fill="#d70019"/>
      <path id="パス_665" data-name="パス 665" d="M755.259,1362.92a4.082,4.082,0,0,1-4.078-4.078v-27.56a4.078,4.078,0,0,1,4.078-4.077H770.3a3.347,3.347,0,0,1,2.484,1.054,3.562,3.562,0,0,1,0,5.015,3.348,3.348,0,0,1-2.484,1.055H760.228a.413.413,0,0,0-.469.468v5.672a.414.414,0,0,0,.469.469h7.92a3.426,3.426,0,0,1,2.508,1.054,3.623,3.623,0,0,1,0,5.109,3.427,3.427,0,0,1-2.508,1.054h-7.92a.414.414,0,0,0-.469.469v6.609a.414.414,0,0,0,.469.469h10.545a3.609,3.609,0,1,1,0,7.218Z" fill="#d70019"/>
      <path id="パス_666" data-name="パス 666" d="M784.531,1362.92a4.083,4.083,0,0,1-4.079-4.078v-27.56a4.08,4.08,0,0,1,4.079-4.077h8.388q13.313,0,13.313,8.858a9.172,9.172,0,0,1-1.266,4.64,6.833,6.833,0,0,1-3.281,3.047c-.063,0-.094.039-.094.117s.031.117.094.117a8.723,8.723,0,0,1,4.523,2.906,8.44,8.44,0,0,1,1.711,5.484,9.394,9.394,0,0,1-1.9,5.952,10.577,10.577,0,0,1-4.992,3.515,21.424,21.424,0,0,1-7.078,1.079Zm4.5-22.029a.413.413,0,0,0,.468.468h3.092a6.292,6.292,0,0,0,3.985-1.054,3.6,3.6,0,0,0,1.312-2.977,3.07,3.07,0,0,0-1.289-2.742,7.31,7.31,0,0,0-4.008-.867H789.5a.414.414,0,0,0-.468.469Zm0,15a.412.412,0,0,0,.468.468h3.795q6.282,0,6.282-4.593a3.4,3.4,0,0,0-1.524-3.116,9.147,9.147,0,0,0-4.758-.961H789.5a.413.413,0,0,0-.468.468Z" fill="#d70019"/>
      <path id="パス_667" data-name="パス 667" d="M815.581,1340.469H814.55q-3.75,0-3.748-3.75t3.748-3.75h1.031v-3.046q0-3.515,3.516-3.515,3.563,0,3.563,3.515v3.046h8.953v-3.234q0-3.515,3.513-3.515,3.563,0,3.563,3.515v3.234h1.265q3.75,0,3.75,3.75t-3.75,3.75h-1.265v6.561a16.463,16.463,0,0,1-2.063,8.226,16.841,16.841,0,0,1-5.529,5.578,26.7,26.7,0,0,1-8.531,3.4q-3.516.609-4.313-2.625-.562-3.75,2.391-4.218a17.9,17.9,0,0,0,6.328-2.344,14.075,14.075,0,0,0,3.234-3.281,8.266,8.266,0,0,0,1.407-4.734v-6.561H822.66v6.889q0,3.516-3.516,3.516-3.562,0-3.563-3.516Z" fill="#d70019"/>
      <path id="パス_668" data-name="パス 668" d="M875.788,1331.61a54.781,54.781,0,0,1-3.3,4.641q-1.617,2.015-3.961,4.687v20.95q0,3.7-3.7,3.7t-3.7-3.7v-15.233a54.607,54.607,0,0,1-9.7,5.953,3.008,3.008,0,0,1-4.312-1.313q-1.172-3.888,1.687-5.249A42.865,42.865,0,0,0,862.8,1336.6a39.047,39.047,0,0,0,6.609-8.554q1.5-2.343,4.875-1.125Q877.473,1328.891,875.788,1331.61Z" fill="#d70019"/>
      <path id="パス_669" data-name="パス 669" d="M882.984,1329.782q0-3.7,3.7-3.7t3.7,3.7v8.952h16.029q3.657,0,3.657,3.656,0,3.7-3.657,3.7H890.388v15.561q0,3.7-3.7,3.7t-3.7-3.7Z" fill="#d70019"/>
      <path id="パス_670" data-name="パス 670" d="M940.986,1328.329a3.259,3.259,0,0,1,3.466,2.906q.375,3.234-1.779,4.078a30.035,30.035,0,0,0-5.789,2.742,22.209,22.209,0,0,0-5.484,4.5,13.085,13.085,0,0,0-2.93,4.992,7.08,7.08,0,0,0,.141,5.085,6.1,6.1,0,0,0,2.742,2.766,8.66,8.66,0,0,0,3.258.96q1.875.094,4.875-.046,3.375-.141,3.468,3.609-.1,3.938-3.468,3.89-3.328,0-5.438-.14a18.738,18.738,0,0,1-4.594-.915,14.123,14.123,0,0,1-4.755-2.554,11.063,11.063,0,0,1-3.282-4.64,14.709,14.709,0,0,1-.632-7.171,17.47,17.47,0,0,1,1.8-5.39,19.969,19.969,0,0,1,2.813-4.055,27.232,27.232,0,0,1,2.6-2.554,7.712,7.712,0,0,1,1.172-.89H917.925q-3.562,0-3.562-3.562,0-3.609,3.562-3.61Zm-4.219,11.812a1.409,1.409,0,0,1,1.594-1.594,1.43,1.43,0,0,1,1.64,1.594v3.562a1.408,1.408,0,0,1-1.593,1.593,1.43,1.43,0,0,1-1.641-1.593Zm5.062,0a1.409,1.409,0,0,1,1.594-1.594,1.43,1.43,0,0,1,1.639,1.594v3.562a1.408,1.408,0,0,1-1.592,1.593,1.429,1.429,0,0,1-1.641-1.593Z" fill="#d70019"/>
      <path id="パス_671" data-name="パス 671" d="M950.009,1332.314q0-3.657,3.654-3.657h21.7q3.656,0,3.656,3.657,0,3.7-3.656,3.7h-6.889v19.592h7.873q3.656,0,3.656,3.656,0,3.7-3.656,3.7H952.82q-3.654,0-3.655-3.655,0-3.7,3.655-3.7h8.015v-19.592h-7.172q-3.652,0-3.654-3.656Z" fill="#d70019"/>
      <path id="パス_672" data-name="パス 672" d="M987.06,1328.189h8.062q3.654,0,3.655,3.656t-3.655,3.656H987.06q-3.657,0-3.656-3.656T987.06,1328.189Zm26.2,12.608a32.665,32.665,0,0,1-4.9,9.491,37.485,37.485,0,0,1-7.875,8.343q-4.242,3.211-12.537,5.039-3.235.607-4.125-3-.469-3.7,3-4.313a20.93,20.93,0,0,0,9.56-3.8,33.974,33.974,0,0,0,6.258-6.444,26.566,26.566,0,0,0,4.055-7.758q1.172-2.858,4.5-2.062Q1014.335,1337.75,1013.261,1340.8Z" fill="#d70019"/>
      <path id="パス_673" data-name="パス 673" d="M1020.222,1329.782q0-3.7,3.7-3.7t3.7,3.7v8.952h16.03q3.656,0,3.656,3.656,0,3.7-3.656,3.7h-16.03v15.561q0,3.7-3.7,3.7t-3.7-3.7Z" fill="#d70019"/>
      <path id="パス_674" data-name="パス 674" d="M1053.335,1330.064q0-3.609,3.61-3.609,3.656,0,3.656,3.609v14.764q0,3.609-3.609,3.609-3.657,0-3.657-3.609Zm8.86,27.606a14.655,14.655,0,0,0,5.365-3.234,16.37,16.37,0,0,0,2.859-4.382,15.884,15.884,0,0,0,1.242-6.445v-13.545q0-3.609,3.61-3.609,3.656,0,3.656,3.609v13.545a24.878,24.878,0,0,1-1.875,9.96,18.191,18.191,0,0,1-4.828,6.632,28.265,28.265,0,0,1-7.594,4.406q-3.7,1.125-4.873-2.25Q1059.053,1358.607,1062.195,1357.67Z" fill="#d70019"/>
      <path id="パス_675" data-name="パス 675" d="M1085,1345.25q0-3.657,3.655-3.656h14.343q3.657,0,3.655,3.656,0,3.7-3.655,3.7h-14.343q-3.654,0-3.655-3.656Z" fill="#d70019"/>
    </g>
    <g id="グループ_467" data-name="グループ 467">
      <g id="グループ_174" data-name="グループ 174">
        <rect id="長方形_28" data-name="長方形 28" width="235.714" height="47.411" rx="6.412" transform="translate(600.645 1233.575)" fill="#d70019"/>
      </g>
      <g id="グループ_227" data-name="グループ 227">
        <g id="グループ_224" data-name="グループ 224">
          <path id="パス_676" data-name="パス 676" d="M650.708,1268.921a20.892,20.892,0,0,1-10.915-3.026,3.243,3.243,0,0,1-1.587-2.53v-.447a3.753,3.753,0,0,1,.943-2.53,3.97,3.97,0,0,1,2.728-1.489,5.047,5.047,0,0,1,.7-.049,4.954,4.954,0,0,1,2.48.645,12.5,12.5,0,0,0,5.855,1.637,6.4,6.4,0,0,0,3.67-.868,2.822,2.822,0,0,0,1.241-2.456,2.461,2.461,0,0,0-1.042-2.133,20.774,20.774,0,0,0-3.621-1.836c-.3-.131-.514-.231-.646-.3l-4.861-2.035a13.562,13.562,0,0,1-5.483-3.943,9.739,9.739,0,0,1-2.158-6.425,10.263,10.263,0,0,1,3.87-8.112,14.615,14.615,0,0,1,9.824-3.3,17.384,17.384,0,0,1,9.475,2.729,2.96,2.96,0,0,1,1.389,2.332,1.634,1.634,0,0,1,.05.4,3.835,3.835,0,0,1-3.325,3.721,3.213,3.213,0,0,1-.793.1,4.7,4.7,0,0,1-2.133-.5,10.7,10.7,0,0,0-4.663-1.042,5.682,5.682,0,0,0-3.325.844,2.7,2.7,0,0,0-1.19,2.332,2.1,2.1,0,0,0,.272,1.066,3.929,3.929,0,0,0,.62.819,4.853,4.853,0,0,0,1.166.769q.819.422,1.389.645c.38.148.968.389,1.762.719a3.555,3.555,0,0,1,.546.2l4.713,1.886q7.441,2.976,7.441,10.368a10.767,10.767,0,0,1-3.894,8.36Q657.306,1268.921,650.708,1268.921Z" fill="#d00f31"/>
          <path id="パス_677" data-name="パス 677" d="M680.515,1268.227a4.133,4.133,0,0,1-3.076-1.266,4.2,4.2,0,0,1-1.24-3.051v-25.45a.44.44,0,0,0-.5-.5h-6a3.541,3.541,0,0,1-2.629-1.116,3.771,3.771,0,0,1,0-5.308,3.542,3.542,0,0,1,2.629-1.117h22.077a3.771,3.771,0,0,1,0,7.541h-6a.439.439,0,0,0-.5.5v25.45a4.321,4.321,0,0,1-4.317,4.317Z" fill="#d00f31"/>
          <path id="パス_678" data-name="パス 678" d="M703.127,1268.227a4.321,4.321,0,0,1-4.315-4.317v-29.171a4.321,4.321,0,0,1,4.315-4.317h15.926a3.548,3.548,0,0,1,2.629,1.117,3.771,3.771,0,0,1,0,5.308,3.547,3.547,0,0,1-2.629,1.116H708.386a.439.439,0,0,0-.5.5v6a.438.438,0,0,0,.5.5h8.385a3.627,3.627,0,0,1,2.654,1.116,3.833,3.833,0,0,1,0,5.407,3.624,3.624,0,0,1-2.654,1.117h-8.385a.439.439,0,0,0-.5.5v6.995a.438.438,0,0,0,.5.5h11.163a3.82,3.82,0,1,1,0,7.641Z" fill="#d00f31"/>
          <path id="パス_679" data-name="パス 679" d="M732.586,1268.227a4.319,4.319,0,0,1-4.315-4.317v-29.171a4.319,4.319,0,0,1,4.315-4.317h8.931a26.088,26.088,0,0,1,5.929.621,14.966,14.966,0,0,1,4.787,2.009,9.339,9.339,0,0,1,3.324,3.845,14.671,14.671,0,0,1-.025,11.634,10.734,10.734,0,0,1-3.3,4.068,14.837,14.837,0,0,1-4.739,2.307,20.5,20.5,0,0,1-5.729.769h-3.92a.438.438,0,0,0-.5.5v7.739a4.321,4.321,0,0,1-4.315,4.317Zm4.763-20.192a.438.438,0,0,0,.5.5h3.474q6.548,0,6.548-5.805a4.454,4.454,0,0,0-1.687-3.944,9.05,9.05,0,0,0-5.109-1.166h-3.226a.439.439,0,0,0-.5.5Z" fill="#d00f31"/>
          <path id="パス_680" data-name="パス 680" d="M765.171,1268.921a5.044,5.044,0,0,1-3.844-1.612,6.028,6.028,0,0,1,0-7.988,5.044,5.044,0,0,1,3.844-1.612,5.125,5.125,0,0,1,3.87,1.612,5.955,5.955,0,0,1,0,7.988A5.125,5.125,0,0,1,765.171,1268.921Z" fill="#d00f31"/>
          <path id="パス_681" data-name="パス 681" d="M779.153,1268.227a3.647,3.647,0,1,1,0-7.293h3.869a.439.439,0,0,0,.5-.5V1239.9a.439.439,0,0,0-.5-.5h-3.671a2.736,2.736,0,0,1-2.01-.818,2.673,2.673,0,0,1-.818-1.96,3.285,3.285,0,0,1,.768-2.133,3.588,3.588,0,0,1,1.96-1.24,23.769,23.769,0,0,0,3.671-1.29,16.294,16.294,0,0,1,6.3-1.539,3.305,3.305,0,0,1,3.324,3.325v26.691a.438.438,0,0,0,.5.5h2.63a3.64,3.64,0,0,1,3.671,3.646,3.641,3.641,0,0,1-3.671,3.647Z" fill="#d00f31"/>
        </g>
        <g id="グループ_225" data-name="グループ 225">
          <path id="パス_682" data-name="パス 682" d="M650.708,1268.921a20.892,20.892,0,0,1-10.915-3.026,3.243,3.243,0,0,1-1.587-2.53v-.447a3.753,3.753,0,0,1,.943-2.53,3.97,3.97,0,0,1,2.728-1.489,5.047,5.047,0,0,1,.7-.049,4.954,4.954,0,0,1,2.48.645,12.5,12.5,0,0,0,5.855,1.637,6.4,6.4,0,0,0,3.67-.868,2.822,2.822,0,0,0,1.241-2.456,2.461,2.461,0,0,0-1.042-2.133,20.774,20.774,0,0,0-3.621-1.836c-.3-.131-.514-.231-.646-.3l-4.861-2.035a13.562,13.562,0,0,1-5.483-3.943,9.739,9.739,0,0,1-2.158-6.425,10.263,10.263,0,0,1,3.87-8.112,14.615,14.615,0,0,1,9.824-3.3,17.384,17.384,0,0,1,9.475,2.729,2.96,2.96,0,0,1,1.389,2.332,1.634,1.634,0,0,1,.05.4,3.835,3.835,0,0,1-3.325,3.721,3.213,3.213,0,0,1-.793.1,4.7,4.7,0,0,1-2.133-.5,10.7,10.7,0,0,0-4.663-1.042,5.682,5.682,0,0,0-3.325.844,2.7,2.7,0,0,0-1.19,2.332,2.1,2.1,0,0,0,.272,1.066,3.929,3.929,0,0,0,.62.819,4.853,4.853,0,0,0,1.166.769q.819.422,1.389.645c.38.148.968.389,1.762.719a3.555,3.555,0,0,1,.546.2l4.713,1.886q7.441,2.976,7.441,10.368a10.767,10.767,0,0,1-3.894,8.36Q657.306,1268.921,650.708,1268.921Z" fill="none" stroke="#d00f31" stroke-width="14.198"/>
          <path id="パス_683" data-name="パス 683" d="M680.515,1268.227a4.133,4.133,0,0,1-3.076-1.266,4.2,4.2,0,0,1-1.24-3.051v-25.45a.44.44,0,0,0-.5-.5h-6a3.541,3.541,0,0,1-2.629-1.116,3.771,3.771,0,0,1,0-5.308,3.542,3.542,0,0,1,2.629-1.117h22.077a3.771,3.771,0,0,1,0,7.541h-6a.439.439,0,0,0-.5.5v25.45a4.321,4.321,0,0,1-4.317,4.317Z" fill="none" stroke="#d00f31" stroke-width="14.198"/>
          <path id="パス_684" data-name="パス 684" d="M703.127,1268.227a4.321,4.321,0,0,1-4.315-4.317v-29.171a4.321,4.321,0,0,1,4.315-4.317h15.926a3.548,3.548,0,0,1,2.629,1.117,3.771,3.771,0,0,1,0,5.308,3.547,3.547,0,0,1-2.629,1.116H708.386a.439.439,0,0,0-.5.5v6a.438.438,0,0,0,.5.5h8.385a3.627,3.627,0,0,1,2.654,1.116,3.833,3.833,0,0,1,0,5.407,3.624,3.624,0,0,1-2.654,1.117h-8.385a.439.439,0,0,0-.5.5v6.995a.438.438,0,0,0,.5.5h11.163a3.82,3.82,0,1,1,0,7.641Z" fill="none" stroke="#d00f31" stroke-width="14.198"/>
          <path id="パス_685" data-name="パス 685" d="M732.586,1268.227a4.319,4.319,0,0,1-4.315-4.317v-29.171a4.319,4.319,0,0,1,4.315-4.317h8.931a26.088,26.088,0,0,1,5.929.621,14.966,14.966,0,0,1,4.787,2.009,9.339,9.339,0,0,1,3.324,3.845,14.671,14.671,0,0,1-.025,11.634,10.734,10.734,0,0,1-3.3,4.068,14.837,14.837,0,0,1-4.739,2.307,20.5,20.5,0,0,1-5.729.769h-3.92a.438.438,0,0,0-.5.5v7.739a4.321,4.321,0,0,1-4.315,4.317Zm4.763-20.192a.438.438,0,0,0,.5.5h3.474q6.548,0,6.548-5.805a4.454,4.454,0,0,0-1.687-3.944,9.05,9.05,0,0,0-5.109-1.166h-3.226a.439.439,0,0,0-.5.5Z" fill="none" stroke="#d00f31" stroke-width="14.198"/>
          <path id="パス_686" data-name="パス 686" d="M765.171,1268.921a5.044,5.044,0,0,1-3.844-1.612,6.028,6.028,0,0,1,0-7.988,5.044,5.044,0,0,1,3.844-1.612,5.125,5.125,0,0,1,3.87,1.612,5.955,5.955,0,0,1,0,7.988A5.125,5.125,0,0,1,765.171,1268.921Z" fill="none" stroke="#d00f31" stroke-width="14.198"/>
          <path id="パス_687" data-name="パス 687" d="M779.153,1268.227a3.647,3.647,0,1,1,0-7.293h3.869a.439.439,0,0,0,.5-.5V1239.9a.439.439,0,0,0-.5-.5h-3.671a2.736,2.736,0,0,1-2.01-.818,2.673,2.673,0,0,1-.818-1.96,3.285,3.285,0,0,1,.768-2.133,3.588,3.588,0,0,1,1.96-1.24,23.769,23.769,0,0,0,3.671-1.29,16.294,16.294,0,0,1,6.3-1.539,3.305,3.305,0,0,1,3.324,3.325v26.691a.438.438,0,0,0,.5.5h2.63a3.64,3.64,0,0,1,3.671,3.646,3.641,3.641,0,0,1-3.671,3.647Z" fill="none" stroke="#d00f31" stroke-width="14.198"/>
        </g>
        <g id="グループ_226" data-name="グループ 226">
          <path id="パス_688" data-name="パス 688" d="M650.708,1268.921a20.892,20.892,0,0,1-10.915-3.026,3.243,3.243,0,0,1-1.587-2.53v-.447a3.753,3.753,0,0,1,.943-2.53,3.97,3.97,0,0,1,2.728-1.489,5.047,5.047,0,0,1,.7-.049,4.954,4.954,0,0,1,2.48.645,12.5,12.5,0,0,0,5.855,1.637,6.4,6.4,0,0,0,3.67-.868,2.822,2.822,0,0,0,1.241-2.456,2.461,2.461,0,0,0-1.042-2.133,20.774,20.774,0,0,0-3.621-1.836c-.3-.131-.514-.231-.646-.3l-4.861-2.035a13.562,13.562,0,0,1-5.483-3.943,9.739,9.739,0,0,1-2.158-6.425,10.263,10.263,0,0,1,3.87-8.112,14.615,14.615,0,0,1,9.824-3.3,17.384,17.384,0,0,1,9.475,2.729,2.96,2.96,0,0,1,1.389,2.332,1.634,1.634,0,0,1,.05.4,3.835,3.835,0,0,1-3.325,3.721,3.213,3.213,0,0,1-.793.1,4.7,4.7,0,0,1-2.133-.5,10.7,10.7,0,0,0-4.663-1.042,5.682,5.682,0,0,0-3.325.844,2.7,2.7,0,0,0-1.19,2.332,2.1,2.1,0,0,0,.272,1.066,3.929,3.929,0,0,0,.62.819,4.853,4.853,0,0,0,1.166.769q.819.422,1.389.645c.38.148.968.389,1.762.719a3.555,3.555,0,0,1,.546.2l4.713,1.886q7.441,2.976,7.441,10.368a10.767,10.767,0,0,1-3.894,8.36Q657.306,1268.921,650.708,1268.921Z" fill="#fff"/>
          <path id="パス_689" data-name="パス 689" d="M680.515,1268.227a4.133,4.133,0,0,1-3.076-1.266,4.2,4.2,0,0,1-1.24-3.051v-25.45a.44.44,0,0,0-.5-.5h-6a3.541,3.541,0,0,1-2.629-1.116,3.771,3.771,0,0,1,0-5.308,3.542,3.542,0,0,1,2.629-1.117h22.077a3.771,3.771,0,0,1,0,7.541h-6a.439.439,0,0,0-.5.5v25.45a4.321,4.321,0,0,1-4.317,4.317Z" fill="#fff"/>
          <path id="パス_690" data-name="パス 690" d="M703.127,1268.227a4.321,4.321,0,0,1-4.315-4.317v-29.171a4.321,4.321,0,0,1,4.315-4.317h15.926a3.548,3.548,0,0,1,2.629,1.117,3.771,3.771,0,0,1,0,5.308,3.547,3.547,0,0,1-2.629,1.116H708.386a.439.439,0,0,0-.5.5v6a.438.438,0,0,0,.5.5h8.385a3.627,3.627,0,0,1,2.654,1.116,3.833,3.833,0,0,1,0,5.407,3.624,3.624,0,0,1-2.654,1.117h-8.385a.439.439,0,0,0-.5.5v6.995a.438.438,0,0,0,.5.5h11.163a3.82,3.82,0,1,1,0,7.641Z" fill="#fff"/>
          <path id="パス_691" data-name="パス 691" d="M732.586,1268.227a4.319,4.319,0,0,1-4.315-4.317v-29.171a4.319,4.319,0,0,1,4.315-4.317h8.931a26.088,26.088,0,0,1,5.929.621,14.966,14.966,0,0,1,4.787,2.009,9.339,9.339,0,0,1,3.324,3.845,14.671,14.671,0,0,1-.025,11.634,10.734,10.734,0,0,1-3.3,4.068,14.837,14.837,0,0,1-4.739,2.307,20.5,20.5,0,0,1-5.729.769h-3.92a.438.438,0,0,0-.5.5v7.739a4.321,4.321,0,0,1-4.315,4.317Zm4.763-20.192a.438.438,0,0,0,.5.5h3.474q6.548,0,6.548-5.805a4.454,4.454,0,0,0-1.687-3.944,9.05,9.05,0,0,0-5.109-1.166h-3.226a.439.439,0,0,0-.5.5Z" fill="#fff"/>
          <path id="パス_692" data-name="パス 692" d="M765.171,1268.921a5.044,5.044,0,0,1-3.844-1.612,6.028,6.028,0,0,1,0-7.988,5.044,5.044,0,0,1,3.844-1.612,5.125,5.125,0,0,1,3.87,1.612,5.955,5.955,0,0,1,0,7.988A5.125,5.125,0,0,1,765.171,1268.921Z" fill="#fff"/>
          <path id="パス_693" data-name="パス 693" d="M779.153,1268.227a3.647,3.647,0,1,1,0-7.293h3.869a.439.439,0,0,0,.5-.5V1239.9a.439.439,0,0,0-.5-.5h-3.671a2.736,2.736,0,0,1-2.01-.818,2.673,2.673,0,0,1-.818-1.96,3.285,3.285,0,0,1,.768-2.133,3.588,3.588,0,0,1,1.96-1.24,23.769,23.769,0,0,0,3.671-1.29,16.294,16.294,0,0,1,6.3-1.539,3.305,3.305,0,0,1,3.324,3.325v26.691a.438.438,0,0,0,.5.5h2.63a3.64,3.64,0,0,1,3.671,3.646,3.641,3.641,0,0,1-3.671,3.647Z" fill="#fff"/>
        </g>
      </g>
      <g id="グループ_266" data-name="グループ 266">
        <g transform="matrix(1, 0, 0, 1, 333.39, 1211.17)" filter="url(#楕円形_54)">
          <circle id="楕円形_54-2" data-name="楕円形 54" cx="42.288" cy="42.288" r="42.288" transform="translate(198.41)" fill="#f9e842"/>
        </g>
        <circle id="楕円形_55" data-name="楕円形 55" cx="37.419" cy="37.419" r="37.419" transform="translate(536.677 1216.039)" fill="none" stroke="#d0a222" stroke-miterlimit="10" stroke-width="2.759"/>
        <g id="グループ_265" data-name="グループ 265">
          <path id="パス_917" data-name="パス 917" d="M560.308,1273.46v-38.036a.785.785,0,0,1,.831-.88h13.3c11,0,16.72,4.987,16.72,14.569,0,9.534-5.72,14.618-16.72,14.618h-4.155v9.729a.822.822,0,0,1-.88.88h-8.263A.785.785,0,0,1,560.308,1273.46Zm20.533-24.444c0-4.352-2.542-6.014-6.648-6.014h-3.911v12.272h3.911C578.3,1255.274,580.841,1253.562,580.841,1249.016Z" fill="#d0a222"/>
        </g>
      </g>
    </g>
  </g>
</svg>
