<?xml version="1.0" encoding="UTF-8"?>
<svg id="_レイヤー_2" data-name="レイヤー 2" xmlns="http://www.w3.org/2000/svg" viewBox="0 0 149.32 30.25">
  <defs>
    <style>
      .cls-1 {
        fill: #fff;
      }
    </style>
  </defs>
  <g id="_レイヤー_1-2" data-name="レイヤー 1">
    <g>
      <path class="cls-1" d="M49.23,19.66c0,5.79,4.17,10.33,10.78,10.33h6.1v-5.48h-5.54c-3.54,0-5.5-2.11-5.5-4.85s1.96-4.85,5.5-4.85h5.54v-5.48h-6.1c-6.61,0-10.78,4.54-10.78,10.33"/>
      <path class="cls-1" d="M116.06,9.08c-2.23,0-4.32.45-7.02,2.27-2.7-1.82-4.79-2.27-7.02-2.27-4.97,0-8.43,3.42-8.43,8.33v12.58h5.83v-12.29c0-2.11,1.29-3.15,3.4-3.15,2.23,0,3.31,1.1,3.31,2.88v12.54h5.83v-12.54c0-1.78,1.1-2.88,3.31-2.88s3.38,1.04,3.38,3.15v12.29h5.83v-12.58c0-4.91-3.48-8.33-8.43-8.33"/>
      <path class="cls-1" d="M138.5,9.08c-6.91,0-10.84,5.4-10.84,10.6s3.91,10.58,10.84,10.58,10.82-5.4,10.82-10.58-3.91-10.6-10.82-10.6M138.48,24.77c-3.25,0-4.99-2.54-4.99-5.11s1.76-5.11,4.99-5.11,5.01,2.54,5.01,5.11-1.76,5.11-5.01,5.11"/>
      <path class="cls-1" d="M15.75,0v10.39c-1.41-.82-3.09-1.31-5.05-1.31C3.7,9.08,0,14.52,0,19.68s3.72,10.58,10.7,10.58c5.26,0,7.22-2.54,10.88-4.21V.02h-5.83v-.02ZM5.83,19.66c0-2.58,1.76-5.11,4.99-5.11s4.95,2.43,4.99,4.97v.27c-.06,2.56-1.76,4.97-4.99,4.97s-4.99-2.54-4.99-5.11"/>
      <polygon class="cls-1" points="38.86 0 38.86 1.41 36.82 1.41 36.82 6.55 35.3 6.55 35.3 1.41 33.26 1.41 33.26 0 38.86 0"/>
      <polygon class="cls-1" points="45.59 0 45.59 1.41 43.55 1.41 43.55 6.55 42.03 6.55 42.03 1.41 39.99 1.41 39.99 0 45.59 0"/>
      <polygon class="cls-1" points="27.55 0 30.54 4.19 30.54 0 31.97 0 31.97 6.55 30.4 6.55 27.43 2.35 27.43 6.55 25.98 6.55 25.98 0 27.55 0"/>
      <path class="cls-1" d="M35.69,9.08c-6.91,0-10.84,5.4-10.84,10.6s3.91,10.58,10.84,10.58,10.82-5.4,10.82-10.58-3.91-10.6-10.82-10.6M35.69,24.77c-3.25,0-4.99-2.54-4.99-5.11s1.76-5.11,4.99-5.11,5.01,2.54,5.01,5.11-1.76,5.11-5.01,5.11"/>
      <path class="cls-1" d="M79.63,9.08c-6.91,0-10.84,5.4-10.84,10.6s3.91,10.58,10.84,10.58,10.82-5.4,10.82-10.58-3.91-10.6-10.82-10.6M79.63,24.77c-3.25,0-5.01-2.54-5.01-5.11s1.76-5.11,5.01-5.11,5.01,2.54,5.01,5.11-1.76,5.11-5.01,5.11"/>
    </g>
  </g>
</svg>