<svg xmlns="http://www.w3.org/2000/svg" width="496.443" height="70.68" viewBox="0 0 496.443 70.68">
  <g id="グループ_476" data-name="グループ 476" transform="translate(-471.768 -5239.502)">
    <g id="グループ_260" data-name="グループ 260">
      <g id="グループ_259" data-name="グループ 259">
        <g id="グループ_258" data-name="グループ 258">
          <path id="パス_886" data-name="パス 886" d="M471.768,5274.842a35.444,35.444,0,0,1,35.34-35.34H932.871a35.444,35.444,0,0,1,35.34,35.34h0a35.444,35.444,0,0,1-35.34,35.34H507.108a35.444,35.444,0,0,1-35.34-35.34Z" fill="#fff"/>
        </g>
      </g>
    </g>
    <g id="グループ_262" data-name="グループ 262">
      <path id="パス_904" data-name="パス 904" d="M538.578,5287.066c-4.449,0-7.763-3.5-7.763-9.083,0-5.768,4.019-9.206,7.794-9.206a7.049,7.049,0,0,1,5.063,1.842l-.245-2.608.03-5.862h5.493V5286.7h-4.388l-.46-1.627h-.123A7.082,7.082,0,0,1,538.578,5287.066Zm1.6-4.48a3.8,3.8,0,0,0,3.283-1.534V5274.3a5.88,5.88,0,0,0-3.406-1.043c-1.841,0-3.621,1.411-3.621,4.634C536.43,5281.205,538.241,5282.586,540.174,5282.586Z" fill="#d00f31"/>
      <path id="パス_905" data-name="パス 905" d="M566.474,5275.835a53.449,53.449,0,0,1-5.922,8.623l-4.019-2.731a31.24,31.24,0,0,0,5.707-7.886Zm7.15-4.173v13.932c0,1.871-1.166,3.13-3.529,3.13a43.059,43.059,0,0,1-5.339-.277l-.46-4.572a19.7,19.7,0,0,0,3.345.338c.767,0,1.043-.246,1.073-1.044.031-.859.031-9.881.031-11.507H561.38c-.92,0-2.27.03-3.16.123v-4.879a27.538,27.538,0,0,0,3.16.245h7.365V5265.1a19.634,19.634,0,0,0-.276-2.947h5.492a21.8,21.8,0,0,0-.337,2.977v2.025h7.365a3.68,3.68,0,1,1,1.043-.061c.583-.062,1.105-.092,1.5-.153v4.848c-1.042-.093-2.393-.123-3.283-.123Zm6.229,2.026a75.872,75.872,0,0,1,5.217,8.1l-4.358,2.394a64.331,64.331,0,0,0-4.909-8.285Zm1.474-8.685a1.5,1.5,0,1,0-1.5-1.5A1.5,1.5,0,0,0,581.327,5265Z" fill="#d00f31"/>
      <path id="パス_906" data-name="パス 906" d="M605.877,5283.845a22.865,22.865,0,0,0,.308,4.449h-5.892a41.67,41.67,0,0,0,.245-4.449v-9.237a56.04,56.04,0,0,1-10.034,3.867l-2.638-4.511a45.129,45.129,0,0,0,14.084-5.524,31.845,31.845,0,0,0,8.008-7l3.99,3.59a52.317,52.317,0,0,1-8.071,6.567Z" fill="#d00f31"/>
      <path id="パス_907" data-name="パス 907" d="M631.625,5279.518a29.663,29.663,0,0,0,11.723-12.275l2.884,5.247a33.178,33.178,0,0,1-11.937,11.63,32.713,32.713,0,0,1-10.985,4.051l-3.16-4.909A31.585,31.585,0,0,0,631.625,5279.518Zm1.044-10.035-3.8,3.9a64.048,64.048,0,0,0-7.7-6.721l3.529-3.774A62.037,62.037,0,0,1,632.669,5269.483Z" fill="#d00f31"/>
      <path id="パス_908" data-name="パス 908" d="M672.656,5280.131a95.921,95.921,0,0,0-10.557-4.388v7.887c0,.828.185,3.252.338,4.633h-5.83a34.415,34.415,0,0,0,.368-4.633v-17.522a21.477,21.477,0,0,0-.368-3.989h5.8a36.39,36.39,0,0,0-.308,3.989v4.2a101.686,101.686,0,0,1,12.674,4.633Z" fill="#d00f31"/>
      <path id="パス_909" data-name="パス 909" d="M706.5,5267.673a13.8,13.8,0,0,0-1.2,2.517A32.19,32.19,0,0,1,700,5280.254a29.5,29.5,0,0,1-12.459,8.838l-4.418-3.928c6.628-2.025,9.82-4.634,12.427-7.549a19.632,19.632,0,0,0,4.051-7.672h-7.641a37.974,37.974,0,0,1-7.732,7.334l-4.174-3.1a27.854,27.854,0,0,0,9.544-9.6,16.039,16.039,0,0,0,1.626-3.652l5.432,1.78c-.706.982-1.443,2.24-1.9,3.038h4.941a11.539,11.539,0,0,0,3.038-.4Z" fill="#d00f31"/>
      <path id="パス_910" data-name="パス 910" d="M737.316,5272.153a11.882,11.882,0,0,0-.676,1.473,21.95,21.95,0,0,1-15.526,15.158l-3.713-4.2a21.037,21.037,0,0,0,10.555-5.247,12.048,12.048,0,0,0,2.854-4.45H716.848c-.767,0-2.516.031-3.9.153v-4.786c1.411.122,2.853.215,3.9.215h14.606a7.186,7.186,0,0,0,2.579-.368Zm-21.481-9.389a29.615,29.615,0,0,0,3.438.183H730.9a34.632,34.632,0,0,0,3.62-.183v4.787c-.86-.062-2.516-.123-3.682-.123H719.273c-1.044,0-2.517.03-3.438.123Z" fill="#d00f31"/>
      <path id="パス_911" data-name="パス 911" d="M764.353,5265.157l2.209,1.411a15.188,15.188,0,0,0-.8,2.456c-.736,2.883-1.995,7.548-4.634,11.107a25.156,25.156,0,0,1-12.488,8.623l-4.051-4.449c6.168-1.381,9.635-4.081,12.06-7.089a17.236,17.236,0,0,0,3.375-7.916h-13.5c-1.5,0-3.191.092-3.989.153v-5.247c.952.122,2.976.276,3.989.276h13.532a14.845,14.845,0,0,0,1.565-.062c-.46-.858-.951-1.718-1.472-2.547l3.007-1.226a34.969,34.969,0,0,1,2.3,4.049Zm3.283-5.308c.8,1.166,1.871,3.037,2.424,4.081l-3.038,1.288a33.347,33.347,0,0,0-2.424-4.143Z" fill="#d00f31"/>
      <path id="パス_912" data-name="パス 912" d="M795.563,5267.888a19.8,19.8,0,0,0,3.713-.245v4.909c-.86-.092-1.934-.092-3.683-.092h-1.657v.982c0,7.272-1.871,12.152-9.512,15.5l-3.989-3.745c6.137-2.025,8.622-4.694,8.622-11.629v-1.1h-6.443v3.713c0,1.5.091,2.7.153,3.468H777.58a29.727,29.727,0,0,0,.185-3.468v-3.713h-2.209c-1.657,0-2.578.062-3.468.123v-5.032a18.224,18.224,0,0,0,3.468.337h2.209v-2.547a24.209,24.209,0,0,0-.215-3.068h5.278a23.919,23.919,0,0,0-.214,3.1v2.516h6.443V5265a20.106,20.106,0,0,0-.184-3.037h5.278a24.6,24.6,0,0,0-.215,3.037v2.885Z" fill="#d00f31"/>
      <path id="パス_913" data-name="パス 913" d="M820.7,5283.845a22.869,22.869,0,0,0,.307,4.449h-5.891a41.654,41.654,0,0,0,.245-4.449v-9.237a56.1,56.1,0,0,1-10.034,3.867l-2.639-4.511a45.129,45.129,0,0,0,14.084-5.524,31.851,31.851,0,0,0,8.009-7l3.989,3.59a52.309,52.309,0,0,1-8.07,6.567Z" fill="#d00f31"/>
      <path id="パス_914" data-name="パス 914" d="M856.786,5280.131a95.827,95.827,0,0,0-10.556-4.388v7.887c0,.828.184,3.252.338,4.633h-5.83a34.576,34.576,0,0,0,.368-4.633v-17.522a21.477,21.477,0,0,0-.368-3.989h5.8a36.407,36.407,0,0,0-.307,3.989v4.2a101.744,101.744,0,0,1,12.674,4.633Z" fill="#d00f31"/>
      <path id="パス_915" data-name="パス 915" d="M866.3,5274.516c1.289-1.35,3.529-4.3,5.463-6.5,2.3-2.609,4.511-2.762,6.843-.553,2.209,2.117,4.664,5.309,6.382,7.181,1.995,2.178,4.357,4.634,7.334,7.334l-3.8,4.419a82.708,82.708,0,0,1-6.444-7.058c-1.841-2.21-4.081-5.1-5.524-6.721-.92-1.043-1.5-.921-2.3.092-1.074,1.381-3.038,4.2-4.2,5.861-.736,1.075-1.442,2.271-2.025,3.161l-4.48-4.633A26.4,26.4,0,0,0,866.3,5274.516Z" fill="#d00f31"/>
    </g>
    <g id="グループ_263" data-name="グループ 263">
      <circle id="楕円形_53" data-name="楕円形 53" cx="12.421" cy="12.421" r="12.421" transform="translate(921.407 5262.584)" fill="#d00f31"/>
      <path id="パス_916" data-name="パス 916" d="M930.705,5270.108l9.8,4.9-9.8,4.9Z" fill="#fff"/>
    </g>
  </g>
</svg>