<?xml version="1.0" encoding="UTF-8"?>
<svg id="_レイヤー_2" data-name="レイヤー 2" xmlns="http://www.w3.org/2000/svg" viewBox="0 0 332.03 67.25">
  <defs>
    <style>
      .cls-1 {
        fill: #fff;
      }
    </style>
  </defs>
  <g id="_レイヤー_1-2" data-name="レイヤー 1">
    <g>
      <path class="cls-1" d="M109.47,43.72c0,12.86,9.3,22.96,23.98,22.96h13.55v-12.17h-12.33c-7.88,0-12.23-4.67-12.23-10.79s4.35-10.79,12.23-10.79h12.33v-12.17h-13.55c-14.68,0-23.98,10.09-23.98,22.96Z"/>
      <path class="cls-1" d="M258.09,20.19c-4.96,0-9.59,1-15.58,5.04-5.99-4.04-10.62-5.04-15.59-5.04-11.04,0-18.75,7.59-18.75,18.53v27.97h12.95v-27.32c0-4.67,2.85-7.01,7.53-7.01,4.94,0,7.39,2.47,7.39,6.43v27.9h12.94v-27.9c0-3.96,2.44-6.43,7.39-6.43,4.68,0,7.53,2.34,7.53,7.01v27.32h12.96v-27.97c0-10.94-7.71-18.53-18.76-18.53Z"/>
      <path class="cls-1" d="M307.97,20.19c-15.39,0-24.1,12-24.1,23.54s8.7,23.52,24.1,23.52,24.06-12.02,24.06-23.52-8.7-23.54-24.06-23.54ZM307.95,55.08c-7.21,0-11.12-5.62-11.12-11.35s3.91-11.36,11.12-11.36,11.13,5.63,11.13,11.36-3.91,11.35-11.13,11.35Z"/>
      <path class="cls-1" d="M35.03,0v23.09c-3.13-1.82-6.88-2.89-11.23-2.89C8.26,20.2,0,32.29,0,43.74s8.26,23.52,23.8,23.52c11.68,0,16.04-5.65,24.18-9.38V0h-12.96ZM12.96,43.72c0-5.74,3.9-11.36,11.12-11.36s10.99,5.39,11.12,11.07v.59c-.13,5.68-3.9,11.06-11.12,11.06s-11.12-5.62-11.12-11.35Z"/>
      <path class="cls-1" d="M86.43,0l-.02,3.13h-4.55v11.41s-3.35,0-3.35,0V3.14h-4.55V0h12.47Z"/>
      <path class="cls-1" d="M101.38,0v3.13h-4.56v11.41h-3.36V3.14h-4.55V0h12.47Z"/>
      <path class="cls-1" d="M61.28,0l6.61,9.33V0h3.22v14.54h-3.53l-6.58-9.3v9.3h-3.23V0h3.5Z"/>
      <path class="cls-1" d="M79.38,20.19c-15.39,0-24.09,12-24.09,23.54s8.7,23.52,24.09,23.52,24.07-12.02,24.07-23.52-8.7-23.54-24.07-23.54ZM79.37,55.08c-7.21,0-11.12-5.62-11.12-11.35s3.9-11.36,11.12-11.36,11.13,5.63,11.13,11.36-3.91,11.35-11.13,11.35Z"/>
      <path class="cls-1" d="M177.08,20.19c-15.38,0-24.09,12-24.09,23.54s8.71,23.52,24.09,23.52,24.08-12.02,24.08-23.52-8.71-23.54-24.08-23.54ZM177.07,55.08c-7.21,0-11.13-5.62-11.13-11.35s3.91-11.36,11.13-11.36,11.12,5.63,11.12,11.36-3.9,11.35-11.12,11.35Z"/>
    </g>
  </g>
</svg>