<?xml version="1.0" encoding="UTF-8"?>
<svg id="_レイヤー_2" data-name="レイヤー 2" xmlns="http://www.w3.org/2000/svg" viewBox="0 0 332.22 67.31">
  <defs>
    <style>
      .cls-1 {
        fill: #fff;
      }
    </style>
  </defs>
  <g id="_レイヤー_1-2" data-name="レイヤー 1">
    <g>
      <path class="cls-1" d="M109.54,43.74c0,12.88,9.28,22.98,23.98,22.98h13.56v-12.2h-12.33c-7.87,0-12.24-4.69-12.24-10.79s4.37-10.79,12.24-10.79h12.33v-12.2h-13.56c-14.7,0-23.98,10.1-23.98,22.98"/>
      <path class="cls-1" d="M258.22,20.21c-4.96,0-9.6,1-15.61,5.05-6.01-4.05-10.65-5.05-15.61-5.05-11.06,0-18.75,7.6-18.75,18.52v27.99h12.97v-27.35c0-4.69,2.87-7.01,7.55-7.01,4.96,0,7.37,2.46,7.37,6.42v27.9h12.97v-27.9c0-3.96,2.46-6.42,7.37-6.42s7.51,2.32,7.51,7.01v27.35h12.97v-27.99c0-10.92-7.74-18.52-18.75-18.52"/>
      <path class="cls-1" d="M308.15,20.21c-15.38,0-24.12,12.01-24.12,23.57s8.69,23.53,24.12,23.53,24.07-12.01,24.07-23.53-8.69-23.57-24.07-23.57M308.1,55.11c-7.24,0-11.1-5.64-11.1-11.38s3.91-11.38,11.1-11.38,11.15,5.64,11.15,11.38-3.91,11.38-11.15,11.38"/>
      <path class="cls-1" d="M35.04,0v23.12c-3.14-1.82-6.87-2.91-11.24-2.91C8.24,20.21,0,32.31,0,43.78s8.28,23.53,23.8,23.53c11.7,0,16.07-5.64,24.21-9.38V.05h-12.97v-.05ZM12.97,43.74c0-5.73,3.91-11.38,11.1-11.38s11.01,5.42,11.1,11.06v.59c-.14,5.69-3.91,11.06-11.1,11.06s-11.1-5.64-11.1-11.38"/>
      <polygon class="cls-1" points="86.47 0 86.47 3.14 81.92 3.14 81.92 14.56 78.55 14.56 78.55 3.14 74 3.14 74 0 86.47 0"/>
      <polygon class="cls-1" points="101.44 0 101.44 3.14 96.89 3.14 96.89 14.56 93.52 14.56 93.52 3.14 88.97 3.14 88.97 0 101.44 0"/>
      <polygon class="cls-1" points="61.3 0 67.95 9.33 67.95 0 71.13 0 71.13 14.56 67.63 14.56 61.03 5.23 61.03 14.56 57.8 14.56 57.8 0 61.3 0"/>
      <path class="cls-1" d="M79.42,20.21c-15.38,0-24.12,12.01-24.12,23.57s8.69,23.53,24.12,23.53,24.07-12.01,24.07-23.53-8.69-23.57-24.07-23.57M79.42,55.11c-7.24,0-11.1-5.64-11.1-11.38s3.91-11.38,11.1-11.38,11.15,5.64,11.15,11.38-3.91,11.38-11.15,11.38"/>
      <path class="cls-1" d="M177.17,20.21c-15.38,0-24.12,12.01-24.12,23.57s8.69,23.53,24.12,23.53,24.07-12.01,24.07-23.53-8.69-23.57-24.07-23.57M177.17,55.11c-7.24,0-11.15-5.64-11.15-11.38s3.91-11.38,11.15-11.38,11.15,5.64,11.15,11.38-3.91,11.38-11.15,11.38"/>
    </g>
  </g>
</svg>