<?xml version="1.0" encoding="UTF-8"?>
<svg id="_レイヤー_2" data-name="レイヤー 2" xmlns="http://www.w3.org/2000/svg" viewBox="0 0 918.25 200.62">
  <defs>
    <style>
      .cls-1 {
        fill: #fff;
      }

      .cls-2 {
        fill: none;
        stroke: #d00f31;
        stroke-miterlimit: 10;
        stroke-width: 7px;
      }

      .cls-3 {
        fill-rule: evenodd;
      }

      .cls-3, .cls-4 {
        fill: #d00f31;
      }
    </style>
  </defs>
  <g id="_レイヤー_1-2" data-name="レイヤー 1">
    <g>
      <path class="cls-4" d="M1.24,159.63c.48-2.21,2-3.24,4.55-3.1,2.21.03,3.24,1.28,3.11,3.73-.24,1.62-.48,3.93-.72,6.91-.24,2.98-.38,6.12-.41,9.39.04,3.48.17,6.72.41,9.7.24,2.98.48,5.29.72,6.91.14,2.45-.9,3.69-3.11,3.73-2.55.14-4.07-.9-4.55-3.11-.31-2-.59-4.5-.83-7.5-.24-2.97-.38-6.14-.41-9.52v-.05c.03-3.42.17-6.61.41-9.57.24-3,.52-5.5.83-7.5ZM21.12,178.83v-4.09h-6.37c-2.35,0-3.52-1.17-3.52-3.52s1.17-3.52,3.52-3.52h6.37v-4.4h-6.42c-2.31,0-3.47-1.16-3.47-3.47s1.15-3.52,3.47-3.52h15.68c2.31,0,3.47,1.16,3.47,3.47s-1.16,3.52-3.47,3.52h-2.23v4.4h2.17c2.35,0,3.52,1.17,3.52,3.52s-1.17,3.52-3.52,3.52h-2.17v5.02c1.21.38,2.79,1.05,4.76,2.02,1.52.83,1.93,2.28,1.24,4.35-.93,1.83-2.24,2.24-3.93,1.24-.41-.17-1.1-.41-2.07-.72v3c0,2.35-.45,4.11-1.35,5.3s-1.98,2-3.26,2.43c-1.28.43-2.55.65-3.83.65-1.66.07-3.24-.17-4.76-.7-1.52-.54-2.77-1.49-3.75-2.87-.98-1.38-1.47-3.29-1.47-5.75.04-3.17,1.01-5.67,2.92-7.5,1.92-1.83,4.74-2.62,8.46-2.38ZM19.72,191.2c.52-.03.88-.23,1.09-.59s.31-.87.31-1.53v-3.78c-1.76-.24-3.04-.06-3.83.54-.79.6-1.24,1.46-1.35,2.56-.07,1.07.21,1.82.83,2.25s1.6.61,2.95.54Z"/>
      <path class="cls-4" d="M61.82,155.91c2.35-1.31,4.33-1.29,5.95.05,1.72,2.17,1.57,4.09-.47,5.74-3.24,2.28-6.04,4.24-8.38,5.87-2.35,1.64-4.37,3.1-6.06,4.37-1.69,1.28-2.74,2.09-3.16,2.43-.45.28-.67.63-.67,1.06s.29.89.88,1.37c.45.41,1.51,1.32,3.18,2.72,1.67,1.4,3.66,3.04,5.98,4.92,2.31,1.88,5.28,4.24,8.9,7.06,1.79,1.73,1.79,3.64,0,5.75-2.14,1.48-4.07,1.53-5.8.16-2.83-2.28-5.07-4.07-6.73-5.38-1.66-1.31-3.37-2.67-5.15-4.09-1.78-1.41-3.37-2.68-4.79-3.8-1.42-1.12-2.38-1.97-2.9-2.56-1.79-1.79-2.67-3.78-2.61-5.95.05-2.17.91-4.05,2.56-5.64.59-.48,1.55-1.23,2.9-2.25s2.86-2.14,4.55-3.36c1.69-1.22,3.31-2.41,4.87-3.54s3.86-2.78,6.93-4.92Z"/>
      <path class="cls-4" d="M105.11,157.46c2.17.07,3.45,1.14,3.83,3.21.28,2.38-.38,3.88-1.96,4.5-1.9.62-4.03,1.63-6.39,3.03s-4.38,3.05-6.05,4.97c-1.67,1.92-2.75,3.75-3.23,5.51-.62,2.35-.57,4.22.15,5.62s1.73,2.42,3.03,3.05c1.29.64,2.49.99,3.6,1.06,1.38.07,3.17.05,5.38-.05,2.48-.1,3.76,1.23,3.83,3.99-.07,2.9-1.35,4.33-3.83,4.3-2.45,0-4.45-.05-6-.16-1.45-.07-3.14-.41-5.07-1.01-1.93-.6-3.68-1.54-5.25-2.82-1.57-1.28-2.78-2.98-3.62-5.12s-1.08-4.78-.7-7.92c.38-2.21,1.04-4.19,1.99-5.95.95-1.76,1.98-3.25,3.11-4.48s2.08-2.17,2.87-2.82c.79-.66,1.22-.98,1.29-.98h-12.42c-2.62,0-3.93-1.31-3.93-3.93s1.31-3.99,3.93-3.99h25.46ZM100.45,170.5c0-1.17.59-1.76,1.76-1.76s1.81.59,1.81,1.76v3.93c0,1.17-.59,1.76-1.76,1.76s-1.81-.59-1.81-1.76v-3.93ZM106.04,170.5c0-1.17.59-1.76,1.76-1.76s1.81.59,1.81,1.76v3.93c0,1.17-.59,1.76-1.76,1.76s-1.81-.59-1.81-1.76v-3.93Z"/>
      <path class="cls-4" d="M124.34,159.22c.69-2.69,2.48-3.79,5.38-3.31,2.52.83,3.35,2.48,2.48,4.97-1.42,4.35-2.61,8.12-3.57,11.33.17-.31,1.04-.79,2.59-1.45,1.55-.66,3.15-.64,4.79.05,1.64.69,2.64,2.01,3,3.96.36,1.95.49,3.96.39,6.03-.1,1.97-.07,3.7.1,5.2.17,1.5.65,2.3,1.45,2.41.96,0,2.33-.83,4.09-2.48,1.38-1.42,2.97-1.42,4.76,0,1.45,1.9,1.5,3.76.15,5.59-.96,1.35-1.91,2.45-2.82,3.31s-1.99,1.61-3.23,2.25c-1.24.64-2.61.96-4.09.96-3.07-.17-5.17-1.45-6.29-3.83s-1.6-5.52-1.42-9.42c.14-1.97.11-3.53-.08-4.68s-.97-1.56-2.36-1.22c-.83.24-1.6.78-2.3,1.6s-1.25,1.78-1.63,2.85c-.38,1.07-.72,2.1-1.04,3.11-.45,1.79-1.19,4.73-2.23,8.8-.55,2.45-2.28,3.42-5.18,2.9-2.1-.79-2.93-2.38-2.48-4.76.48-2.14,1.24-5.21,2.28-9.21,1.04-4,2.24-8.44,3.62-13.33,1.38-4.88,2.59-8.75,3.62-11.62Z"/>
      <path class="cls-4" d="M183.36,175.57c-.1-2.73-.71-5.03-1.81-6.91-1.11-1.88-2.79-2.99-5.07-3.34-.1,3.35-.32,6.73-.65,10.14-.33,3.42-.97,6.56-1.94,9.42-.97,2.86-2.17,5.14-3.62,6.83-1.45,1.69-3.28,2.5-5.48,2.43-1.62-.07-3.17-.6-4.63-1.58-1.47-.98-2.71-2.61-3.73-4.89-1.02-2.28-1.54-5.37-1.58-9.26.07-3.83.85-7.3,2.33-10.43,1.48-3.12,3.47-5.64,5.95-7.56,2.48-1.92,5.29-3.03,8.44-3.34,3.38-.24,6.49.25,9.34,1.48,2.85,1.22,5.18,3.3,7.01,6.24,1.83,2.93,2.85,6.68,3.05,11.23.07,3.9-.44,7.25-1.53,10.04-1.09,2.79-2.5,4.98-4.24,6.55s-3.63,2.63-5.67,3.18c-2.41.62-4.02-.19-4.81-2.43-.55-2.45.29-4.02,2.54-4.71,1-.24,2.28-1.37,3.83-3.39s2.31-5.25,2.28-9.7ZM164.94,185.98c.79.03,1.46-.64,1.99-2.02s.97-3.15,1.29-5.3c.33-2.16.57-4.41.72-6.75.15-2.35.21-4.48.18-6.42-1.52.52-2.79,1.5-3.8,2.95-1.02,1.45-1.79,3.08-2.33,4.89-.54,1.81-.84,3.51-.9,5.1-.1,2.59.12,4.48.67,5.67s1.28,1.82,2.17,1.89Z"/>
      <path class="cls-4" d="M245.03,181.83c.04.21.05.41.05.62,0,.76-.24,1.47-.72,2.12-.55.83-1.33,1.33-2.33,1.5l-2.02.36c-.35.07-.52.28-.52.62v9.99c0,.96-.35,1.8-1.06,2.51-.71.71-1.56,1.06-2.56,1.06s-1.85-.35-2.54-1.06c-.69-.71-1.04-1.54-1.04-2.51v-8.7c0-.1-.05-.2-.16-.28-.1-.09-.22-.13-.36-.13l-8.95,1.6c-.28.07-.55.1-.83.1-.9,0-1.74-.28-2.54-.83-1-.72-1.59-1.69-1.76-2.9l-.31-1.71c0-.07-.05-.12-.16-.16s-.17,0-.21.1l-1.29,1.6c-.55.76-1.28,1.14-2.17,1.14-.1,0-.21-.02-.31-.05-1.04-.1-1.81-.6-2.33-1.5-.21-.34-.43-.72-.67-1.14-.04-.07-.08-.09-.13-.05-.05.03-.08.09-.08.16v12.68c0,.96-.35,1.79-1.06,2.48-.71.69-1.55,1.04-2.54,1.04s-1.82-.34-2.51-1.04c-.69-.69-1.04-1.52-1.04-2.48v-13.09s-.02-.05-.05-.05c-.04,0-.07.02-.1.05-1,2.9-2.04,5.45-3.11,7.66-.35.69-.88,1.04-1.6,1.04h-.26c-.83-.07-1.42-.5-1.76-1.29-.45-1.04-.67-2.1-.67-3.21,0-.21.02-.43.05-.67.1-1.31.48-2.55,1.14-3.73,1.35-2.38,2.59-5.09,3.73-8.12.03-.1.02-.21-.05-.31-.07-.1-.17-.16-.31-.16h-1.14c-1,0-1.85-.35-2.54-1.06-.69-.71-1.04-1.55-1.04-2.54s.35-1.83,1.04-2.54,1.54-1.06,2.54-1.06h3.62c.35,0,.52-.17.52-.52v-13.2c0-.97.35-1.79,1.04-2.48.69-.69,1.53-1.04,2.51-1.04s1.83.35,2.54,1.04c.71.69,1.06,1.52,1.06,2.48v10.76c0,.07.02.1.05.1.04,0,.05-.02.05-.05.69-2.69,1.31-5.59,1.86-8.69.14-.86.59-1.55,1.35-2.07.52-.38,1.09-.57,1.71-.57.21,0,.43.03.67.1.86.17,1.5.64,1.91,1.4.31.45.47.93.47,1.45,0,.31-.05.62-.16.93-.72,2.28-1.31,4.11-1.76,5.49-.38,1.17-1.12,2.04-2.22,2.59-.72.38-1.47.57-2.23.57-.41,0-.83-.05-1.24-.16-.14-.03-.25,0-.34.08-.09.09-.13.18-.13.29v.98c0,.35.17.52.52.52h3.26c.97,0,1.8.35,2.51,1.06s1.06,1.55,1.06,2.54-.36,1.83-1.06,2.54c-.71.71-1.54,1.06-2.51,1.06h-3.67c-.07,0-.1.03-.1.1s.02.12.05.16c.69.59,1.78,1.67,3.26,3.26,1.48,1.59,2.71,2.95,3.67,4.09.24.24.54.35.88.31l13.87-2.48c.34-.07.52-.28.52-.62v-26.03c0-1,.34-1.85,1.04-2.56.69-.71,1.54-1.06,2.54-1.06s1.86.35,2.56,1.06,1.06,1.56,1.06,2.56v24.79c0,.1.05.2.16.29s.22.13.36.13l.88-.16c.24-.07.47-.1.67-.1.72,0,1.4.23,2.02.67.79.59,1.28,1.36,1.45,2.33ZM202.33,163.05c.03.17.05.33.05.47,0,.66-.19,1.26-.57,1.81-.52.72-1.19,1.19-2.02,1.4-.21.07-.41.1-.62.1-.48,0-.93-.16-1.34-.47-.62-.45-.97-1.05-1.04-1.81-.24-2.31-.66-4.67-1.24-7.09-.07-.24-.1-.47-.1-.67,0-.52.14-1,.41-1.45.38-.62.93-1.04,1.66-1.24.24-.07.48-.1.72-.1.48,0,.95.12,1.4.36.65.38,1.09.95,1.29,1.71.62,2.28,1.09,4.61,1.4,6.99ZM220.19,173.09c-.76-.52-1.22-1.22-1.4-2.12-.07-.24-.1-.47-.1-.67,0-.62.19-1.21.57-1.76.48-.79,1.19-1.29,2.12-1.5.28-.07.54-.1.78-.1.62,0,1.19.16,1.71.46,1.24.76,2.36,1.5,3.36,2.23.83.62,1.31,1.47,1.45,2.54.03.21.05.41.05.62,0,.79-.23,1.55-.67,2.28-.48.76-1.19,1.19-2.12,1.29-.14.03-.28.05-.41.05-.76,0-1.43-.26-2.02-.78-1-.83-2.1-1.67-3.31-2.54ZM229.24,156.74c.79.62,1.24,1.45,1.34,2.48v.47c0,.83-.24,1.59-.72,2.28-.48.72-1.17,1.12-2.07,1.19h-.26c-.79,0-1.5-.26-2.12-.78-.9-.83-1.95-1.69-3.16-2.59-.69-.55-1.12-1.26-1.29-2.12-.04-.17-.05-.36-.05-.57,0-.62.21-1.21.62-1.76.52-.76,1.21-1.22,2.07-1.4.24-.03.47-.05.67-.05.65,0,1.26.19,1.81.57,1.17.79,2.23,1.55,3.16,2.28Z"/>
      <path class="cls-4" d="M284.18,182.4s-.06.03-.08.08c-.02.05,0,.08.03.08l.46.16c1.07.38,1.76,1.1,2.07,2.17.14.38.21.74.21,1.09,0,.66-.22,1.29-.67,1.92-1.17,1.62-1.97,2.71-2.38,3.26-.07.07-.08.16-.03.26.05.1.13.16.23.16h6.99c.93,0,1.72.32,2.36.96.64.64.96,1.42.96,2.33s-.32,1.69-.96,2.33c-.64.64-1.42.96-2.36.96h-38.3c-.9,0-1.67-.32-2.3-.96-.64-.64-.96-1.42-.96-2.33s.32-1.69.96-2.33c.64-.64,1.4-.96,2.3-.96h5.69c.14,0,.24-.05.31-.16.07-.1.07-.21,0-.31-.52-1.31-1.11-2.59-1.76-3.83-.31-.55-.47-1.1-.47-1.66,0-.34.05-.71.16-1.09.31-.93.91-1.59,1.81-1.97.04,0,.04-.05,0-.16h-2.95c-.9,0-1.67-.32-2.3-.96-.64-.64-.96-1.42-.96-2.33s.32-1.69.96-2.33c.64-.64,1.4-.96,2.3-.96h11.38c.35,0,.52-.17.52-.52v-3.21c0-.34-.17-.52-.52-.52h-6.52c-.55,0-1.04-.21-1.45-.62s-.62-.9-.62-1.45c0-.07-.03-.11-.08-.13-.05-.02-.1,0-.13.03-1.11.79-2.37,1.62-3.78,2.48-.65.35-1.31.52-1.97.52-.34,0-.69-.03-1.04-.1-1.03-.28-1.91-.86-2.64-1.76-.45-.62-.67-1.29-.67-2.02,0-.21.02-.41.05-.62.14-.96.64-1.69,1.5-2.17,3.07-1.79,6.02-3.97,8.85-6.52,2.62-2.38,4.83-4.71,6.62-6.99,1.69-2.21,3.79-3.31,6.31-3.31s4.71,1.07,6.47,3.21c2.31,2.83,4.92,5.4,7.81,7.71,2.66,2.14,5.42,3.93,8.28,5.38.93.48,1.52,1.24,1.76,2.28.07.28.1.55.1.83,0,.69-.22,1.35-.67,1.97-.72,1-1.66,1.64-2.79,1.92-.38.1-.74.16-1.09.16-.76,0-1.5-.21-2.22-.62-1.28-.79-2.52-1.62-3.73-2.48-.14-.1-.21-.07-.21.1,0,.62-.22,1.15-.65,1.58-.43.43-.96.65-1.58.65h-6.68c-.35,0-.52.17-.52.52v3.21c0,.34.17.52.52.52h11.54c.9,0,1.66.32,2.3.96.64.64.96,1.42.96,2.33s-.32,1.69-.96,2.33-1.41.96-2.3.96h-3.52ZM267.41,182.92c0-.34-.17-.52-.52-.52h-4.55c-.1,0-.18.05-.23.16-.05.1-.04.19.03.26.9,1.31,1.66,2.52,2.28,3.62.28.52.41,1.05.41,1.6,0,.41-.09.83-.26,1.24-.38.97-1.05,1.67-2.02,2.12-.03,0-.05.03-.05.08s.02.08.05.08h4.35c.35,0,.52-.17.52-.52v-8.12ZM264.2,164.55c-.07.07-.1.15-.08.23.02.09.08.13.18.13h14.91c.1,0,.16-.04.18-.13.02-.09,0-.16-.08-.23-3.11-2.73-5.56-5.28-7.35-7.66-.21-.28-.41-.28-.62,0-1.9,2.59-4.28,5.14-7.14,7.66ZM280.92,182.87c.03-.1.03-.21-.03-.31-.05-.1-.15-.16-.29-.16h-4.45c-.35,0-.52.17-.52.52v8.12c0,.35.17.52.52.52h3.05s.05-.02.05-.05-.02-.05-.05-.05c-.62-.28-1.04-.76-1.24-1.45-.07-.24-.1-.48-.1-.72,0-.41.1-.81.31-1.19,1-1.69,1.91-3.43,2.74-5.23Z"/>
      <path class="cls-4" d="M329.13,175.57c-.1-2.73-.71-5.03-1.81-6.91-1.11-1.88-2.79-2.99-5.07-3.34-.1,3.35-.32,6.73-.65,10.14-.33,3.42-.97,6.56-1.94,9.42-.97,2.86-2.17,5.14-3.62,6.83-1.45,1.69-3.28,2.5-5.48,2.43-1.62-.07-3.17-.6-4.63-1.58-1.47-.98-2.71-2.61-3.73-4.89-1.02-2.28-1.54-5.37-1.58-9.26.07-3.83.85-7.3,2.33-10.43,1.48-3.12,3.47-5.64,5.95-7.56,2.48-1.92,5.29-3.03,8.44-3.34,3.38-.24,6.49.25,9.34,1.48,2.85,1.22,5.18,3.3,7.01,6.24,1.83,2.93,2.85,6.68,3.05,11.23.07,3.9-.44,7.25-1.53,10.04-1.09,2.79-2.5,4.98-4.24,6.55s-3.63,2.63-5.67,3.18c-2.41.62-4.02-.19-4.81-2.43-.55-2.45.29-4.02,2.54-4.71,1-.24,2.28-1.37,3.83-3.39s2.31-5.25,2.28-9.7ZM310.71,185.98c.79.03,1.46-.64,1.99-2.02s.97-3.15,1.29-5.3c.33-2.16.57-4.41.72-6.75.15-2.35.21-4.48.18-6.42-1.52.52-2.79,1.5-3.8,2.95-1.02,1.45-1.79,3.08-2.33,4.89-.54,1.81-.84,3.51-.9,5.1-.1,2.59.12,4.48.67,5.67s1.28,1.82,2.17,1.89Z"/>
      <path class="cls-4" d="M344.32,164.14c0-2.42,1.21-3.62,3.62-3.62h5.75v-1.6c0-2.38,1.19-3.57,3.57-3.57s3.62,1.19,3.62,3.57v1.6h2.74c2.21.07,3.35,1.31,3.42,3.73.03,2.45-1.07,3.64-3.31,3.57h-2.85v3.99c.45-.1.83-.17,1.14-.21,1.55-.03,3.21.11,4.97.44,1.76.33,3.42.95,4.97,1.86,1.55.92,2.82,2.25,3.8,4.01.98,1.76,1.49,4.05,1.53,6.88-.03,2.83-.54,5.12-1.5,6.88-.97,1.76-2.2,3.11-3.7,4.06-1.5.95-3.15,1.54-4.94,1.79-2.04.28-3.35-.69-3.93-2.9-.38-2.21.38-3.66,2.28-4.35,2.1-.72,3.36-1.49,3.75-2.3.4-.81.6-1.87.6-3.18,0-1.9-.69-3.35-2.07-4.35-1.38-1-3.47-1.45-6.26-1.35h-.31c-.1,0-.21.02-.31.05v8.75c-.1,2.83-.67,4.92-1.68,6.26-1.02,1.35-2.11,2.21-3.26,2.59-1.16.38-2.22.53-3.18.47-1.45,0-2.9-.43-4.35-1.29-1.45-.86-2.67-2.1-3.68-3.73-1-1.62-1.55-3.57-1.65-5.85-.07-2.1.35-4.04,1.27-5.82.91-1.78,2.17-3.33,3.78-4.66,1.6-1.33,3.46-2.35,5.56-3.08v-4.97h-5.75c-2.41,0-3.62-1.21-3.62-3.62v-.05ZM353.69,188.61v-7.97c-1.21.62-2.12,1.4-2.74,2.33s-.95,2.02-.98,3.26c-.04.79.13,1.43.49,1.91.36.48.78.84,1.24,1.06.47.22.89.32,1.27.28.03.04.15.02.36-.05.21-.07.33-.34.36-.83ZM367.97,159.89l-.26-1.14c-.55-1.69.14-2.85,2.07-3.47,2.38-.48,3.95.34,4.71,2.48,1.41,3.97,2.43,7.44,3.05,10.4.45,2-.47,3.21-2.74,3.62-2.31.24-3.68-.57-4.09-2.43-.17-.59-.39-1.47-.65-2.64s-.8-2.81-1.63-4.92l-.46-1.92Z"/>
      <path class="cls-4" d="M419.85,168.12c.21-.03.41-.05.62-.05.55,0,1.07.14,1.55.41l1.71.98c.79.41,1.35,1.05,1.66,1.92.14.38.21.76.21,1.14,0,.45-.09.9-.26,1.35-2.38,5.38-5.78,9.99-10.2,13.82-.1.07-.15.16-.13.28.02.12.08.2.18.23,3.76,1.48,8.07,2.59,12.94,3.31.93.14,1.59.66,1.97,1.55.14.35.21.71.21,1.09,0,.48-.16.97-.47,1.45v.05c-.76,1.17-1.72,2.05-2.9,2.64-.86.45-1.73.67-2.59.67-.38,0-.76-.03-1.14-.1-6.14-1.24-11.42-3.09-15.84-5.54-.31-.17-.62-.17-.93,0-4.59,2.28-9.97,4.07-16.15,5.38-.34.07-.69.1-1.04.1-.79,0-1.59-.21-2.38-.62-1.07-.59-1.93-1.45-2.59-2.59-.24-.45-.36-.91-.36-1.4,0-.41.09-.81.26-1.19.41-.9,1.09-1.41,2.02-1.55,5.04-.83,9.45-1.95,13.25-3.36.1-.07.16-.16.18-.28.02-.12,0-.21-.08-.28-1.86-1.79-3.57-3.83-5.12-6.11-.41-.59-.62-1.21-.62-1.86,0-.38.09-.78.26-1.19.38-1.1,1.14-1.83,2.28-2.17l.88-.31s.04-.03.03-.08c-.02-.05-.04-.08-.08-.08h-6.47c-1.04,0-1.92-.37-2.66-1.11-.74-.74-1.11-1.63-1.11-2.67s.37-1.92,1.11-2.67c.74-.74,1.63-1.11,2.66-1.11h11.8c.34,0,.52-.17.52-.52v-3.98c0-.34-.17-.52-.52-.52h-14.44c-1.07,0-1.98-.37-2.72-1.11-.74-.74-1.11-1.65-1.11-2.72s.37-1.97,1.11-2.72c.74-.74,1.65-1.11,2.72-1.11h14.44c.34,0,.52-.17.52-.52v-1.81c0-1.1.4-2.05,1.19-2.85.79-.79,1.74-1.19,2.85-1.19s2.05.4,2.85,1.19c.79.79,1.19,1.74,1.19,2.85v1.81c0,.34.17.52.52.52h14.6c1.07,0,1.97.37,2.72,1.11.74.74,1.11,1.65,1.11,2.72s-.37,1.98-1.11,2.72c-.74.74-1.65,1.11-2.72,1.11h-14.6c-.35,0-.52.17-.52.52v3.98c0,.35.17.52.52.52h7.92c.1,0,.21-.02.31-.05ZM415.09,176.19c.07-.1.07-.21,0-.31-.07-.1-.16-.16-.26-.16h-14.59c-.1,0-.19.05-.26.16-.07.1-.07.21,0,.31,1.83,2.9,4.16,5.38,6.99,7.45.28.21.55.21.83,0,3.07-2.14,5.5-4.62,7.3-7.45Z"/>
      <path class="cls-4" d="M452.07,173.55c.21-.03.4-.05.57-.05.69,0,1.31.22,1.86.67.72.55,1.12,1.28,1.19,2.17.03.14.05.26.05.36,0,.83-.26,1.59-.78,2.28-.59.79-1.36,1.28-2.33,1.45-1.04.21-2.04.41-3,.62-.34.04-.52.22-.52.57v10.92c0,1.86-.19,3.3-.57,4.32-.38,1.02-1.09,1.82-2.12,2.41-1.28.69-3.05,1.12-5.33,1.29h-.31c-.93,0-1.78-.29-2.54-.88-.86-.69-1.45-1.59-1.76-2.69-.1-.28-.15-.55-.15-.83,0-.52.17-1.02.52-1.5.48-.72,1.17-1.09,2.07-1.09h1.66c.38-.03.65-.13.8-.29.16-.16.23-.42.23-.8v-9.32c0-.14-.05-.25-.15-.34-.1-.08-.22-.11-.36-.08l-2.02.41c-.28.04-.54.05-.78.05-.76,0-1.47-.22-2.12-.67-.9-.59-1.45-1.4-1.66-2.43-.04-.28-.05-.53-.05-.78,0-.72.22-1.4.67-2.02.59-.83,1.4-1.33,2.43-1.5.38-.03.96-.11,1.76-.23.79-.12,1.38-.21,1.76-.28.35-.03.52-.22.52-.57v-7.04c0-.34-.17-.52-.52-.52h-2.9c-1,0-1.85-.34-2.54-1.04s-1.04-1.54-1.04-2.54.35-1.85,1.04-2.54c.69-.69,1.54-1.04,2.54-1.04h2.9c.35,0,.52-.17.52-.52v-5.49c0-1.04.37-1.92,1.11-2.67s1.63-1.11,2.67-1.11,1.91.37,2.64,1.11,1.09,1.63,1.09,2.67v5.49c0,.35.17.52.52.52h2.17c1,0,1.85.35,2.54,1.04.69.69,1.04,1.54,1.04,2.54s-.35,1.85-1.04,2.54c-.69.69-1.54,1.04-2.54,1.04h-2.17c-.34,0-.52.17-.52.52v5.8c0,.14.05.25.16.34.1.09.22.13.36.13l2.43-.41ZM483.95,193.84c.14.41.21.83.21,1.24,0,.66-.17,1.31-.52,1.97-.52,1.04-1.35,1.76-2.48,2.17-.41.14-.81.21-1.19.21-.59,0-1.16-.16-1.71-.47-.93-.52-1.54-1.29-1.81-2.33,0-.07-.02-.14-.05-.21-.07-.31-.28-.43-.62-.36-5.31.83-11.99,1.81-20.03,2.95-.24.03-.46.05-.67.05-.9,0-1.73-.28-2.48-.83-.97-.69-1.57-1.6-1.81-2.74-.03-.28-.05-.54-.05-.78,0-.76.24-1.48.72-2.17.65-.86,1.54-1.35,2.64-1.45.35-.03.67-.07.98-.1.34-.03.57-.22.67-.57,2.83-10.56,4.95-22.06,6.37-34.52.14-1.14.66-2.07,1.55-2.79.76-.55,1.57-.83,2.43-.83.21,0,.43.02.67.05,1.17.17,2.1.74,2.79,1.71.59.76.88,1.59.88,2.48,0,.24-.02.46-.05.67-1.69,11.35-3.9,22.15-6.62,32.4-.04.1-.02.21.05.31.07.1.17.16.31.16,2.24-.24,5.36-.6,9.37-1.09.14,0,.24-.06.31-.18.07-.12.07-.25,0-.39-1.11-3.07-2.29-6.05-3.57-8.95-.17-.45-.26-.9-.26-1.35s.09-.88.26-1.29c.38-.9,1.04-1.5,1.97-1.81.45-.17.9-.26,1.35-.26.52,0,1.04.12,1.55.36.97.38,1.67,1.04,2.12,1.97,3,6.31,5.24,11.9,6.73,16.77Z"/>
      <path class="cls-4" d="M489.52,160.62c.14-2.59,1.48-3.88,4.04-3.88,2.41.14,3.59,1.43,3.52,3.88,0,.93-.04,2.47-.1,4.61-.07,2.14-.13,4.46-.18,6.96-.05,2.5-.1,4.8-.13,6.91,0,2.73.13,4.93.39,6.62.26,1.69.82,2.59,1.68,2.69.96-.03,1.88-.24,2.74-.62,1.83-1.17,3.33-.69,4.5,1.45.66,2.38-.05,4.19-2.12,5.43-.66.59-1.35,1.02-2.07,1.29-.72.28-1.97.52-3.73.72-3,.24-5.24-.96-6.7-3.6-1.47-2.64-2.2-6.67-2.2-12.08,0-2.21,0-4.67.03-7.38.02-2.71.05-5.24.1-7.61.05-2.36.13-4.17.23-5.41ZM511.77,160.87c-.52-2.41.59-3.66,3.31-3.73,2.31.04,3.69,1.28,4.14,3.73.86,3.04,1.61,7.41,2.25,13.12.64,5.71.91,11.52.8,17.42,0,2.83-1.29,4.24-3.88,4.24s-3.76-1.21-3.73-3.62c.03-1.14,0-3.16-.08-6.05-.09-2.9-.29-6.07-.6-9.52s-.66-6.39-1.06-8.82-.79-4.68-1.16-6.75Z"/>
      <path class="cls-4" d="M532.19,159.94h7.56l.67-1.81c.62-2.24,2.36-3.04,5.23-2.38,2.04.93,2.67,2.33,1.92,4.19h8.23c2.38,0,3.57,1.19,3.57,3.57s-1.19,3.57-3.57,3.57h-11.64c0,.1-.21.54-.62,1.29-.41.76-.78,1.47-1.09,2.12.04-.03.23-.18.6-.44.36-.26.66-.42.91-.49,2.31-.86,4.11-.88,5.41-.05,1.29.83,2.16,2.12,2.61,3.88,1.93-1.04,3.9-1.97,5.9-2.79,2.52-1.07,4.24-.45,5.17,1.86.69,2.73-.14,4.45-2.48,5.17-3.73,1.24-6.44,2.31-8.13,3.21v3.73c0,2.35-1.17,3.52-3.52,3.52s-3.57-1.17-3.57-3.52v-.21s-.2.15-.49.34c-.29.19-.54.34-.75.44-1.48,1.24-2.1,2.4-1.86,3.47.24,1.07,1.5,1.64,3.78,1.71,2.41-.03,5.88-.33,10.4-.88,2.62-.41,4,.83,4.14,3.73.14,2.62-.97,4.07-3.31,4.35-3.14.38-7.04.55-11.7.52-2.72-.1-4.96-.76-6.7-1.97-1.74-1.21-2.88-2.75-3.42-4.63s-.35-3.86.54-5.95c.9-2.09,2.59-4.03,5.07-5.82.72-.48,1.44-.95,2.15-1.4.71-.45,1.42-.9,2.15-1.34-.03-.62-.19-1.05-.46-1.29-.28-.24-.79-.31-1.55-.21-.66.17-1.47.58-2.46,1.22-.98.64-2.01,1.42-3.08,2.33-1.07.91-2.38,2.13-3.93,3.65-1.45,1.24-3.04,1.17-4.76-.21-1.07-1.9-1.07-3.45,0-4.66,1.24-1.07,2.38-2.28,3.42-3.62s2.12-2.9,3.26-4.66c.24-.41.49-.9.75-1.45.26-.55.4-.86.44-.93h-4.76c-2.38,0-3.57-1.19-3.57-3.57s1.19-3.57,3.57-3.57Z"/>
      <path class="cls-4" d="M578.95,196.38c-3.79,0-6.8-1.41-9.03-4.22-2.22-2.81-3.34-6.67-3.34-11.57,0-2.38.35-4.59,1.06-6.62.71-2.04,1.65-3.71,2.82-5.02,1.17-1.31,2.5-2.34,3.99-3.08s3.02-1.11,4.61-1.11c1.45,0,2.71.23,3.78.7,1.07.47,2.11,1.17,3.11,2.1.07.04.14.04.21,0,.07-.03.1-.1.1-.21l-.31-3.98v-5.54c0-1.24.44-2.3,1.32-3.18.88-.88,1.94-1.32,3.18-1.32h.47c1.24,0,2.3.44,3.18,1.32.88.88,1.32,1.94,1.32,3.18v34c0,1.07-.37,1.98-1.11,2.72-.74.74-1.65,1.11-2.72,1.11h-1.14c-.79,0-1.5-.24-2.12-.72s-1.02-1.12-1.19-1.92l-.05-.16c-.04-.07-.09-.1-.15-.1s-.12.02-.16.05c-1.1,1.1-2.35,1.98-3.73,2.61-1.38.64-2.74.96-4.09.96ZM581.43,188.67c1.76,0,3.16-.71,4.19-2.12.21-.28.31-.59.31-.93v-10.87c0-.34-.14-.62-.41-.83-1.21-1-2.62-1.5-4.24-1.5-1.41,0-2.61.68-3.57,2.04-.97,1.36-1.45,3.36-1.45,5.98,0,5.49,1.72,8.23,5.18,8.23Z"/>
      <path class="cls-4" d="M600.92,166.46c0-2.69,1.35-4.04,4.04-4.04h4.97v-3.36c0-2.59,1.29-3.88,3.88-3.88s3.93,1.29,3.93,3.88v3.36h7.4c5.55.07,8.31,3.16,8.28,9.26.03,5.87-.1,11.08-.41,15.66-.31,4.57-1.23,7.44-2.77,8.59-1.54,1.16-3.29,1.84-5.25,2.04-2.14.17-4.55-.12-7.25-.88-2.41-.79-3.38-2.38-2.9-4.76.72-2.38,2.17-3.28,4.35-2.69,1.24.24,2.59.26,4.04.05.45-.03.85-.28,1.22-.72.36-.45.64-1.32.83-2.61.19-1.29.37-5.53.54-12.71,0-2-.95-3.04-2.85-3.11h-5.44c-.03,5.21-.88,9.86-2.54,13.95-1.66,4.09-4.33,7.6-8.02,10.53-2.38,1.9-4.38,1.9-6,0-1.24-2.52-1.02-4.45.67-5.8.86-.55,1.97-1.59,3.34-3.1,1.36-1.52,2.47-3.49,3.34-5.93.86-2.43,1.33-5.65,1.4-9.65h-4.76c-2.69,0-4.04-1.35-4.04-4.04v-.05Z"/>
      <path class="cls-4" d="M639.45,176.14c0-2.69,1.35-4.04,4.04-4.04h15.84c2.69,0,4.04,1.35,4.04,4.04s-1.34,4.09-4.04,4.09h-15.84c-2.69,0-4.04-1.35-4.04-4.04v-.05Z"/>
      <path class="cls-4" d="M669.39,159.06c0-2.72,1.36-4.09,4.09-4.09s4.09,1.36,4.09,4.09v9.88h17.7c2.69,0,4.04,1.35,4.04,4.04s-1.35,4.09-4.04,4.09h-17.7v17.18c0,2.72-1.36,4.09-4.09,4.09s-4.09-1.36-4.09-4.09v-35.19ZM682.59,156.84c0-1.17.59-1.76,1.76-1.76s1.81.59,1.81,1.76v3.93c0,1.17-.59,1.76-1.76,1.76s-1.81-.59-1.81-1.76v-3.93ZM688.18,156.84c0-1.17.59-1.76,1.76-1.76s1.81.59,1.81,1.76v3.93c0,1.17-.59,1.76-1.76,1.76s-1.81-.59-1.81-1.76v-3.93Z"/>
      <path class="cls-4" d="M705.8,159.63c.48-2.21,2-3.24,4.55-3.1,2.21.03,3.24,1.28,3.11,3.73-.24,1.62-.48,3.93-.72,6.91-.24,2.98-.38,6.12-.41,9.39.03,3.48.17,6.72.41,9.7.24,2.98.48,5.29.72,6.91.14,2.45-.9,3.69-3.11,3.73-2.55.14-4.07-.9-4.55-3.11-.31-2-.59-4.5-.83-7.5-.24-2.97-.38-6.14-.41-9.52v-.05c.03-3.42.17-6.61.41-9.57.24-3,.52-5.5.83-7.5ZM716.97,179.71c.83-1.9,2.21-2.66,4.14-2.28,2.21.66,2.97,1.9,2.28,3.73-.21.69-.33,1.57-.36,2.64-.04.66.09,1.28.36,1.86s.84,1.07,1.68,1.45,2.1.59,3.75.62c2.62,0,4.47-.05,5.54-.16,2.48-.34,3.79.83,3.93,3.52-.07,2.62-1.17,4.07-3.31,4.35-2.24.28-4.47.43-6.68.47-4.04-.1-7.11-1.09-9.21-2.98-2.11-1.88-3.21-4.2-3.31-6.96-.07-1.76.33-3.85,1.19-6.26ZM733.07,159.17c2.62,0,3.93,1.31,3.93,3.93s-1.31,3.99-3.93,3.99h-11.8c-2.62,0-3.93-1.31-3.93-3.93s1.31-3.99,3.93-3.99h11.8Z"/>
      <path class="cls-4" d="M759.23,159.11c.83,0,1.54.29,2.12.88.59.59.88,1.29.88,2.12s-.29,1.54-.88,2.12c-.59.59-1.29.88-2.12.88h-15.27c-.83,0-1.53-.29-2.1-.88-.57-.59-.85-1.29-.85-2.12s.29-1.54.85-2.12c.57-.59,1.27-.88,2.1-.88h15.27ZM782.99,173.09c.31-.03.6-.05.88-.05.48,0,.96.09,1.45.26l1.4.47c.72.28,1.26.74,1.61,1.4.21.41.31.83.31,1.24,0,.28-.04.55-.1.83-1.52,4.86-3.73,9-6.62,12.42-.24.28-.21.48.1.62,1.83,1,3.76,1.86,5.8,2.59.86.31,1.43.92,1.71,1.81.07.28.1.55.1.83,0,.59-.19,1.14-.57,1.66-.76,1-1.69,1.71-2.79,2.12-.55.21-1.09.31-1.6.31-.59,0-1.17-.12-1.76-.36-2.45-1-4.73-2.22-6.83-3.67-.28-.21-.55-.22-.83-.05-2.14,1.41-4.45,2.62-6.94,3.62-.55.24-1.12.36-1.71.36s-1.19-.14-1.81-.41c-1.17-.48-2.11-1.29-2.79-2.43-.52-.83-1.02-1.55-1.5-2.17-.04-.03-.09-.04-.15-.03-.07.02-.1.06-.1.13,0,.93-.33,1.73-.98,2.41-.65.67-1.47,1.01-2.43,1.01h-6.78c-.1,0-.16.07-.16.21,0,.48-.17.89-.52,1.22-.35.33-.74.49-1.19.49h-1.55c-.9,0-1.66-.32-2.28-.96-.62-.64-.93-1.41-.93-2.3v-10.61c0-1.24.44-2.3,1.32-3.18.88-.88,1.94-1.32,3.18-1.32h7.81c1.24,0,2.3.44,3.18,1.32.88.88,1.32,1.94,1.32,3.18v7.25c0,.14.05.25.15.34.1.09.22.11.36.08,3.28-.9,6.14-2.05,8.59-3.47.31-.17.35-.4.1-.67-.93-1.1-1.81-2.28-2.64-3.52-.41-.59-.62-1.19-.62-1.81,0-.41.09-.84.26-1.29.41-1.07,1.19-1.79,2.33-2.17l1.86-.57s.05-.03.05-.08-.04-.08-.1-.08h-4.19c-.93,0-1.73-.34-2.41-1.01-.67-.67-1.01-1.49-1.01-2.46v-1.5c0-.52.19-.97.57-1.35.38-.38.83-.57,1.35-.57.03,0,.07-.05.1-.16-1.42-1.45-2.87-2.66-4.35-3.62-.07-.07-.14-.08-.21-.05-.07.04-.1.1-.1.21,0,.79-.29,1.48-.85,2.04-.57.57-1.27.85-2.1.85h-10.92c-.79,0-1.47-.28-2.02-.83-.55-.55-.83-1.22-.83-2.02s.28-1.47.83-2.02,1.22-.83,2.02-.83h12.21c.48,0,.88.16,1.19.49.31.33.47.72.47,1.16,0,.04.05.07.15.1,1.86-1.38,3.08-2.92,3.65-4.63.57-1.71.86-3.63.86-5.77v-1.81c0-1.24.44-2.3,1.32-3.18.88-.88,1.94-1.32,3.18-1.32h9.57c1.24,0,2.3.44,3.18,1.32.88.88,1.32,1.94,1.32,3.18v6.78c0,.79.03,1.29.08,1.47.05.19.18.29.39.29h.57c.34,0,.59-.55.72-1.66.07-.72.43-1.28,1.09-1.66.35-.17.71-.26,1.09-.26.31,0,.62.05.93.16.96.41,1.71,1.02,2.22,1.81.41.62.62,1.26.62,1.92,0,.24-.04.48-.1.72-.41,2-1.07,3.41-1.97,4.22-.9.81-2.16,1.22-3.78,1.22h-2.85c-2.38,0-4.01-.58-4.89-1.73-.88-1.16-1.32-3.29-1.32-6.39v-4.14c0-.34-.17-.52-.52-.52h-3.05c-.35,0-.52.17-.52.52-.17,6.18-1.95,10.76-5.33,13.77-.07.07-.09.15-.05.23.03.09.09.13.15.13h15.68c.1,0,.19-.02.26-.05ZM757.47,174.02c.79,0,1.47.28,2.02.85.55.57.83,1.24.83,2.02s-.28,1.45-.83,2.02c-.55.57-1.22.85-2.02.85h-11.02c-.79,0-1.47-.28-2.02-.85-.55-.57-.83-1.24-.83-2.02s.28-1.45.83-2.02c.55-.57,1.22-.85,2.02-.85h11.02ZM757.37,151.87c.79,0,1.47.28,2.02.85.55.57.83,1.24.83,2.02s-.28,1.45-.83,2.02c-.55.57-1.22.85-2.02.85h-10.76c-.79,0-1.47-.28-2.02-.85-.55-.57-.83-1.24-.83-2.02s.28-1.45.83-2.02c.55-.57,1.22-.85,2.02-.85h10.76ZM753.13,191.98c.34,0,.52-.17.52-.52v-3.47c0-.34-.17-.52-.52-.52h-2.74c-.35,0-.52.17-.52.52v3.47c0,.35.17.52.52.52h2.74ZM779,180.49c.07-.1.07-.21,0-.31-.07-.1-.15-.16-.26-.16h-6.94c-.1,0-.18.05-.23.16-.05.1-.06.21-.03.31.96,1.62,2.14,3.14,3.52,4.55.24.28.48.28.72,0,1.28-1.38,2.35-2.9,3.21-4.55Z"/>
      <path class="cls-4" d="M822.66,186.18c-.35,0-.52.17-.52.52v5.17c0,.35.17.52.52.52,1.17.14,2.54.21,4.09.21,5.11,0,9.09-.03,11.96-.1h.05c.9,0,1.61.4,2.12,1.19.31.48.46,1,.46,1.55,0,.34-.05.67-.15.98-.38,1.17-1.04,2.14-1.99,2.9-.95.76-2.03,1.14-3.23,1.14h-9.63c-4.97,0-9.09-.55-12.37-1.66s-6.04-3.17-8.28-6.21c-.07-.1-.16-.16-.29-.16s-.2.05-.23.16c-1,2.14-2.17,4.04-3.52,5.69-.72.9-1.68,1.34-2.87,1.34s-2.22-.4-3.08-1.19c-.83-.66-1.24-1.55-1.24-2.69,0-1,.33-1.86.98-2.59,2.69-3.17,4.5-7.62,5.43-13.35.17-1.1.69-2,1.55-2.69.76-.62,1.61-.93,2.54-.93.14,0,.28.02.41.05,1.1.1,2,.59,2.69,1.45.55.69.83,1.43.83,2.22,0,.24-.02.48-.05.72-.14.69-.28,1.36-.41,2.02-.07.38-.05.72.05,1.04,1.21,2.83,2.93,4.95,5.18,6.37.07.07.16.08.26.03s.15-.13.15-.23v-15.58c0-.34-.17-.52-.52-.52h-6.11c-1,0-1.85-.35-2.56-1.06-.71-.71-1.06-1.57-1.06-2.59s.35-1.88,1.06-2.59c.71-.71,1.56-1.06,2.56-1.06h21.12c1,0,1.86.35,2.56,1.06.71.71,1.06,1.57,1.06,2.59s-.35,1.88-1.06,2.59c-.71.71-1.56,1.06-2.56,1.06h-5.9c-.35,0-.52.17-.52.52v4.35c0,.35.17.52.52.52h9.73c1,0,1.86.35,2.56,1.06s1.06,1.56,1.06,2.56-.35,1.86-1.06,2.56c-.71.71-1.56,1.06-2.56,1.06h-9.73ZM803.1,162.63c-.35,0-.52.17-.52.52v2.74c0,1.04-.37,1.92-1.11,2.67-.74.74-1.64,1.11-2.69,1.11s-1.94-.37-2.66-1.11c-.72-.74-1.09-1.63-1.09-2.67v-6c0-1.24.43-2.3,1.29-3.18.86-.88,1.93-1.32,3.21-1.32h13.87c.34,0,.52-.17.52-.52v-.31c0-1.14.4-2.1,1.21-2.9.81-.79,1.79-1.19,2.92-1.19s2.11.4,2.93,1.19c.81.79,1.21,1.76,1.21,2.9v.31c0,.34.17.52.52.52h14.03c1.28,0,2.35.44,3.21,1.32.86.88,1.29,1.94,1.29,3.18v5.8c0,1.1-.39,2.04-1.16,2.82-.78.78-1.71,1.16-2.79,1.16s-2.02-.39-2.79-1.16c-.78-.78-1.16-1.72-1.16-2.82v-2.54c0-.34-.17-.52-.52-.52h-29.71Z"/>
      <path class="cls-4" d="M849.75,160.15h16.3v-1.66c0-2.45,1.22-3.67,3.67-3.67s3.68,1.22,3.68,3.67v1.66h4.09c2.45,0,3.67,1.23,3.67,3.67s-1.22,3.67-3.67,3.67h-4.09v10.14c.9,2.35,1.4,4.42,1.5,6.21.14,2.76-.14,5.29-.83,7.58s-1.55,4.32-2.59,6.08c-1.45,1.9-3.1,2.45-4.97,1.66-2.11-1.14-2.59-2.66-1.45-4.55.96-2.17,1.5-3.61,1.6-4.32s.16-1.09.16-1.17c-1,1.24-1.98,2.17-2.92,2.77-.95.6-2.15.94-3.6,1.01-1.97.04-3.71-.44-5.23-1.42-1.52-.98-2.71-2.4-3.57-4.24-.86-1.85-1.28-4.04-1.24-6.6.07-2.14.59-4.12,1.55-5.95.97-1.83,2.28-3.22,3.93-4.17s3.69-1.42,6.11-1.42c.93.07,1.78.23,2.54.49s1.31.51,1.66.75v-2.85h-16.3c-2.45,0-3.67-1.22-3.67-3.67s1.22-3.67,3.67-3.67ZM866.62,180.7c-.07-.76-.22-1.48-.47-2.17-.17-.52-.57-1.11-1.19-1.79s-1.66-1.06-3.11-1.16c-1.76.07-2.98.58-3.67,1.53-.69.95-1.04,2.08-1.04,3.39,0,1.83.45,3.17,1.35,4.04.9.86,2.07,1.19,3.52.98,1.31-.24,2.29-.74,2.95-1.5.65-.76,1.09-1.48,1.32-2.17.22-.69.34-1.07.34-1.14Z"/>
      <path class="cls-4" d="M909.55,157.15c2.14,0,3.54.96,4.22,2.87.67,1.92-.09,3.72-2.3,5.41l-7.61,5.74c3.14-.62,5.74-.46,7.79.49s3.65,2.44,4.79,4.48,1.74,4.42,1.81,7.14c.03,2.93-.65,5.5-2.04,7.69-1.4,2.19-3.21,3.83-5.43,4.92-2.23,1.09-4.61,1.77-7.14,2.04-2.54.28-5.01.07-7.43-.62-2.04-.59-3.6-1.54-4.68-2.85-1.09-1.31-1.65-2.98-1.68-5.02-.03-1.28.27-2.64.91-4.09s1.7-2.55,3.18-3.31c1.48-.76,3.5-.95,6.05-.57,2.24.41,4.04,1.26,5.38,2.54s2.41,2.86,3.21,4.76c.76-.76,1.29-1.6,1.61-2.54s.45-1.95.41-3.05c0-1.79-.61-3.18-1.84-4.17s-3.23-1.44-6.03-1.37c-2.72.1-4.98.58-6.75,1.42-1.78.85-3.39,1.89-4.84,3.13l-.78.62c-1.69,1.38-3.28,1.17-4.76-.62-1.14-2.45-.72-4.45,1.24-6l14.33-10.97h-8.49c-2.69,0-4.04-1.35-4.04-4.04s1.35-4.04,4.04-4.04h16.87ZM898.58,186.54c-1-.03-1.69.28-2.07.93-.38.66-.4,1.37-.05,2.15.34.78,1.1,1.35,2.28,1.73,1.21.31,2.25.41,3.13.31.88-.1,1.34-.17,1.37-.21-.17-1.21-.72-2.29-1.63-3.23-.92-.95-1.92-1.51-3.03-1.68Z"/>
    </g>
    <g>
      <path class="cls-3" d="M324.75,117.94C324.75,52.8,385.02,0,459.36,0s134.6,52.8,134.6,117.94h-269.2Z"/>
      <line class="cls-2" x1="623.41" y1="117.94" x2="295.3" y2="117.94"/>
      <g>
        <path class="cls-1" d="M394.2,88.87c0-3.04-2.11-5.25-6.43-6.28-5.93-1.47-10.45-4.27-10.45-11.67,0-6.92,5.59-10.25,10.45-10.25,5.59,0,10.69,3.04,10.69,10.25h-5.3c0-3.48-1.71-4.95-5.39-4.95-2.99,0-5.15,1.72-5.15,4.95,0,3.68,1.57,5.49,5.15,6.38,6.33,1.47,11.72,4.22,11.72,11.57s-4.81,12.02-11.72,12.02-11.77-4.66-11.77-12.02h5.3c0,3.92,2.3,6.72,6.47,6.72s6.43-2.8,6.43-6.72Z"/>
        <path class="cls-1" d="M418.13,100.4v-33.94h-7.85v-5.3h20.94v5.3h-7.8v33.94h-5.29Z"/>
        <path class="cls-1" d="M442.02,100.4v-39.23h20.94v5.3h-15.64v10.94h14.66v5.3h-14.66v12.41h15.64v5.3h-20.94Z"/>
        <path class="cls-1" d="M473.75,61.16h9.91c6.91,0,11.72,4.66,11.72,12.02s-4.81,12.06-11.72,12.06h-4.61v15.15h-5.29v-39.23ZM479.05,66.46v13.49h4.61c4.17,0,6.42-2.8,6.42-6.77s-2.26-6.72-6.42-6.72h-4.61Z"/>
        <path class="cls-1" d="M510.49,100.4h-5.29v-6.38h5.29v6.38Z"/>
        <path class="cls-1" d="M542.71,70.87c0,9.37-14.47,18.78-15.99,24.23h15.99v5.3h-21.43v-5.3c0-6.08,16.13-16.77,16.13-24.23,0-3.43-1.72-4.9-5.39-4.9s-5.44,1.47-5.44,4.9v2.6h-5.3v-2.6c0-7.21,5.1-10.2,10.74-10.2s10.69,2.99,10.69,10.2Z"/>
      </g>
    </g>
  </g>
</svg>