<svg xmlns="http://www.w3.org/2000/svg" width="894.513" height="280.794" viewBox="0 0 894.513 280.794">
  <g id="グループ_90" data-name="グループ 90" transform="translate(-273.986 -386.634)">
    <g id="グループ_3" data-name="グループ 3">
      <path id="パス_188" data-name="パス 188" d="M405.646,516.431q1.781-2.3,4.406-.68t.844,4.243a4.776,4.776,0,0,0-.891,2.718,2.773,2.773,0,0,0,.469,1.617,3.361,3.361,0,0,0,2.039,1.054,24.379,24.379,0,0,0,4.9.422,86.625,86.625,0,0,0,9.046-.562q3.657-.562,3.75,3.562.092,3.375-3.75,3.938a59.632,59.632,0,0,1-10.078.7q-7.027,0-10.4-2.532a8.47,8.47,0,0,1-3.328-7.311A11.692,11.692,0,0,1,405.646,516.431Zm18.185-19.545q3.282,0,3.868,2.977t-3.118,5.7l-3.046,2.249a5.083,5.083,0,0,1-4.829,0q-1.734-2.156.047-3.749h-9.7q-3.562,0-3.562-3.563,0-3.607,3.562-3.609Z" fill="#d70019"/>
      <path id="パス_189" data-name="パス 189" d="M461.4,513.619a13.19,13.19,0,0,0-1.641-6.257,6.1,6.1,0,0,0-4.592-3.023q-.14,4.547-.586,9.187a38.171,38.171,0,0,1-1.757,8.53,18.527,18.527,0,0,1-3.282,6.187,6,6,0,0,1-4.968,2.2,8.051,8.051,0,0,1-4.2-1.43A10.1,10.1,0,0,1,437,524.587a21.321,21.321,0,0,1-1.429-8.39,22.665,22.665,0,0,1,2.107-9.445,18.469,18.469,0,0,1,5.391-6.842,14.624,14.624,0,0,1,7.64-3.024,17.9,17.9,0,0,1,8.459,1.336,13.942,13.942,0,0,1,6.352,5.648,20.774,20.774,0,0,1,2.765,10.171,23.9,23.9,0,0,1-1.382,9.093,15.271,15.271,0,0,1-3.844,5.929,12.533,12.533,0,0,1-5.133,2.883q-3.28.843-4.357-2.2-.75-3.328,2.3-4.266,1.357-.327,3.467-3.069T461.4,513.619Zm-16.686,9.421q1.078.048,1.8-1.828a23.231,23.231,0,0,0,1.172-4.8q.445-2.93.656-6.117t.164-5.811a6.883,6.883,0,0,0-3.445,2.671,15.076,15.076,0,0,0-2.11,4.429,19.381,19.381,0,0,0-.82,4.617,11.838,11.838,0,0,0,.609,5.132Q443.493,522.948,444.712,523.04Z" fill="#d70019"/>
      <path id="パス_190" data-name="パス 190" d="M511.339,520.509c-.031,0-.054.024-.07.07a.107.107,0,0,0,.023.118,3.228,3.228,0,0,1,2.063,2.062,3.408,3.408,0,0,1,.187,1.078,2.872,2.872,0,0,1-.562,1.687,27.158,27.158,0,0,1-2.86,3.469.4.4,0,0,0-.046.656,2.819,2.819,0,0,0,2.015.937,1.123,1.123,0,0,0,.867-.328,2.967,2.967,0,0,0,.539-1.219,1.557,1.557,0,0,1,.938-1.125,1.779,1.779,0,0,1,.562-.093,1.575,1.575,0,0,1,.891.281,4.458,4.458,0,0,1,1.547,1.781,2.936,2.936,0,0,1,.328,1.313,2.789,2.789,0,0,1-.141.89,6.156,6.156,0,0,1-2.132,3.374,6.975,6.975,0,0,1-3.868.891,7.852,7.852,0,0,1-6.14-3,.515.515,0,0,0-.7-.094,27.891,27.891,0,0,1-3.561,1.968,3.662,3.662,0,0,1-1.359.281,3.418,3.418,0,0,1-.985-.14,4.249,4.249,0,0,1-2.015-1.406,1.726,1.726,0,0,1-.446-1.125,2.089,2.089,0,0,1,1.243-2.015,27.124,27.124,0,0,0,4.453-2.438.533.533,0,0,0,.187-.7,49.745,49.745,0,0,1-1.875-6.7.523.523,0,0,0-.562-.469h-3.328a.464.464,0,0,0-.516.469l-.047.375a.785.785,0,0,0,.328.75q1.36.984,2.578,1.969a2.774,2.774,0,0,1,1.032,2.061v.235a3.168,3.168,0,0,1-.7,2.015,2.356,2.356,0,0,1-1.829.938h-.14a2.645,2.645,0,0,1-1.875-.75c-.156-.157-.328-.312-.516-.469a.378.378,0,0,0-.281-.07.227.227,0,0,0-.188.164,17.115,17.115,0,0,1-3.937,6.233,2.547,2.547,0,0,1-1.641.609h-.468a3.507,3.507,0,0,1-1.969-1.217,2.982,2.982,0,0,1-.656-1.875,3.188,3.188,0,0,1,.843-2.2q2.719-3,3.422-8.953c.031-.187-.047-.281-.234-.281h-.985a1.52,1.52,0,0,1-1.078-.445,1.459,1.459,0,0,1-.468-1.1.06.06,0,0,0-.094,0l-.094.141a1.58,1.58,0,0,1-1.359.75h-.282a1.647,1.647,0,0,1-1.4-1.125c-.158-.438-.328-.859-.516-1.266-.033-.061-.07-.085-.117-.07a.11.11,0,0,0-.07.117v15.749a3,3,0,0,1-.891,2.2,2.962,2.962,0,0,1-2.179.891,3.04,3.04,0,0,1-2.2-.891,2.95,2.95,0,0,1-.915-2.2V521.494c0-.063-.015-.094-.046-.094a.131.131,0,0,0-.094.047,34.644,34.644,0,0,1-1.36,3.467,1.294,1.294,0,0,1-1.265.8h-.094a1.631,1.631,0,0,1-1.453-.936,6.292,6.292,0,0,1-.656-2.766,6.66,6.66,0,0,1,.75-3,51.039,51.039,0,0,0,3.7-11.765.353.353,0,0,0-.07-.328.339.339,0,0,0-.258-.14h-.61a3.113,3.113,0,0,1-2.25-.913,2.994,2.994,0,0,1-.937-2.227,3.2,3.2,0,0,1,3.187-3.187h.985a.414.414,0,0,0,.468-.469v-6.093a3.124,3.124,0,0,1,3.118-3.141,2.923,2.923,0,0,1,2.179.915,3.077,3.077,0,0,1,.891,2.226v6.093a.414.414,0,0,0,.469.469h2.435a.464.464,0,0,1-.093-.61L488,496.933a.534.534,0,0,1,.891-.141c.031.033.063.017.094-.047q.609-1.5,1.219-3.186a2.756,2.756,0,0,1,1.359-1.547,2.5,2.5,0,0,1,1.125-.281,2.423,2.423,0,0,1,.891.187,2.385,2.385,0,0,1,1.5,2.2,2.215,2.215,0,0,1-.329,1.125q-2.2,3.936-2.25,3.984a.572.572,0,0,0,.094.75.137.137,0,0,0,.047.094.35.35,0,0,0,.3.117.364.364,0,0,0,.258-.164c.156-.312.312-.61.468-.891a3.364,3.364,0,0,1,1.875-1.594,2.963,2.963,0,0,1,2.391.141.211.211,0,0,0,.211-.023.231.231,0,0,0,.117-.211q-.047-1.781-.047-3.609a2.861,2.861,0,0,1,.891-2.133,2.916,2.916,0,0,1,2.109-.867,3.012,3.012,0,0,1,2.154.844,2.962,2.962,0,0,1,.844,2.109l-.047,2.344q0,1.032.047,1.921a.073.073,0,0,0,.047.07.074.074,0,0,0,.094-.023l.75-1.219q.328-.514.844-.094c.031.033.046.017.046-.047q.7-1.592,1.266-3.139a2.752,2.752,0,0,1,1.359-1.594,2.6,2.6,0,0,1,1.172-.281,2.42,2.42,0,0,1,.891.187,1.982,1.982,0,0,1,1.359,1.36,2.243,2.243,0,0,1,.141.8,2.214,2.214,0,0,1-.328,1.125q-1.829,3.188-2.344,3.983a.572.572,0,0,0,.094.75c.031.031.062.063.094.094a.269.269,0,0,0,.281.117.352.352,0,0,0,.281-.211c.281-.5.531-.938.75-1.313a2.58,2.58,0,0,1,1.5-1.312,3.094,3.094,0,0,1,.891-.141,2.911,2.911,0,0,1,1.125.235,2.259,2.259,0,0,1,1.218,1.453,4.224,4.224,0,0,1,.047.609,2.152,2.152,0,0,1-.375,1.219q-1.922,2.813-3.187,4.594c-.031.031-.031.078,0,.14a.092.092,0,0,0,.14.047,3.889,3.889,0,0,1,1.313-.234,4.257,4.257,0,0,1,1.5.281,3.244,3.244,0,0,1,1.828,2.015,14.764,14.764,0,0,1,.516,1.828,2.245,2.245,0,0,1,.093.609,2.583,2.583,0,0,1-.281,1.172,2.491,2.491,0,0,1-1.406,1.172l-.516.234a1.194,1.194,0,0,1-1.1-.07,1.356,1.356,0,0,1-.68-.914.166.166,0,0,0-.187-.188l-1.829.329c-.062,0-.109.039-.14.117s-.016.133.047.164a17.3,17.3,0,0,1,2.015,1.781.848.848,0,0,1,.258.68.941.941,0,0,1-.351.679c0,.063.015.094.046.094h.657a2.648,2.648,0,1,1,0,5.3Zm-24.373-5.718a.756.756,0,0,0,.7.422h11.3a.454.454,0,0,0,.328-.14.332.332,0,0,0,.094-.329q-.047-.609-.187-1.687c-.032-.281-.172-.375-.422-.281l-2.11.8a.847.847,0,0,1-.773-.094.906.906,0,0,1-.4-.7c-.031-.094-.078-.125-.14-.094q-2.766.375-5.578.7H489.4a2.763,2.763,0,0,1-1.594-.516,2.7,2.7,0,0,1-1.031-1.734l-.235-1.266a1.116,1.116,0,0,1,.211-.914.984.984,0,0,1,.821-.4.293.293,0,0,0,.187-.141q1.032-1.357,2.344-3.374a.57.57,0,0,0,0-.75q-.844-.937-2.578-2.625a.273.273,0,0,0-.258-.047.184.184,0,0,0-.117.188v1.5a3.44,3.44,0,0,1-3.467,3.468.373.373,0,0,0-.422.422v.984a1.587,1.587,0,0,0,.281.891Q485.278,511.885,486.966,514.791Zm6.422-7.078a.369.369,0,0,0,0,.258c.031.079.094.1.188.07h.468a.3.3,0,0,0,.282-.164.363.363,0,0,0,.046-.3,1.934,1.934,0,0,1-.093-.329.23.23,0,0,0-.188-.164.258.258,0,0,0-.234.071Zm1.406-1.874q-.047.095,0,.141a.194.194,0,0,0,.141.047l.375-.141a3.907,3.907,0,0,1,.844-.094,2.6,2.6,0,0,1,1.172.281,2.409,2.409,0,0,1,1.312,1.5c0,.032.029.032.094,0q-.187-2.25-.375-6.421a.11.11,0,0,0-.094-.117.192.192,0,0,0-.187.07Q496.528,503.448,494.794,505.839Zm9.795,1.546c0,.22.1.321.305.3a.83.83,0,0,0,.539-.258q.891-1.218,1.734-2.437a.535.535,0,0,0-.047-.75,27.745,27.745,0,0,0-2.531-2.578.25.25,0,0,0-.211,0,.184.184,0,0,0-.117.188Q504.448,505.418,504.589,507.385Zm.75,7.359a.464.464,0,0,0,.516.469h2.2a.073.073,0,0,0,.07-.047.075.075,0,0,0-.023-.093,1.458,1.458,0,0,1-.492-1.079,1.268,1.268,0,0,1,.492-1.078l.75-.7a.076.076,0,0,0,.023-.094.074.074,0,0,0-.07-.046q-1.687.234-3.281.468a.417.417,0,0,0-.422.516Q505.246,514.088,505.339,514.744Zm3.516,6.187a.356.356,0,0,0-.024-.281.26.26,0,0,0-.257-.141h-1.782a.376.376,0,0,0-.3.141.353.353,0,0,0-.071.328q.236.984.563,2.156a.224.224,0,0,0,.187.164.255.255,0,0,0,.235-.07A18.356,18.356,0,0,0,508.855,520.931Zm2.2-14.108a.25.25,0,0,0,0,.211.181.181,0,0,0,.187.117l.75-.094a.317.317,0,0,0,.282-.141.4.4,0,0,0,.047-.328c-.063-.155-.125-.328-.188-.515a.346.346,0,0,0-.234-.163.225.225,0,0,0-.235.117C511.449,506.339,511.245,506.605,511.058,506.823Z" fill="#d70019"/>
      <path id="パス_191" data-name="パス 191" d="M533.626,511.416a3.2,3.2,0,0,1-3.185-3.187.208.208,0,0,0-.094-.164.17.17,0,0,0-.187-.024q-2.206,1.5-4.36,2.719a3.746,3.746,0,0,1-1.687.422,3.406,3.406,0,0,1-1.078-.188,4.237,4.237,0,0,1-2.3-1.687,2.728,2.728,0,0,1-.61-1.688,2.579,2.579,0,0,1,.094-.7,2.822,2.822,0,0,1,1.5-1.967,44.286,44.286,0,0,0,7.547-5.063,47.1,47.1,0,0,0,6.139-6.046,7.5,7.5,0,0,1,5.906-2.953,7.773,7.773,0,0,1,6,2.859,40.3,40.3,0,0,0,14.013,10.312,2.822,2.822,0,0,1,1.641,1.922,3.829,3.829,0,0,1,.094.843,3.048,3.048,0,0,1-.516,1.687,4.684,4.684,0,0,1-2.531,1.875,3.981,3.981,0,0,1-1.172.188,3.848,3.848,0,0,1-1.875-.516q-1.875-1.031-3.891-2.344c-.093-.061-.171-.07-.234-.023a.205.205,0,0,0-.094.164,3.4,3.4,0,0,1-1.054,2.531,3.461,3.461,0,0,1-2.506,1.031Zm24.842,9.328h-6.234c-.094,0-.149.039-.164.117a.319.319,0,0,0,.023.211,64.894,64.894,0,0,1,7.641,8.249,3.244,3.244,0,0,1,.656,1.968,7.293,7.293,0,0,1-.047.8,3.612,3.612,0,0,1-1.687,2.3l-.75.422a2.794,2.794,0,0,1-1.454.422,3.19,3.19,0,0,1-2.625-1.405.586.586,0,0,0-.515-.282q-9.747.563-27.09,1.359h-.187a3.665,3.665,0,0,1-2.391-.843,3.615,3.615,0,0,1-1.313-2.391,2.4,2.4,0,0,1-.046-.468,3.1,3.1,0,0,1,3-3.047q.422,0,3.468-.141a.667.667,0,0,0,.657-.422,57.444,57.444,0,0,0,2.482-6.374.393.393,0,0,0-.047-.328.312.312,0,0,0-.279-.14h-6.61a3.147,3.147,0,0,1-2.273-.938,3.057,3.057,0,0,1-.961-2.273,3.282,3.282,0,0,1,3.234-3.257h33.512a3.084,3.084,0,0,1,2.3.961,3.17,3.17,0,0,1,.937,2.3,3.2,3.2,0,0,1-3.234,3.211Zm-23.857-16.03a.182.182,0,0,0-.047.211c.031.078.078.117.14.117h14.11c.06,0,.107-.039.14-.117a.188.188,0,0,0-.046-.211,39.764,39.764,0,0,1-7.032-6.8c-.187-.249-.375-.249-.562,0A45.5,45.5,0,0,1,534.611,504.714Zm14.953,16.264a.118.118,0,0,0,.07-.141.113.113,0,0,0-.117-.093h-8.391a.757.757,0,0,0-.7.421q-2.109,4.125-3.234,6.187a.355.355,0,0,0,.023.281.262.262,0,0,0,.258.141q2.532-.094,10.781-.422a.184.184,0,0,0,.188-.117.285.285,0,0,0-.047-.258c-.221-.218-.422-.437-.609-.656a2.9,2.9,0,0,1-.844-2.062V523.7a2.825,2.825,0,0,1,1.594-2.157Z" fill="#d70019"/>
      <path id="パス_192" data-name="パス 192" d="M568.9,499.183q.656-3,4.125-2.812,3,.048,2.812,3.374-.327,2.205-.656,6.258t-.375,8.507q.043,4.734.375,8.788t.656,6.257q.184,3.328-2.812,3.375-3.469.186-4.125-2.812-.422-2.718-.75-6.8-.328-4.032-.375-8.624v-.047q.047-4.641.375-8.671Q568.477,501.9,568.9,499.183Zm10.123,18.186a3.1,3.1,0,0,1,3.75-2.062q3,.891,2.062,3.374a9.594,9.594,0,0,0-.328,2.391,3.476,3.476,0,0,0,.328,1.687,2.882,2.882,0,0,0,1.524,1.313,9.128,9.128,0,0,0,3.4.562q3.563,0,5.016-.14,3.375-.469,3.56,3.186-.093,3.563-3,3.938a57.211,57.211,0,0,1-6.047.421q-5.484-.14-8.343-2.7a8.573,8.573,0,0,1-3-6.3A15.41,15.41,0,0,1,579.021,517.369ZM593.6,498.761q3.559,0,3.562,3.563,0,3.609-3.562,3.609H582.911q-3.562,0-3.562-3.563,0-3.609,3.562-3.609Z" fill="#d70019"/>
      <path id="パス_193" data-name="パス 193" d="M612.839,532.461a9.879,9.879,0,0,1-8.179-3.82q-3.021-3.819-3.022-10.476a18.1,18.1,0,0,1,.961-6,13.233,13.233,0,0,1,2.553-4.547,12.077,12.077,0,0,1,3.609-2.788,9.231,9.231,0,0,1,4.172-1.007,8.538,8.538,0,0,1,3.422.632,10.042,10.042,0,0,1,2.812,1.9.2.2,0,0,0,.188,0,.189.189,0,0,0,.094-.188l-.282-3.608v-5.016a4.083,4.083,0,0,1,4.076-4.077h.422a4.082,4.082,0,0,1,4.078,4.077v30.794a3.44,3.44,0,0,1-3.468,3.469h-1.032a3.042,3.042,0,0,1-1.919-.656,2.914,2.914,0,0,1-1.079-1.735l-.046-.14a.151.151,0,0,0-.141-.094.191.191,0,0,0-.141.047,11.7,11.7,0,0,1-3.375,2.367A8.786,8.786,0,0,1,612.839,532.461Zm2.25-6.984a4.463,4.463,0,0,0,3.8-1.921,1.368,1.368,0,0,0,.281-.844v-9.843a.892.892,0,0,0-.375-.75,5.839,5.839,0,0,0-3.843-1.359,3.866,3.866,0,0,0-3.235,1.852,9.321,9.321,0,0,0-1.312,5.413Q610.4,525.479,615.089,525.477Z" fill="#d70019"/>
      <path id="パス_194" data-name="パス 194" d="M632.738,505.37q0-3.655,3.654-3.656h4.5v-3.047q0-3.513,3.516-3.514,3.563,0,3.562,3.514v3.047h6.7q7.547.095,7.5,8.39.047,7.968-.375,14.179t-2.508,7.78a9.393,9.393,0,0,1-4.757,1.851,18.831,18.831,0,0,1-6.561-.8q-3.28-1.08-2.625-4.313.984-3.234,3.938-2.437a10.948,10.948,0,0,0,3.656.046,1.566,1.566,0,0,0,1.1-.656,5.219,5.219,0,0,0,.75-2.366q.258-1.758.493-11.507,0-2.717-2.577-2.812h-4.921a34.034,34.034,0,0,1-2.3,12.631,23.2,23.2,0,0,1-7.266,9.539q-3.234,2.576-5.435,0-1.687-3.422.609-5.25a16.716,16.716,0,0,0,3.021-2.812,15.866,15.866,0,0,0,3.024-5.367,28.237,28.237,0,0,0,1.265-8.741h-4.312q-3.654,0-3.654-3.656Z" fill="#d70019"/>
      <path id="パス_195" data-name="パス 195" d="M667.632,514.135q0-3.656,3.656-3.656H685.63q3.657,0,3.656,3.656,0,3.7-3.656,3.7H671.288q-3.656,0-3.656-3.655Z" fill="#d70019"/>
      <path id="パス_196" data-name="パス 196" d="M694.747,498.667q0-3.7,3.7-3.7t3.7,3.7v8.952h16.029q3.656,0,3.656,3.657,0,3.7-3.656,3.7H702.154v15.56q0,3.7-3.7,3.7t-3.7-3.7Zm11.952-2.014a1.408,1.408,0,0,1,1.593-1.594,1.43,1.43,0,0,1,1.641,1.594v3.561a1.409,1.409,0,0,1-1.594,1.594,1.429,1.429,0,0,1-1.64-1.594Zm5.062,0a1.409,1.409,0,0,1,1.594-1.594,1.429,1.429,0,0,1,1.64,1.594v3.561a1.408,1.408,0,0,1-1.593,1.594,1.43,1.43,0,0,1-1.641-1.594Z" fill="#d70019"/>
      <path id="パス_197" data-name="パス 197" d="M728.847,499.464h6.844l.609-1.64q.844-3.047,4.733-2.156,2.764,1.266,1.734,3.8h7.453q3.234,0,3.234,3.235t-3.234,3.234H739.673a5.8,5.8,0,0,1-.562,1.171q-.562,1.032-.985,1.922c.032-.031.211-.164.539-.4a2.913,2.913,0,0,1,.821-.445q3.139-1.17,4.9-.047a5.606,5.606,0,0,1,2.367,3.516q2.625-1.407,5.344-2.532,3.419-1.45,4.686,1.688.938,3.7-2.248,4.687a52.511,52.511,0,0,0-7.36,2.906v3.375q0,3.188-3.187,3.186-3.236,0-3.235-3.186v-.188a4.778,4.778,0,0,1-.445.305,7.111,7.111,0,0,1-.68.4q-2.014,1.688-1.687,3.14t3.422,1.547a94.333,94.333,0,0,0,9.422-.8q3.559-.562,3.75,3.375.184,3.561-3,3.938a85.78,85.78,0,0,1-10.594.468,11.192,11.192,0,0,1-6.069-1.781,7.52,7.52,0,0,1-3.093-4.2,7.882,7.882,0,0,1,.492-5.39,13.106,13.106,0,0,1,4.594-5.273q.981-.656,1.943-1.266t1.945-1.218a1.632,1.632,0,0,0-.422-1.172,1.823,1.823,0,0,0-1.406-.187,8.18,8.18,0,0,0-2.224,1.1,26.681,26.681,0,0,0-2.789,2.109q-1.453,1.243-3.563,3.3-1.968,1.688-4.312-.188-1.453-2.577,0-4.219a21.982,21.982,0,0,0,3.093-3.28q1.407-1.828,2.953-4.219c.219-.375.446-.811.68-1.312s.367-.781.4-.843h-4.313q-3.234,0-3.234-3.234T728.847,499.464Z" fill="#d70019"/>
      <path id="パス_198" data-name="パス 198" d="M767.773,494.262a4.028,4.028,0,0,1,1.922-2.016,3.811,3.811,0,0,1,1.64-.375,3.568,3.568,0,0,1,1.125.188,3.259,3.259,0,0,1,2.016,1.734,2.986,2.986,0,0,1,.047,2.625q-1.312,3.093-2.906,6.046a2.168,2.168,0,0,0-.188.891v29.434a3.539,3.539,0,0,1-7.078,0V513.994a.109.109,0,0,0-.07-.117.108.108,0,0,0-.118.024,1.6,1.6,0,0,1-1.218.562h-.327a1.716,1.716,0,0,1-1.312-1.031q-.378-.75-.7-1.5a5.7,5.7,0,0,1-.656-2.672,5.021,5.021,0,0,1,.046-.7,6.041,6.041,0,0,1,1.313-3.233A50.537,50.537,0,0,0,767.773,494.262Zm33.793,10.874h-9.233a.414.414,0,0,0-.468.469v3.046a.414.414,0,0,0,.468.468h8.061a3.107,3.107,0,0,1,2.25.915,2.99,2.99,0,0,1,.937,2.226,3.2,3.2,0,0,1-3.187,3.187h-8.061a.414.414,0,0,0-.468.468v3.375a.414.414,0,0,0,.468.469h8.623a3.234,3.234,0,1,1,0,6.468h-8.623a.414.414,0,0,0-.468.469v6.047a3.609,3.609,0,1,1-7.219,0V505.558c0-.281-.149-.422-.445-.422a.754.754,0,0,0-.68.375,58.7,58.7,0,0,1-3.608,5.718,2.978,2.978,0,0,1-2.3,1.219h-.141a3.283,3.283,0,0,1-2.344-.938,3.534,3.534,0,0,1-1.172-2.484v-.282a3.667,3.667,0,0,1,.8-2.3,46.676,46.676,0,0,0,6.516-12,3.6,3.6,0,0,1,1.826-2.063,3.534,3.534,0,0,1,1.734-.469,3.244,3.244,0,0,1,.938.141,3.208,3.208,0,0,1,2.39,3,2.909,2.909,0,0,1-.234,1.125l-.75,1.874a.235.235,0,0,0,0,.281.315.315,0,0,0,.281.141h14.108a3.125,3.125,0,0,1,2.32.984,3.339,3.339,0,0,1,0,4.688A3.125,3.125,0,0,1,801.566,505.136Z" fill="#d70019"/>
      <path id="パス_199" data-name="パス 199" d="M840.728,509.588a4.209,4.209,0,0,1,1.875-2.2,3.69,3.69,0,0,1,1.875-.516,4.912,4.912,0,0,1,.937.094,3.1,3.1,0,0,1,2.108,1.641,2.849,2.849,0,0,1,.187,2.625,59.935,59.935,0,0,1-6.748,12.983.832.832,0,0,0-.094.843q1.595,3.893,3.235,3.891,1.075,0,1.547-4.687a1.676,1.676,0,0,1,1.078-1.5,1.956,1.956,0,0,1,.795-.187,1.807,1.807,0,0,1,1.078.375,6.446,6.446,0,0,1,2.156,2.342,4.366,4.366,0,0,1,.563,2.11,3.71,3.71,0,0,1-.094.8q-.891,4.593-2.625,6.21a7.235,7.235,0,0,1-5.108,1.617q-4.359,0-7.546-5.109-.282-.422-.61-.093a39.422,39.422,0,0,1-3.609,3.187,3.752,3.752,0,0,1-2.25.749,4.515,4.515,0,0,1-.656-.047,4.18,4.18,0,0,1-2.623-1.5,2.988,2.988,0,0,1-.8-2.062v-.422a3.164,3.164,0,0,1,1.406-2.3,31.588,31.588,0,0,0,5.529-4.874.748.748,0,0,0,.188-.8,93.7,93.7,0,0,1-3.047-18,.464.464,0,0,0-.516-.469H817.433a.415.415,0,0,0-.469.469v3.655a.414.414,0,0,0,.469.469h7.219a3.919,3.919,0,0,1,3.982,3.984q0,5.719-.42,10.031a8.995,8.995,0,0,1-1.078,4.171,5.719,5.719,0,0,1-3.609,2.156,13.279,13.279,0,0,1-1.453.141,1.054,1.054,0,0,1-.329.046,3.874,3.874,0,0,1-2.625-1.031,6.2,6.2,0,0,1-1.875-2.859,16.289,16.289,0,0,0-.8-1.921.151.151,0,0,0-.141-.094c-.063,0-.109.047-.141.141a39.01,39.01,0,0,1-2.578,10.03,2.485,2.485,0,0,1-2.015,1.546,3.449,3.449,0,0,1-.563.047,3.105,3.105,0,0,1-2.06-.8,4.779,4.779,0,0,1-1.641-2.577,6.031,6.031,0,0,1-.141-1.266,4.883,4.883,0,0,1,.328-1.781q2.11-5.766,2.11-17.014V501.527a4.077,4.077,0,0,1,4.076-4.078H828.54a.482.482,0,0,0,.469-.469q-.093-2.015-.094-2.577a3.544,3.544,0,0,1,1.032-2.532,3.6,3.6,0,0,1,2.578-1.031,3.558,3.558,0,0,1,2.578,1.055,3.494,3.494,0,0,1,1.078,2.6q0,1.266.047,2.484a.463.463,0,0,0,.515.469H841.2a.144.144,0,0,0,.164-.118.136.136,0,0,0-.071-.164q-.889-.7-1.922-1.4a2.459,2.459,0,0,1-1.078-1.781V493.7a2.253,2.253,0,0,1,.7-1.641,3.878,3.878,0,0,1,2.25-1.125,3.565,3.565,0,0,1,.563-.047,3.686,3.686,0,0,1,1.875.516q1.359.843,2.484,1.64a2.47,2.47,0,0,1,1.077,2.157,2.676,2.676,0,0,1-.795,1.967c-.034.033-.034.087,0,.164s.06.118.093.118h1.311a3.422,3.422,0,0,1,0,6.843H837.118a.449.449,0,0,0-.328.141.325.325,0,0,0-.093.328,91.89,91.89,0,0,0,1.406,10.124q0,.094.117.117a.134.134,0,0,0,.164-.07A40.714,40.714,0,0,0,840.728,509.588Zm-18.889,6.093a.5.5,0,0,0-.117-.327.431.431,0,0,0-.352-.141h-3.984a.414.414,0,0,0-.469.468q-.187,3.516-.562,6.844a.416.416,0,0,0,.422.515q1.64.141,2.953.141a1.743,1.743,0,0,0,1.453-.656Q821.7,521.775,821.839,515.681Z" fill="#d70019"/>
      <path id="パス_200" data-name="パス 200" d="M863.671,521.259a7.22,7.22,0,0,0,.914,4.077,3.554,3.554,0,0,0,2.836,1.453,13.083,13.083,0,0,0,5.227-1.2,58.319,58.319,0,0,0,7.1-3.913,2.948,2.948,0,0,1,4.5.563q1.782,2.813-.75,5.249a41.477,41.477,0,0,1-4.593,3.117,31.893,31.893,0,0,1-5.483,2.508,20.912,20.912,0,0,1-6.422,1.17q-5.484-.093-7.922-3.21t-2.435-8.647V498.62q0-3.513,3.514-3.514t3.515,3.514Z" fill="#d70019"/>
      <path id="パス_201" data-name="パス 201" d="M901.472,508.369v-2.624h-9.748q-3.234,0-3.234-3.234,0-3.279,3.234-3.281h9.748v-.656q0-3.373,3.375-3.374,3.422,0,3.422,3.374v.656h6.656q3.234,0,3.235,3.234,0,3.282-3.235,3.281h-6.656v2.624h5.906q3.188,0,3.188,3.188t-3.188,3.187h-5.906v3.421a25.753,25.753,0,0,1,4.219,2.016,40.628,40.628,0,0,1,4.172,2.813q2.2,1.922.375,4.5-2.016,2.064-3.938.375a45.452,45.452,0,0,0-4.828-3.187v1.452q-.047,3.657-1.57,5.414a6.915,6.915,0,0,1-3.563,2.274,15.881,15.881,0,0,1-4.24.467,14,14,0,0,1-5.156-.936,8.18,8.18,0,0,1-3.727-2.766,7.907,7.907,0,0,1-1.43-4.5,7.4,7.4,0,0,1,1.735-5.155,9.927,9.927,0,0,1,4.8-2.789,24.615,24.615,0,0,1,6.35-.914v-2.484h-8.951q-3.187,0-3.188-3.187t3.188-3.188Zm-2.576,19.78a2.891,2.891,0,0,0,1.732-.539,2.055,2.055,0,0,0,.844-1.571v-2.952a8.118,8.118,0,0,0-4.732.539q-1.782.915-1.829,1.945a2.447,2.447,0,0,0,.774,1.828Q896.459,528.149,898.9,528.149Z" fill="#d70019"/>
      <path id="パス_202" data-name="パス 202" d="M931.353,521.259a7.22,7.22,0,0,0,.914,4.077,3.552,3.552,0,0,0,2.836,1.453,13.079,13.079,0,0,0,5.226-1.2,58.241,58.241,0,0,0,7.1-3.913,2.948,2.948,0,0,1,4.5.563q1.782,2.813-.75,5.249a41.49,41.49,0,0,1-4.594,3.117,31.916,31.916,0,0,1-5.482,2.508,20.912,20.912,0,0,1-6.422,1.17q-5.484-.093-7.922-3.21t-2.435-8.647V498.62q0-3.513,3.513-3.514t3.516,3.514Z" fill="#d70019"/>
      <path id="パス_203" data-name="パス 203" d="M972.9,528.2a6.875,6.875,0,0,1-.914,3.82,4.856,4.856,0,0,1-2.579,1.945,10.841,10.841,0,0,1-3.49.562,11.351,11.351,0,0,1-4.429-.937,8.214,8.214,0,0,1-3.54-2.742,7.327,7.327,0,0,1-1.312-4.43A7.805,7.805,0,0,1,958,521.751a8.1,8.1,0,0,1,3.844-2.836,13.654,13.654,0,0,1,5.109-.89V504.152q0-3,2.952-3a2.652,2.652,0,0,1,3,3v3.092h6.047q3.047,0,3.046,3,0,3.095-3.046,3.094H972.9v5.437a27.341,27.341,0,0,1,4.125,1.969,41.859,41.859,0,0,1,4.172,2.765q1.731,1.547.328,3.984a2.374,2.374,0,0,1-3.657.281q-2.952-2.109-4.968-3.28Zm-6.7.656c.249,0,.446-.156.586-.469a3.7,3.7,0,0,0,.164-1.547v-3.467a4.506,4.506,0,0,0-3.4.656,2.773,2.773,0,0,0-1.055,2.2,2.415,2.415,0,0,0,1.125,2.062A3.911,3.911,0,0,0,966.2,528.852Z" fill="#d70019"/>
      <path id="パス_204" data-name="パス 204" d="M988.4,509.494a28,28,0,0,1,5.344-1.71,33.016,33.016,0,0,1,7.076-.821,21.894,21.894,0,0,1,7.054,1.1,10.086,10.086,0,0,1,5.133,3.726,10.5,10.5,0,0,1,1.922,6.093,15.191,15.191,0,0,1-2.578,8.366q-2.484,3.681-8.086,5.532a32.7,32.7,0,0,1-10.146,1.851q-2.907,0-2.907-3.328.048-3.279,3.094-3.469a22.6,22.6,0,0,0,7.287-1.265q3.727-1.264,5.016-3.257a7.448,7.448,0,0,0,1.148-4.57,3.654,3.654,0,0,0-1.383-3.023q-1.382-1.1-5.554-1.148a23.406,23.406,0,0,0-4.78.632q-2.531.586-6.328,1.664-2.577,1.078-3.562-2.25A3.484,3.484,0,0,1,988.4,509.494Zm4.125-12.655q4.641-.186,7.592-.094,3,.1,7.875.516a3.583,3.583,0,0,1,3.468,3.8q-.093,3.468-3.468,2.812-4.875-.562-7.875-.656-4.638,0-6,.047a8.9,8.9,0,0,0-1.407.094q-3,.093-3-3.235Q989.8,497.075,992.521,496.839Z" fill="#d70019"/>
      <path id="パス_205" data-name="パス 205" d="M1023.431,527.118a4.975,4.975,0,0,1,1.617-3.773,6.16,6.16,0,0,1,8.11,0,4.976,4.976,0,0,1,1.617,3.773,4.882,4.882,0,0,1-1.617,3.773,6.3,6.3,0,0,1-8.11,0A4.881,4.881,0,0,1,1023.431,527.118Zm2.3-11.062-1.547-12.186-.141-3.89a3.661,3.661,0,0,1,1.078-2.883,3.8,3.8,0,0,1,2.813-1.194h2.391a3.8,3.8,0,0,1,2.812,1.194,3.658,3.658,0,0,1,1.078,2.883l-.14,3.89-1.547,12.186a3.477,3.477,0,0,1-1.149,2.133,3.353,3.353,0,0,1-4.5,0A3.481,3.481,0,0,1,1025.728,516.056Z" fill="#d70019"/>
      <path id="パス_206" data-name="パス 206" d="M308.2,551.819a4.08,4.08,0,0,1,4.078,4.077V586.83a11.147,11.147,0,0,1-.75,4.57,5.24,5.24,0,0,1-2.578,2.508,12.23,12.23,0,0,1-4.172,1.078q-1.219.093-2.858.187h-.187a4.663,4.663,0,0,1-2.86-.984,6.328,6.328,0,0,1-2.062-2.719,2.873,2.873,0,0,1-.188-.984,2.482,2.482,0,0,1,.422-1.359,2.226,2.226,0,0,1,1.969-1.078h.047q1.872.047,4.312.047,1.5,0,1.5-1.359v-5.063a.415.415,0,0,0-.468-.469H286.171a.522.522,0,0,0-.562.469,28.592,28.592,0,0,1-5.342,10.968,3.069,3.069,0,0,1-2.344,1.078h-.187a3.978,3.978,0,0,1-2.625-1.125,3.4,3.4,0,0,1-1.125-2.625,3.6,3.6,0,0,1,.843-2.343,20.632,20.632,0,0,0,1.547-2.156,19.526,19.526,0,0,0,2.344-5.835,41.863,41.863,0,0,0,.914-5.6q.211-2.484.211-5.765V555.9a4.078,4.078,0,0,1,4.078-4.077Zm-21.374,22.169a.326.326,0,0,0,.094.328.448.448,0,0,0,.328.14H304.4a.414.414,0,0,0,.468-.468v-3.656a.414.414,0,0,0-.468-.468H287.531a.414.414,0,0,0-.469.468Q286.967,572.114,286.827,573.988Zm18.045-14.9a.414.414,0,0,0-.468-.468H287.531a.414.414,0,0,0-.469.468v3.656a.414.414,0,0,0,.469.468H304.4a.413.413,0,0,0,.468-.468Z" fill="#d70019"/>
      <path id="パス_207" data-name="パス 207" d="M354.533,562.082a2.978,2.978,0,0,1,.7-.093,3.153,3.153,0,0,1,1.5.375l1.593.89a3.384,3.384,0,0,1,1.641,4.266,81.844,81.844,0,0,1-8.016,14.81.444.444,0,0,0,.141.657q.844.516,1.641,1.078a3.845,3.845,0,0,1,1.593,2.719,4.171,4.171,0,0,1-.8,3.139l-.094.094a3.237,3.237,0,0,1-2.531,1.453h-.422a3.84,3.84,0,0,1-2.436-.844,71.833,71.833,0,0,0-11.672-7.264,2.965,2.965,0,0,1-1.64-1.969,3.641,3.641,0,0,1-.094-.8,2.874,2.874,0,0,1,.562-1.686,4.608,4.608,0,0,1,2.485-1.735,4.007,4.007,0,0,1,3,.235q1.546.656,3.047,1.406a.478.478,0,0,0,.7-.188,61.688,61.688,0,0,0,5.109-9.139.24.24,0,0,0,0-.282.32.32,0,0,0-.281-.14H338.831a.776.776,0,0,0-.7.375,58.626,58.626,0,0,1-6.888,10.638,4.143,4.143,0,0,1-2.813,1.454,3.331,3.331,0,0,1-.562.046,4.682,4.682,0,0,1-2.579-.75,2.6,2.6,0,0,1-1.406-2.061,2.406,2.406,0,0,1-.047-.469,2.986,2.986,0,0,1,.75-1.969,44.665,44.665,0,0,0,6.235-8.9,65.5,65.5,0,0,0,4.545-10.452,4.458,4.458,0,0,1,2.015-2.391,3.873,3.873,0,0,1,2.063-.609,4.8,4.8,0,0,1,.937.094,3.45,3.45,0,0,1,2.344,1.734,3.193,3.193,0,0,1,.469,1.641,3.355,3.355,0,0,1-.235,1.218q-.562,1.453-1.218,3a.306.306,0,0,0,.047.281.313.313,0,0,0,.281.14h12.467Z" fill="#d70019"/>
      <path id="パス_208" data-name="パス 208" d="M394.3,573.613a13.186,13.186,0,0,0-1.641-6.257,6.1,6.1,0,0,0-4.593-3.024q-.141,4.548-.586,9.187a37.98,37.98,0,0,1-1.758,8.53,18.551,18.551,0,0,1-3.281,6.188,6,6,0,0,1-4.967,2.2,8.041,8.041,0,0,1-4.2-1.429,10.1,10.1,0,0,1-3.375-4.43,21.39,21.39,0,0,1-1.43-8.389,22.694,22.694,0,0,1,2.109-9.445,18.454,18.454,0,0,1,5.391-6.842,14.621,14.621,0,0,1,7.639-3.024,17.877,17.877,0,0,1,8.46,1.336,13.932,13.932,0,0,1,6.35,5.648,20.784,20.784,0,0,1,2.766,10.171,23.916,23.916,0,0,1-1.383,9.092,15.268,15.268,0,0,1-3.842,5.93,12.52,12.52,0,0,1-5.133,2.882q-3.28.843-4.359-2.2-.75-3.327,2.3-4.265,1.359-.328,3.469-3.07T394.3,573.613Zm-16.686,9.421q1.075.047,1.8-1.829a23.3,23.3,0,0,0,1.17-4.8q.446-2.928.656-6.116t.164-5.813a6.867,6.867,0,0,0-3.443,2.672,15.049,15.049,0,0,0-2.109,4.429,19.229,19.229,0,0,0-.821,4.617,11.85,11.85,0,0,0,.61,5.132Q376.4,582.94,377.618,583.034Z" fill="#d70019"/>
      <path id="パス_209" data-name="パス 209" d="M416.263,561.707a.413.413,0,0,0,.469-.467v-6.094a3.633,3.633,0,1,1,7.265,0v36.98a3.556,3.556,0,0,1-1.054,2.578,3.62,3.62,0,0,1-5.157,0,3.556,3.556,0,0,1-1.054-2.578v-5.249a.275.275,0,0,0-.141-.234.393.393,0,0,0-.328-.047q-2.859,1.219-5.531,2.344a3.589,3.589,0,0,1-3,0,3.853,3.853,0,0,1-2.157-2.11,3.655,3.655,0,0,1-.281-1.359,3.728,3.728,0,0,1,.328-1.5,3.559,3.559,0,0,1,2.2-1.875q3.654-1.125,8.436-2.765a.587.587,0,0,0,.469-.609v-9.608a.414.414,0,0,0-.469-.469h-6.937a3.364,3.364,0,0,1-2.436-1.008,3.453,3.453,0,0,1,0-4.922,3.368,3.368,0,0,1,2.436-1.008Zm21.748,26.952h3.8q.984,0,1.406-1.2a20.8,20.8,0,0,0,.656-4.617,2.179,2.179,0,0,1,1.172-1.828,2.575,2.575,0,0,1,1.17-.281,2.821,2.821,0,0,1,1.078.234,6.171,6.171,0,0,1,2.391,2.063,4.164,4.164,0,0,1,.75,2.343,3.449,3.449,0,0,1-.047.563q-.609,5.2-2.367,7.4a6.5,6.5,0,0,1-5.412,2.2h-5.719q-4.593,0-6.234-2.133t-1.641-7.944V555.193a3.633,3.633,0,1,1,7.266,0v9.421a.227.227,0,0,0,.14.211.264.264,0,0,0,.282-.024q2.438-1.641,5.156-3.749a3.85,3.85,0,0,1,2.437-.844h.516a3.833,3.833,0,0,1,2.67,1.5,3.358,3.358,0,0,1,.8,2.157,2.558,2.558,0,0,1-.094.7,3.141,3.141,0,0,1-1.641,2.39q-4.547,2.72-9.841,5.39a.665.665,0,0,0-.422.656v12.562a6.458,6.458,0,0,0,.3,2.578Q436.887,588.659,438.011,588.659Z" fill="#d70019"/>
      <path id="パス_210" data-name="パス 210" d="M460.533,566.207a2.9,2.9,0,0,1,1.453,2.157,3.437,3.437,0,0,1,.047.562,3.29,3.29,0,0,1-.7,2.015,3.077,3.077,0,0,1-2.2,1.312h-.515a3.7,3.7,0,0,1-2.063-.609q-.984-.656-2.084-1.265a2.87,2.87,0,0,1-1.476-2.437,2.42,2.42,0,0,1,.562-1.547,3.947,3.947,0,0,1,2.2-1.547,3.9,3.9,0,0,1,1.032-.141,3.712,3.712,0,0,1,1.593.375Q459.5,565.644,460.533,566.207Zm-.375,26.388a2.953,2.953,0,0,1-1.969,1.781,3.027,3.027,0,0,1-1.031.188,2.961,2.961,0,0,1-1.594-.469,3.748,3.748,0,0,1-1.779-2.3,3.911,3.911,0,0,1-.188-1.172,3.834,3.834,0,0,1,.422-1.733q2.106-4.5,3.982-9.093a2.53,2.53,0,0,1,1.688-1.594,2.671,2.671,0,0,1,.844-.14,2.583,2.583,0,0,1,1.453.469,4.576,4.576,0,0,1,1.687,2.3,4.305,4.305,0,0,1,.235,1.36,3.87,3.87,0,0,1-.282,1.453Q462.033,588.143,460.158,592.595Zm2.671-39.043a2.763,2.763,0,0,1,1.407,2.156,3.449,3.449,0,0,1,.047.563,3.293,3.293,0,0,1-.7,2.015,3.08,3.08,0,0,1-2.25,1.266,2.4,2.4,0,0,1-.468.047,3.741,3.741,0,0,1-2.11-.656q-1.031-.7-2.2-1.36a2.706,2.706,0,0,1-1.359-1.828,2.351,2.351,0,0,1-.092-.656,2.418,2.418,0,0,1,.561-1.547,4.246,4.246,0,0,1,2.25-1.5,3.236,3.236,0,0,1,.937-.14,3.561,3.561,0,0,1,1.688.421Q461.751,552.945,462.829,553.552Zm34.731,23.342a2.991,2.991,0,0,1-.938,2.226,3.107,3.107,0,0,1-2.25.915h-.14a.382.382,0,0,0-.422.374q-.094,1.688-.234,3a.29.29,0,0,0,.328.328h.047a2.953,2.953,0,0,1,0,5.905h-.75a.423.423,0,0,0-.469.422,8.855,8.855,0,0,1-1.311,3.562,5.875,5.875,0,0,1-1.781,1.711,7.063,7.063,0,0,1-2.344.774,16.277,16.277,0,0,1-3.14.234,3.235,3.235,0,0,1-2.157-.8,4.488,4.488,0,0,1-1.312-2.156,2.211,2.211,0,0,1-.094-.609,1.869,1.869,0,0,1,.375-1.125,1.637,1.637,0,0,1,1.453-.8h.047q.891.048,1.594.047a2.09,2.09,0,0,0,1.734-.844.2.2,0,0,0,.047-.281.314.314,0,0,0-.281-.141H473.8a.259.259,0,0,0-.281.234,2.436,2.436,0,0,1-2.344,1.969h-.14l-1.172-.094a2.75,2.75,0,0,1-2.157-1.125,2.858,2.858,0,0,1-.609-1.78,3.437,3.437,0,0,1,.047-.562q.656-3.844,1.219-7.829a.477.477,0,0,0-.094-.3.341.341,0,0,0-.281-.116h-.375a3.141,3.141,0,1,1,0-6.282h1.125a.522.522,0,0,0,.562-.468q.422-3.561.563-5.249c0-.032-.018-.032-.047,0a.831.831,0,0,1-.61.3,1.061,1.061,0,0,1-.7-.211q-.89-.7-2.109-1.547a2.9,2.9,0,0,1-1.313-2.109,2.654,2.654,0,0,1-.046-.516,2.982,2.982,0,0,1,.656-1.875,31.491,31.491,0,0,0,4.125-8.061,4.069,4.069,0,0,1,1.781-2.109,3.452,3.452,0,0,1,1.875-.562,3.647,3.647,0,0,1,.8.094,3.155,3.155,0,0,1,2.109,1.546,2.859,2.859,0,0,1,.422,1.5,3,3,0,0,1-.187,1.031.294.294,0,0,0,.023.258.276.276,0,0,0,.258.117h16.5a3.093,3.093,0,0,1,0,6.186h-19.17a.753.753,0,0,0-.7.422q-.519.844-.984,1.641a.2.2,0,0,0,0,.258.284.284,0,0,0,.234.117h17.717a3.809,3.809,0,0,1,2.857,1.219,3.728,3.728,0,0,1,1.078,2.672q0,.468-.234,5.014a.29.29,0,0,0,.328.328,2.938,2.938,0,0,1,2.156.891,2.883,2.883,0,0,1,.891,2.109Zm-22.217,3.141a.464.464,0,0,0-.516.467l-.375,2.766a.5.5,0,0,0,.118.328.376.376,0,0,0,.3.141h2.25a.464.464,0,0,0,.516-.469q.141-1.219.328-2.766a.5.5,0,0,0-.117-.328.376.376,0,0,0-.305-.139Zm1.125-9.609a.464.464,0,0,0-.516.468l-.281,2.391a.326.326,0,0,0,.094.328.452.452,0,0,0,.328.14h2.016a.463.463,0,0,0,.515-.468l.188-2.391a.324.324,0,0,0-.094-.327.449.449,0,0,0-.328-.141Zm7.125,12.842a.326.326,0,0,0,.094.328.449.449,0,0,0,.328.141h2.672a.464.464,0,0,0,.515-.469q.095-1.17.235-2.766a.5.5,0,0,0-.117-.328.376.376,0,0,0-.3-.139h-2.578a.463.463,0,0,0-.516.467Q483.733,582.05,483.593,583.268Zm3.8-9.515a.414.414,0,0,0,.469-.468l.093-2.391a.328.328,0,0,0-.093-.327.449.449,0,0,0-.328-.141h-2.3a.463.463,0,0,0-.516.468l-.141,2.391a.326.326,0,0,0,.094.328.452.452,0,0,0,.328.14Z" fill="#d70019"/>
      <path id="パス_211" data-name="パス 211" d="M507.146,569.348a4.08,4.08,0,0,1,4.078,4.077v10.5a1.646,1.646,0,0,0,.234.891q2.532,3.656,9.514,3.937,3.422.141,7.031.141,6.141,0,12.936-.375h.187a2.227,2.227,0,0,1,1.875.936,2.4,2.4,0,0,1,.375,2.3,5.623,5.623,0,0,1-1.781,2.649,4.566,4.566,0,0,1-2.857,1.1q-5.019.186-9.422.188-4.594,0-8.483-.188a24.4,24.4,0,0,1-7.242-1.242,12.837,12.837,0,0,1-5.133-3.539.4.4,0,0,0-.656-.047q-1.687,1.455-3.141,2.672a2.855,2.855,0,0,1-1.875.7,3.028,3.028,0,0,1-.748-.094,2.958,2.958,0,0,1-2.156-1.734,4.626,4.626,0,0,1-.375-1.828,4.76,4.76,0,0,1,.188-1.312,4.418,4.418,0,0,1,1.968-2.531q1.263-.8,2.342-1.594a.817.817,0,0,0,.375-.75v-7.967a.414.414,0,0,0-.469-.469h-1.218a3.211,3.211,0,1,1,0-6.421Zm2.765-12.983a3.015,3.015,0,0,1,.938,2.2v.328a3.524,3.524,0,0,1-1.313,2.436,3.473,3.473,0,0,1-2.156.75h-.422a4.065,4.065,0,0,1-2.484-1.264q-1.172-1.266-2.67-2.625a2.715,2.715,0,0,1-.937-2.11,2.581,2.581,0,0,1,.984-2.109,4.329,4.329,0,0,1,2.623-.984h.094a3.977,3.977,0,0,1,2.531.89Q508.646,555.146,509.911,556.365ZM516.005,567a4.082,4.082,0,0,1,4.078-4.078h2.623a.521.521,0,0,0,.563-.469,7.808,7.808,0,0,0,.141-.89.351.351,0,0,0-.071-.327.376.376,0,0,0-.3-.141H515.3a2.637,2.637,0,0,1-1.969-.82,2.831,2.831,0,0,1,0-3.938,2.641,2.641,0,0,1,1.969-.82h2.719a.185.185,0,0,0,.187-.094.206.206,0,0,0,0-.187,2.56,2.56,0,0,1-.328-1.219,2.251,2.251,0,0,1,.141-.8,2.109,2.109,0,0,1,1.359-1.452l.094-.047a4.012,4.012,0,0,1,1.359-.234,3.9,3.9,0,0,1,1.03.14,3.113,3.113,0,0,1,1.922,1.359,12.827,12.827,0,0,1,1.265,2.343.131.131,0,0,1-.094.188h4.313a.758.758,0,0,0,.7-.422c.188-.375.359-.733.516-1.078a4.642,4.642,0,0,1,2.015-2.155,4.3,4.3,0,0,1,2.016-.516,3.858,3.858,0,0,1,.844.094,2.294,2.294,0,0,1,1.781,1.452,2.667,2.667,0,0,1,.187.984,2.376,2.376,0,0,1-.375,1.266.225.225,0,0,0-.023.258.2.2,0,0,0,.164.117h3.561a2.789,2.789,0,0,1,0,5.578h-9.28a.759.759,0,0,0-.7.421q-.516.939-.515.984a.234.234,0,0,0,0,.282.275.275,0,0,0,.234.14h5.578A4.076,4.076,0,0,1,540.048,567v15.655a3.9,3.9,0,0,1-1.193,2.906,3.97,3.97,0,0,1-2.883,1.172H520.083a3.966,3.966,0,0,1-2.882-1.172,3.906,3.906,0,0,1-1.2-2.906Zm16.686,2.485a.415.415,0,0,0,.469-.469v-.7a.415.415,0,0,0-.469-.469h-9.61a.414.414,0,0,0-.468.469v.7a.414.414,0,0,0,.468.469Zm0,6.139a.414.414,0,0,0,.469-.468v-.7a.415.415,0,0,0-.469-.468h-9.61a.414.414,0,0,0-.468.468v.7a.414.414,0,0,0,.468.468Zm0,6.187a.414.414,0,0,0,.469-.469v-.7a.415.415,0,0,0-.469-.469h-9.61a.414.414,0,0,0-.468.469v.7a.414.414,0,0,0,.468.469Z" fill="#d70019"/>
      <path id="パス_212" data-name="パス 212" d="M553.525,563.02a.415.415,0,0,0-.469.469V565.5a3.04,3.04,0,0,1-3.047,3.047,3.017,3.017,0,0,1-2.178-.89,2.9,2.9,0,0,1-.914-2.157v-2.953a4.082,4.082,0,0,1,4.076-4.077h13.5a.415.415,0,0,0,.469-.469v-.187a.415.415,0,0,0-.469-.469H553.009a2.412,2.412,0,0,1-1.8-.75,2.549,2.549,0,0,1,0-3.563,2.416,2.416,0,0,1,1.8-.75h30.842a2.532,2.532,0,0,1,0,5.063H572.273a.414.414,0,0,0-.469.469v.187a.414.414,0,0,0,.469.469h13.875a4.08,4.08,0,0,1,4.076,4.077v2.813a3.21,3.21,0,0,1-6.42,0v-1.875a.415.415,0,0,0-.469-.469H572.273a.415.415,0,0,0-.469.469v5.625A3.213,3.213,0,0,1,570.8,571.5a3.448,3.448,0,0,1-4.826,0,3.206,3.206,0,0,1-1.008-2.389v-5.625a.415.415,0,0,0-.469-.469Zm21.092,28.122h8.25a3.923,3.923,0,0,0,1.687-.281,1.98,1.98,0,0,0,.891-1.032,3,3,0,0,1,1.357-1.545,2.584,2.584,0,0,1,1.172-.282,2.517,2.517,0,0,1,.8.141,3.878,3.878,0,0,1,2.015,1.546,2.656,2.656,0,0,1,.469,1.5,2.542,2.542,0,0,1-.14.8,5.43,5.43,0,0,1-2.485,3.422,11.274,11.274,0,0,1-5.2.937H573.96q-5.2,0-7.17-1.312t-2.2-4.922a.415.415,0,0,0-.469-.469h-5.765a.166.166,0,0,0-.188.187,1.761,1.761,0,0,1-1.734,1.735h-1.594a3.251,3.251,0,0,1-2.39-.985,3.194,3.194,0,0,1-.985-2.342V577.691a4.082,4.082,0,0,1,4.078-4.078h25.733a4.08,4.08,0,0,1,4.078,4.078v7.874a4.078,4.078,0,0,1-4.078,4.077h-9.516a.379.379,0,0,0-.3.141.353.353,0,0,0-.07.328,1.211,1.211,0,0,0,.867.82A9.053,9.053,0,0,0,574.617,591.142Zm-19.124-18.748a1.715,1.715,0,0,1-1.265-.516,1.744,1.744,0,0,1-.516-1.288,1.827,1.827,0,0,1,.516-1.312,1.68,1.68,0,0,1,1.265-.539h6.375a1.76,1.76,0,0,1,1.29.539,1.8,1.8,0,0,1,.539,1.312,1.715,1.715,0,0,1-.539,1.288,1.8,1.8,0,0,1-1.29.516Zm6.375-8.343a1.767,1.767,0,0,1,1.29.539,1.755,1.755,0,0,1,0,2.531,1.761,1.761,0,0,1-1.29.54h-5.531a1.7,1.7,0,0,1-1.242-.54,1.755,1.755,0,0,1,0-2.531,1.711,1.711,0,0,1,1.242-.539Zm2.719,14.577a.415.415,0,0,0-.469-.468h-5.484a.414.414,0,0,0-.469.468v.563a.415.415,0,0,0,.469.469h5.484a.415.415,0,0,0,.469-.469Zm-5.953,5.015a.415.415,0,0,0-.469.469v.515a.415.415,0,0,0,.469.469h5.484a.415.415,0,0,0,.469-.469v-.515a.415.415,0,0,0-.469-.469Zm19.358-3.983a.414.414,0,0,0,.468-.469v-.563a.414.414,0,0,0-.468-.468H571.71a.414.414,0,0,0-.468.468v.563a.414.414,0,0,0,.468.469Zm-6.75,4.967a.414.414,0,0,0,.468.469h6.282a.414.414,0,0,0,.468-.469v-.515a.414.414,0,0,0-.468-.469H571.71a.414.414,0,0,0-.468.469Zm3.75-20.576h5.25a1.765,1.765,0,0,1,1.289.539,1.755,1.755,0,0,1,0,2.531,1.758,1.758,0,0,1-1.289.54h-5.25a1.76,1.76,0,0,1-1.29-.54,1.755,1.755,0,0,1,0-2.531A1.767,1.767,0,0,1,574.992,564.051Zm0,8.343a1.8,1.8,0,0,1-1.29-.516,1.707,1.707,0,0,1-.539-1.288,1.787,1.787,0,0,1,.539-1.312,1.76,1.76,0,0,1,1.29-.539h6.328a1.738,1.738,0,0,1,1.312.539,1.827,1.827,0,0,1,.516,1.312,1.744,1.744,0,0,1-.516,1.288,1.776,1.776,0,0,1-1.312.516Z" fill="#d70019"/>
      <path id="パス_213" data-name="パス 213" d="M616.636,558.943a.414.414,0,0,0,.469.468h14.672a3.92,3.92,0,0,1,3.888,3.843,150.094,150.094,0,0,1-1.453,19.967q-.891,6.282-2.482,8.249a7.528,7.528,0,0,1-2.367,2.109,9.7,9.7,0,0,1-3.024.938,27.49,27.49,0,0,1-3.8.281h-.093a4.232,4.232,0,0,1-2.813-1.078,6.07,6.07,0,0,1-1.828-2.766,2.643,2.643,0,0,1-.141-.843,2.559,2.559,0,0,1,.422-1.406,2.08,2.08,0,0,1,1.828-.984h.141q1.547.047,3.094.047a3.079,3.079,0,0,0,2.2-.844q1.968-1.968,2.906-19.873a.326.326,0,0,0-.094-.328.448.448,0,0,0-.328-.141H616.824a.464.464,0,0,0-.516.469q-1.5,17.67-14.014,26.388a4.127,4.127,0,0,1-2.3.7,7.277,7.277,0,0,1-.8-.047,5.6,5.6,0,0,1-2.86-1.594,2.913,2.913,0,0,1-.842-2.062v-.375a2.893,2.893,0,0,1,1.311-2.2q10.453-6.985,12.047-20.811a.5.5,0,0,0-.117-.328.379.379,0,0,0-.3-.141h-9.844a3.586,3.586,0,1,1,0-7.171h10.125a.414.414,0,0,0,.469-.468v-5.438a3.726,3.726,0,0,1,7.451,0Z" fill="#d70019"/>
      <path id="パス_214" data-name="パス 214" d="M667.423,573.613a13.186,13.186,0,0,0-1.64-6.257,6.1,6.1,0,0,0-4.594-3.024q-.141,4.548-.586,9.187a37.98,37.98,0,0,1-1.758,8.53,18.551,18.551,0,0,1-3.281,6.188,6,6,0,0,1-4.967,2.2,8.041,8.041,0,0,1-4.2-1.429,10.118,10.118,0,0,1-3.375-4.43,21.39,21.39,0,0,1-1.43-8.389,22.725,22.725,0,0,1,2.109-9.445A18.454,18.454,0,0,1,649.1,559.9a14.621,14.621,0,0,1,7.639-3.024,17.883,17.883,0,0,1,8.461,1.336,13.935,13.935,0,0,1,6.349,5.648,20.784,20.784,0,0,1,2.766,10.171,23.916,23.916,0,0,1-1.383,9.092,15.268,15.268,0,0,1-3.842,5.93,12.52,12.52,0,0,1-5.133,2.882q-3.28.843-4.359-2.2-.75-3.327,2.3-4.265,1.359-.328,3.469-3.07T667.423,573.613Zm-16.685,9.421q1.074.047,1.8-1.829a23.3,23.3,0,0,0,1.17-4.8q.445-2.928.656-6.116t.165-5.813a6.869,6.869,0,0,0-3.444,2.672,15.049,15.049,0,0,0-2.109,4.429,19.176,19.176,0,0,0-.82,4.617,11.838,11.838,0,0,0,.609,5.132Q649.516,582.94,650.738,583.034Z" fill="#d70019"/>
      <path id="パス_215" data-name="パス 215" d="M723.269,579.285a3.437,3.437,0,0,1,.047.562,3.174,3.174,0,0,1-.656,1.921,3.054,3.054,0,0,1-2.11,1.359l-1.826.328a.522.522,0,0,0-.469.563v9.046a3.112,3.112,0,0,1-.961,2.273,3.166,3.166,0,0,1-2.32.961,3.085,3.085,0,0,1-2.3-.961,3.144,3.144,0,0,1-.937-2.273V585.19a.335.335,0,0,0-.141-.258.5.5,0,0,0-.328-.117l-8.11,1.453a3.106,3.106,0,0,1-.75.094,3.948,3.948,0,0,1-2.3-.75,3.772,3.772,0,0,1-1.592-2.625l-.281-1.547q0-.093-.141-.141a.132.132,0,0,0-.188.094l-1.171,1.453a2.324,2.324,0,0,1-1.969,1.031.859.859,0,0,1-.281-.047,2.6,2.6,0,0,1-2.11-1.359c-.187-.311-.39-.656-.609-1.031-.031-.062-.071-.077-.117-.047a.16.16,0,0,0-.071.141v11.483a3.032,3.032,0,0,1-.961,2.25,3.172,3.172,0,0,1-2.3.937,3.2,3.2,0,0,1-3.21-3.187V581.159a.042.042,0,0,0-.047-.047.135.135,0,0,0-.094.047,63.555,63.555,0,0,1-2.813,6.937,1.532,1.532,0,0,1-1.451.938h-.234a1.8,1.8,0,0,1-1.594-1.172,7.248,7.248,0,0,1-.609-2.907,4.216,4.216,0,0,1,.047-.609,8.154,8.154,0,0,1,1.031-3.375,52.128,52.128,0,0,0,3.373-7.358.311.311,0,0,0-.047-.282.316.316,0,0,0-.281-.14h-1.031a3.075,3.075,0,0,1-2.295-.961,3.28,3.28,0,0,1,0-4.593,3.075,3.075,0,0,1,2.295-.961h3.281a.415.415,0,0,0,.469-.469V554.255a3.2,3.2,0,0,1,3.21-3.186,3.175,3.175,0,0,1,2.3.936,3.033,3.033,0,0,1,.961,2.25V564c0,.064.016.094.047.094a.042.042,0,0,0,.047-.047q.938-3.656,1.688-7.874a2.72,2.72,0,0,1,1.218-1.875,2.565,2.565,0,0,1,1.547-.516,2.289,2.289,0,0,1,.61.094,2.431,2.431,0,0,1,1.734,1.266,2.263,2.263,0,0,1,.422,1.312,2.645,2.645,0,0,1-.141.844q-.984,3.094-1.594,4.968a3.847,3.847,0,0,1-2.015,2.344,4.292,4.292,0,0,1-2.016.515,4.661,4.661,0,0,1-1.125-.14.3.3,0,0,0-.3.07.358.358,0,0,0-.117.258v.89a.415.415,0,0,0,.469.469h2.953a3.111,3.111,0,0,1,2.274.961,3.224,3.224,0,0,1,0,4.593,3.112,3.112,0,0,1-2.274.961h-3.328a.083.083,0,0,0-.094.094.188.188,0,0,0,.047.14q.938.8,2.953,2.953t3.328,3.7a.933.933,0,0,0,.8.282l12.561-2.249a.523.523,0,0,0,.469-.563V553.974a3.2,3.2,0,0,1,.937-2.319,3.081,3.081,0,0,1,2.3-.961,3.281,3.281,0,0,1,3.281,3.28v22.451a.335.335,0,0,0,.141.258.494.494,0,0,0,.328.117l.795-.14a2.211,2.211,0,0,1,.609-.094,3.058,3.058,0,0,1,1.828.609A3.244,3.244,0,0,1,723.269,579.285ZM684.6,562.27a2.208,2.208,0,0,1,.047.422,2.829,2.829,0,0,1-.516,1.64A3.118,3.118,0,0,1,682.3,565.6a1.753,1.753,0,0,1-.562.094,1.986,1.986,0,0,1-1.217-.422,2.175,2.175,0,0,1-.938-1.641,49.051,49.051,0,0,0-1.125-6.421,2.17,2.17,0,0,1-.094-.609,2.454,2.454,0,0,1,.375-1.313,2.5,2.5,0,0,1,1.5-1.125,2.418,2.418,0,0,1,.657-.093,2.64,2.64,0,0,1,1.263.328,2.464,2.464,0,0,1,1.172,1.547A47.138,47.138,0,0,1,684.6,562.27Zm16.17,9.093a2.9,2.9,0,0,1-1.264-1.921,2.174,2.174,0,0,1-.094-.61,2.748,2.748,0,0,1,.516-1.593,2.883,2.883,0,0,1,1.92-1.36,2.939,2.939,0,0,1,2.25.328q1.688,1.032,3.047,2.016a3.274,3.274,0,0,1,1.312,2.3,3.311,3.311,0,0,1,.047.561,3.86,3.86,0,0,1-.609,2.063,2.488,2.488,0,0,1-1.922,1.172,1.553,1.553,0,0,1-.375.047,2.685,2.685,0,0,1-1.828-.7Q702.412,572.535,700.771,571.363Zm8.2-14.811a3.136,3.136,0,0,1,1.219,2.25v.422a3.514,3.514,0,0,1-.657,2.062,2.352,2.352,0,0,1-1.875,1.078h-.234a2.923,2.923,0,0,1-1.922-.7,34.757,34.757,0,0,0-2.859-2.343,3.192,3.192,0,0,1-1.172-1.922,2.651,2.651,0,0,1-.047-.516,2.613,2.613,0,0,1,.563-1.594,2.891,2.891,0,0,1,1.875-1.265,4.509,4.509,0,0,1,.609-.047,2.842,2.842,0,0,1,1.641.516Q707.708,555.568,708.974,556.552Z" fill="#d70019"/>
      <path id="パス_216" data-name="パス 216" d="M758.728,579.8c-.031,0-.055.024-.07.07s-.008.071.023.071l.422.139a2.83,2.83,0,0,1,1.875,1.969,2.743,2.743,0,0,1-.422,2.719q-1.595,2.2-2.156,2.953a.185.185,0,0,0-.024.234.225.225,0,0,0,.211.141h6.328a2.976,2.976,0,1,1,0,5.952H730.23a2.976,2.976,0,0,1,0-5.952h5.156a.314.314,0,0,0,.281-.141.233.233,0,0,0,0-.281,34.851,34.851,0,0,0-1.593-3.469,3.026,3.026,0,0,1-.422-1.5,3.783,3.783,0,0,1,.14-.984,2.816,2.816,0,0,1,1.641-1.78q.047,0,0-.141h-2.672a2.977,2.977,0,0,1,0-5.953h10.313a.415.415,0,0,0,.468-.469v-2.9a.415.415,0,0,0-.468-.469h-5.907a1.922,1.922,0,0,1-1.875-1.875.108.108,0,0,0-.07-.117.1.1,0,0,0-.117.024q-1.5,1.077-3.422,2.25a3.8,3.8,0,0,1-1.781.467,4.809,4.809,0,0,1-.938-.092,4.53,4.53,0,0,1-2.388-1.594,3.043,3.043,0,0,1-.61-1.828,3.239,3.239,0,0,1,.047-.563,2.562,2.562,0,0,1,1.359-1.969,48.4,48.4,0,0,0,8.014-5.9,52.812,52.812,0,0,0,6-6.328,6.947,6.947,0,0,1,5.717-3,7.323,7.323,0,0,1,5.859,2.905,46.771,46.771,0,0,0,7.078,6.985,42.792,42.792,0,0,0,7.5,4.874,2.981,2.981,0,0,1,1.594,2.062,3.059,3.059,0,0,1,.094.75,2.992,2.992,0,0,1-.609,1.781,4.306,4.306,0,0,1-2.532,1.735,3.72,3.72,0,0,1-.982.139,4.008,4.008,0,0,1-2.016-.561q-1.734-1.078-3.375-2.25c-.125-.094-.187-.063-.187.094A2,2,0,0,1,757.509,570h-6.047a.415.415,0,0,0-.469.469v2.9a.415.415,0,0,0,.469.469h10.453a2.846,2.846,0,0,1,2.086.867,3,3,0,0,1,0,4.219,2.846,2.846,0,0,1-2.086.867Zm-15.186.468a.414.414,0,0,0-.468-.468h-4.125a.225.225,0,0,0-.211.141.184.184,0,0,0,.023.233q1.219,1.783,2.063,3.281a3.057,3.057,0,0,1,.375,1.454,2.911,2.911,0,0,1-.235,1.125,3.443,3.443,0,0,1-1.828,1.921c-.031,0-.047.024-.047.071s.016.07.047.07h3.938a.415.415,0,0,0,.468-.469Zm-2.906-16.639a.225.225,0,0,0-.07.211c.015.078.07.117.164.117h13.5a.144.144,0,0,0,.164-.117.225.225,0,0,0-.07-.211,47.857,47.857,0,0,1-6.657-6.936c-.187-.25-.375-.25-.562,0A43.943,43.943,0,0,1,740.636,563.629Zm15.139,16.592a.353.353,0,0,0-.024-.28.262.262,0,0,0-.258-.141h-4.031a.414.414,0,0,0-.469.468v7.359a.415.415,0,0,0,.469.469h2.766a.047.047,0,0,0,0-.094,1.979,1.979,0,0,1-1.125-1.312,2.362,2.362,0,0,1-.094-.656,2.231,2.231,0,0,1,.281-1.079A51.921,51.921,0,0,0,755.775,580.221Z" fill="#d70019"/>
      <path id="パス_217" data-name="パス 217" d="M776.046,559.458h6.844l.609-1.64q.844-3.048,4.735-2.157,2.765,1.266,1.734,3.8h7.451q3.235,0,3.235,3.234t-3.235,3.234H786.874a5.8,5.8,0,0,1-.562,1.172q-.562,1.032-.985,1.922c.032-.031.211-.164.54-.4a2.911,2.911,0,0,1,.82-.445q3.141-1.172,4.9-.047a5.615,5.615,0,0,1,2.367,3.515q2.623-1.407,5.342-2.53,3.423-1.453,4.688,1.686.938,3.7-2.25,4.688a52.437,52.437,0,0,0-7.36,2.906v3.374q0,3.189-3.185,3.187-3.234,0-3.235-3.187v-.188a4.39,4.39,0,0,1-.445.3,7.043,7.043,0,0,1-.68.4q-2.015,1.688-1.687,3.14t3.422,1.547q3.277-.047,9.42-.8,3.563-.562,3.75,3.374.188,3.563-3,3.938a85.363,85.363,0,0,1-10.592.468,11.189,11.189,0,0,1-6.07-1.781,7.516,7.516,0,0,1-3.094-4.194,7.9,7.9,0,0,1,.492-5.391,13.124,13.124,0,0,1,4.594-5.272q.984-.657,1.945-1.266t1.945-1.219a1.628,1.628,0,0,0-.421-1.171,1.825,1.825,0,0,0-1.407-.188,8.239,8.239,0,0,0-2.226,1.1,26.765,26.765,0,0,0-2.789,2.109q-1.453,1.242-3.563,3.3-1.968,1.686-4.31-.188-1.453-2.578,0-4.219a21.93,21.93,0,0,0,3.091-3.281q1.407-1.828,2.954-4.218.327-.562.679-1.312c.235-.5.367-.78.4-.844h-4.313q-3.231,0-3.232-3.234T776.046,559.458Z" fill="#d70019"/>
      <path id="パス_218" data-name="パス 218" d="M818.4,592.454a9.877,9.877,0,0,1-8.18-3.819q-3.023-3.82-3.023-10.475a18.152,18.152,0,0,1,.961-6,13.244,13.244,0,0,1,2.554-4.546,12.064,12.064,0,0,1,3.61-2.789,9.206,9.206,0,0,1,4.172-1.008,8.517,8.517,0,0,1,3.42.633,10.012,10.012,0,0,1,2.812,1.9.2.2,0,0,0,.188,0,.189.189,0,0,0,.093-.187l-.281-3.61v-5.015a4.082,4.082,0,0,1,4.078-4.078h.422a4.082,4.082,0,0,1,4.078,4.078V588.33a3.442,3.442,0,0,1-3.469,3.468H828.8a3.044,3.044,0,0,1-1.922-.656,2.908,2.908,0,0,1-1.078-1.733l-.047-.141a.149.149,0,0,0-.14-.094.192.192,0,0,0-.141.047,11.65,11.65,0,0,1-3.375,2.366A8.77,8.77,0,0,1,818.4,592.454Zm2.248-6.983a4.465,4.465,0,0,0,3.8-1.922,1.374,1.374,0,0,0,.281-.844v-9.842a.891.891,0,0,0-.375-.75,5.843,5.843,0,0,0-3.844-1.36,3.862,3.862,0,0,0-3.232,1.852,9.325,9.325,0,0,0-1.313,5.414Q815.958,585.471,820.644,585.471Z" fill="#d70019"/>
      <path id="パス_219" data-name="パス 219" d="M838.292,565.364q0-3.657,3.657-3.657h4.5v-3.046q0-3.515,3.513-3.515,3.563,0,3.563,3.515v3.046h6.7q7.546.1,7.5,8.391.043,7.968-.375,14.178t-2.508,7.78a9.4,9.4,0,0,1-4.758,1.852,18.817,18.817,0,0,1-6.562-.8q-3.282-1.078-2.625-4.312.984-3.234,3.937-2.437a11,11,0,0,0,3.656.047,1.574,1.574,0,0,0,1.1-.657,5.254,5.254,0,0,0,.75-2.367q.258-1.758.492-11.507,0-2.716-2.578-2.811h-4.922a34.012,34.012,0,0,1-2.3,12.631,23.177,23.177,0,0,1-7.263,9.538q-3.235,2.577-5.438,0-1.687-3.422.61-5.249a16.665,16.665,0,0,0,3.023-2.813,15.867,15.867,0,0,0,3.023-5.366,28.321,28.321,0,0,0,1.266-8.741h-4.312q-3.657,0-3.657-3.656Z" fill="#d70019"/>
      <path id="パス_220" data-name="パス 220" d="M873.189,574.128q0-3.656,3.654-3.655h14.344q3.656,0,3.654,3.655,0,3.7-3.654,3.7H876.843q-3.652,0-3.654-3.656Z" fill="#d70019"/>
      <path id="パス_221" data-name="パス 221" d="M900.3,558.661q0-3.7,3.7-3.7t3.7,3.7v8.953h16.03q3.656,0,3.656,3.655,0,3.7-3.656,3.7h-16.03v15.561q0,3.7-3.7,3.7t-3.7-3.7Zm11.951-2.015a1.409,1.409,0,0,1,1.594-1.594,1.43,1.43,0,0,1,1.641,1.594v3.562A1.409,1.409,0,0,1,913.9,561.8a1.429,1.429,0,0,1-1.641-1.593Zm5.063,0a1.408,1.408,0,0,1,1.593-1.594,1.43,1.43,0,0,1,1.639,1.594v3.562a1.407,1.407,0,0,1-1.592,1.593,1.428,1.428,0,0,1-1.64-1.593Z" fill="#d70019"/>
      <path id="パス_222" data-name="パス 222" d="M933.277,559.177q.656-3,4.125-2.812,3,.047,2.812,3.375-.328,2.2-.656,6.256t-.375,8.507q.043,4.735.375,8.788t.656,6.257q.184,3.33-2.812,3.375-3.469.188-4.125-2.812-.423-2.718-.75-6.8-.328-4.031-.375-8.624v-.047q.047-4.641.375-8.671Q932.854,561.895,933.277,559.177ZM943.4,577.363a3.1,3.1,0,0,1,3.75-2.063q3,.891,2.062,3.375a9.589,9.589,0,0,0-.328,2.39,3.47,3.47,0,0,0,.328,1.687,2.874,2.874,0,0,0,1.524,1.313,9.068,9.068,0,0,0,3.4.562q3.563,0,5.016-.14,3.375-.468,3.56,3.187-.093,3.563-3,3.937a56.971,56.971,0,0,1-6.047.422q-5.484-.141-8.343-2.7a8.572,8.572,0,0,1-3-6.3A15.385,15.385,0,0,1,943.4,577.363Zm14.578-18.608q3.559,0,3.562,3.562,0,3.61-3.562,3.609H947.29q-3.562,0-3.562-3.562,0-3.609,3.562-3.609Z" fill="#d70019"/>
      <path id="パス_223" data-name="パス 223" d="M998.4,576.285a1.625,1.625,0,0,1,.515-.094,2.552,2.552,0,0,1,1.407.422l1.359.937a2.756,2.756,0,0,1,1.266,1.735,4.664,4.664,0,0,1,.046.609,2.6,2.6,0,0,1-.468,1.452,26.439,26.439,0,0,1-6.328,6.328.256.256,0,0,0-.071.235.151.151,0,0,0,.164.14,75.051,75.051,0,0,0,11.061,1.452,1.967,1.967,0,0,1,1.734,1.172,2.394,2.394,0,0,1,.235.985,2.29,2.29,0,0,1-.329,1.171,6.876,6.876,0,0,1-2.484,2.438,5.327,5.327,0,0,1-2.623.7,3.839,3.839,0,0,1-.609-.047,52.06,52.06,0,0,1-15.094-3.562.992.992,0,0,0-.842,0,72.257,72.257,0,0,1-15.75,3.7h-.562a4.509,4.509,0,0,1-2.25-.61,5.808,5.808,0,0,1-2.108-2.25,3.217,3.217,0,0,1-.234-1.171v-.282a2.1,2.1,0,0,1,.633-1.242,1.94,1.94,0,0,1,1.289-.586A81.688,81.688,0,0,0,980.406,588a.151.151,0,0,0,.164-.14.256.256,0,0,0-.071-.235,33.923,33.923,0,0,1-2.672-2.578.548.548,0,0,0-.7-.14q-1.547.843-3.281,1.687a4.045,4.045,0,0,1-1.547.328,3.683,3.683,0,0,1-1.172-.187,4.941,4.941,0,0,1-2.343-1.594,2.293,2.293,0,0,1-.514-1.453,3.239,3.239,0,0,1,.047-.563,1.992,1.992,0,0,1,1.31-1.5,29.1,29.1,0,0,0,9.235-5.53q.375-.328.047-.656-.423-.422-.891-.844a3.328,3.328,0,0,1-1.031-2.437,3.888,3.888,0,0,1,1.078-2.718,11.642,11.642,0,0,0,3.094-8.016.336.336,0,0,0-.094-.35.493.493,0,0,0-.328-.118H969.718a3.211,3.211,0,0,1,0-6.422h14.25a.331.331,0,0,0,.375-.375,3.44,3.44,0,0,1,3.42-3.42h.375a3.44,3.44,0,0,1,3.422,3.42.331.331,0,0,0,.375.375h14.435a3.211,3.211,0,0,1,0,6.422h-8.388a.414.414,0,0,0-.469.468V568.5a10.208,10.208,0,0,1-.469,3.515,3.632,3.632,0,0,1-1.828,1.922,8.116,8.116,0,0,1-2.765.844,33.1,33.1,0,0,1-3.938.187.083.083,0,0,1-.094-.094l-.8,1.032a.226.226,0,0,0-.023.257.231.231,0,0,0,.211.118H998.4Zm-27.936-11.3a4.864,4.864,0,0,1,2.156-1.828,3.815,3.815,0,0,1,1.641-.375,3.889,3.889,0,0,1,1.031.14,2.547,2.547,0,0,1,1.781,1.5,2.63,2.63,0,0,1,.188.985,2.378,2.378,0,0,1-.375,1.265,29.79,29.79,0,0,1-4.219,5.249,3.089,3.089,0,0,1-2.2.891h-.094a3.73,3.73,0,0,1-2.388-.938,2.389,2.389,0,0,1-.891-1.921,2.6,2.6,0,0,1,.844-1.968A19.691,19.691,0,0,0,970.468,564.989Zm22.639,17.06a.182.182,0,0,0,.047-.211c-.032-.077-.078-.117-.141-.117H983.64a.183.183,0,0,0-.188.117.179.179,0,0,0,.047.211,19.736,19.736,0,0,0,4.264,3,.82.82,0,0,0,.844,0A20.826,20.826,0,0,0,993.107,582.049Zm-2.391-20.623a.414.414,0,0,0-.469-.468h-2.109c-.312,0-.469.141-.469.421q-.187,7.219-3.467,11.531a.3.3,0,0,0-.046.281.291.291,0,0,0,.234.187l3.42.657a.3.3,0,0,0,.3-.071.3.3,0,0,0,.07-.3q-.094-.468-.234-.985a2.206,2.206,0,0,1-.094-.609q0-1.639,2.719-3.234.14-.093.14-.515Zm9.516,5.906a2.545,2.545,0,0,1-.61-1.64,2.691,2.691,0,0,1,1.266-2.25,3.952,3.952,0,0,1,1.922-.516,4.842,4.842,0,0,1,.656.047,3.618,3.618,0,0,1,2.25,1.172q1.825,2.064,3.139,3.844a2.8,2.8,0,0,1,.609,1.734,2.881,2.881,0,0,1-.094.7,3.141,3.141,0,0,1-1.546,2.062,3.031,3.031,0,0,1-1.641.468,3.842,3.842,0,0,1-.842-.093,3.713,3.713,0,0,1-2.109-1.547Q1001.966,569.489,1000.232,567.332Z" fill="#d70019"/>
      <path id="パス_224" data-name="パス 224" d="M1053.265,577.5a4.077,4.077,0,0,1-4.076,4.077h-10.406a.582.582,0,0,0-.61.422,15.57,15.57,0,0,1-2.672,5.11.311.311,0,0,0-.047.281.3.3,0,0,0,.235.187q5.3,1.313,15.515,1.313,1.688,0,3.467-.047h.047a1.952,1.952,0,0,1,1.781,1.03,2.558,2.558,0,0,1,.328,1.219,2.369,2.369,0,0,1-.234.984,6.014,6.014,0,0,1-1.969,2.579,4.4,4.4,0,0,1-2.763.984h-.094a118.919,118.919,0,0,1-12.328-.891,41.97,41.97,0,0,1-9.561-2.343.991.991,0,0,0-.89.046,37.169,37.169,0,0,1-8.391,3.141,5.193,5.193,0,0,1-1.172.141,4.973,4.973,0,0,1-1.969-.422,5.713,5.713,0,0,1-2.482-2.156,2.046,2.046,0,0,1-.469-1.266,2.37,2.37,0,0,1,.188-.891,2.028,2.028,0,0,1,1.638-1.359,44.178,44.178,0,0,0,5.532-1.405.284.284,0,0,0,.187-.188.189.189,0,0,0-.094-.234q-.656-.609-1.265-1.266a2.514,2.514,0,0,1-.8-1.828,3.477,3.477,0,0,1,.094-.75,3.092,3.092,0,0,1,1.828-2.062l.469-.141a.105.105,0,0,0,.023-.117c-.016-.047-.039-.071-.07-.071h-.375a4.08,4.08,0,0,1-4.078-4.077V565.129a4.078,4.078,0,0,1,4.078-4.077h9.422a.415.415,0,0,0,.468-.469v-1.172a.415.415,0,0,0-.468-.468h-14.438a2.974,2.974,0,0,1-2.178-.914,3.113,3.113,0,0,1,0-4.407,2.974,2.974,0,0,1,2.178-.914h36.418a3.118,3.118,0,0,1,0,6.235h-13.686a.414.414,0,0,0-.468.468v1.172a.414.414,0,0,0,.468.469h9.61a4.075,4.075,0,0,1,4.076,4.077Zm-28.4-10.921a.415.415,0,0,0-.469.469v1.172a.414.414,0,0,0,.469.469h6.422a.415.415,0,0,0,.468-.469v-1.172a.415.415,0,0,0-.468-.469Zm0,7.265a.415.415,0,0,0-.469.469v1.219a.414.414,0,0,0,.469.468h6.422a.415.415,0,0,0,.468-.468v-1.219a.415.415,0,0,0-.468-.469Zm5.531,8.155a.235.235,0,0,0,0-.281.279.279,0,0,0-.234-.141h-5.016a.19.19,0,0,0-.141.329,21.152,21.152,0,0,0,3,2.484.513.513,0,0,0,.75-.094A11.506,11.506,0,0,0,1030.394,582Zm15.982-14.951a.414.414,0,0,0-.468-.469h-6.329a.414.414,0,0,0-.468.469v1.172a.414.414,0,0,0,.468.469h6.329a.414.414,0,0,0,.468-.469Zm-.468,8.952a.414.414,0,0,0,.468-.468v-1.219a.414.414,0,0,0-.468-.469h-6.329a.414.414,0,0,0-.468.469v1.219a.414.414,0,0,0,.468.468Z" fill="#d70019"/>
      <path id="パス_225" data-name="パス 225" d="M1063.648,559.646h14.765v-1.5q0-3.328,3.327-3.328t3.328,3.328v1.5h3.7q3.328,0,3.328,3.327t-3.328,3.328h-3.7v9.187a19.2,19.2,0,0,1,1.359,5.624,20.218,20.218,0,0,1-.75,6.867,25.053,25.053,0,0,1-2.344,5.507q-1.968,2.575-4.5,1.5-2.859-1.548-1.312-4.125a20.117,20.117,0,0,0,1.453-3.913q.141-.961.141-1.055a11.491,11.491,0,0,1-2.649,2.508,6.566,6.566,0,0,1-3.258.914,8.244,8.244,0,0,1-4.734-1.289,8.957,8.957,0,0,1-3.234-3.844,13.544,13.544,0,0,1-1.125-5.976,12.224,12.224,0,0,1,1.406-5.39,9.156,9.156,0,0,1,3.562-3.773,10.979,10.979,0,0,1,5.532-1.289,9.206,9.206,0,0,1,2.3.446,6.335,6.335,0,0,1,1.5.679V566.3h-14.765q-3.328,0-3.326-3.328T1063.648,559.646Zm15.281,18.607a8.331,8.331,0,0,0-.422-1.968,4.832,4.832,0,0,0-1.078-1.618,4.5,4.5,0,0,0-6.141.328,5.081,5.081,0,0,0-.937,3.071,4.863,4.863,0,0,0,1.219,3.655,3.614,3.614,0,0,0,3.187.891,4.452,4.452,0,0,0,2.672-1.36,5.922,5.922,0,0,0,1.2-1.967A9.022,9.022,0,0,0,1078.929,578.253Z" fill="#d70019"/>
      <path id="パス_226" data-name="パス 226" d="M1103,581.112q-1.405,2.485-2.25,3.75-1.359,2.765-4.406.984-2.3-1.828-.656-4.547,2.109-3.092,3.844-5.413t3.468-4.851v-1.124h-3.515q-3.8,0-3.8-3.563,0-3.609,3.8-3.609H1103v-4.406q0-3.187,3.422-3.187,3.372,0,3.373,3.187v6.515a11.755,11.755,0,0,1,3.938-3.234,12.254,12.254,0,0,1,4.265-1.265,6.478,6.478,0,0,1,4.477.983,5.708,5.708,0,0,1,2.18,3.422,16.748,16.748,0,0,1,.328,4.922q-.1,1.594-.211,3.773t-.234,4.429c-.081,1.5-.141,2.821-.188,3.96s-.07,1.915-.07,2.321c0,.5.084.812.258.937a.768.768,0,0,0,.585.141q2.9-1.687,3.655,1.781t-2.858,5.343a6.6,6.6,0,0,1-3.281.656,5.39,5.39,0,0,1-4.289-2.578,9.8,9.8,0,0,1-1.336-5.577q0-1.219.094-3.282t.234-4.358q.141-2.3.258-4.1t.117-2.414a5.154,5.154,0,0,0-.234-1.92,1.335,1.335,0,0,0-1.36-.844,5.5,5.5,0,0,0-2.859,1.547,20.541,20.541,0,0,0-3.469,3.889v18.233q0,3.188-3.373,3.187-3.422,0-3.422-3.187Z" fill="#d70019"/>
      <path id="パス_227" data-name="パス 227" d="M1133.769,559.177q.652-3,4.123-2.812,3,.047,2.812,3.375-.327,2.2-.656,6.256t-.375,8.507q.047,4.735.375,8.788t.656,6.257q.188,3.33-2.812,3.375-3.469.188-4.123-2.812-.422-2.718-.75-6.8-.332-4.031-.375-8.624v-.047q.043-4.641.375-8.671Q1133.344,561.895,1133.769,559.177Zm18.373,2.671V558.9q0-3.187,3.185-3.188t3.188,3.188v2.952h1.547q3.609,0,3.609,3.609t-3.609,3.61h-1.547v7.546a34.506,34.506,0,0,1,4.312,1.875,3.179,3.179,0,0,1,1.125,4.311q-1.359,2.578-3.375,1.313a9.112,9.112,0,0,0-2.062-.985v2.907a9.1,9.1,0,0,1-1.125,5.014,5.613,5.613,0,0,1-2.953,2.3,11.237,11.237,0,0,1-3.561.609,10.868,10.868,0,0,1-4.312-.679,7.092,7.092,0,0,1-3.4-2.719,9.467,9.467,0,0,1-1.336-5.413,9.712,9.712,0,0,1,2.649-7.148q2.6-2.555,7.664-2.226v-6.7h-6.234q-3.61,0-3.61-3.61t3.61-3.609Zm-1.266,25.686a1.108,1.108,0,0,0,.985-.586,3.363,3.363,0,0,0,.281-1.524v-3.609a4.27,4.27,0,0,0-3.375.515,3.341,3.341,0,0,0-1.313,2.485,2.315,2.315,0,0,0,.844,2.2A3.843,3.843,0,0,0,1150.876,587.534Zm9.326-32.388a1.409,1.409,0,0,1,1.594-1.594,1.43,1.43,0,0,1,1.641,1.594v3.562a1.409,1.409,0,0,1-1.594,1.594,1.43,1.43,0,0,1-1.641-1.594Zm5.063,0a1.409,1.409,0,0,1,1.594-1.594,1.43,1.43,0,0,1,1.64,1.594v3.562a1.409,1.409,0,0,1-1.593,1.594,1.43,1.43,0,0,1-1.641-1.594Z" fill="#d70019"/>
    </g>
    <g id="グループ_4" data-name="グループ 4">
      <path id="パス_228" data-name="パス 228" d="M586.63,624.768q-.683-3.157-.928-4.644-1.116-4.085,3.961-4.705,4.705-.5,5.45,4.21.557,3.159.99,4.644,3.4-.123,9.659-.681,4.458-.495,4.953,3.962.495,4.77-3.963,5.449-5.013.62-8.358.866,1.98,7.308,2.91,10.279,1.3,3.9-3.22,4.891-5.387.744-6.439-3.9-1.671-6.747-2.662-10.772-2.911.124-6.44.154t-8.42.031q-4.828,0-4.83-4.829,0-4.891,4.83-4.892Q582.543,624.891,586.63,624.768ZM575.052,642.91q2.475-3.343,6.191-1.982,3.715,2.354,1.734,5.7a12.684,12.684,0,0,0-1.609,5.387,4.042,4.042,0,0,0,2.847,4.21,15.787,15.787,0,0,0,5.882.867,104.847,104.847,0,0,0,12.445-.8q4.83-.746,4.953,4.21,0,4.581-4.21,5.448a106.26,106.26,0,0,1-13.622.867q-8.915-.186-13.651-3.994a11.117,11.117,0,0,1-4.489-9.566,20.335,20.335,0,0,1,1.3-6.254A16.758,16.758,0,0,1,575.052,642.91Z" fill="#d70019"/>
      <path id="パス_229" data-name="パス 229" d="M618.364,646.995v-12.32q0-4.52,4.519-4.52,4.582,0,4.582,4.52v5.448a20.2,20.2,0,0,1,5.17-3.188,20.884,20.884,0,0,1,6.1-1.394,19.267,19.267,0,0,1,9.565,1.424,13.134,13.134,0,0,1,6.161,5.357,16.279,16.279,0,0,1,2.1,8.141q.062,9.6-8.513,13.5t-20.9,2.23q-4.83-.805-4.458-5.2.618-4.211,4.953-3.715a58.33,58.33,0,0,0,7.739.341,22,22,0,0,0,7.522-1.022,6.99,6.99,0,0,0,3.53-2.632,5.865,5.865,0,0,0,.9-3.559,6.714,6.714,0,0,0-.991-3.468,6.452,6.452,0,0,0-2.91-2.569,9.808,9.808,0,0,0-5.51-.341,19.416,19.416,0,0,0-6.315,2.476q-2.787,1.735-4.954,3.1-2.848,2.106-5.479,1.177A3.959,3.959,0,0,1,618.364,646.995Zm9.1-29.966q4.953-.186,7.925-.062a87.734,87.734,0,0,1,9.164,1.114q4.209.807,3.9,5.263-.434,4.954-5.138,3.963a67.764,67.764,0,0,0-8.112-.867q-2.971-.06-7.553.124-4.149.247-4.458-4.705Q623.316,617.4,627.465,617.029Z" fill="#d70019"/>
      <path id="パス_230" data-name="パス 230" d="M665.2,621.116q.867-3.963,5.449-3.715,3.962.062,3.715,4.458-.435,2.91-.867,8.265t-.5,11.238q.061,6.255.5,11.609t.867,8.266q.247,4.395-3.715,4.458-4.582.246-5.449-3.715-.557-3.591-.991-8.979-.434-5.322-.495-11.391v-.063q.062-6.129.495-11.454Q664.645,624.707,665.2,621.116Zm13.374,24.022q1.486-3.4,4.954-2.724,3.96,1.177,2.723,4.458a12.633,12.633,0,0,0-.432,3.158,4.581,4.581,0,0,0,.432,2.229,3.8,3.8,0,0,0,2.013,1.734,12.042,12.042,0,0,0,4.488.743q4.706,0,6.625-.187,4.46-.618,4.706,4.211-.125,4.705-3.963,5.2a75.181,75.181,0,0,1-7.987.558q-7.243-.186-11.02-3.561a11.328,11.328,0,0,1-3.963-8.327A20.423,20.423,0,0,1,678.577,645.138Zm19.255-24.58q4.706,0,4.706,4.706,0,4.769-4.706,4.768H683.716q-4.707,0-4.706-4.706,0-4.767,4.706-4.768Z" fill="#d70019"/>
      <path id="パス_231" data-name="パス 231" d="M711.859,626.5q0-4.332,4.334-4.334h6.872v-1.92q0-4.27,4.272-4.272,4.334,0,4.334,4.272v1.92h3.281q3.963.124,4.087,4.457.06,4.4-3.962,4.273h-3.406v4.767a12.367,12.367,0,0,1,1.363-.248,29.1,29.1,0,0,1,5.943.527,18.209,18.209,0,0,1,5.944,2.229,12.472,12.472,0,0,1,4.551,4.8,17.243,17.243,0,0,1,1.826,8.235,17.517,17.517,0,0,1-1.795,8.235,13,13,0,0,1-4.427,4.86,14.572,14.572,0,0,1-5.913,2.136q-3.654.5-4.706-3.467-.681-3.961,2.725-5.2,3.775-1.3,4.488-2.755a8.694,8.694,0,0,0,.713-3.808,6.03,6.03,0,0,0-2.477-5.2q-2.478-1.794-7.492-1.609h-.371a1.179,1.179,0,0,0-.372.061v10.464q-.186,5.078-2.011,7.491a8.329,8.329,0,0,1-3.9,3.1,9.983,9.983,0,0,1-3.807.558,10.108,10.108,0,0,1-5.2-1.548,12.978,12.978,0,0,1-4.4-4.458,14.349,14.349,0,0,1-1.982-7,13.966,13.966,0,0,1,1.517-6.966,17.721,17.721,0,0,1,4.521-5.572,21.061,21.061,0,0,1,6.655-3.684V630.9h-6.872q-4.335,0-4.334-4.334Zm11.206,29.285v-9.534a8.47,8.47,0,0,0-3.281,2.786,7.232,7.232,0,0,0-1.177,3.9,3.46,3.46,0,0,0,.589,2.291,4.075,4.075,0,0,0,1.485,1.269,2.9,2.9,0,0,0,1.518.34c.04.042.185.022.433-.061S723.024,656.367,723.065,655.787Zm17.089-34.362-.31-1.362q-.992-3.035,2.477-4.149,4.272-.866,5.634,2.972a97.287,97.287,0,0,1,3.653,12.445q.8,3.593-3.281,4.334-4.149.434-4.892-2.91-.31-1.051-.774-3.157a42.205,42.205,0,0,0-1.95-5.882Z" fill="#d70019"/>
      <path id="パス_232" data-name="パス 232" d="M760.99,620.434q0-4.89,4.89-4.891t4.892,4.891V632.26h21.175q4.828,0,4.83,4.829,0,4.893-4.83,4.892H770.772v20.555q0,4.891-4.892,4.892t-4.89-4.892Z" fill="#d70019"/>
      <path id="パス_233" data-name="パス 233" d="M820.708,621.735h10.959q11.02-.123,9.287,12.011a45.194,45.194,0,0,1-3.529,11.671,32.667,32.667,0,0,1-6.718,10.123,39.15,39.15,0,0,1-8.265,6.377,65.231,65.231,0,0,1-9.226,4.273q-4.4,1.671-6.439-2.477-1.3-4.766,2.663-6.315a33.379,33.379,0,0,0,5.324-2.167,31.486,31.486,0,0,0,7.244-5.077,27.81,27.81,0,0,0,6.1-7.864,24.038,24.038,0,0,0,2.755-8.048q.434-3.219-2.848-3.282H816.931a46.02,46.02,0,0,1-7.182,9.225q-3.654,3.468-6.934.991-3.036-4.086.061-7.244a30.427,30.427,0,0,0,4.087-4.829,37.927,37.927,0,0,0,4.52-9.721q1.3-4.644,6.439-3.716Q822.194,616.906,820.708,621.735Z" fill="#d70019"/>
      <path id="パス_234" data-name="パス 234" d="M851.759,658.017a6.569,6.569,0,0,1,2.137-4.984,8.134,8.134,0,0,1,10.711,0,6.571,6.571,0,0,1,2.136,4.984A6.449,6.449,0,0,1,864.607,663a8.326,8.326,0,0,1-10.711,0A6.446,6.446,0,0,1,851.759,658.017Zm3.034-14.612-2.043-16.1-.186-5.139a4.827,4.827,0,0,1,1.425-3.808,5.015,5.015,0,0,1,3.714-1.578h3.158a5.022,5.022,0,0,1,3.715,1.578A4.832,4.832,0,0,1,866,622.168l-.185,5.139-2.043,16.1a4.606,4.606,0,0,1-1.517,2.817,4.427,4.427,0,0,1-5.944,0A4.591,4.591,0,0,1,854.793,643.405Z" fill="#d70019"/>
    </g>
    <g id="グループ_65" data-name="グループ 65">
      <g id="グループ_64" data-name="グループ 64">
        <g id="グループ_56" data-name="グループ 56">
          <path id="パス_586" data-name="パス 586" d="M952.76,429.481q18.972,5.165,37.759,11.194-9.039,8.639-17.811,17.445,2.34,12.205,4.379,24.4-17.842-5.727-35.87-10.633Q946.988,450.684,952.76,429.481Z" fill="#d00f31"/>
          <path id="パス_587" data-name="パス 587" d="M952.76,429.481q18.972,5.165,37.759,11.194-9.039,8.639-17.811,17.445,2.34,12.205,4.379,24.4-17.842-5.727-35.87-10.633Q946.988,450.684,952.76,429.481Z" fill="none" stroke="#d00f31" stroke-miterlimit="10" stroke-width="3.573"/>
        </g>
        <g id="グループ_57" data-name="グループ 57">
          <path id="パス_588" data-name="パス 588" d="M496.537,428.053q-19,5.043-37.812,10.952,8.982,8.7,17.7,17.557-2.413,12.192-4.527,24.372,17.871-5.611,35.921-10.4Q502.176,449.291,496.537,428.053Z" fill="#d00f31"/>
          <path id="パス_589" data-name="パス 589" d="M496.537,428.053q-19,5.043-37.812,10.952,8.982,8.7,17.7,17.557-2.413,12.192-4.527,24.372,17.871-5.611,35.921-10.4Q502.176,449.291,496.537,428.053Z" fill="none" stroke="#d00f31" stroke-miterlimit="10" stroke-width="3.573"/>
        </g>
        <g id="グループ_58" data-name="グループ 58">
          <path id="パス_590" data-name="パス 590" d="M489.883,424.554a883.736,883.736,0,0,1,469.555,1.47L947.63,468.358a839.784,839.784,0,0,0-446.2-1.4Q495.654,445.756,489.883,424.554Z" fill="#d00f31"/>
          <path id="パス_591" data-name="パス 591" d="M489.883,424.554a883.736,883.736,0,0,1,469.555,1.47L947.63,468.358a839.784,839.784,0,0,0-446.2-1.4Q495.654,445.756,489.883,424.554Z" fill="none" stroke="#d00f31" stroke-miterlimit="10" stroke-width="3.573"/>
        </g>
        <g id="グループ_59" data-name="グループ 59">
          <path id="パス_592" data-name="パス 592" d="M948.757,423.117q19.107,5.073,38.032,11.015-9.015,8.685-17.763,17.537,2.448,12.2,4.594,24.393-17.979-5.648-36.14-10.467Z" fill="#fff"/>
          <path id="パス_593" data-name="パス 593" d="M948.757,423.117q19.107,5.073,38.032,11.015-9.015,8.685-17.763,17.537,2.448,12.2,4.594,24.393-17.979-5.648-36.14-10.467Z" fill="none" stroke="#d00f31" stroke-miterlimit="10" stroke-width="3.573"/>
        </g>
        <g id="グループ_60" data-name="グループ 60">
          <path id="パス_594" data-name="パス 594" d="M489.883,424.554Q470.8,429.749,451.9,435.812q9.072,8.628,17.877,17.424-2.373,12.218-4.445,24.423,17.952-5.763,36.09-10.7Q495.654,445.756,489.883,424.554Z" fill="#fff"/>
          <path id="パス_595" data-name="パス 595" d="M489.883,424.554Q470.8,429.749,451.9,435.812q9.072,8.628,17.877,17.424-2.373,12.218-4.445,24.423,17.952-5.763,36.09-10.7Q495.654,445.756,489.883,424.554Z" fill="none" stroke="#d00f31" stroke-miterlimit="10" stroke-width="3.573"/>
        </g>
        <g id="グループ_61" data-name="グループ 61">
          <path id="パス_596" data-name="パス 596" d="M483.173,421.105a888.849,888.849,0,0,1,472.269-1.479q-5.771,21.2-11.543,42.406a844.893,844.893,0,0,0-448.917,1.406Q489.078,442.271,483.173,421.105Z" fill="#fff"/>
          <path id="パス_597" data-name="パス 597" d="M483.173,421.105a888.849,888.849,0,0,1,472.269-1.479q-5.771,21.2-11.543,42.406a844.893,844.893,0,0,0-448.917,1.406Q489.078,442.271,483.173,421.105Z" fill="none" stroke="#d00f31" stroke-miterlimit="10" stroke-width="3.573"/>
        </g>
        <g id="グループ_63" data-name="グループ 63">
          <g id="グループ_62" data-name="グループ 62">
            <path id="パス_598" data-name="パス 598" d="M514.8,426.728q-.528-2.158,1.794-2.72t2.835,1.606l1.242,5.225q4.982-1.185,9.973-2.31,2.278-.513,2.755,1.63a2.014,2.014,0,0,1-1.784,2.677q-4.965,1.119-9.922,2.3,1.08,4.542,2.161,9.084a2.331,2.331,0,0,1-4.528,1.09Q517.064,436.017,514.8,426.728Zm7.2-2.963q-.219-.932.781-1.165,1.029-.24,1.245.692l.483,2.082c.144.622-.115,1.008-.779,1.163q-1.024.239-1.243-.691Q522.243,424.805,522,423.765Zm3.172-.738q-.215-.932.786-1.162,1.031-.235,1.243.7.237,1.041.475,2.083.213.933-.784,1.16-1.026.236-1.24-.7Z" fill="#d00f31"/>
            <path id="パス_599" data-name="パス 599" d="M537,423.179q-.465-2.145,1.833-2.639,5.256-1.124,10.523-2.182c3.543-.711,5.638.606,6.28,3.918q1,5.135,2,10.269c.643,3.314-.767,5.3-4.222,5.995q-5.142,1.033-10.276,2.131a2.21,2.21,0,1,1-.923-4.318q4.539-.969,9.084-1.891a1.532,1.532,0,0,0,1.406-2q-.822-4.109-1.646-8.217a1.54,1.54,0,0,0-2.093-1.3q-4.608.934-9.208,1.917-2.286.489-2.75-1.652Z" fill="#d00f31"/>
            <path id="パス_600" data-name="パス 600" d="M561.82,417.834q-.413-2.21,1.955-2.649,6.613-1.213,13.241-2.325,2.373-.4,2.738,1.825T577.76,417.3q-3.408.572-6.811,1.17l.624,3.546q3.977-.7,7.958-1.362,2.293-.381,2.646,1.787t-1.927,2.54q-3.96.66-7.917,1.355.2,1.122.394,2.244a4.491,4.491,0,0,0,.658,1.612q.415.568,2.23.339,2.561-.414,4.176-.768,2.161-.477,2.637,1.5a2.058,2.058,0,0,1-1.7,2.677q-2.088.492-4.728.891a7.59,7.59,0,0,1-5.05-.738,6.585,6.585,0,0,1-2.6-4.3q-.24-1.329-.481-2.657-1.386.25-2.772.507-2.274.42-2.678-1.733t1.881-2.581q1.394-.256,2.786-.51l-.642-3.542q-.927.17-1.855.339Q562.234,420.043,561.82,417.834Z" fill="#d00f31"/>
            <path id="パス_601" data-name="パス 601" d="M586.686,413.912q-.339-2.166,1.976-2.527,4.749-.73,9.505-1.41a4.359,4.359,0,0,1,3.78.8,5.476,5.476,0,0,1,1.412,3.893q.315,5.351.639,10.7l1.285-.177a2.265,2.265,0,1,1,.614,4.486q-7.522,1.029-15.029,2.194a2.265,2.265,0,1,1-.694-4.474q4.516-.7,9.038-1.352-.366-5.019-.725-10.039-.059-1.666-1.588-1.391-3.785.549-7.565,1.131-2.3.355-2.643-1.809Z" fill="#d00f31"/>
            <path id="パス_602" data-name="パス 602" d="M611.615,418.2q-.279-2.176,2.022-2.469,4.515-.567,9.034-1.088,2.305-.264,2.55,1.918a2.007,2.007,0,0,1-2.045,2.469q-4.5.517-8.988,1.082a2,2,0,0,1-2.569-1.885Z" fill="#d00f31"/>
            <path id="パス_603" data-name="パス 603" d="M632.485,412.889l-.651.068q-2.368.248-2.606-1.987t2.139-2.488l.654-.068q-.094-.909-.188-1.819-.219-2.1,2.024-2.327,2.271-.228,2.478,1.873.088.909.179,1.819,2.841-.279,5.684-.54l-.177-1.932q-.193-2.1,2.05-2.3c1.515-.135,2.334.5,2.455,1.9q.084.967.167,1.934l.8-.07q2.382-.2,2.567,2.042t-2.183,2.441l-.8.069q.169,1.962.34,3.923a9.584,9.584,0,0,1-.865,5.029A10.468,10.468,0,0,1,643.4,424.1a17.435,17.435,0,0,1-5.113,2.534q-2.148.579-2.837-1.3-.579-2.2,1.235-2.668a11.682,11.682,0,0,0,3.817-1.785,8.7,8.7,0,0,0,1.84-2.15,4.8,4.8,0,0,0,.623-2.91l-.36-3.92q-2.829.26-5.655.537l.405,4.115q.2,2.1-2,2.318-2.232.225-2.451-1.869Q632.7,414.946,632.485,412.889ZM647.534,402.8q-.081-.953.937-1.038,1.048-.089,1.128.865.087,1.065.176,2.13c.053.635-.26.981-.935,1.037q-1.043.089-1.125-.865Q647.625,403.863,647.534,402.8Zm3.232-.269q-.078-.952.941-1.035,1.049-.084,1.124.87l.168,2.13c.051.635-.263.98-.938,1.034q-1.044.084-1.122-.869Q650.852,403.594,650.766,402.529Z" fill="#d00f31"/>
            <path id="パス_604" data-name="パス 604" d="M656.381,413.625q-.166-2.189,2.145-2.36,4.531-.332,9.068-.617,2.312-.144,2.443,2.048a2.005,2.005,0,0,1-2.167,2.359q-4.512.283-9.022.614-2.3.168-2.465-2.016Z" fill="#d00f31"/>
            <path id="パス_605" data-name="パス 605" d="M674.495,406.075q-.115-2.106,2.125-2.226l1.524-.078q.121-.85.244-1.7.254-1.5,2.264-1.63,2.1.014,1.817,1.661a10.068,10.068,0,0,0-.2,1.473l1.553-.069q2.241-.1,2.328,2.013c.058,1.424-.656,2.164-2.143,2.229q-1.129.049-2.259.1c-1.149,5.665-1.812,9.067-2.031,10.2q-.36,1.68-2.4,1.473-2.018-.316-1.647-2.165c1-4.373,1.639-7.474,1.884-9.308l-.714.037A1.935,1.935,0,0,1,674.495,406.075Zm16.95,4.081q.05,1.377.1,2.754a23.4,23.4,0,0,1,3.357,1.379q1.3.861.435,2.575a1.72,1.72,0,0,1-2.452.642q-.418-.182-1.193-.437.031.914.064,1.827a5.7,5.7,0,0,1-.632,3.245,3.728,3.728,0,0,1-1.742,1.527,6.245,6.245,0,0,1-2.116.464,7.419,7.419,0,0,1-2.775-.3,4.972,4.972,0,0,1-2.385-1.609,5.621,5.621,0,0,1-1.117-3.438,5.837,5.837,0,0,1,1.658-4.624,6.7,6.7,0,0,1,5.034-1.664l-.087-2.192q-.074-1.825,1.859-1.9T691.445,410.156ZM687.1,420.171a.774.774,0,0,0,.643-.449,2.131,2.131,0,0,0,.178-1.049q-.046-1.194-.095-2.388a3.3,3.3,0,0,0-2.4.465,2.131,2.131,0,0,0-.841,1.668,1.609,1.609,0,0,0,.7,1.462A2.8,2.8,0,0,0,687.1,420.171Zm.5-15.725q.52-1.964,2.7-1.509,1.357.288,2.713.581,2.171.492,1.631,2.423a2.03,2.03,0,0,1-2.722,1.5q-1.335-.292-2.672-.579Q687.051,406.408,687.6,404.446Z" fill="#d00f31"/>
            <path id="パス_606" data-name="パス 606" d="M701.346,414.168q-.066-2.8-.134-5.6-.049-2.052,2.125-2.1,2.2-.047,2.242,2.008.024,1.237.047,2.474a9.66,9.66,0,0,1,2.45-1.491,10.393,10.393,0,0,1,2.915-.675,9.605,9.605,0,0,1,4.592.6,6.147,6.147,0,0,1,2.961,2.416,7.1,7.1,0,0,1,1.017,3.694,6.2,6.2,0,0,1-4,6.152,18.854,18.854,0,0,1-9.852,1.144q-2.287-.322-2.155-2.319a1.854,1.854,0,0,1,2.312-1.735,29.916,29.916,0,0,0,3.672.093,10.925,10.925,0,0,0,3.56-.508,3.317,3.317,0,0,0,1.664-1.211,2.561,2.561,0,0,0,.413-1.62,2.938,2.938,0,0,0-.484-1.571,3.035,3.035,0,0,0-1.4-1.154,4.895,4.895,0,0,0-2.633-.124,9.459,9.459,0,0,0-3,1.169q-1.314.81-2.334,1.449a2.829,2.829,0,0,1-2.6.588A1.815,1.815,0,0,1,701.346,414.168Zm4.082-13.7q2.4-.131,3.837-.093a43.323,43.323,0,0,1,4.442.454,2.03,2.03,0,0,1,1.905,2.374q-.2,2.252-2.462,1.821a33.332,33.332,0,0,0-3.913-.345q-1.431-.008-3.638.117-2,.15-2.193-2.094A2.021,2.021,0,0,1,705.428,400.466Z" fill="#d00f31"/>
            <path id="パス_607" data-name="パス 607" d="M731.638,422.187a6.317,6.317,0,0,1-5.09-2.335,9.622,9.622,0,0,1-1.871-6.293,10.384,10.384,0,0,1,.619-3.6,7.789,7.789,0,0,1,1.632-2.72,7.574,7.574,0,0,1,2.3-1.657,6.092,6.092,0,0,1,2.659-.578,5.672,5.672,0,0,1,2.171.406,6.385,6.385,0,0,1,1.771,1.166.131.131,0,0,0,.119,0,.11.11,0,0,0,.061-.112l-.144-2.167.048-3.009a2.286,2.286,0,0,1,.792-1.717,2.6,2.6,0,0,1,1.86-.684l.27.005a2.6,2.6,0,0,1,1.832.754,2.285,2.285,0,0,1,.726,1.746q-.2,9.236-.409,18.471a1.976,1.976,0,0,1-.662,1.463,2.138,2.138,0,0,1-1.548.573l-.643-.013a1.947,1.947,0,0,1-1.192-.415,1.734,1.734,0,0,1-.657-1.052l-.027-.085a.094.094,0,0,0-.087-.057.117.117,0,0,0-.088.027,7.389,7.389,0,0,1-2.129,1.388A5.721,5.721,0,0,1,731.638,422.187Zm1.457-4.173a2.848,2.848,0,0,0,2.4-1.119.8.8,0,0,0,.185-.5q.047-2.952.094-5.9a.529.529,0,0,0-.23-.453,3.812,3.812,0,0,0-2.422-.851,2.476,2.476,0,0,0-2.059,1.088,5.377,5.377,0,0,0-.861,3.24Q730.16,417.981,733.095,418.014Z" fill="#d00f31"/>
            <path id="パス_608" data-name="パス 608" d="M746.905,406.234q.061-2.193,2.391-2.123,1.434.045,2.867.094l.063-1.827q.072-2.107,2.321-2.027,2.28.085,2.2,2.195l-.072,1.826q2.135.085,4.268.18c3.2.182,4.71,1.942,4.522,5.254q-.21,4.776-.661,8.484T763,422.877a6.043,6.043,0,0,1-3.016.972,12.327,12.327,0,0,1-4.066-.65,2.04,2.04,0,0,1-1.538-2.649,1.852,1.852,0,0,1,2.52-1.364,7.216,7.216,0,0,0,2.287.124.99.99,0,0,0,.707-.363,3.063,3.063,0,0,0,.533-1.4q.208-1.046.62-6.883a1.5,1.5,0,0,0-1.558-1.757q-1.559-.067-3.117-.129a19.709,19.709,0,0,1-1.742,7.517,14.229,14.229,0,0,1-4.751,5.559c-1.379.986-2.506.952-3.392-.1q-1-2.082.471-3.138a10.423,10.423,0,0,0,1.946-1.629,9.51,9.51,0,0,0,2.006-3.157,16.266,16.266,0,0,0,.977-5.214q-1.367-.048-2.733-.09-2.315-.072-2.254-2.262Z" fill="#d00f31"/>
            <path id="パス_609" data-name="パス 609" d="M771.209,412.536q.125-2.19,2.437-2.056,4.536.27,9.07.588,2.312.164,2.151,2.353a2.005,2.005,0,0,1-2.46,2.052q-4.51-.316-9.024-.585-2.3-.137-2.176-2.324Z" fill="#d00f31"/>
            <path id="パス_610" data-name="パス 610" d="M791.466,404.617q.176-2.214,2.541-2.023t2.176,2.411q-.228,2.676-.455,5.352,5.071.432,10.14.922,2.313.225,2.1,2.41a2.009,2.009,0,0,1-2.521,1.985q-5.042-.489-10.089-.918-.395,4.651-.791,9.3a2.316,2.316,0,0,1-4.613-.38Q790.708,414.149,791.466,404.617Zm7.718-.565q.084-.953,1.1-.863,1.047.095.961,1.047-.1,1.065-.194,2.129-.087.953-1.1.861c-.7-.063-1.015-.41-.958-1.045Q799.089,405.116,799.184,404.052Zm3.227.291q.087-.952,1.1-.858,1.047.1.957,1.05l-.2,2.128q-.09.953-1.1.857-1.043-.1-.954-1.049Q802.313,405.407,802.411,404.343Z" fill="#d00f31"/>
            <path id="パス_611" data-name="パス 611" d="M815.864,409.845c.606-.048,1.189-.078,1.753-.091q.21-1.647.273-2.2a2.012,2.012,0,0,1,2.575-1.977q2.424.219,1.98,2.491-.033.534-.292,2l.668.078.861.1.728.086a4.333,4.333,0,0,1,3.261,1.779,7.393,7.393,0,0,1,.9,4.475,37.885,37.885,0,0,1-.377,4.374,20.651,20.651,0,0,1-1,4.085,6.994,6.994,0,0,1-1.85,2.9,3.789,3.789,0,0,1-2.981.889,13.725,13.725,0,0,1-1.783-.38,1.883,1.883,0,0,1-1.347-2.646q.589-1.8,2.075-1.572a4.532,4.532,0,0,0,.872.13q.768.006,1.2-1.26a15.44,15.44,0,0,0,.652-3.108q.219-1.844.314-3.645.126-1.061-.252-1.4a2.981,2.981,0,0,0-1.436-.523,5.5,5.5,0,0,0-.609-.042c-.171,0-.393-.018-.668-.049a48.139,48.139,0,0,1-2.132,7.172,56.066,56.066,0,0,1-2.241,5.181q-.822,1.55-2.917.811-1.813-.933-1.029-2.487a22.814,22.814,0,0,0,1.775-3.853,45.013,45.013,0,0,0,2.08-7.044q-.959.009-1.352.05-1.861.082-1.7-2.3Q814.211,409.838,815.864,409.845ZM829,406.068q.117-.948,1.132-.823,1.046.129.927,1.079-.133,1.059-.266,2.12c-.079.633-.456.906-1.129.823-.7-.086-1-.444-.925-1.077Zm.479,5.9q-.4-1.41,1.438-1.861a2.173,2.173,0,0,1,2.484,1.336,30.3,30.3,0,0,1,.875,6.239q.163,1.722-1.923,1.906-2.068.074-2.168-1.751A37.858,37.858,0,0,0,829.478,411.965Zm2.743-5.495q.12-.948,1.135-.819,1.045.133.923,1.082-.137,1.061-.274,2.12-.123.948-1.132.818-1.039-.132-.92-1.081Q832.086,407.531,832.221,406.47Z" fill="#d00f31"/>
            <path id="パス_612" data-name="パス 612" d="M840.99,412.763q.269-1.95,2.347-1.662,1.647.231,3.293.468c.041-.288.083-.575.124-.863q.277-1.92,2.33-1.623c1.39.2,1.988.949,1.8,2.227l-.129.863,1.572.235a1.834,1.834,0,0,1,1.65,2.3,1.661,1.661,0,0,1-2.182,1.631q-.812-.123-1.623-.243-.16,1.071-.319,2.142a6.051,6.051,0,0,1,.664-.015,14.543,14.543,0,0,1,2.79.664,8.984,8.984,0,0,1,2.669,1.437,5.779,5.779,0,0,1,1.817,2.493,7.507,7.507,0,0,1,.274,3.831,7.7,7.7,0,0,1-1.433,3.559,6.058,6.058,0,0,1-2.419,1.854,7.165,7.165,0,0,1-2.915.53,2.037,2.037,0,0,1-.335-4.034,3.734,3.734,0,0,0,2.3-.913,3.8,3.8,0,0,0,.6-1.657,2.688,2.688,0,0,0-.81-2.516,5.942,5.942,0,0,0-3.434-1.259l-.176-.026a.6.6,0,0,0-.18,0q-.349,2.35-.7,4.7a5.853,5.853,0,0,1-1.445,3.225,3.939,3.939,0,0,1-2.031,1.123,5.313,5.313,0,0,1-4.158-1.049,6.081,6.081,0,0,1-1.785-2.292,6.312,6.312,0,0,1-.5-3.276,6.064,6.064,0,0,1,1.146-3.037,8.091,8.091,0,0,1,2.492-2.209,10.173,10.173,0,0,1,3.4-1.207q.192-1.336.385-2.672-1.64-.235-3.279-.466-2.067-.29-1.8-2.237Zm3.464,13.921q.309-2.143.617-4.287a3.992,3.992,0,0,0-1.731,1.031,3.172,3.172,0,0,0-.8,1.675,1.517,1.517,0,0,0,.131,1.07,1.913,1.913,0,0,0,.619.67,1.432,1.432,0,0,0,.692.255c.017.022.086.022.208,0S844.4,426.941,844.454,426.684Zm10.412-14.231q-.027-.316-.055-.634-.266-1.434,1.476-1.679a2.143,2.143,0,0,1,2.494,1.757,40.951,40.951,0,0,1,.857,5.86q.125,1.673-1.871,1.7-2-.117-2.121-1.671-.074-.5-.149-1.474a18.015,18.015,0,0,0-.523-2.784Z" fill="#d00f31"/>
            <path id="パス_613" data-name="パス 613" d="M867.337,414.006q.367-2.191,2.714-1.793t1.963,2.593l-.921,5.292q5.029.875,10.05,1.809,2.292.426,1.884,2.585a2.011,2.011,0,0,1-2.691,1.755q-5-.929-10-1.8-.8,4.6-1.6,9.2a2.323,2.323,0,0,1-4.575-.783Q865.749,423.434,867.337,414.006Z" fill="#d00f31"/>
            <path id="パス_614" data-name="パス 614" d="M898.131,420.362q2.605.535,5.208,1.087c3.5.7,4.581,2.808,3.253,6.278a19.961,19.961,0,0,1-2.78,4.822,15.086,15.086,0,0,1-4.1,3.826,19.035,19.035,0,0,1-4.445,2.031,33.3,33.3,0,0,1-4.68,1.026,2.21,2.21,0,0,1-2.776-1.7q-.187-2.242,1.8-2.567a16.812,16.812,0,0,0,2.683-.466,15.374,15.374,0,0,0,3.851-1.568,12.915,12.915,0,0,0,3.59-2.9,10.577,10.577,0,0,0,2.051-3.3q.507-1.387-1.039-1.743-2.619-.549-5.243-1.083a21.625,21.625,0,0,1-4.221,3.425q-2.029,1.2-3.356-.2c-.716-1.4-.5-2.476.66-3.224a14.318,14.318,0,0,0,2.359-1.772,17,17,0,0,0,3.01-3.9q1.033-1.944,3.4-1.034Q899.283,418.358,898.131,420.362Z" fill="#d00f31"/>
            <path id="パス_615" data-name="パス 615" d="M911.641,440.139a2.909,2.909,0,0,1,1.495-1.982,4.032,4.032,0,0,1,4.991,1.153,2.91,2.91,0,0,1,.476,2.437,2.875,2.875,0,0,1-1.508,1.972,4.119,4.119,0,0,1-4.964-1.147A2.871,2.871,0,0,1,911.641,440.139Zm2.888-6.149q.335-3.674.661-7.349.216-1.147.43-2.3a2.109,2.109,0,0,1,1.058-1.533,2.531,2.531,0,0,1,1.924-.3l1.5.347a2.524,2.524,0,0,1,1.6,1.109,2.115,2.115,0,0,1,.28,1.842l-.621,2.251q-1.319,3.447-2.628,6.895a2.066,2.066,0,0,1-1,1.081,2.222,2.222,0,0,1-2.78-.642A2.056,2.056,0,0,1,914.529,433.99Z" fill="#d00f31"/>
          </g>
        </g>
      </g>
    </g>
  </g>
</svg>
