<svg xmlns="http://www.w3.org/2000/svg" width="331.286" height="115.409" viewBox="0 0 331.286 115.409">
  <g id="グループ_257" data-name="グループ 257" transform="translate(-554.357 -5437.594)">
    <g id="グループ_255" data-name="グループ 255">
      <path id="パス_864" data-name="パス 864" d="M663.585,5529.526c0,12.828,9.276,22.909,23.922,22.909h13.524v-12.146H688.725c-7.867,0-12.207-4.663-12.207-10.763s4.34-10.766,12.207-10.766h12.306v-12.146H687.507C672.861,5506.614,663.585,5516.686,663.585,5529.526Z" fill="#d70019"/>
      <path id="パス_865" data-name="パス 865" d="M811.871,5506.049c-4.949,0-9.565,1-15.55,5.033-5.98-4.034-10.6-5.033-15.553-5.033-11.015,0-18.709,7.573-18.709,18.484v27.9h12.923V5525.18c0-4.659,2.848-6.993,7.513-6.993,4.929,0,7.372,2.465,7.372,6.411v27.837h12.914V5524.6c0-3.946,2.435-6.411,7.369-6.411,4.665,0,7.508,2.334,7.508,6.993v27.255h12.93v-27.9C830.588,5513.622,822.892,5506.049,811.871,5506.049Z" fill="#d70019"/>
      <path id="パス_866" data-name="パス 866" d="M861.633,5506.049c-15.36,0-24.042,11.973-24.042,23.488,0,11.476,8.682,23.466,24.042,23.466,15.326,0,24.01-11.99,24.01-23.466C885.643,5518.022,876.959,5506.049,861.633,5506.049Zm-.021,34.805c-7.2,0-11.094-5.61-11.094-11.328s3.9-11.339,11.094-11.339,11.1,5.615,11.1,11.339S868.815,5540.854,861.612,5540.854Z" fill="#d70019"/>
      <path id="パス_867" data-name="パス 867" d="M589.308,5485.9v23.036a22.013,22.013,0,0,0-11.2-2.887c-15.506,0-23.748,12.069-23.748,23.488,0,11.376,8.242,23.465,23.748,23.465,11.653,0,16.006-5.633,24.13-9.359V5485.9Zm-22.017,43.625c0-5.723,3.9-11.339,11.093-11.339s10.966,5.379,11.093,11.043v.59c-.127,5.664-3.893,11.034-11.093,11.034S567.291,5535.244,567.291,5529.526Z" fill="#d70019"/>
      <path id="パス_868" data-name="パス 868" d="M640.592,5485.906l-.021,3.127h-4.54l.014,11.381h-3.356v-11.381H628.15v-3.127Z" fill="#d70019"/>
      <path id="パス_869" data-name="パス 869" d="M655.505,5485.906v3.127h-4.548v11.381H647.6v-11.381H643.06v-3.127Z" fill="#d70019"/>
      <path id="パス_870" data-name="パス 870" d="M615.494,5485.9l6.6,9.307v-9.3H625.3v14.5h-3.52l-6.564-9.281v9.281H612V5485.9Z" fill="#d70019"/>
      <path id="パス_871" data-name="パス 871" d="M633.563,5506.049c-15.357,0-24.039,11.973-24.039,23.488,0,11.476,8.682,23.466,24.039,23.466,15.326,0,24.011-11.99,24.011-23.466C657.574,5518.022,648.889,5506.049,633.563,5506.049Zm-.017,34.805c-7.2,0-11.094-5.61-11.094-11.328s3.9-11.339,11.094-11.339,11.1,5.615,11.1,11.339S640.745,5540.854,633.546,5540.854Z" fill="#d70019"/>
      <path id="パス_872" data-name="パス 872" d="M731.036,5506.049c-15.35,0-24.037,11.973-24.037,23.488,0,11.476,8.687,23.466,24.037,23.466s24.022-11.99,24.022-23.466C755.058,5518.022,746.373,5506.049,731.036,5506.049Zm-.01,34.805c-7.2,0-11.1-5.61-11.1-11.328s3.9-11.339,11.1-11.339,11.1,5.615,11.1,11.339S738.229,5540.854,731.026,5540.854Z" fill="#d70019"/>
    </g>
    <g id="グループ_256" data-name="グループ 256">
      <path id="パス_873" data-name="パス 873" d="M571.87,5444.165a5.7,5.7,0,0,0-.275.668c-.231.646-.255.669-.324.877a6.222,6.222,0,0,1,2.4,1.129,5.145,5.145,0,0,1,2.19,4.358c0,2.513-1.361,4.472-3.966,5.764a12.828,12.828,0,0,1-4.7,1.221,7.442,7.442,0,0,0-1.223-2.6,9.552,9.552,0,0,0,4.4-.922c1.844-.876,2.7-2.006,2.7-3.6a3.381,3.381,0,0,0-2.582-3.182,20.382,20.382,0,0,1-4.012,6.133c-2.075,2.19-4.127,3.319-6.04,3.319-2.145,0-3.6-1.636-3.6-4.034a7.24,7.24,0,0,1,2.282-5.164,9.514,9.514,0,0,1,3.159-2.076c0-.738.046-1.66.091-2.766-.253,0-1.5-.023-3.734-.092H558.2c-.07,0-.277,0-.53.022v-2.582a20.362,20.362,0,0,0,4.311.346h.507c.024-.461.024-.461.093-1.383.022-.3.046-.876.046-1.314a1.3,1.3,0,0,0-.046-.369l2.858.138a13.639,13.639,0,0,0-.415,2.836,41.736,41.736,0,0,0,8.738-1.222l.115,2.652c-.322.023-.415.023-.9.092a73.75,73.75,0,0,1-8.114.806c-.071.992-.093,1.73-.116,2.214a12.739,12.739,0,0,1,3.181-.3,6.487,6.487,0,0,1,.876.046,8.54,8.54,0,0,0,.461-1.752Zm-11.412,6.109a4.573,4.573,0,0,0-1.038,2.814c0,1.037.508,1.683,1.315,1.683a3.175,3.175,0,0,0,2.006-.877,25.332,25.332,0,0,1-.415-5.21A6.866,6.866,0,0,0,560.458,5450.274Zm4.519,1.914a2.092,2.092,0,0,1,.254-.323,17.51,17.51,0,0,0,2.858-4.611,5.422,5.422,0,0,0-.6-.023,8.475,8.475,0,0,0-2.767.415,38.682,38.682,0,0,0,.162,3.966,1.222,1.222,0,0,1,.023.3.955.955,0,0,0,.023.254Z" fill="#d70019"/>
      <path id="パス_874" data-name="パス 874" d="M592.495,5438.147a11.66,11.66,0,0,0-.369,1.545c-.115.554-.231,1.014-.484,2.029a19.81,19.81,0,0,0,3.688-.645l.069,2.651a4.518,4.518,0,0,0-.737.115c-.83.138-2.236.3-3.666.415a44.306,44.306,0,0,1-2.536,6.686c-.53,1.13-.738,1.545-1.615,3.159-.3.553-.3.553-.437.83l-2.651-1.476a20.91,20.91,0,0,0,2.236-3.689,35.536,35.536,0,0,0,2.168-5.441c-1.038.024-1.176.024-1.453.024-.3,0-.438,0-.923-.024l-1.221-.023v-2.628a15.959,15.959,0,0,0,3.113.207c.276,0,.668,0,1.174-.023a23.422,23.422,0,0,0,.692-4.012Zm10.444,18.675a13.973,13.973,0,0,0-3.528-2.859c.024.208.046.369.046.462a3.689,3.689,0,0,1-.991,2.444,5.321,5.321,0,0,1-3.828,1.291c-3.042,0-5.026-1.522-5.026-3.874,0-2.329,2.053-3.965,4.981-3.965a11.51,11.51,0,0,1,2.144.207c-.069-1.06-.115-1.959-.115-2.651a12.267,12.267,0,0,1,.184-2.329l2.675.139a7.7,7.7,0,0,0-.277,2.328,24.728,24.728,0,0,0,.207,3.159,14.434,14.434,0,0,1,3.643,2.121,8.693,8.693,0,0,1,.808.623,3.994,3.994,0,0,0,.346.322Zm-8.185-4.219c-1.5,0-2.466.622-2.466,1.591,0,.945.83,1.5,2.259,1.5,1.567,0,2.328-.646,2.328-1.937,0-.23-.045-.784-.045-.784A5.8,5.8,0,0,0,594.754,5452.6Zm8.3-6.386a28.26,28.26,0,0,0-6.639-3.228l1.383-2.236a36.406,36.406,0,0,1,6.5,3.089Z" fill="#d70019"/>
      <path id="パス_875" data-name="パス 875" d="M612.773,5441.652a18.363,18.363,0,0,0,3.089.207c.277,0,.53,0,1.06-.022a27.938,27.938,0,0,0,.439-3.528,3,3,0,0,0-.024-.415l3.044.276a12.955,12.955,0,0,0-.437,2.214c-.116.645-.14.784-.231,1.314a19.129,19.129,0,0,0,3.941-.692l.116,2.652c-.185.023-.185.023-.737.115a31.32,31.32,0,0,1-3.781.484c-.254,1.43-.83,3.874-1.43,5.972a78.255,78.255,0,0,1-2.582,7.631l-2.9-1.13a49.258,49.258,0,0,0,4.127-12.4,1.887,1.887,0,0,1-.3.024h-1.338c-.115,0-.346,0-.739-.024-.415-.023-.737-.023-.921-.023a3.478,3.478,0,0,0-.439.023Zm11.436,8.945a3.823,3.823,0,0,0-1.2,2.536c0,1.176,1.152,1.775,3.458,1.775a17.662,17.662,0,0,0,5.234-.852l.207,2.836c-.415.046-.6.069-1.13.161a26.9,26.9,0,0,1-4.287.369,9.357,9.357,0,0,1-4.635-.923,3.331,3.331,0,0,1-1.638-2.835c0-1.222.439-2.259,1.707-3.989Zm6.847-3.02a24.025,24.025,0,0,0-2.905-.161,24.884,24.884,0,0,0-6.086.668l-.208-2.536a29.6,29.6,0,0,1,6.87-.738c.623,0,.83,0,2.283.023Z" fill="#d70019"/>
      <path id="パス_876" data-name="パス 876" d="M646.422,5438.009a38.752,38.752,0,0,0,1.522,7.216c1.5-.553,1.5-.553,5.971-2.028a6.406,6.406,0,0,0,.877-.346l.991,2.9a56.33,56.33,0,0,0-7.608,2.213c-3.366,1.245-5.05,2.721-5.05,4.381,0,1.683,1.568,2.4,5.281,2.4a25.239,25.239,0,0,0,7.446-.945l.253,3.159a14.381,14.381,0,0,0-1.866.161,48.66,48.66,0,0,1-5.4.346c-3.2,0-5.21-.392-6.686-1.268a4.362,4.362,0,0,1-2.006-3.85,5.408,5.408,0,0,1,2.053-4.127,14.16,14.16,0,0,1,3.135-1.983,58.328,58.328,0,0,1-1.544-6.248,9.8,9.8,0,0,0-.37-1.5Z" fill="#d70019"/>
      <path id="パス_877" data-name="パス 877" d="M667.368,5440.569a26.2,26.2,0,0,0-.137-2.767h2.858a18.036,18.036,0,0,0-.161,2.767v2.259h3.735v-2.537a16.751,16.751,0,0,0-.162-2.513h2.767a21.324,21.324,0,0,0-.138,2.49v2.56H680v-2.582a18.953,18.953,0,0,0-.138-2.468h2.813a16.371,16.371,0,0,0-.162,2.49v2.56h.808a19.023,19.023,0,0,0,2.536-.139v2.583a19.585,19.585,0,0,0-2.536-.139h-.808v5.072c0,.692.023,1.384.092,2.075-.622-.046-1.152-.069-1.936-.069h-5.1c-.783,0-1.291.023-2.006.069a15.1,15.1,0,0,0,.093-1.959v-5.188h-3.735v10.237H681.94a26.062,26.062,0,0,0,2.9-.139v2.675a27.975,27.975,0,0,0-2.9-.139H669.928v1.223h-2.7c.092-.969.137-1.937.137-3.274v-10.583h-.461a19.332,19.332,0,0,0-2.535.139v-2.583a19.482,19.482,0,0,0,2.535.139h.461Zm8.762,4.564v4.842H680v-4.842Z" fill="#d70019"/>
      <path id="パス_878" data-name="パス 878" d="M697.791,5447.808a24.216,24.216,0,0,0-2.421.092,21.878,21.878,0,0,0,.116-2.4v-4.819a22.617,22.617,0,0,0-.116-2.466,18.187,18.187,0,0,0,2.468.115H710.2a18.963,18.963,0,0,0,2.49-.115,17.174,17.174,0,0,0-.116,2.466v4.819a16.318,16.318,0,0,0,.116,2.4c-.737-.069-1.452-.092-2.468-.092h-2.028a14.934,14.934,0,0,0,6.755,3.435,10.447,10.447,0,0,0-1.221,2.49,21.65,21.65,0,0,1-5.026-2.536v5.118a16.529,16.529,0,0,0,.138,2.536h-2.79a19.135,19.135,0,0,0,.138-2.559V5452a12.032,12.032,0,0,0-.115-1.822h1.338a13,13,0,0,1-2.283-2.374h-2.4a11.787,11.787,0,0,1-2.143,2.374h1.728a7.82,7.82,0,0,0-.091,1.061c-.162,4.289-1.891,6.317-6.571,7.816a9.73,9.73,0,0,0-1.545-2.121,9.623,9.623,0,0,0,4.219-1.914,4.717,4.717,0,0,0,1.407-3.827c0-.046-.024-.162-.024-.3a18.08,18.08,0,0,1-5.3,2.836,9.366,9.366,0,0,0-1.29-2.352,13.3,13.3,0,0,0,6.547-3.573Zm.162-5.626h4.771v-1.752h-4.771Zm0,3.689h4.771v-1.729h-4.771Zm7.147-3.689h4.98v-1.752H705.1Zm0,3.689h4.98v-1.729H705.1Z" fill="#d70019"/>
      <path id="パス_879" data-name="パス 879" d="M723.257,5440.384a27.908,27.908,0,0,0,5.348.3,9.15,9.15,0,0,0,.923-2.858l3.02.322a17.842,17.842,0,0,0-.922,2.076c-.115.253-.161.322-.208.414.184-.023.184-.023,1.453-.092a31.135,31.135,0,0,0,6.04-.784l.162,2.628c-.646.047-.646.047-1.821.185-1.684.208-4.611.392-6.941.461a11.9,11.9,0,0,1-2.121,3.067l.024.046c.16-.115.16-.115.461-.346a5.57,5.57,0,0,1,3.251-1.037,3.033,3.033,0,0,1,3.3,2.444q2.664-.969,3.528-1.246a7.265,7.265,0,0,0,1.706-.691l1.084,2.651a20.486,20.486,0,0,0-2.56.623q-.483.138-3.457,1.176v.253c.022.6.022.6.022.922v.923c-.022.391-.022.6-.022.761a9.293,9.293,0,0,0,.069,1.221l-2.676.069a18.094,18.094,0,0,0,.14-2.674v-.553a13.934,13.934,0,0,0-2.214,1.2,2.426,2.426,0,0,0-1.2,1.89c0,1.2,1.107,1.683,3.9,1.683a20.059,20.059,0,0,0,6.779-.968l.231,2.974a6.766,6.766,0,0,0-1.061.092,41.924,41.924,0,0,1-5.9.415c-2.445,0-3.965-.277-5.141-.968a3.343,3.343,0,0,1-1.684-2.975,3.678,3.678,0,0,1,1.014-2.559c1.038-1.291,2.352-2.167,4.957-3.251a1.265,1.265,0,0,0-1.407-1.245c-1.336,0-2.951.808-4.726,2.376a10.361,10.361,0,0,0-2.006,2.1l-2.1-2.076a14.141,14.141,0,0,0,2.075-2.052,30.624,30.624,0,0,0,2.767-3.942,1.063,1.063,0,0,1,.184-.3c-.093,0-.393.023-.393.023-.368,0-2.4-.046-2.9-.046-.438-.023-.438-.023-.646-.023a2.513,2.513,0,0,0-.369.023Z" fill="#d70019"/>
      <path id="パス_880" data-name="パス 880" d="M767.466,5451.151c-.346.3-.346.3-1.384,1.337a27.122,27.122,0,0,1-2.927,2.49,24.173,24.173,0,0,0,8.161,1.36,9.045,9.045,0,0,0-1.267,2.6,32.217,32.217,0,0,1-5.742-1.176,19.161,19.161,0,0,1-3.573-1.36c-2.929,1.384-5.3,1.96-9.823,2.421a7.976,7.976,0,0,0-1.244-2.421,23.216,23.216,0,0,0,8.622-1.429,14.012,14.012,0,0,1-2.4-2.006,16.2,16.2,0,0,1-3.528,1.729,8.446,8.446,0,0,0-1.406-2.028,15.323,15.323,0,0,0,4.888-2.491,9.268,9.268,0,0,0,2.4-2.536l2.282.945a3.557,3.557,0,0,1-.391.462,3,3,0,0,0-.3.346c-.046.069-.115.161-.208.276h4.358a9.255,9.255,0,0,0,2.006-.138Zm-11.343-7.954a13.678,13.678,0,0,1-1.846,2.951,15.105,15.105,0,0,1-2.166,2.259c-.23-.184-.392-.323-.484-.415-.6-.484-.6-.484-.9-.715l-.391-.277a2.34,2.34,0,0,1-.255-.184,13.414,13.414,0,0,0,2.006-1.775,8.95,8.95,0,0,0,1.8-2.882Zm-3.228-1.43a19.141,19.141,0,0,0-2.559.115v-2.467a19.546,19.546,0,0,0,2.721.139h6.086v-.461a7.279,7.279,0,0,0-.115-1.5h2.882a7.047,7.047,0,0,0-.115,1.476v.484H767.9a21.93,21.93,0,0,0,2.79-.139v2.467c-.761-.069-1.614-.115-2.722-.115h-3.641v4.681c0,1.291-.531,1.728-2.145,1.728-.737,0-1.361-.022-1.821-.045a4.83,4.83,0,0,0-.716-2.26,10.372,10.372,0,0,0,1.753.162c.439,0,.53-.093.53-.439v-3.827h-2.143a9.27,9.27,0,0,1-.923,4.4,7.547,7.547,0,0,1-3.02,2.929,7.736,7.736,0,0,0-2.052-1.545c1.8-.922,2.467-1.521,2.975-2.582a7.25,7.25,0,0,0,.621-3.205Zm4.772,9.914a13.253,13.253,0,0,0,3,2.168,14.48,14.48,0,0,0,2.905-2.168Zm8.945-9.292a38.11,38.11,0,0,1,4.151,4.427l-2.167,1.637a21.287,21.287,0,0,0-3.874-4.795Z" fill="#d70019"/>
      <path id="パス_881" data-name="パス 881" d="M780.6,5444.072a9.581,9.581,0,0,0,1.36.07,79.11,79.11,0,0,0,8.186-.508,5.728,5.728,0,0,0,1.844-.368l1.544,1.982a15.183,15.183,0,0,0-1.959,1.73c-1.245,1.2-3.229,2.974-3.943,3.527a3.555,3.555,0,0,1,1.406-.276,2.076,2.076,0,0,1,1.914.968,3.759,3.759,0,0,1,.507,2.121c.162,1.821.462,2.144,1.982,2.144a12.231,12.231,0,0,0,4.542-.876l.346,2.859c-.391.023-.53.046-2.028.277a20.305,20.305,0,0,1-3.228.276c-1.638,0-2.559-.253-3.229-.876-.644-.6-.829-1.153-.945-2.974a3.739,3.739,0,0,0-.229-1.475,1.066,1.066,0,0,0-.969-.485c-1.083,0-2.121.646-3.988,2.444-1.176,1.13-2.421,2.467-3.251,3.436l-2.121-2.4c1.014-.691,1.014-.691,5.348-4.61.53-.484.945-.877,2.675-2.537q.933-.9,2.7-2.559c-1.314.207-1.913.3-3,.392-.322.023-.322.023-2.328.185-.437.045-.437.045-1.2.115-.854.069-1.016.092-1.775.184Zm2.858-5.971a33.094,33.094,0,0,0,9.177,1.292l-.439,2.581a42.706,42.706,0,0,1-9.568-1.36Z" fill="#d70019"/>
      <path id="パス_882" data-name="パス 882" d="M804.172,5440.937c.507.023.761.023.877.023.415,0,.415,0,3.8-.23,1.291-.069,5.119-.277,11.505-.577a13.015,13.015,0,0,0,2.652-.23l.161,2.951a3.59,3.59,0,0,0-.484-.023,10.3,10.3,0,0,0-4.565,1.245c-2.928,1.522-4.658,3.827-4.658,6.156a3.872,3.872,0,0,0,3.067,3.758,13.964,13.964,0,0,0,3.435.6c.024,0,.23,0,.461-.023l-.415,3.136a4.816,4.816,0,0,0-.783-.139,13.879,13.879,0,0,1-5.4-1.521,6.17,6.17,0,0,1-3.3-5.557,8.126,8.126,0,0,1,2.19-5.441,10.176,10.176,0,0,1,3.2-2.305c-1.868.276-2.766.345-7.77.714a33.391,33.391,0,0,0-3.826.462Z" fill="#d70019"/>
      <path id="パス_883" data-name="パス 883" d="M835.47,5440.015a26.874,26.874,0,0,0-.184,3.5,42.931,42.931,0,0,0,.439,6.178c.391,2.4,1.129,3.873,1.866,3.873.346,0,.67-.346.945-.99a16.917,16.917,0,0,0,1.223-4.174,11.409,11.409,0,0,0,2.305,2.1c-1.2,4.5-2.536,6.364-4.5,6.364-1.545,0-2.79-1.13-3.712-3.343-.946-2.306-1.361-5.649-1.453-12.035a11.04,11.04,0,0,0-.092-1.476Zm10.906,1.037a22.992,22.992,0,0,1,5.187,12.4l-2.858,1.084a23.433,23.433,0,0,0-1.476-6.663,20.111,20.111,0,0,0-3.274-5.672Z" fill="#d70019"/>
      <path id="パス_884" data-name="パス 884" d="M871.335,5439.853a35.5,35.5,0,0,0-2.836,2.536c-1.176,1.084-2.789,2.376-5.487,4.427-.715.53-.876.715-.876.969,0,.346.046.391,2.074,1.913a77.456,77.456,0,0,1,7.264,6.018,5.659,5.659,0,0,0,.668.576l-2.374,2.4a22.387,22.387,0,0,0-3-3.158,73.075,73.075,0,0,0-5.948-4.912c-1.522-1.176-1.937-1.8-1.937-2.859a2.7,2.7,0,0,1,.761-1.867,14.053,14.053,0,0,1,2.028-1.66,51.357,51.357,0,0,0,5.327-4.5,11.382,11.382,0,0,0,1.682-1.913Z" fill="#d70019"/>
      <path id="パス_885" data-name="パス 885" d="M885.643,5454.863a3.9,3.9,0,1,1-3.9-3.9A3.911,3.911,0,0,1,885.643,5454.863Zm-5.995,0a2.1,2.1,0,1,0,2.1-2.1A2.112,2.112,0,0,0,879.648,5454.863Z" fill="#d70019"/>
    </g>
  </g>
</svg>
